<svg width="32" height="32" viewBox="0 0 32 32" fill="none" xmlns="http://www.w3.org/2000/svg">
<path d="M23.5096 5.63236C24.0096 7.67236 24.0696 9.89236 23.5296 12.1924C22.2696 17.5224 17.8896 21.7024 12.5096 22.6724C9.59956 23.2024 6.82956 22.8024 4.41956 21.7524C3.85956 21.5024 3.32956 22.1424 3.61956 22.6824C6.26956 27.5624 11.7296 30.6824 17.8396 29.8724C24.0696 29.0424 29.0596 23.9624 29.8096 17.7224C30.4096 12.5424 28.2096 7.86236 24.5296 4.97236C24.0596 4.61236 23.3696 5.05236 23.5096 5.63236Z" fill="url(#paint0_linear_40_3977)"/>
<path d="M23.5096 5.63236C24.0096 7.67236 24.0696 9.89236 23.5296 12.1924C22.2696 17.5224 17.8896 21.7024 12.5096 22.6724C9.59956 23.2024 6.82956 22.8024 4.41956 21.7524C3.85956 21.5024 3.32956 22.1424 3.61956 22.6824C6.26956 27.5624 11.7296 30.6824 17.8396 29.8724C24.0696 29.0424 29.0596 23.9624 29.8096 17.7224C30.4096 12.5424 28.2096 7.86236 24.5296 4.97236C24.0596 4.61236 23.3696 5.05236 23.5096 5.63236Z" fill="url(#paint1_radial_40_3977)"/>
<path d="M23.5096 5.63236C24.0096 7.67236 24.0696 9.89236 23.5296 12.1924C22.2696 17.5224 17.8896 21.7024 12.5096 22.6724C9.59956 23.2024 6.82956 22.8024 4.41956 21.7524C3.85956 21.5024 3.32956 22.1424 3.61956 22.6824C6.26956 27.5624 11.7296 30.6824 17.8396 29.8724C24.0696 29.0424 29.0596 23.9624 29.8096 17.7224C30.4096 12.5424 28.2096 7.86236 24.5296 4.97236C24.0596 4.61236 23.3696 5.05236 23.5096 5.63236Z" fill="url(#paint2_radial_40_3977)"/>
<path d="M23.5096 5.63236C24.0096 7.67236 24.0696 9.89236 23.5296 12.1924C22.2696 17.5224 17.8896 21.7024 12.5096 22.6724C9.59956 23.2024 6.82956 22.8024 4.41956 21.7524C3.85956 21.5024 3.32956 22.1424 3.61956 22.6824C6.26956 27.5624 11.7296 30.6824 17.8396 29.8724C24.0696 29.0424 29.0596 23.9624 29.8096 17.7224C30.4096 12.5424 28.2096 7.86236 24.5296 4.97236C24.0596 4.61236 23.3696 5.05236 23.5096 5.63236Z" fill="url(#paint3_radial_40_3977)"/>
<path d="M23.5096 5.63236C24.0096 7.67236 24.0696 9.89236 23.5296 12.1924C22.2696 17.5224 17.8896 21.7024 12.5096 22.6724C9.59956 23.2024 6.82956 22.8024 4.41956 21.7524C3.85956 21.5024 3.32956 22.1424 3.61956 22.6824C6.26956 27.5624 11.7296 30.6824 17.8396 29.8724C24.0696 29.0424 29.0596 23.9624 29.8096 17.7224C30.4096 12.5424 28.2096 7.86236 24.5296 4.97236C24.0596 4.61236 23.3696 5.05236 23.5096 5.63236Z" fill="url(#paint4_radial_40_3977)"/>
<path d="M23.5096 5.63236C24.0096 7.67236 24.0696 9.89236 23.5296 12.1924C22.2696 17.5224 17.8896 21.7024 12.5096 22.6724C9.59956 23.2024 6.82956 22.8024 4.41956 21.7524C3.85956 21.5024 3.32956 22.1424 3.61956 22.6824C6.26956 27.5624 11.7296 30.6824 17.8396 29.8724C24.0696 29.0424 29.0596 23.9624 29.8096 17.7224C30.4096 12.5424 28.2096 7.86236 24.5296 4.97236C24.0596 4.61236 23.3696 5.05236 23.5096 5.63236Z" fill="url(#paint5_radial_40_3977)"/>
<path d="M23.5096 5.63236C24.0096 7.67236 24.0696 9.89236 23.5296 12.1924C22.2696 17.5224 17.8896 21.7024 12.5096 22.6724C9.59956 23.2024 6.82956 22.8024 4.41956 21.7524C3.85956 21.5024 3.32956 22.1424 3.61956 22.6824C6.26956 27.5624 11.7296 30.6824 17.8396 29.8724C24.0696 29.0424 29.0596 23.9624 29.8096 17.7224C30.4096 12.5424 28.2096 7.86236 24.5296 4.97236C24.0596 4.61236 23.3696 5.05236 23.5096 5.63236Z" fill="url(#paint6_radial_40_3977)"/>
<path d="M23.5096 5.63236C24.0096 7.67236 24.0696 9.89236 23.5296 12.1924C22.2696 17.5224 17.8896 21.7024 12.5096 22.6724C9.59956 23.2024 6.82956 22.8024 4.41956 21.7524C3.85956 21.5024 3.32956 22.1424 3.61956 22.6824C6.26956 27.5624 11.7296 30.6824 17.8396 29.8724C24.0696 29.0424 29.0596 23.9624 29.8096 17.7224C30.4096 12.5424 28.2096 7.86236 24.5296 4.97236C24.0596 4.61236 23.3696 5.05236 23.5096 5.63236Z" fill="url(#paint7_radial_40_3977)"/>
<path d="M23.5096 5.63236C24.0096 7.67236 24.0696 9.89236 23.5296 12.1924C22.2696 17.5224 17.8896 21.7024 12.5096 22.6724C9.59956 23.2024 6.82956 22.8024 4.41956 21.7524C3.85956 21.5024 3.32956 22.1424 3.61956 22.6824C6.26956 27.5624 11.7296 30.6824 17.8396 29.8724C24.0696 29.0424 29.0596 23.9624 29.8096 17.7224C30.4096 12.5424 28.2096 7.86236 24.5296 4.97236C24.0596 4.61236 23.3696 5.05236 23.5096 5.63236Z" fill="url(#paint8_radial_40_3977)"/>
<path d="M23.5096 5.63236C24.0096 7.67236 24.0696 9.89236 23.5296 12.1924C22.2696 17.5224 17.8896 21.7024 12.5096 22.6724C9.59956 23.2024 6.82956 22.8024 4.41956 21.7524C3.85956 21.5024 3.32956 22.1424 3.61956 22.6824C6.26956 27.5624 11.7296 30.6824 17.8396 29.8724C24.0696 29.0424 29.0596 23.9624 29.8096 17.7224C30.4096 12.5424 28.2096 7.86236 24.5296 4.97236C24.0596 4.61236 23.3696 5.05236 23.5096 5.63236Z" fill="url(#paint9_radial_40_3977)"/>
<path d="M23.5096 5.63236C24.0096 7.67236 24.0696 9.89236 23.5296 12.1924C22.2696 17.5224 17.8896 21.7024 12.5096 22.6724C9.59956 23.2024 6.82956 22.8024 4.41956 21.7524C3.85956 21.5024 3.32956 22.1424 3.61956 22.6824C6.26956 27.5624 11.7296 30.6824 17.8396 29.8724C24.0696 29.0424 29.0596 23.9624 29.8096 17.7224C30.4096 12.5424 28.2096 7.86236 24.5296 4.97236C24.0596 4.61236 23.3696 5.05236 23.5096 5.63236Z" fill="url(#paint10_radial_40_3977)"/>
<path d="M23.5096 5.63236C24.0096 7.67236 24.0696 9.89236 23.5296 12.1924C22.2696 17.5224 17.8896 21.7024 12.5096 22.6724C9.59956 23.2024 6.82956 22.8024 4.41956 21.7524C3.85956 21.5024 3.32956 22.1424 3.61956 22.6824C6.26956 27.5624 11.7296 30.6824 17.8396 29.8724C24.0696 29.0424 29.0596 23.9624 29.8096 17.7224C30.4096 12.5424 28.2096 7.86236 24.5296 4.97236C24.0596 4.61236 23.3696 5.05236 23.5096 5.63236Z" fill="url(#paint11_radial_40_3977)"/>
<path d="M23.5096 5.63236C24.0096 7.67236 24.0696 9.89236 23.5296 12.1924C22.2696 17.5224 17.8896 21.7024 12.5096 22.6724C9.59956 23.2024 6.82956 22.8024 4.41956 21.7524C3.85956 21.5024 3.32956 22.1424 3.61956 22.6824C6.26956 27.5624 11.7296 30.6824 17.8396 29.8724C24.0696 29.0424 29.0596 23.9624 29.8096 17.7224C30.4096 12.5424 28.2096 7.86236 24.5296 4.97236C24.0596 4.61236 23.3696 5.05236 23.5096 5.63236Z" fill="url(#paint12_radial_40_3977)"/>
<path d="M23.5096 5.63236C24.0096 7.67236 24.0696 9.89236 23.5296 12.1924C22.2696 17.5224 17.8896 21.7024 12.5096 22.6724C9.59956 23.2024 6.82956 22.8024 4.41956 21.7524C3.85956 21.5024 3.32956 22.1424 3.61956 22.6824C6.26956 27.5624 11.7296 30.6824 17.8396 29.8724C24.0696 29.0424 29.0596 23.9624 29.8096 17.7224C30.4096 12.5424 28.2096 7.86236 24.5296 4.97236C24.0596 4.61236 23.3696 5.05236 23.5096 5.63236Z" fill="url(#paint13_radial_40_3977)"/>
<path d="M23.5096 5.63236C24.0096 7.67236 24.0696 9.89236 23.5296 12.1924C22.2696 17.5224 17.8896 21.7024 12.5096 22.6724C9.59956 23.2024 6.82956 22.8024 4.41956 21.7524C3.85956 21.5024 3.32956 22.1424 3.61956 22.6824C6.26956 27.5624 11.7296 30.6824 17.8396 29.8724C24.0696 29.0424 29.0596 23.9624 29.8096 17.7224C30.4096 12.5424 28.2096 7.86236 24.5296 4.97236C24.0596 4.61236 23.3696 5.05236 23.5096 5.63236Z" fill="url(#paint14_radial_40_3977)"/>
<path d="M13.4794 27.0123C14.3465 27.0123 15.0494 26.3094 15.0494 25.4423C15.0494 24.5752 14.3465 23.8723 13.4794 23.8723C12.6123 23.8723 11.9094 24.5752 11.9094 25.4423C11.9094 26.3094 12.6123 27.0123 13.4794 27.0123Z" fill="url(#paint15_radial_40_3977)"/>
<path d="M13.4794 27.0123C14.3465 27.0123 15.0494 26.3094 15.0494 25.4423C15.0494 24.5752 14.3465 23.8723 13.4794 23.8723C12.6123 23.8723 11.9094 24.5752 11.9094 25.4423C11.9094 26.3094 12.6123 27.0123 13.4794 27.0123Z" fill="url(#paint16_radial_40_3977)"/>
<path d="M13.4794 27.0123C14.3465 27.0123 15.0494 26.3094 15.0494 25.4423C15.0494 24.5752 14.3465 23.8723 13.4794 23.8723C12.6123 23.8723 11.9094 24.5752 11.9094 25.4423C11.9094 26.3094 12.6123 27.0123 13.4794 27.0123Z" fill="url(#paint17_radial_40_3977)"/>
<path d="M26.3996 14.1323C27.2667 14.1323 27.9696 13.4294 27.9696 12.5623C27.9696 11.6952 27.2667 10.9923 26.3996 10.9923C25.5325 10.9923 24.8296 11.6952 24.8296 12.5623C24.8296 13.4294 25.5325 14.1323 26.3996 14.1323Z" fill="url(#paint18_radial_40_3977)"/>
<path d="M26.3996 14.1323C27.2667 14.1323 27.9696 13.4294 27.9696 12.5623C27.9696 11.6952 27.2667 10.9923 26.3996 10.9923C25.5325 10.9923 24.8296 11.6952 24.8296 12.5623C24.8296 13.4294 25.5325 14.1323 26.3996 14.1323Z" fill="url(#paint19_radial_40_3977)"/>
<path d="M26.3996 14.1323C27.2667 14.1323 27.9696 13.4294 27.9696 12.5623C27.9696 11.6952 27.2667 10.9923 26.3996 10.9923C25.5325 10.9923 24.8296 11.6952 24.8296 12.5623C24.8296 13.4294 25.5325 14.1323 26.3996 14.1323Z" fill="url(#paint20_radial_40_3977)"/>
<path d="M26.8994 18.9723C27.4462 18.9723 27.8894 18.5291 27.8894 17.9823C27.8894 17.4355 27.4462 16.9923 26.8994 16.9923C26.3527 16.9923 25.9094 17.4355 25.9094 17.9823C25.9094 18.5291 26.3527 18.9723 26.8994 18.9723Z" stroke="url(#paint21_linear_40_3977)" stroke-width="0.2"/>
<path d="M26.8994 18.9723C27.4462 18.9723 27.8894 18.5291 27.8894 17.9823C27.8894 17.4355 27.4462 16.9923 26.8994 16.9923C26.3527 16.9923 25.9094 17.4355 25.9094 17.9823C25.9094 18.5291 26.3527 18.9723 26.8994 18.9723Z" fill="url(#paint22_radial_40_3977)"/>
<path d="M21.8994 24.9823C23.5563 24.9823 24.8994 23.6392 24.8994 21.9823C24.8994 20.3254 23.5563 18.9823 21.8994 18.9823C20.2426 18.9823 18.8994 20.3254 18.8994 21.9823C18.8994 23.6392 20.2426 24.9823 21.8994 24.9823Z" fill="url(#paint23_radial_40_3977)"/>
<path d="M21.8994 24.9823C23.5563 24.9823 24.8994 23.6392 24.8994 21.9823C24.8994 20.3254 23.5563 18.9823 21.8994 18.9823C20.2426 18.9823 18.8994 20.3254 18.8994 21.9823C18.8994 23.6392 20.2426 24.9823 21.8994 24.9823Z" fill="url(#paint24_radial_40_3977)"/>
<path d="M21.8994 24.9823C23.5563 24.9823 24.8994 23.6392 24.8994 21.9823C24.8994 20.3254 23.5563 18.9823 21.8994 18.9823C20.2426 18.9823 18.8994 20.3254 18.8994 21.9823C18.8994 23.6392 20.2426 24.9823 21.8994 24.9823Z" fill="url(#paint25_radial_40_3977)"/>
<g clip-path="url(#clip0_40_3977)">
<path d="M15.6959 6.34128L15.8967 6.76236C15.9278 6.82488 15.9845 6.86885 16.0503 6.87862L16.4994 6.94212C16.7308 6.97632 16.8181 7.22476 16.6386 7.40563L16.3239 7.73034C16.2727 7.78114 16.2489 7.85636 16.2617 7.92964L16.3324 8.39114C16.3727 8.6305 16.1711 8.80031 15.9671 8.69089L15.5537 8.47108C15.4961 8.44079 15.4284 8.44079 15.3708 8.47108L14.9574 8.69089C14.7535 8.79934 14.5394 8.63467 14.5993 8.38545L14.669 7.93399C14.6818 7.86072 14.6581 7.78549 14.6068 7.73469L14.2859 7.39851C14.1051 7.21978 14.1938 6.97632 14.4252 6.94212L14.8578 6.87862C14.9236 6.86885 14.9992 6.82586 15.0293 6.76236L15.2342 6.34128C15.3385 6.12928 15.5925 6.12928 15.6959 6.34128Z" fill="url(#paint26_radial_40_3977)"/>
<path d="M15.6959 6.34128L15.8967 6.76236C15.9278 6.82488 15.9845 6.86885 16.0503 6.87862L16.4994 6.94212C16.7308 6.97632 16.8181 7.22476 16.6386 7.40563L16.3239 7.73034C16.2727 7.78114 16.2489 7.85636 16.2617 7.92964L16.3324 8.39114C16.3727 8.6305 16.1711 8.80031 15.9671 8.69089L15.5537 8.47108C15.4961 8.44079 15.4284 8.44079 15.3708 8.47108L14.9574 8.69089C14.7535 8.79934 14.5394 8.63467 14.5993 8.38545L14.669 7.93399C14.6818 7.86072 14.6581 7.78549 14.6068 7.73469L14.2859 7.39851C14.1051 7.21978 14.1938 6.97632 14.4252 6.94212L14.8578 6.87862C14.9236 6.86885 14.9992 6.82586 15.0293 6.76236L15.2342 6.34128C15.3385 6.12928 15.5925 6.12928 15.6959 6.34128Z" fill="url(#paint27_radial_40_3977)"/>
<path d="M15.6959 6.34128L15.8967 6.76236C15.9278 6.82488 15.9845 6.86885 16.0503 6.87862L16.4994 6.94212C16.7308 6.97632 16.8181 7.22476 16.6386 7.40563L16.3239 7.73034C16.2727 7.78114 16.2489 7.85636 16.2617 7.92964L16.3324 8.39114C16.3727 8.6305 16.1711 8.80031 15.9671 8.69089L15.5537 8.47108C15.4961 8.44079 15.4284 8.44079 15.3708 8.47108L14.9574 8.69089C14.7535 8.79934 14.5394 8.63467 14.5993 8.38545L14.669 7.93399C14.6818 7.86072 14.6581 7.78549 14.6068 7.73469L14.2859 7.39851C14.1051 7.21978 14.1938 6.97632 14.4252 6.94212L14.8578 6.87862C14.9236 6.86885 14.9992 6.82586 15.0293 6.76236L15.2342 6.34128C15.3385 6.12928 15.5925 6.12928 15.6959 6.34128Z" fill="url(#paint28_radial_40_3977)"/>
<path d="M15.6959 6.34128L15.8967 6.76236C15.9278 6.82488 15.9845 6.86885 16.0503 6.87862L16.4994 6.94212C16.7308 6.97632 16.8181 7.22476 16.6386 7.40563L16.3239 7.73034C16.2727 7.78114 16.2489 7.85636 16.2617 7.92964L16.3324 8.39114C16.3727 8.6305 16.1711 8.80031 15.9671 8.69089L15.5537 8.47108C15.4961 8.44079 15.4284 8.44079 15.3708 8.47108L14.9574 8.69089C14.7535 8.79934 14.5394 8.63467 14.5993 8.38545L14.669 7.93399C14.6818 7.86072 14.6581 7.78549 14.6068 7.73469L14.2859 7.39851C14.1051 7.21978 14.1938 6.97632 14.4252 6.94212L14.8578 6.87862C14.9236 6.86885 14.9992 6.82586 15.0293 6.76236L15.2342 6.34128C15.3385 6.12928 15.5925 6.12928 15.6959 6.34128Z" fill="url(#paint29_radial_40_3977)"/>
<path d="M15.6959 6.34128L15.8967 6.76236C15.9278 6.82488 15.9845 6.86885 16.0503 6.87862L16.4994 6.94212C16.7308 6.97632 16.8181 7.22476 16.6386 7.40563L16.3239 7.73034C16.2727 7.78114 16.2489 7.85636 16.2617 7.92964L16.3324 8.39114C16.3727 8.6305 16.1711 8.80031 15.9671 8.69089L15.5537 8.47108C15.4961 8.44079 15.4284 8.44079 15.3708 8.47108L14.9574 8.69089C14.7535 8.79934 14.5394 8.63467 14.5993 8.38545L14.669 7.93399C14.6818 7.86072 14.6581 7.78549 14.6068 7.73469L14.2859 7.39851C14.1051 7.21978 14.1938 6.97632 14.4252 6.94212L14.8578 6.87862C14.9236 6.86885 14.9992 6.82586 15.0293 6.76236L15.2342 6.34128C15.3385 6.12928 15.5925 6.12928 15.6959 6.34128Z" fill="url(#paint30_radial_40_3977)"/>
<path d="M15.6959 6.34128L15.8967 6.76236C15.9278 6.82488 15.9845 6.86885 16.0503 6.87862L16.4994 6.94212C16.7308 6.97632 16.8181 7.22476 16.6386 7.40563L16.3239 7.73034C16.2727 7.78114 16.2489 7.85636 16.2617 7.92964L16.3324 8.39114C16.3727 8.6305 16.1711 8.80031 15.9671 8.69089L15.5537 8.47108C15.4961 8.44079 15.4284 8.44079 15.3708 8.47108L14.9574 8.69089C14.7535 8.79934 14.5394 8.63467 14.5993 8.38545L14.669 7.93399C14.6818 7.86072 14.6581 7.78549 14.6068 7.73469L14.2859 7.39851C14.1051 7.21978 14.1938 6.97632 14.4252 6.94212L14.8578 6.87862C14.9236 6.86885 14.9992 6.82586 15.0293 6.76236L15.2342 6.34128C15.3385 6.12928 15.5925 6.12928 15.6959 6.34128Z" fill="url(#paint31_radial_40_3977)"/>
<path d="M15.6959 6.34128L15.8967 6.76236C15.9278 6.82488 15.9845 6.86885 16.0503 6.87862L16.4994 6.94212C16.7308 6.97632 16.8181 7.22476 16.6386 7.40563L16.3239 7.73034C16.2727 7.78114 16.2489 7.85636 16.2617 7.92964L16.3324 8.39114C16.3727 8.6305 16.1711 8.80031 15.9671 8.69089L15.5537 8.47108C15.4961 8.44079 15.4284 8.44079 15.3708 8.47108L14.9574 8.69089C14.7535 8.79934 14.5394 8.63467 14.5993 8.38545L14.669 7.93399C14.6818 7.86072 14.6581 7.78549 14.6068 7.73469L14.2859 7.39851C14.1051 7.21978 14.1938 6.97632 14.4252 6.94212L14.8578 6.87862C14.9236 6.86885 14.9992 6.82586 15.0293 6.76236L15.2342 6.34128C15.3385 6.12928 15.5925 6.12928 15.6959 6.34128Z" fill="url(#paint32_radial_40_3977)"/>
<path d="M15.6959 6.34128L15.8967 6.76236C15.9278 6.82488 15.9845 6.86885 16.0503 6.87862L16.4994 6.94212C16.7308 6.97632 16.8181 7.22476 16.6386 7.40563L16.3239 7.73034C16.2727 7.78114 16.2489 7.85636 16.2617 7.92964L16.3324 8.39114C16.3727 8.6305 16.1711 8.80031 15.9671 8.69089L15.5537 8.47108C15.4961 8.44079 15.4284 8.44079 15.3708 8.47108L14.9574 8.69089C14.7535 8.79934 14.5394 8.63467 14.5993 8.38545L14.669 7.93399C14.6818 7.86072 14.6581 7.78549 14.6068 7.73469L14.2859 7.39851C14.1051 7.21978 14.1938 6.97632 14.4252 6.94212L14.8578 6.87862C14.9236 6.86885 14.9992 6.82586 15.0293 6.76236L15.2342 6.34128C15.3385 6.12928 15.5925 6.12928 15.6959 6.34128Z" fill="url(#paint33_radial_40_3977)"/>
<path d="M15.6959 6.34128L15.8967 6.76236C15.9278 6.82488 15.9845 6.86885 16.0503 6.87862L16.4994 6.94212C16.7308 6.97632 16.8181 7.22476 16.6386 7.40563L16.3239 7.73034C16.2727 7.78114 16.2489 7.85636 16.2617 7.92964L16.3324 8.39114C16.3727 8.6305 16.1711 8.80031 15.9671 8.69089L15.5537 8.47108C15.4961 8.44079 15.4284 8.44079 15.3708 8.47108L14.9574 8.69089C14.7535 8.79934 14.5394 8.63467 14.5993 8.38545L14.669 7.93399C14.6818 7.86072 14.6581 7.78549 14.6068 7.73469L14.2859 7.39851C14.1051 7.21978 14.1938 6.97632 14.4252 6.94212L14.8578 6.87862C14.9236 6.86885 14.9992 6.82586 15.0293 6.76236L15.2342 6.34128C15.3385 6.12928 15.5925 6.12928 15.6959 6.34128Z" fill="url(#paint34_radial_40_3977)"/>
<path d="M15.6959 6.34128L15.8967 6.76236C15.9278 6.82488 15.9845 6.86885 16.0503 6.87862L16.4994 6.94212C16.7308 6.97632 16.8181 7.22476 16.6386 7.40563L16.3239 7.73034C16.2727 7.78114 16.2489 7.85636 16.2617 7.92964L16.3324 8.39114C16.3727 8.6305 16.1711 8.80031 15.9671 8.69089L15.5537 8.47108C15.4961 8.44079 15.4284 8.44079 15.3708 8.47108L14.9574 8.69089C14.7535 8.79934 14.5394 8.63467 14.5993 8.38545L14.669 7.93399C14.6818 7.86072 14.6581 7.78549 14.6068 7.73469L14.2859 7.39851C14.1051 7.21978 14.1938 6.97632 14.4252 6.94212L14.8578 6.87862C14.9236 6.86885 14.9992 6.82586 15.0293 6.76236L15.2342 6.34128C15.3385 6.12928 15.5925 6.12928 15.6959 6.34128Z" fill="url(#paint35_radial_40_3977)"/>
<path d="M15.6959 6.34128L15.8967 6.76236C15.9278 6.82488 15.9845 6.86885 16.0503 6.87862L16.4994 6.94212C16.7308 6.97632 16.8181 7.22476 16.6386 7.40563L16.3239 7.73034C16.2727 7.78114 16.2489 7.85636 16.2617 7.92964L16.3324 8.39114C16.3727 8.6305 16.1711 8.80031 15.9671 8.69089L15.5537 8.47108C15.4961 8.44079 15.4284 8.44079 15.3708 8.47108L14.9574 8.69089C14.7535 8.79934 14.5394 8.63467 14.5993 8.38545L14.669 7.93399C14.6818 7.86072 14.6581 7.78549 14.6068 7.73469L14.2859 7.39851C14.1051 7.21978 14.1938 6.97632 14.4252 6.94212L14.8578 6.87862C14.9236 6.86885 14.9992 6.82586 15.0293 6.76236L15.2342 6.34128C15.3385 6.12928 15.5925 6.12928 15.6959 6.34128Z" fill="url(#paint36_radial_40_3977)"/>
<path d="M15.6959 6.34128L15.8967 6.76236C15.9278 6.82488 15.9845 6.86885 16.0503 6.87862L16.4994 6.94212C16.7308 6.97632 16.8181 7.22476 16.6386 7.40563L16.3239 7.73034C16.2727 7.78114 16.2489 7.85636 16.2617 7.92964L16.3324 8.39114C16.3727 8.6305 16.1711 8.80031 15.9671 8.69089L15.5537 8.47108C15.4961 8.44079 15.4284 8.44079 15.3708 8.47108L14.9574 8.69089C14.7535 8.79934 14.5394 8.63467 14.5993 8.38545L14.669 7.93399C14.6818 7.86072 14.6581 7.78549 14.6068 7.73469L14.2859 7.39851C14.1051 7.21978 14.1938 6.97632 14.4252 6.94212L14.8578 6.87862C14.9236 6.86885 14.9992 6.82586 15.0293 6.76236L15.2342 6.34128C15.3385 6.12928 15.5925 6.12928 15.6959 6.34128Z" fill="url(#paint37_radial_40_3977)"/>
<path d="M15.6959 6.34128L15.8967 6.76236C15.9278 6.82488 15.9845 6.86885 16.0503 6.87862L16.4994 6.94212C16.7308 6.97632 16.8181 7.22476 16.6386 7.40563L16.3239 7.73034C16.2727 7.78114 16.2489 7.85636 16.2617 7.92964L16.3324 8.39114C16.3727 8.6305 16.1711 8.80031 15.9671 8.69089L15.5537 8.47108C15.4961 8.44079 15.4284 8.44079 15.3708 8.47108L14.9574 8.69089C14.7535 8.79934 14.5394 8.63467 14.5993 8.38545L14.669 7.93399C14.6818 7.86072 14.6581 7.78549 14.6068 7.73469L14.2859 7.39851C14.1051 7.21978 14.1938 6.97632 14.4252 6.94212L14.8578 6.87862C14.9236 6.86885 14.9992 6.82586 15.0293 6.76236L15.2342 6.34128C15.3385 6.12928 15.5925 6.12928 15.6959 6.34128Z" fill="url(#paint38_radial_40_3977)"/>
<path d="M15.6959 6.34128L15.8967 6.76236C15.9278 6.82488 15.9845 6.86885 16.0503 6.87862L16.4994 6.94212C16.7308 6.97632 16.8181 7.22476 16.6386 7.40563L16.3239 7.73034C16.2727 7.78114 16.2489 7.85636 16.2617 7.92964L16.3324 8.39114C16.3727 8.6305 16.1711 8.80031 15.9671 8.69089L15.5537 8.47108C15.4961 8.44079 15.4284 8.44079 15.3708 8.47108L14.9574 8.69089C14.7535 8.79934 14.5394 8.63467 14.5993 8.38545L14.669 7.93399C14.6818 7.86072 14.6581 7.78549 14.6068 7.73469L14.2859 7.39851C14.1051 7.21978 14.1938 6.97632 14.4252 6.94212L14.8578 6.87862C14.9236 6.86885 14.9992 6.82586 15.0293 6.76236L15.2342 6.34128C15.3385 6.12928 15.5925 6.12928 15.6959 6.34128Z" fill="url(#paint39_radial_40_3977)"/>
<path d="M15.6959 6.34128L15.8967 6.76236C15.9278 6.82488 15.9845 6.86885 16.0503 6.87862L16.4994 6.94212C16.7308 6.97632 16.8181 7.22476 16.6386 7.40563L16.3239 7.73034C16.2727 7.78114 16.2489 7.85636 16.2617 7.92964L16.3324 8.39114C16.3727 8.6305 16.1711 8.80031 15.9671 8.69089L15.5537 8.47108C15.4961 8.44079 15.4284 8.44079 15.3708 8.47108L14.9574 8.69089C14.7535 8.79934 14.5394 8.63467 14.5993 8.38545L14.669 7.93399C14.6818 7.86072 14.6581 7.78549 14.6068 7.73469L14.2859 7.39851C14.1051 7.21978 14.1938 6.97632 14.4252 6.94212L14.8578 6.87862C14.9236 6.86885 14.9992 6.82586 15.0293 6.76236L15.2342 6.34128C15.3385 6.12928 15.5925 6.12928 15.6959 6.34128Z" fill="url(#paint40_radial_40_3977)"/>
<path d="M15.6959 6.34128L15.8967 6.76236C15.9278 6.82488 15.9845 6.86885 16.0503 6.87862L16.4994 6.94212C16.7308 6.97632 16.8181 7.22476 16.6386 7.40563L16.3239 7.73034C16.2727 7.78114 16.2489 7.85636 16.2617 7.92964L16.3324 8.39114C16.3727 8.6305 16.1711 8.80031 15.9671 8.69089L15.5537 8.47108C15.4961 8.44079 15.4284 8.44079 15.3708 8.47108L14.9574 8.69089C14.7535 8.79934 14.5394 8.63467 14.5993 8.38545L14.669 7.93399C14.6818 7.86072 14.6581 7.78549 14.6068 7.73469L14.2859 7.39851C14.1051 7.21978 14.1938 6.97632 14.4252 6.94212L14.8578 6.87862C14.9236 6.86885 14.9992 6.82586 15.0293 6.76236L15.2342 6.34128C15.3385 6.12928 15.5925 6.12928 15.6959 6.34128Z" fill="url(#paint41_radial_40_3977)"/>
<path d="M15.6959 6.34128L15.8967 6.76236C15.9278 6.82488 15.9845 6.86885 16.0503 6.87862L16.4994 6.94212C16.7308 6.97632 16.8181 7.22476 16.6386 7.40563L16.3239 7.73034C16.2727 7.78114 16.2489 7.85636 16.2617 7.92964L16.3324 8.39114C16.3727 8.6305 16.1711 8.80031 15.9671 8.69089L15.5537 8.47108C15.4961 8.44079 15.4284 8.44079 15.3708 8.47108L14.9574 8.69089C14.7535 8.79934 14.5394 8.63467 14.5993 8.38545L14.669 7.93399C14.6818 7.86072 14.6581 7.78549 14.6068 7.73469L14.2859 7.39851C14.1051 7.21978 14.1938 6.97632 14.4252 6.94212L14.8578 6.87862C14.9236 6.86885 14.9992 6.82586 15.0293 6.76236L15.2342 6.34128C15.3385 6.12928 15.5925 6.12928 15.6959 6.34128Z" fill="url(#paint42_radial_40_3977)"/>
<path d="M15.6959 6.34128L15.8967 6.76236C15.9278 6.82488 15.9845 6.86885 16.0503 6.87862L16.4994 6.94212C16.7308 6.97632 16.8181 7.22476 16.6386 7.40563L16.3239 7.73034C16.2727 7.78114 16.2489 7.85636 16.2617 7.92964L16.3324 8.39114C16.3727 8.6305 16.1711 8.80031 15.9671 8.69089L15.5537 8.47108C15.4961 8.44079 15.4284 8.44079 15.3708 8.47108L14.9574 8.69089C14.7535 8.79934 14.5394 8.63467 14.5993 8.38545L14.669 7.93399C14.6818 7.86072 14.6581 7.78549 14.6068 7.73469L14.2859 7.39851C14.1051 7.21978 14.1938 6.97632 14.4252 6.94212L14.8578 6.87862C14.9236 6.86885 14.9992 6.82586 15.0293 6.76236L15.2342 6.34128C15.3385 6.12928 15.5925 6.12928 15.6959 6.34128Z" fill="url(#paint43_radial_40_3977)"/>
<path d="M15.6959 6.34128L15.8967 6.76236C15.9278 6.82488 15.9845 6.86885 16.0503 6.87862L16.4994 6.94212C16.7308 6.97632 16.8181 7.22476 16.6386 7.40563L16.3239 7.73034C16.2727 7.78114 16.2489 7.85636 16.2617 7.92964L16.3324 8.39114C16.3727 8.6305 16.1711 8.80031 15.9671 8.69089L15.5537 8.47108C15.4961 8.44079 15.4284 8.44079 15.3708 8.47108L14.9574 8.69089C14.7535 8.79934 14.5394 8.63467 14.5993 8.38545L14.669 7.93399C14.6818 7.86072 14.6581 7.78549 14.6068 7.73469L14.2859 7.39851C14.1051 7.21978 14.1938 6.97632 14.4252 6.94212L14.8578 6.87862C14.9236 6.86885 14.9992 6.82586 15.0293 6.76236L15.2342 6.34128C15.3385 6.12928 15.5925 6.12928 15.6959 6.34128Z" fill="url(#paint44_radial_40_3977)"/>
<path d="M15.6959 6.34128L15.8967 6.76236C15.9278 6.82488 15.9845 6.86885 16.0503 6.87862L16.4994 6.94212C16.7308 6.97632 16.8181 7.22476 16.6386 7.40563L16.3239 7.73034C16.2727 7.78114 16.2489 7.85636 16.2617 7.92964L16.3324 8.39114C16.3727 8.6305 16.1711 8.80031 15.9671 8.69089L15.5537 8.47108C15.4961 8.44079 15.4284 8.44079 15.3708 8.47108L14.9574 8.69089C14.7535 8.79934 14.5394 8.63467 14.5993 8.38545L14.669 7.93399C14.6818 7.86072 14.6581 7.78549 14.6068 7.73469L14.2859 7.39851C14.1051 7.21978 14.1938 6.97632 14.4252 6.94212L14.8578 6.87862C14.9236 6.86885 14.9992 6.82586 15.0293 6.76236L15.2342 6.34128C15.3385 6.12928 15.5925 6.12928 15.6959 6.34128Z" fill="url(#paint45_radial_40_3977)"/>
<path d="M15.6959 6.34128L15.8967 6.76236C15.9278 6.82488 15.9845 6.86885 16.0503 6.87862L16.4994 6.94212C16.7308 6.97632 16.8181 7.22476 16.6386 7.40563L16.3239 7.73034C16.2727 7.78114 16.2489 7.85636 16.2617 7.92964L16.3324 8.39114C16.3727 8.6305 16.1711 8.80031 15.9671 8.69089L15.5537 8.47108C15.4961 8.44079 15.4284 8.44079 15.3708 8.47108L14.9574 8.69089C14.7535 8.79934 14.5394 8.63467 14.5993 8.38545L14.669 7.93399C14.6818 7.86072 14.6581 7.78549 14.6068 7.73469L14.2859 7.39851C14.1051 7.21978 14.1938 6.97632 14.4252 6.94212L14.8578 6.87862C14.9236 6.86885 14.9992 6.82586 15.0293 6.76236L15.2342 6.34128C15.3385 6.12928 15.5925 6.12928 15.6959 6.34128Z" fill="url(#paint46_radial_40_3977)"/>
</g>
<g clip-path="url(#clip1_40_3977)">
<path d="M12.6959 15.3413L12.8967 15.7624C12.9278 15.8249 12.9845 15.8689 13.0503 15.8786L13.4994 15.9422C13.7308 15.9763 13.8181 16.2248 13.6386 16.4057L13.3239 16.7304C13.2727 16.7812 13.2489 16.8564 13.2617 16.9297L13.3324 17.3912C13.3727 17.6305 13.1711 17.8003 12.9671 17.6909L12.5537 17.4711C12.4961 17.4408 12.4284 17.4408 12.3708 17.4711L11.9574 17.6909C11.7535 17.7994 11.5394 17.6347 11.5993 17.3855L11.669 16.934C11.6818 16.8607 11.6581 16.7855 11.6068 16.7347L11.2859 16.3985C11.1051 16.2198 11.1938 15.9763 11.4252 15.9422L11.8578 15.8786C11.9236 15.8689 11.9992 15.8259 12.0293 15.7624L12.2342 15.3413C12.3385 15.1293 12.5925 15.1293 12.6959 15.3413Z" fill="url(#paint47_radial_40_3977)"/>
<path d="M12.6959 15.3413L12.8967 15.7624C12.9278 15.8249 12.9845 15.8689 13.0503 15.8786L13.4994 15.9422C13.7308 15.9763 13.8181 16.2248 13.6386 16.4057L13.3239 16.7304C13.2727 16.7812 13.2489 16.8564 13.2617 16.9297L13.3324 17.3912C13.3727 17.6305 13.1711 17.8003 12.9671 17.6909L12.5537 17.4711C12.4961 17.4408 12.4284 17.4408 12.3708 17.4711L11.9574 17.6909C11.7535 17.7994 11.5394 17.6347 11.5993 17.3855L11.669 16.934C11.6818 16.8607 11.6581 16.7855 11.6068 16.7347L11.2859 16.3985C11.1051 16.2198 11.1938 15.9763 11.4252 15.9422L11.8578 15.8786C11.9236 15.8689 11.9992 15.8259 12.0293 15.7624L12.2342 15.3413C12.3385 15.1293 12.5925 15.1293 12.6959 15.3413Z" fill="url(#paint48_radial_40_3977)"/>
<path d="M12.6959 15.3413L12.8967 15.7624C12.9278 15.8249 12.9845 15.8689 13.0503 15.8786L13.4994 15.9422C13.7308 15.9763 13.8181 16.2248 13.6386 16.4057L13.3239 16.7304C13.2727 16.7812 13.2489 16.8564 13.2617 16.9297L13.3324 17.3912C13.3727 17.6305 13.1711 17.8003 12.9671 17.6909L12.5537 17.4711C12.4961 17.4408 12.4284 17.4408 12.3708 17.4711L11.9574 17.6909C11.7535 17.7994 11.5394 17.6347 11.5993 17.3855L11.669 16.934C11.6818 16.8607 11.6581 16.7855 11.6068 16.7347L11.2859 16.3985C11.1051 16.2198 11.1938 15.9763 11.4252 15.9422L11.8578 15.8786C11.9236 15.8689 11.9992 15.8259 12.0293 15.7624L12.2342 15.3413C12.3385 15.1293 12.5925 15.1293 12.6959 15.3413Z" fill="url(#paint49_radial_40_3977)"/>
<path d="M12.6959 15.3413L12.8967 15.7624C12.9278 15.8249 12.9845 15.8689 13.0503 15.8786L13.4994 15.9422C13.7308 15.9763 13.8181 16.2248 13.6386 16.4057L13.3239 16.7304C13.2727 16.7812 13.2489 16.8564 13.2617 16.9297L13.3324 17.3912C13.3727 17.6305 13.1711 17.8003 12.9671 17.6909L12.5537 17.4711C12.4961 17.4408 12.4284 17.4408 12.3708 17.4711L11.9574 17.6909C11.7535 17.7994 11.5394 17.6347 11.5993 17.3855L11.669 16.934C11.6818 16.8607 11.6581 16.7855 11.6068 16.7347L11.2859 16.3985C11.1051 16.2198 11.1938 15.9763 11.4252 15.9422L11.8578 15.8786C11.9236 15.8689 11.9992 15.8259 12.0293 15.7624L12.2342 15.3413C12.3385 15.1293 12.5925 15.1293 12.6959 15.3413Z" fill="url(#paint50_radial_40_3977)"/>
<path d="M12.6959 15.3413L12.8967 15.7624C12.9278 15.8249 12.9845 15.8689 13.0503 15.8786L13.4994 15.9422C13.7308 15.9763 13.8181 16.2248 13.6386 16.4057L13.3239 16.7304C13.2727 16.7812 13.2489 16.8564 13.2617 16.9297L13.3324 17.3912C13.3727 17.6305 13.1711 17.8003 12.9671 17.6909L12.5537 17.4711C12.4961 17.4408 12.4284 17.4408 12.3708 17.4711L11.9574 17.6909C11.7535 17.7994 11.5394 17.6347 11.5993 17.3855L11.669 16.934C11.6818 16.8607 11.6581 16.7855 11.6068 16.7347L11.2859 16.3985C11.1051 16.2198 11.1938 15.9763 11.4252 15.9422L11.8578 15.8786C11.9236 15.8689 11.9992 15.8259 12.0293 15.7624L12.2342 15.3413C12.3385 15.1293 12.5925 15.1293 12.6959 15.3413Z" fill="url(#paint51_radial_40_3977)"/>
<path d="M12.6959 15.3413L12.8967 15.7624C12.9278 15.8249 12.9845 15.8689 13.0503 15.8786L13.4994 15.9422C13.7308 15.9763 13.8181 16.2248 13.6386 16.4057L13.3239 16.7304C13.2727 16.7812 13.2489 16.8564 13.2617 16.9297L13.3324 17.3912C13.3727 17.6305 13.1711 17.8003 12.9671 17.6909L12.5537 17.4711C12.4961 17.4408 12.4284 17.4408 12.3708 17.4711L11.9574 17.6909C11.7535 17.7994 11.5394 17.6347 11.5993 17.3855L11.669 16.934C11.6818 16.8607 11.6581 16.7855 11.6068 16.7347L11.2859 16.3985C11.1051 16.2198 11.1938 15.9763 11.4252 15.9422L11.8578 15.8786C11.9236 15.8689 11.9992 15.8259 12.0293 15.7624L12.2342 15.3413C12.3385 15.1293 12.5925 15.1293 12.6959 15.3413Z" fill="url(#paint52_radial_40_3977)"/>
<path d="M12.6959 15.3413L12.8967 15.7624C12.9278 15.8249 12.9845 15.8689 13.0503 15.8786L13.4994 15.9422C13.7308 15.9763 13.8181 16.2248 13.6386 16.4057L13.3239 16.7304C13.2727 16.7812 13.2489 16.8564 13.2617 16.9297L13.3324 17.3912C13.3727 17.6305 13.1711 17.8003 12.9671 17.6909L12.5537 17.4711C12.4961 17.4408 12.4284 17.4408 12.3708 17.4711L11.9574 17.6909C11.7535 17.7994 11.5394 17.6347 11.5993 17.3855L11.669 16.934C11.6818 16.8607 11.6581 16.7855 11.6068 16.7347L11.2859 16.3985C11.1051 16.2198 11.1938 15.9763 11.4252 15.9422L11.8578 15.8786C11.9236 15.8689 11.9992 15.8259 12.0293 15.7624L12.2342 15.3413C12.3385 15.1293 12.5925 15.1293 12.6959 15.3413Z" fill="url(#paint53_radial_40_3977)"/>
<path d="M12.6959 15.3413L12.8967 15.7624C12.9278 15.8249 12.9845 15.8689 13.0503 15.8786L13.4994 15.9422C13.7308 15.9763 13.8181 16.2248 13.6386 16.4057L13.3239 16.7304C13.2727 16.7812 13.2489 16.8564 13.2617 16.9297L13.3324 17.3912C13.3727 17.6305 13.1711 17.8003 12.9671 17.6909L12.5537 17.4711C12.4961 17.4408 12.4284 17.4408 12.3708 17.4711L11.9574 17.6909C11.7535 17.7994 11.5394 17.6347 11.5993 17.3855L11.669 16.934C11.6818 16.8607 11.6581 16.7855 11.6068 16.7347L11.2859 16.3985C11.1051 16.2198 11.1938 15.9763 11.4252 15.9422L11.8578 15.8786C11.9236 15.8689 11.9992 15.8259 12.0293 15.7624L12.2342 15.3413C12.3385 15.1293 12.5925 15.1293 12.6959 15.3413Z" fill="url(#paint54_radial_40_3977)"/>
<path d="M12.6959 15.3413L12.8967 15.7624C12.9278 15.8249 12.9845 15.8689 13.0503 15.8786L13.4994 15.9422C13.7308 15.9763 13.8181 16.2248 13.6386 16.4057L13.3239 16.7304C13.2727 16.7812 13.2489 16.8564 13.2617 16.9297L13.3324 17.3912C13.3727 17.6305 13.1711 17.8003 12.9671 17.6909L12.5537 17.4711C12.4961 17.4408 12.4284 17.4408 12.3708 17.4711L11.9574 17.6909C11.7535 17.7994 11.5394 17.6347 11.5993 17.3855L11.669 16.934C11.6818 16.8607 11.6581 16.7855 11.6068 16.7347L11.2859 16.3985C11.1051 16.2198 11.1938 15.9763 11.4252 15.9422L11.8578 15.8786C11.9236 15.8689 11.9992 15.8259 12.0293 15.7624L12.2342 15.3413C12.3385 15.1293 12.5925 15.1293 12.6959 15.3413Z" fill="url(#paint55_radial_40_3977)"/>
<path d="M12.6959 15.3413L12.8967 15.7624C12.9278 15.8249 12.9845 15.8689 13.0503 15.8786L13.4994 15.9422C13.7308 15.9763 13.8181 16.2248 13.6386 16.4057L13.3239 16.7304C13.2727 16.7812 13.2489 16.8564 13.2617 16.9297L13.3324 17.3912C13.3727 17.6305 13.1711 17.8003 12.9671 17.6909L12.5537 17.4711C12.4961 17.4408 12.4284 17.4408 12.3708 17.4711L11.9574 17.6909C11.7535 17.7994 11.5394 17.6347 11.5993 17.3855L11.669 16.934C11.6818 16.8607 11.6581 16.7855 11.6068 16.7347L11.2859 16.3985C11.1051 16.2198 11.1938 15.9763 11.4252 15.9422L11.8578 15.8786C11.9236 15.8689 11.9992 15.8259 12.0293 15.7624L12.2342 15.3413C12.3385 15.1293 12.5925 15.1293 12.6959 15.3413Z" fill="url(#paint56_radial_40_3977)"/>
<path d="M12.6959 15.3413L12.8967 15.7624C12.9278 15.8249 12.9845 15.8689 13.0503 15.8786L13.4994 15.9422C13.7308 15.9763 13.8181 16.2248 13.6386 16.4057L13.3239 16.7304C13.2727 16.7812 13.2489 16.8564 13.2617 16.9297L13.3324 17.3912C13.3727 17.6305 13.1711 17.8003 12.9671 17.6909L12.5537 17.4711C12.4961 17.4408 12.4284 17.4408 12.3708 17.4711L11.9574 17.6909C11.7535 17.7994 11.5394 17.6347 11.5993 17.3855L11.669 16.934C11.6818 16.8607 11.6581 16.7855 11.6068 16.7347L11.2859 16.3985C11.1051 16.2198 11.1938 15.9763 11.4252 15.9422L11.8578 15.8786C11.9236 15.8689 11.9992 15.8259 12.0293 15.7624L12.2342 15.3413C12.3385 15.1293 12.5925 15.1293 12.6959 15.3413Z" fill="url(#paint57_radial_40_3977)"/>
<path d="M12.6959 15.3413L12.8967 15.7624C12.9278 15.8249 12.9845 15.8689 13.0503 15.8786L13.4994 15.9422C13.7308 15.9763 13.8181 16.2248 13.6386 16.4057L13.3239 16.7304C13.2727 16.7812 13.2489 16.8564 13.2617 16.9297L13.3324 17.3912C13.3727 17.6305 13.1711 17.8003 12.9671 17.6909L12.5537 17.4711C12.4961 17.4408 12.4284 17.4408 12.3708 17.4711L11.9574 17.6909C11.7535 17.7994 11.5394 17.6347 11.5993 17.3855L11.669 16.934C11.6818 16.8607 11.6581 16.7855 11.6068 16.7347L11.2859 16.3985C11.1051 16.2198 11.1938 15.9763 11.4252 15.9422L11.8578 15.8786C11.9236 15.8689 11.9992 15.8259 12.0293 15.7624L12.2342 15.3413C12.3385 15.1293 12.5925 15.1293 12.6959 15.3413Z" fill="url(#paint58_radial_40_3977)"/>
<path d="M12.6959 15.3413L12.8967 15.7624C12.9278 15.8249 12.9845 15.8689 13.0503 15.8786L13.4994 15.9422C13.7308 15.9763 13.8181 16.2248 13.6386 16.4057L13.3239 16.7304C13.2727 16.7812 13.2489 16.8564 13.2617 16.9297L13.3324 17.3912C13.3727 17.6305 13.1711 17.8003 12.9671 17.6909L12.5537 17.4711C12.4961 17.4408 12.4284 17.4408 12.3708 17.4711L11.9574 17.6909C11.7535 17.7994 11.5394 17.6347 11.5993 17.3855L11.669 16.934C11.6818 16.8607 11.6581 16.7855 11.6068 16.7347L11.2859 16.3985C11.1051 16.2198 11.1938 15.9763 11.4252 15.9422L11.8578 15.8786C11.9236 15.8689 11.9992 15.8259 12.0293 15.7624L12.2342 15.3413C12.3385 15.1293 12.5925 15.1293 12.6959 15.3413Z" fill="url(#paint59_radial_40_3977)"/>
<path d="M12.6959 15.3413L12.8967 15.7624C12.9278 15.8249 12.9845 15.8689 13.0503 15.8786L13.4994 15.9422C13.7308 15.9763 13.8181 16.2248 13.6386 16.4057L13.3239 16.7304C13.2727 16.7812 13.2489 16.8564 13.2617 16.9297L13.3324 17.3912C13.3727 17.6305 13.1711 17.8003 12.9671 17.6909L12.5537 17.4711C12.4961 17.4408 12.4284 17.4408 12.3708 17.4711L11.9574 17.6909C11.7535 17.7994 11.5394 17.6347 11.5993 17.3855L11.669 16.934C11.6818 16.8607 11.6581 16.7855 11.6068 16.7347L11.2859 16.3985C11.1051 16.2198 11.1938 15.9763 11.4252 15.9422L11.8578 15.8786C11.9236 15.8689 11.9992 15.8259 12.0293 15.7624L12.2342 15.3413C12.3385 15.1293 12.5925 15.1293 12.6959 15.3413Z" fill="url(#paint60_radial_40_3977)"/>
<path d="M12.6959 15.3413L12.8967 15.7624C12.9278 15.8249 12.9845 15.8689 13.0503 15.8786L13.4994 15.9422C13.7308 15.9763 13.8181 16.2248 13.6386 16.4057L13.3239 16.7304C13.2727 16.7812 13.2489 16.8564 13.2617 16.9297L13.3324 17.3912C13.3727 17.6305 13.1711 17.8003 12.9671 17.6909L12.5537 17.4711C12.4961 17.4408 12.4284 17.4408 12.3708 17.4711L11.9574 17.6909C11.7535 17.7994 11.5394 17.6347 11.5993 17.3855L11.669 16.934C11.6818 16.8607 11.6581 16.7855 11.6068 16.7347L11.2859 16.3985C11.1051 16.2198 11.1938 15.9763 11.4252 15.9422L11.8578 15.8786C11.9236 15.8689 11.9992 15.8259 12.0293 15.7624L12.2342 15.3413C12.3385 15.1293 12.5925 15.1293 12.6959 15.3413Z" fill="url(#paint61_radial_40_3977)"/>
<path d="M12.6959 15.3413L12.8967 15.7624C12.9278 15.8249 12.9845 15.8689 13.0503 15.8786L13.4994 15.9422C13.7308 15.9763 13.8181 16.2248 13.6386 16.4057L13.3239 16.7304C13.2727 16.7812 13.2489 16.8564 13.2617 16.9297L13.3324 17.3912C13.3727 17.6305 13.1711 17.8003 12.9671 17.6909L12.5537 17.4711C12.4961 17.4408 12.4284 17.4408 12.3708 17.4711L11.9574 17.6909C11.7535 17.7994 11.5394 17.6347 11.5993 17.3855L11.669 16.934C11.6818 16.8607 11.6581 16.7855 11.6068 16.7347L11.2859 16.3985C11.1051 16.2198 11.1938 15.9763 11.4252 15.9422L11.8578 15.8786C11.9236 15.8689 11.9992 15.8259 12.0293 15.7624L12.2342 15.3413C12.3385 15.1293 12.5925 15.1293 12.6959 15.3413Z" fill="url(#paint62_radial_40_3977)"/>
<path d="M12.6959 15.3413L12.8967 15.7624C12.9278 15.8249 12.9845 15.8689 13.0503 15.8786L13.4994 15.9422C13.7308 15.9763 13.8181 16.2248 13.6386 16.4057L13.3239 16.7304C13.2727 16.7812 13.2489 16.8564 13.2617 16.9297L13.3324 17.3912C13.3727 17.6305 13.1711 17.8003 12.9671 17.6909L12.5537 17.4711C12.4961 17.4408 12.4284 17.4408 12.3708 17.4711L11.9574 17.6909C11.7535 17.7994 11.5394 17.6347 11.5993 17.3855L11.669 16.934C11.6818 16.8607 11.6581 16.7855 11.6068 16.7347L11.2859 16.3985C11.1051 16.2198 11.1938 15.9763 11.4252 15.9422L11.8578 15.8786C11.9236 15.8689 11.9992 15.8259 12.0293 15.7624L12.2342 15.3413C12.3385 15.1293 12.5925 15.1293 12.6959 15.3413Z" fill="url(#paint63_radial_40_3977)"/>
<path d="M12.6959 15.3413L12.8967 15.7624C12.9278 15.8249 12.9845 15.8689 13.0503 15.8786L13.4994 15.9422C13.7308 15.9763 13.8181 16.2248 13.6386 16.4057L13.3239 16.7304C13.2727 16.7812 13.2489 16.8564 13.2617 16.9297L13.3324 17.3912C13.3727 17.6305 13.1711 17.8003 12.9671 17.6909L12.5537 17.4711C12.4961 17.4408 12.4284 17.4408 12.3708 17.4711L11.9574 17.6909C11.7535 17.7994 11.5394 17.6347 11.5993 17.3855L11.669 16.934C11.6818 16.8607 11.6581 16.7855 11.6068 16.7347L11.2859 16.3985C11.1051 16.2198 11.1938 15.9763 11.4252 15.9422L11.8578 15.8786C11.9236 15.8689 11.9992 15.8259 12.0293 15.7624L12.2342 15.3413C12.3385 15.1293 12.5925 15.1293 12.6959 15.3413Z" fill="url(#paint64_radial_40_3977)"/>
<path d="M12.6959 15.3413L12.8967 15.7624C12.9278 15.8249 12.9845 15.8689 13.0503 15.8786L13.4994 15.9422C13.7308 15.9763 13.8181 16.2248 13.6386 16.4057L13.3239 16.7304C13.2727 16.7812 13.2489 16.8564 13.2617 16.9297L13.3324 17.3912C13.3727 17.6305 13.1711 17.8003 12.9671 17.6909L12.5537 17.4711C12.4961 17.4408 12.4284 17.4408 12.3708 17.4711L11.9574 17.6909C11.7535 17.7994 11.5394 17.6347 11.5993 17.3855L11.669 16.934C11.6818 16.8607 11.6581 16.7855 11.6068 16.7347L11.2859 16.3985C11.1051 16.2198 11.1938 15.9763 11.4252 15.9422L11.8578 15.8786C11.9236 15.8689 11.9992 15.8259 12.0293 15.7624L12.2342 15.3413C12.3385 15.1293 12.5925 15.1293 12.6959 15.3413Z" fill="url(#paint65_radial_40_3977)"/>
<path d="M12.6959 15.3413L12.8967 15.7624C12.9278 15.8249 12.9845 15.8689 13.0503 15.8786L13.4994 15.9422C13.7308 15.9763 13.8181 16.2248 13.6386 16.4057L13.3239 16.7304C13.2727 16.7812 13.2489 16.8564 13.2617 16.9297L13.3324 17.3912C13.3727 17.6305 13.1711 17.8003 12.9671 17.6909L12.5537 17.4711C12.4961 17.4408 12.4284 17.4408 12.3708 17.4711L11.9574 17.6909C11.7535 17.7994 11.5394 17.6347 11.5993 17.3855L11.669 16.934C11.6818 16.8607 11.6581 16.7855 11.6068 16.7347L11.2859 16.3985C11.1051 16.2198 11.1938 15.9763 11.4252 15.9422L11.8578 15.8786C11.9236 15.8689 11.9992 15.8259 12.0293 15.7624L12.2342 15.3413C12.3385 15.1293 12.5925 15.1293 12.6959 15.3413Z" fill="url(#paint66_radial_40_3977)"/>
<path d="M12.6959 15.3413L12.8967 15.7624C12.9278 15.8249 12.9845 15.8689 13.0503 15.8786L13.4994 15.9422C13.7308 15.9763 13.8181 16.2248 13.6386 16.4057L13.3239 16.7304C13.2727 16.7812 13.2489 16.8564 13.2617 16.9297L13.3324 17.3912C13.3727 17.6305 13.1711 17.8003 12.9671 17.6909L12.5537 17.4711C12.4961 17.4408 12.4284 17.4408 12.3708 17.4711L11.9574 17.6909C11.7535 17.7994 11.5394 17.6347 11.5993 17.3855L11.669 16.934C11.6818 16.8607 11.6581 16.7855 11.6068 16.7347L11.2859 16.3985C11.1051 16.2198 11.1938 15.9763 11.4252 15.9422L11.8578 15.8786C11.9236 15.8689 11.9992 15.8259 12.0293 15.7624L12.2342 15.3413C12.3385 15.1293 12.5925 15.1293 12.6959 15.3413Z" fill="url(#paint67_radial_40_3977)"/>
</g>
<g clip-path="url(#clip2_40_3977)">
<path d="M6.69585 9.34131L6.89666 9.76239C6.92775 9.82491 6.98446 9.86888 7.05031 9.87865L7.49942 9.94215C7.73081 9.97635 7.81808 10.2248 7.63864 10.4057L7.3239 10.7304C7.27269 10.7812 7.24891 10.8564 7.26171 10.9297L7.33245 11.3912C7.37269 11.6305 7.17109 11.8003 6.96713 11.6909L6.55375 11.4711C6.49613 11.4408 6.42845 11.4408 6.37083 11.4711L5.95744 11.6909C5.75349 11.7994 5.53944 11.6347 5.59925 11.3855L5.66904 10.934C5.68184 10.8607 5.65806 10.7855 5.60685 10.7347L5.28594 10.3985C5.10507 10.2198 5.19377 9.97635 5.42515 9.94215L5.85775 9.87865C5.9236 9.86888 5.99917 9.82589 6.02935 9.76239L6.23421 9.34131C6.33848 9.12931 6.5925 9.12931 6.69585 9.34131Z" fill="url(#paint68_radial_40_3977)"/>
<path d="M6.69585 9.34131L6.89666 9.76239C6.92775 9.82491 6.98446 9.86888 7.05031 9.87865L7.49942 9.94215C7.73081 9.97635 7.81808 10.2248 7.63864 10.4057L7.3239 10.7304C7.27269 10.7812 7.24891 10.8564 7.26171 10.9297L7.33245 11.3912C7.37269 11.6305 7.17109 11.8003 6.96713 11.6909L6.55375 11.4711C6.49613 11.4408 6.42845 11.4408 6.37083 11.4711L5.95744 11.6909C5.75349 11.7994 5.53944 11.6347 5.59925 11.3855L5.66904 10.934C5.68184 10.8607 5.65806 10.7855 5.60685 10.7347L5.28594 10.3985C5.10507 10.2198 5.19377 9.97635 5.42515 9.94215L5.85775 9.87865C5.9236 9.86888 5.99917 9.82589 6.02935 9.76239L6.23421 9.34131C6.33848 9.12931 6.5925 9.12931 6.69585 9.34131Z" fill="url(#paint69_radial_40_3977)"/>
<path d="M6.69585 9.34131L6.89666 9.76239C6.92775 9.82491 6.98446 9.86888 7.05031 9.87865L7.49942 9.94215C7.73081 9.97635 7.81808 10.2248 7.63864 10.4057L7.3239 10.7304C7.27269 10.7812 7.24891 10.8564 7.26171 10.9297L7.33245 11.3912C7.37269 11.6305 7.17109 11.8003 6.96713 11.6909L6.55375 11.4711C6.49613 11.4408 6.42845 11.4408 6.37083 11.4711L5.95744 11.6909C5.75349 11.7994 5.53944 11.6347 5.59925 11.3855L5.66904 10.934C5.68184 10.8607 5.65806 10.7855 5.60685 10.7347L5.28594 10.3985C5.10507 10.2198 5.19377 9.97635 5.42515 9.94215L5.85775 9.87865C5.9236 9.86888 5.99917 9.82589 6.02935 9.76239L6.23421 9.34131C6.33848 9.12931 6.5925 9.12931 6.69585 9.34131Z" fill="url(#paint70_radial_40_3977)"/>
<path d="M6.69585 9.34131L6.89666 9.76239C6.92775 9.82491 6.98446 9.86888 7.05031 9.87865L7.49942 9.94215C7.73081 9.97635 7.81808 10.2248 7.63864 10.4057L7.3239 10.7304C7.27269 10.7812 7.24891 10.8564 7.26171 10.9297L7.33245 11.3912C7.37269 11.6305 7.17109 11.8003 6.96713 11.6909L6.55375 11.4711C6.49613 11.4408 6.42845 11.4408 6.37083 11.4711L5.95744 11.6909C5.75349 11.7994 5.53944 11.6347 5.59925 11.3855L5.66904 10.934C5.68184 10.8607 5.65806 10.7855 5.60685 10.7347L5.28594 10.3985C5.10507 10.2198 5.19377 9.97635 5.42515 9.94215L5.85775 9.87865C5.9236 9.86888 5.99917 9.82589 6.02935 9.76239L6.23421 9.34131C6.33848 9.12931 6.5925 9.12931 6.69585 9.34131Z" fill="url(#paint71_radial_40_3977)"/>
<path d="M6.69585 9.34131L6.89666 9.76239C6.92775 9.82491 6.98446 9.86888 7.05031 9.87865L7.49942 9.94215C7.73081 9.97635 7.81808 10.2248 7.63864 10.4057L7.3239 10.7304C7.27269 10.7812 7.24891 10.8564 7.26171 10.9297L7.33245 11.3912C7.37269 11.6305 7.17109 11.8003 6.96713 11.6909L6.55375 11.4711C6.49613 11.4408 6.42845 11.4408 6.37083 11.4711L5.95744 11.6909C5.75349 11.7994 5.53944 11.6347 5.59925 11.3855L5.66904 10.934C5.68184 10.8607 5.65806 10.7855 5.60685 10.7347L5.28594 10.3985C5.10507 10.2198 5.19377 9.97635 5.42515 9.94215L5.85775 9.87865C5.9236 9.86888 5.99917 9.82589 6.02935 9.76239L6.23421 9.34131C6.33848 9.12931 6.5925 9.12931 6.69585 9.34131Z" fill="url(#paint72_radial_40_3977)"/>
<path d="M6.69585 9.34131L6.89666 9.76239C6.92775 9.82491 6.98446 9.86888 7.05031 9.87865L7.49942 9.94215C7.73081 9.97635 7.81808 10.2248 7.63864 10.4057L7.3239 10.7304C7.27269 10.7812 7.24891 10.8564 7.26171 10.9297L7.33245 11.3912C7.37269 11.6305 7.17109 11.8003 6.96713 11.6909L6.55375 11.4711C6.49613 11.4408 6.42845 11.4408 6.37083 11.4711L5.95744 11.6909C5.75349 11.7994 5.53944 11.6347 5.59925 11.3855L5.66904 10.934C5.68184 10.8607 5.65806 10.7855 5.60685 10.7347L5.28594 10.3985C5.10507 10.2198 5.19377 9.97635 5.42515 9.94215L5.85775 9.87865C5.9236 9.86888 5.99917 9.82589 6.02935 9.76239L6.23421 9.34131C6.33848 9.12931 6.5925 9.12931 6.69585 9.34131Z" fill="url(#paint73_radial_40_3977)"/>
<path d="M6.69585 9.34131L6.89666 9.76239C6.92775 9.82491 6.98446 9.86888 7.05031 9.87865L7.49942 9.94215C7.73081 9.97635 7.81808 10.2248 7.63864 10.4057L7.3239 10.7304C7.27269 10.7812 7.24891 10.8564 7.26171 10.9297L7.33245 11.3912C7.37269 11.6305 7.17109 11.8003 6.96713 11.6909L6.55375 11.4711C6.49613 11.4408 6.42845 11.4408 6.37083 11.4711L5.95744 11.6909C5.75349 11.7994 5.53944 11.6347 5.59925 11.3855L5.66904 10.934C5.68184 10.8607 5.65806 10.7855 5.60685 10.7347L5.28594 10.3985C5.10507 10.2198 5.19377 9.97635 5.42515 9.94215L5.85775 9.87865C5.9236 9.86888 5.99917 9.82589 6.02935 9.76239L6.23421 9.34131C6.33848 9.12931 6.5925 9.12931 6.69585 9.34131Z" fill="url(#paint74_radial_40_3977)"/>
<path d="M6.69585 9.34131L6.89666 9.76239C6.92775 9.82491 6.98446 9.86888 7.05031 9.87865L7.49942 9.94215C7.73081 9.97635 7.81808 10.2248 7.63864 10.4057L7.3239 10.7304C7.27269 10.7812 7.24891 10.8564 7.26171 10.9297L7.33245 11.3912C7.37269 11.6305 7.17109 11.8003 6.96713 11.6909L6.55375 11.4711C6.49613 11.4408 6.42845 11.4408 6.37083 11.4711L5.95744 11.6909C5.75349 11.7994 5.53944 11.6347 5.59925 11.3855L5.66904 10.934C5.68184 10.8607 5.65806 10.7855 5.60685 10.7347L5.28594 10.3985C5.10507 10.2198 5.19377 9.97635 5.42515 9.94215L5.85775 9.87865C5.9236 9.86888 5.99917 9.82589 6.02935 9.76239L6.23421 9.34131C6.33848 9.12931 6.5925 9.12931 6.69585 9.34131Z" fill="url(#paint75_radial_40_3977)"/>
<path d="M6.69585 9.34131L6.89666 9.76239C6.92775 9.82491 6.98446 9.86888 7.05031 9.87865L7.49942 9.94215C7.73081 9.97635 7.81808 10.2248 7.63864 10.4057L7.3239 10.7304C7.27269 10.7812 7.24891 10.8564 7.26171 10.9297L7.33245 11.3912C7.37269 11.6305 7.17109 11.8003 6.96713 11.6909L6.55375 11.4711C6.49613 11.4408 6.42845 11.4408 6.37083 11.4711L5.95744 11.6909C5.75349 11.7994 5.53944 11.6347 5.59925 11.3855L5.66904 10.934C5.68184 10.8607 5.65806 10.7855 5.60685 10.7347L5.28594 10.3985C5.10507 10.2198 5.19377 9.97635 5.42515 9.94215L5.85775 9.87865C5.9236 9.86888 5.99917 9.82589 6.02935 9.76239L6.23421 9.34131C6.33848 9.12931 6.5925 9.12931 6.69585 9.34131Z" fill="url(#paint76_radial_40_3977)"/>
<path d="M6.69585 9.34131L6.89666 9.76239C6.92775 9.82491 6.98446 9.86888 7.05031 9.87865L7.49942 9.94215C7.73081 9.97635 7.81808 10.2248 7.63864 10.4057L7.3239 10.7304C7.27269 10.7812 7.24891 10.8564 7.26171 10.9297L7.33245 11.3912C7.37269 11.6305 7.17109 11.8003 6.96713 11.6909L6.55375 11.4711C6.49613 11.4408 6.42845 11.4408 6.37083 11.4711L5.95744 11.6909C5.75349 11.7994 5.53944 11.6347 5.59925 11.3855L5.66904 10.934C5.68184 10.8607 5.65806 10.7855 5.60685 10.7347L5.28594 10.3985C5.10507 10.2198 5.19377 9.97635 5.42515 9.94215L5.85775 9.87865C5.9236 9.86888 5.99917 9.82589 6.02935 9.76239L6.23421 9.34131C6.33848 9.12931 6.5925 9.12931 6.69585 9.34131Z" fill="url(#paint77_radial_40_3977)"/>
<path d="M6.69585 9.34131L6.89666 9.76239C6.92775 9.82491 6.98446 9.86888 7.05031 9.87865L7.49942 9.94215C7.73081 9.97635 7.81808 10.2248 7.63864 10.4057L7.3239 10.7304C7.27269 10.7812 7.24891 10.8564 7.26171 10.9297L7.33245 11.3912C7.37269 11.6305 7.17109 11.8003 6.96713 11.6909L6.55375 11.4711C6.49613 11.4408 6.42845 11.4408 6.37083 11.4711L5.95744 11.6909C5.75349 11.7994 5.53944 11.6347 5.59925 11.3855L5.66904 10.934C5.68184 10.8607 5.65806 10.7855 5.60685 10.7347L5.28594 10.3985C5.10507 10.2198 5.19377 9.97635 5.42515 9.94215L5.85775 9.87865C5.9236 9.86888 5.99917 9.82589 6.02935 9.76239L6.23421 9.34131C6.33848 9.12931 6.5925 9.12931 6.69585 9.34131Z" fill="url(#paint78_radial_40_3977)"/>
<path d="M6.69585 9.34131L6.89666 9.76239C6.92775 9.82491 6.98446 9.86888 7.05031 9.87865L7.49942 9.94215C7.73081 9.97635 7.81808 10.2248 7.63864 10.4057L7.3239 10.7304C7.27269 10.7812 7.24891 10.8564 7.26171 10.9297L7.33245 11.3912C7.37269 11.6305 7.17109 11.8003 6.96713 11.6909L6.55375 11.4711C6.49613 11.4408 6.42845 11.4408 6.37083 11.4711L5.95744 11.6909C5.75349 11.7994 5.53944 11.6347 5.59925 11.3855L5.66904 10.934C5.68184 10.8607 5.65806 10.7855 5.60685 10.7347L5.28594 10.3985C5.10507 10.2198 5.19377 9.97635 5.42515 9.94215L5.85775 9.87865C5.9236 9.86888 5.99917 9.82589 6.02935 9.76239L6.23421 9.34131C6.33848 9.12931 6.5925 9.12931 6.69585 9.34131Z" fill="url(#paint79_radial_40_3977)"/>
<path d="M6.69585 9.34131L6.89666 9.76239C6.92775 9.82491 6.98446 9.86888 7.05031 9.87865L7.49942 9.94215C7.73081 9.97635 7.81808 10.2248 7.63864 10.4057L7.3239 10.7304C7.27269 10.7812 7.24891 10.8564 7.26171 10.9297L7.33245 11.3912C7.37269 11.6305 7.17109 11.8003 6.96713 11.6909L6.55375 11.4711C6.49613 11.4408 6.42845 11.4408 6.37083 11.4711L5.95744 11.6909C5.75349 11.7994 5.53944 11.6347 5.59925 11.3855L5.66904 10.934C5.68184 10.8607 5.65806 10.7855 5.60685 10.7347L5.28594 10.3985C5.10507 10.2198 5.19377 9.97635 5.42515 9.94215L5.85775 9.87865C5.9236 9.86888 5.99917 9.82589 6.02935 9.76239L6.23421 9.34131C6.33848 9.12931 6.5925 9.12931 6.69585 9.34131Z" fill="url(#paint80_radial_40_3977)"/>
<path d="M6.69585 9.34131L6.89666 9.76239C6.92775 9.82491 6.98446 9.86888 7.05031 9.87865L7.49942 9.94215C7.73081 9.97635 7.81808 10.2248 7.63864 10.4057L7.3239 10.7304C7.27269 10.7812 7.24891 10.8564 7.26171 10.9297L7.33245 11.3912C7.37269 11.6305 7.17109 11.8003 6.96713 11.6909L6.55375 11.4711C6.49613 11.4408 6.42845 11.4408 6.37083 11.4711L5.95744 11.6909C5.75349 11.7994 5.53944 11.6347 5.59925 11.3855L5.66904 10.934C5.68184 10.8607 5.65806 10.7855 5.60685 10.7347L5.28594 10.3985C5.10507 10.2198 5.19377 9.97635 5.42515 9.94215L5.85775 9.87865C5.9236 9.86888 5.99917 9.82589 6.02935 9.76239L6.23421 9.34131C6.33848 9.12931 6.5925 9.12931 6.69585 9.34131Z" fill="url(#paint81_radial_40_3977)"/>
<path d="M6.69585 9.34131L6.89666 9.76239C6.92775 9.82491 6.98446 9.86888 7.05031 9.87865L7.49942 9.94215C7.73081 9.97635 7.81808 10.2248 7.63864 10.4057L7.3239 10.7304C7.27269 10.7812 7.24891 10.8564 7.26171 10.9297L7.33245 11.3912C7.37269 11.6305 7.17109 11.8003 6.96713 11.6909L6.55375 11.4711C6.49613 11.4408 6.42845 11.4408 6.37083 11.4711L5.95744 11.6909C5.75349 11.7994 5.53944 11.6347 5.59925 11.3855L5.66904 10.934C5.68184 10.8607 5.65806 10.7855 5.60685 10.7347L5.28594 10.3985C5.10507 10.2198 5.19377 9.97635 5.42515 9.94215L5.85775 9.87865C5.9236 9.86888 5.99917 9.82589 6.02935 9.76239L6.23421 9.34131C6.33848 9.12931 6.5925 9.12931 6.69585 9.34131Z" fill="url(#paint82_radial_40_3977)"/>
<path d="M6.69585 9.34131L6.89666 9.76239C6.92775 9.82491 6.98446 9.86888 7.05031 9.87865L7.49942 9.94215C7.73081 9.97635 7.81808 10.2248 7.63864 10.4057L7.3239 10.7304C7.27269 10.7812 7.24891 10.8564 7.26171 10.9297L7.33245 11.3912C7.37269 11.6305 7.17109 11.8003 6.96713 11.6909L6.55375 11.4711C6.49613 11.4408 6.42845 11.4408 6.37083 11.4711L5.95744 11.6909C5.75349 11.7994 5.53944 11.6347 5.59925 11.3855L5.66904 10.934C5.68184 10.8607 5.65806 10.7855 5.60685 10.7347L5.28594 10.3985C5.10507 10.2198 5.19377 9.97635 5.42515 9.94215L5.85775 9.87865C5.9236 9.86888 5.99917 9.82589 6.02935 9.76239L6.23421 9.34131C6.33848 9.12931 6.5925 9.12931 6.69585 9.34131Z" fill="url(#paint83_radial_40_3977)"/>
<path d="M6.69585 9.34131L6.89666 9.76239C6.92775 9.82491 6.98446 9.86888 7.05031 9.87865L7.49942 9.94215C7.73081 9.97635 7.81808 10.2248 7.63864 10.4057L7.3239 10.7304C7.27269 10.7812 7.24891 10.8564 7.26171 10.9297L7.33245 11.3912C7.37269 11.6305 7.17109 11.8003 6.96713 11.6909L6.55375 11.4711C6.49613 11.4408 6.42845 11.4408 6.37083 11.4711L5.95744 11.6909C5.75349 11.7994 5.53944 11.6347 5.59925 11.3855L5.66904 10.934C5.68184 10.8607 5.65806 10.7855 5.60685 10.7347L5.28594 10.3985C5.10507 10.2198 5.19377 9.97635 5.42515 9.94215L5.85775 9.87865C5.9236 9.86888 5.99917 9.82589 6.02935 9.76239L6.23421 9.34131C6.33848 9.12931 6.5925 9.12931 6.69585 9.34131Z" fill="url(#paint84_radial_40_3977)"/>
<path d="M6.69585 9.34131L6.89666 9.76239C6.92775 9.82491 6.98446 9.86888 7.05031 9.87865L7.49942 9.94215C7.73081 9.97635 7.81808 10.2248 7.63864 10.4057L7.3239 10.7304C7.27269 10.7812 7.24891 10.8564 7.26171 10.9297L7.33245 11.3912C7.37269 11.6305 7.17109 11.8003 6.96713 11.6909L6.55375 11.4711C6.49613 11.4408 6.42845 11.4408 6.37083 11.4711L5.95744 11.6909C5.75349 11.7994 5.53944 11.6347 5.59925 11.3855L5.66904 10.934C5.68184 10.8607 5.65806 10.7855 5.60685 10.7347L5.28594 10.3985C5.10507 10.2198 5.19377 9.97635 5.42515 9.94215L5.85775 9.87865C5.9236 9.86888 5.99917 9.82589 6.02935 9.76239L6.23421 9.34131C6.33848 9.12931 6.5925 9.12931 6.69585 9.34131Z" fill="url(#paint85_radial_40_3977)"/>
<path d="M6.69585 9.34131L6.89666 9.76239C6.92775 9.82491 6.98446 9.86888 7.05031 9.87865L7.49942 9.94215C7.73081 9.97635 7.81808 10.2248 7.63864 10.4057L7.3239 10.7304C7.27269 10.7812 7.24891 10.8564 7.26171 10.9297L7.33245 11.3912C7.37269 11.6305 7.17109 11.8003 6.96713 11.6909L6.55375 11.4711C6.49613 11.4408 6.42845 11.4408 6.37083 11.4711L5.95744 11.6909C5.75349 11.7994 5.53944 11.6347 5.59925 11.3855L5.66904 10.934C5.68184 10.8607 5.65806 10.7855 5.60685 10.7347L5.28594 10.3985C5.10507 10.2198 5.19377 9.97635 5.42515 9.94215L5.85775 9.87865C5.9236 9.86888 5.99917 9.82589 6.02935 9.76239L6.23421 9.34131C6.33848 9.12931 6.5925 9.12931 6.69585 9.34131Z" fill="url(#paint86_radial_40_3977)"/>
<path d="M6.69585 9.34131L6.89666 9.76239C6.92775 9.82491 6.98446 9.86888 7.05031 9.87865L7.49942 9.94215C7.73081 9.97635 7.81808 10.2248 7.63864 10.4057L7.3239 10.7304C7.27269 10.7812 7.24891 10.8564 7.26171 10.9297L7.33245 11.3912C7.37269 11.6305 7.17109 11.8003 6.96713 11.6909L6.55375 11.4711C6.49613 11.4408 6.42845 11.4408 6.37083 11.4711L5.95744 11.6909C5.75349 11.7994 5.53944 11.6347 5.59925 11.3855L5.66904 10.934C5.68184 10.8607 5.65806 10.7855 5.60685 10.7347L5.28594 10.3985C5.10507 10.2198 5.19377 9.97635 5.42515 9.94215L5.85775 9.87865C5.9236 9.86888 5.99917 9.82589 6.02935 9.76239L6.23421 9.34131C6.33848 9.12931 6.5925 9.12931 6.69585 9.34131Z" fill="url(#paint87_radial_40_3977)"/>
<path d="M6.69585 9.34131L6.89666 9.76239C6.92775 9.82491 6.98446 9.86888 7.05031 9.87865L7.49942 9.94215C7.73081 9.97635 7.81808 10.2248 7.63864 10.4057L7.3239 10.7304C7.27269 10.7812 7.24891 10.8564 7.26171 10.9297L7.33245 11.3912C7.37269 11.6305 7.17109 11.8003 6.96713 11.6909L6.55375 11.4711C6.49613 11.4408 6.42845 11.4408 6.37083 11.4711L5.95744 11.6909C5.75349 11.7994 5.53944 11.6347 5.59925 11.3855L5.66904 10.934C5.68184 10.8607 5.65806 10.7855 5.60685 10.7347L5.28594 10.3985C5.10507 10.2198 5.19377 9.97635 5.42515 9.94215L5.85775 9.87865C5.9236 9.86888 5.99917 9.82589 6.02935 9.76239L6.23421 9.34131C6.33848 9.12931 6.5925 9.12931 6.69585 9.34131Z" fill="url(#paint88_radial_40_3977)"/>
</g>
<defs>
<linearGradient id="paint0_linear_40_3977" x1="28.6875" y1="11.1875" x2="10.75" y2="29.3125" gradientUnits="userSpaceOnUse">
<stop stop-color="#FFD874"/>
<stop offset="1" stop-color="#FFBC4C"/>
</linearGradient>
<radialGradient id="paint1_radial_40_3977" cx="0" cy="0" r="1" gradientUnits="userSpaceOnUse" gradientTransform="translate(14.6875 16.625) rotate(-23.4078) scale(15.7323 16.4902)">
<stop offset="0.769006" stop-color="#FFECAE" stop-opacity="0"/>
<stop offset="0.984059" stop-color="#FFECAE"/>
</radialGradient>
<radialGradient id="paint2_radial_40_3977" cx="0" cy="0" r="1" gradientUnits="userSpaceOnUse" gradientTransform="translate(8.70514 31.2136) rotate(-39.8461) scale(14.0127 14.6878)">
<stop stop-color="#FF984F"/>
<stop offset="1" stop-color="#FF984F" stop-opacity="0"/>
</radialGradient>
<radialGradient id="paint3_radial_40_3977" cx="0" cy="0" r="1" gradientUnits="userSpaceOnUse" gradientTransform="translate(22.1726 11.5155) rotate(13.627) scale(2.62816 6.65588)">
<stop offset="0.229694" stop-color="#BA935B"/>
<stop offset="0.978688" stop-color="#BA935B" stop-opacity="0"/>
</radialGradient>
<radialGradient id="paint4_radial_40_3977" cx="0" cy="0" r="1" gradientUnits="userSpaceOnUse" gradientTransform="translate(15.5 -7) rotate(89.2462) scale(38.0033 25.1449)">
<stop offset="0.948773" stop-color="#C1685A" stop-opacity="0"/>
<stop offset="0.955746" stop-color="#C1685A" stop-opacity="0.2"/>
<stop offset="0.974078" stop-color="#C1685A"/>
</radialGradient>
<radialGradient id="paint5_radial_40_3977" cx="0" cy="0" r="1" gradientUnits="userSpaceOnUse" gradientTransform="translate(-1.5 5.5) rotate(30.1414) scale(35.8469 22.5142)">
<stop offset="0.937301" stop-color="#C1685A" stop-opacity="0"/>
<stop offset="0.986552" stop-color="#C1685A"/>
</radialGradient>
<radialGradient id="paint6_radial_40_3977" cx="0" cy="0" r="1" gradientUnits="userSpaceOnUse" gradientTransform="translate(4 -4.5) rotate(65.1576) scale(29.7531 18.8972)">
<stop offset="0.943131" stop-color="#C1685A"/>
<stop offset="0.978926" stop-color="#C1685A" stop-opacity="0.2"/>
<stop offset="1" stop-color="#C1685A" stop-opacity="0"/>
</radialGradient>
<radialGradient id="paint7_radial_40_3977" cx="0" cy="0" r="1" gradientUnits="userSpaceOnUse" gradientTransform="translate(28.5 4.5) rotate(138.215) scale(31.5159 20.8525)">
<stop offset="0.943242" stop-color="#C1685A" stop-opacity="0"/>
<stop offset="0.957054" stop-color="#C1685A" stop-opacity="0.2"/>
<stop offset="0.990341" stop-color="#C1685A"/>
</radialGradient>
<radialGradient id="paint8_radial_40_3977" cx="0" cy="0" r="1" gradientUnits="userSpaceOnUse" gradientTransform="translate(22 22) rotate(135) scale(3.53553)">
<stop offset="0.870313" stop-color="#FFD472"/>
<stop offset="1" stop-color="#FFD472" stop-opacity="0"/>
</radialGradient>
<radialGradient id="paint9_radial_40_3977" cx="0" cy="0" r="1" gradientUnits="userSpaceOnUse" gradientTransform="translate(26.5 9.5) rotate(-112.62) scale(6.5 1.10817)">
<stop offset="0.456731" stop-color="#FFE59A"/>
<stop offset="1" stop-color="#FFE59A" stop-opacity="0"/>
</radialGradient>
<radialGradient id="paint10_radial_40_3977" cx="0" cy="0" r="1" gradientUnits="userSpaceOnUse" gradientTransform="translate(22.5 21.5) rotate(-33.6901) scale(5.40833 6.06703)">
<stop stop-color="#EBB54F" stop-opacity="0"/>
<stop offset="0.403847" stop-color="#EBB54F"/>
<stop offset="0.479968" stop-color="#EBB54F" stop-opacity="0"/>
</radialGradient>
<radialGradient id="paint11_radial_40_3977" cx="0" cy="0" r="1" gradientUnits="userSpaceOnUse" gradientTransform="translate(26.5 12.5) rotate(123.69) scale(1.80278)">
<stop offset="0.870313" stop-color="#FFD472"/>
<stop offset="1" stop-color="#FFD472" stop-opacity="0"/>
</radialGradient>
<radialGradient id="paint12_radial_40_3977" cx="0" cy="0" r="1" gradientUnits="userSpaceOnUse" gradientTransform="translate(26 13) rotate(-56.3099) scale(3.60555 4.04469)">
<stop stop-color="#FFE090" stop-opacity="0"/>
<stop offset="0.204327" stop-color="#FFE090"/>
<stop offset="0.371394" stop-color="#FFE090" stop-opacity="0"/>
</radialGradient>
<radialGradient id="paint13_radial_40_3977" cx="0" cy="0" r="1" gradientUnits="userSpaceOnUse" gradientTransform="translate(13.5 25.5) rotate(135) scale(2.12132)">
<stop offset="0.75" stop-color="#DE9543"/>
<stop offset="0.901041" stop-color="#DE9543" stop-opacity="0"/>
</radialGradient>
<radialGradient id="paint14_radial_40_3977" cx="0" cy="0" r="1" gradientUnits="userSpaceOnUse" gradientTransform="translate(13 26) rotate(-35.5377) scale(4.30116 4.82502)">
<stop offset="0.060177" stop-color="#FFC266" stop-opacity="0"/>
<stop offset="0.202069" stop-color="#FFC266"/>
<stop offset="0.364442" stop-color="#FFC266" stop-opacity="0"/>
</radialGradient>
<radialGradient id="paint15_radial_40_3977" cx="0" cy="0" r="1" gradientUnits="userSpaceOnUse" gradientTransform="translate(12.8124 25.7296) rotate(-22.978) scale(2.4298)">
<stop stop-color="#FFBA6A"/>
<stop offset="1" stop-color="#EB9E58"/>
</radialGradient>
<radialGradient id="paint16_radial_40_3977" cx="0" cy="0" r="1" gradientUnits="userSpaceOnUse" gradientTransform="translate(13 26) rotate(-45) scale(5.65685)">
<stop offset="0.238281" stop-color="#D78B4E" stop-opacity="0"/>
<stop offset="0.361328" stop-color="#D78B4E"/>
</radialGradient>
<radialGradient id="paint17_radial_40_3977" cx="0" cy="0" r="1" gradientUnits="userSpaceOnUse" gradientTransform="translate(13.5 22.5) rotate(101.31) scale(5.09902 5.26316)">
<stop offset="0.699519" stop-color="#FED98C" stop-opacity="0"/>
<stop offset="0.886936" stop-color="#FED98C"/>
</radialGradient>
<radialGradient id="paint18_radial_40_3977" cx="0" cy="0" r="1" gradientUnits="userSpaceOnUse" gradientTransform="translate(25.7326 12.8496) rotate(-15.5214) scale(2.32168)">
<stop stop-color="#FFD778"/>
<stop offset="1" stop-color="#FFC767"/>
</radialGradient>
<radialGradient id="paint19_radial_40_3977" cx="0" cy="0" r="1" gradientUnits="userSpaceOnUse" gradientTransform="translate(26 13) rotate(-59.0362) scale(2.91548 2.91548)">
<stop offset="0.433823" stop-color="#FFD475"/>
<stop offset="0.698529" stop-color="#DA8F3E"/>
</radialGradient>
<radialGradient id="paint20_radial_40_3977" cx="0" cy="0" r="1" gradientUnits="userSpaceOnUse" gradientTransform="translate(26.5 12) rotate(-56.3099) scale(3.60555 4.23188)">
<stop offset="0.377404" stop-color="#FFEBAD" stop-opacity="0"/>
<stop offset="0.519231" stop-color="#FFEBAD"/>
</radialGradient>
<linearGradient id="paint21_linear_40_3977" x1="27.7499" y1="17.1406" x2="26.203" y2="18.7968" gradientUnits="userSpaceOnUse">
<stop stop-color="#E7AC47"/>
<stop offset="1" stop-color="#FFE9A7"/>
</linearGradient>
<radialGradient id="paint22_radial_40_3977" cx="0" cy="0" r="1" gradientUnits="userSpaceOnUse" gradientTransform="translate(26.4788 18.1634) rotate(-15.5214) scale(1.46399)">
<stop stop-color="#FFDE8F"/>
<stop offset="1" stop-color="#FFC25B"/>
</radialGradient>
<radialGradient id="paint23_radial_40_3977" cx="0" cy="0" r="1" gradientUnits="userSpaceOnUse" gradientTransform="translate(20.6249 22.5312) rotate(-22.978) scale(4.64293 4.64293)">
<stop stop-color="#FFC75F"/>
<stop offset="1" stop-color="#FABC5A"/>
</radialGradient>
<radialGradient id="paint24_radial_40_3977" cx="0" cy="0" r="1" gradientUnits="userSpaceOnUse" gradientTransform="translate(20 24) rotate(-50.7106) scale(7.10633 5.29663)">
<stop offset="0.655941" stop-color="#BD8D44" stop-opacity="0"/>
<stop offset="1" stop-color="#BD8D44"/>
</radialGradient>
<radialGradient id="paint25_radial_40_3977" cx="0" cy="0" r="1" gradientUnits="userSpaceOnUse" gradientTransform="translate(23.141 21.5537) rotate(162.476) scale(4.448 4.59118)">
<stop offset="0.594982" stop-color="#FED98C" stop-opacity="0"/>
<stop offset="0.886936" stop-color="#FED98C"/>
</radialGradient>
<radialGradient id="paint26_radial_40_3977" cx="0" cy="0" r="1" gradientUnits="userSpaceOnUse" gradientTransform="translate(16.237 6.81746) rotate(132.939) scale(1.82113 1.80224)">
<stop stop-color="#F7C334"/>
<stop offset="1" stop-color="#FAC832"/>
</radialGradient>
<radialGradient id="paint27_radial_40_3977" cx="0" cy="0" r="1" gradientUnits="userSpaceOnUse" gradientTransform="translate(15.462 7.45356) rotate(90) scale(1.27128 1.27252)">
<stop stop-color="#DDBA38"/>
<stop offset="1" stop-color="#DDBA38" stop-opacity="0"/>
</radialGradient>
<radialGradient id="paint28_radial_40_3977" cx="0" cy="0" r="1" gradientUnits="userSpaceOnUse" gradientTransform="translate(14.6436 6.91888) rotate(74.0546) scale(0.206459 0.689008)">
<stop stop-color="#DDBA38"/>
<stop offset="1" stop-color="#DDBA38" stop-opacity="0"/>
</radialGradient>
<radialGradient id="paint29_radial_40_3977" cx="0" cy="0" r="1" gradientUnits="userSpaceOnUse" gradientTransform="translate(14.1895 7.05004) rotate(16.0828) scale(0.358296 0.358646)">
<stop stop-color="#B5953A"/>
<stop offset="1" stop-color="#B5953A" stop-opacity="0"/>
</radialGradient>
<radialGradient id="paint30_radial_40_3977" cx="0" cy="0" r="1" gradientUnits="userSpaceOnUse" gradientTransform="translate(14.8102 8.80832) rotate(-58.4957) scale(0.257781 0.258033)">
<stop stop-color="#C47E42"/>
<stop offset="1" stop-color="#C47E42" stop-opacity="0"/>
</radialGradient>
<radialGradient id="paint31_radial_40_3977" cx="0" cy="0" r="1" gradientUnits="userSpaceOnUse" gradientTransform="translate(16.8308 7.06422) rotate(150.751) scale(0.203145 0.267113)">
<stop stop-color="#FFF246"/>
<stop offset="1" stop-color="#FFF246" stop-opacity="0"/>
</radialGradient>
<radialGradient id="paint32_radial_40_3977" cx="0" cy="0" r="1" gradientUnits="userSpaceOnUse" gradientTransform="translate(16.3699 8.68879) rotate(21.8014) scale(0.245418 0.122709)">
<stop stop-color="#FFF246"/>
<stop offset="1" stop-color="#FFF246" stop-opacity="0"/>
</radialGradient>
<radialGradient id="paint33_radial_40_3977" cx="0" cy="0" r="1" gradientUnits="userSpaceOnUse" gradientTransform="translate(16.0053 6.8203) rotate(-45) scale(0.837848)">
<stop offset="0.113127" stop-color="#FFF249"/>
<stop offset="0.298269" stop-color="#FFF249" stop-opacity="0"/>
</radialGradient>
<radialGradient id="paint34_radial_40_3977" cx="0" cy="0" r="1" gradientUnits="userSpaceOnUse" gradientTransform="translate(16.3243 8.09634) rotate(-18.435) scale(0.576457 1.20245)">
<stop offset="0.0592265" stop-color="#FFF249"/>
<stop offset="0.39519" stop-color="#FFF249" stop-opacity="0"/>
</radialGradient>
<radialGradient id="paint35_radial_40_3977" cx="0" cy="0" r="1" gradientUnits="userSpaceOnUse" gradientTransform="translate(16.3699 6.95702) rotate(3.57634) scale(0.730589 0.19707)">
<stop offset="0.26571" stop-color="#FFF249"/>
<stop offset="0.807393" stop-color="#FFF249" stop-opacity="0"/>
</radialGradient>
<radialGradient id="paint36_radial_40_3977" cx="0" cy="0" r="1" gradientUnits="userSpaceOnUse" gradientTransform="translate(15.7319 6.36457) rotate(74.4759) scale(0.851372 0.22965)">
<stop offset="0.26571" stop-color="#FFF249"/>
<stop offset="0.738695" stop-color="#FFF249" stop-opacity="0"/>
</radialGradient>
<radialGradient id="paint37_radial_40_3977" cx="0" cy="0" r="1" gradientUnits="userSpaceOnUse" gradientTransform="translate(16.3699 8.55207) rotate(-98.5308) scale(0.921655 0.248608)">
<stop offset="0.26571" stop-color="#FFF249"/>
<stop offset="0.738695" stop-color="#FFF249" stop-opacity="0"/>
</radialGradient>
<radialGradient id="paint38_radial_40_3977" cx="0" cy="0" r="1" gradientUnits="userSpaceOnUse" gradientTransform="translate(15.2762 6.319) rotate(116.565) scale(0.917137 0.23438)">
<stop offset="0.0888889" stop-color="#B58B32"/>
<stop offset="0.933333" stop-color="#B58B32" stop-opacity="0"/>
</radialGradient>
<radialGradient id="paint39_radial_40_3977" cx="0" cy="0" r="1" gradientUnits="userSpaceOnUse" gradientTransform="translate(14.228 7.3216) rotate(48.0128) scale(1.22624 0.435705)">
<stop offset="0.121202" stop-color="#B58B32"/>
<stop offset="0.758978" stop-color="#B58B32" stop-opacity="0"/>
</radialGradient>
<radialGradient id="paint40_radial_40_3977" cx="0" cy="0" r="1" gradientUnits="userSpaceOnUse" gradientTransform="translate(14.6382 8.18749) rotate(100.62) scale(0.741873 0.306198)">
<stop offset="0.121202" stop-color="#B58B32"/>
<stop offset="0.863208" stop-color="#B58B32" stop-opacity="0"/>
</radialGradient>
<radialGradient id="paint41_radial_40_3977" cx="0" cy="0" r="1" gradientUnits="userSpaceOnUse" gradientTransform="translate(15.1395 8.59765) rotate(153.435) scale(0.713329 0.343927)">
<stop offset="0.121202" stop-color="#C6913B"/>
<stop offset="0.957143" stop-color="#C6913B" stop-opacity="0"/>
</radialGradient>
<radialGradient id="paint42_radial_40_3977" cx="0" cy="0" r="1" gradientUnits="userSpaceOnUse" gradientTransform="translate(15.7775 8.55207) rotate(28.3007) scale(0.672876 0.244612)">
<stop offset="0.121202" stop-color="#B48A32"/>
<stop offset="0.738695" stop-color="#B48A32" stop-opacity="0"/>
</radialGradient>
<radialGradient id="paint43_radial_40_3977" cx="0" cy="0" r="1" gradientUnits="userSpaceOnUse" gradientTransform="translate(14.5926 8.64322) rotate(119.745) scale(0.367421 0.461042)">
<stop offset="0.144231" stop-color="#B58B32"/>
<stop offset="0.738695" stop-color="#B58B32" stop-opacity="0"/>
</radialGradient>
<radialGradient id="paint44_radial_40_3977" cx="0" cy="0" r="1" gradientUnits="userSpaceOnUse" gradientTransform="translate(16.6889 7.00259) rotate(-29.7449) scale(0.367421 0.426067)">
<stop offset="0.0027979" stop-color="#FFF249"/>
<stop offset="0.686538" stop-color="#FFF249" stop-opacity="0"/>
</radialGradient>
<radialGradient id="paint45_radial_40_3977" cx="0" cy="0" r="1" gradientUnits="userSpaceOnUse" gradientTransform="translate(16.5066 7.5039) rotate(45) scale(0.322249 0.784602)">
<stop offset="0.125" stop-color="#E0AE33"/>
<stop offset="0.95" stop-color="#E0AE33" stop-opacity="0"/>
</radialGradient>
<radialGradient id="paint46_radial_40_3977" cx="0" cy="0" r="1" gradientUnits="userSpaceOnUse" gradientTransform="translate(16.5522 7.54947) rotate(45) scale(0.257799 0.882577)">
<stop offset="0.234947" stop-color="#E5BD42"/>
<stop offset="0.693004" stop-color="#E5BD42" stop-opacity="0"/>
</radialGradient>
<radialGradient id="paint47_radial_40_3977" cx="0" cy="0" r="1" gradientUnits="userSpaceOnUse" gradientTransform="translate(13.237 15.8175) rotate(132.939) scale(1.82113 1.80224)">
<stop stop-color="#FFBB57"/>
<stop offset="1" stop-color="#FFB956"/>
</radialGradient>
<radialGradient id="paint48_radial_40_3977" cx="0" cy="0" r="1" gradientUnits="userSpaceOnUse" gradientTransform="translate(12.462 16.4536) rotate(90) scale(1.27128 1.27252)">
<stop stop-color="#DDBA38"/>
<stop offset="1" stop-color="#DDBA38" stop-opacity="0"/>
</radialGradient>
<radialGradient id="paint49_radial_40_3977" cx="0" cy="0" r="1" gradientUnits="userSpaceOnUse" gradientTransform="translate(11.6436 15.9189) rotate(74.0546) scale(0.206459 0.689008)">
<stop stop-color="#DDBA38"/>
<stop offset="1" stop-color="#DDBA38" stop-opacity="0"/>
</radialGradient>
<radialGradient id="paint50_radial_40_3977" cx="0" cy="0" r="1" gradientUnits="userSpaceOnUse" gradientTransform="translate(11.1895 16.0501) rotate(16.0828) scale(0.358296 0.358646)">
<stop stop-color="#B5953A"/>
<stop offset="1" stop-color="#B5953A" stop-opacity="0"/>
</radialGradient>
<radialGradient id="paint51_radial_40_3977" cx="0" cy="0" r="1" gradientUnits="userSpaceOnUse" gradientTransform="translate(11.8102 17.8083) rotate(-58.4957) scale(0.257781 0.258033)">
<stop stop-color="#C47E42"/>
<stop offset="1" stop-color="#C47E42" stop-opacity="0"/>
</radialGradient>
<radialGradient id="paint52_radial_40_3977" cx="0" cy="0" r="1" gradientUnits="userSpaceOnUse" gradientTransform="translate(13.8308 16.0642) rotate(150.751) scale(0.203145 0.267113)">
<stop stop-color="#FFF246"/>
<stop offset="1" stop-color="#FFF246" stop-opacity="0"/>
</radialGradient>
<radialGradient id="paint53_radial_40_3977" cx="0" cy="0" r="1" gradientUnits="userSpaceOnUse" gradientTransform="translate(13.3699 17.6888) rotate(21.8014) scale(0.245418 0.122709)">
<stop stop-color="#FFF246"/>
<stop offset="1" stop-color="#FFF246" stop-opacity="0"/>
</radialGradient>
<radialGradient id="paint54_radial_40_3977" cx="0" cy="0" r="1" gradientUnits="userSpaceOnUse" gradientTransform="translate(13.0053 15.8203) rotate(-45) scale(0.837848)">
<stop offset="0.113127" stop-color="#FFF249"/>
<stop offset="0.298269" stop-color="#FFF249" stop-opacity="0"/>
</radialGradient>
<radialGradient id="paint55_radial_40_3977" cx="0" cy="0" r="1" gradientUnits="userSpaceOnUse" gradientTransform="translate(13.3243 17.0964) rotate(-18.435) scale(0.576457 1.20245)">
<stop offset="0.0592265" stop-color="#FFF249"/>
<stop offset="0.39519" stop-color="#FFF249" stop-opacity="0"/>
</radialGradient>
<radialGradient id="paint56_radial_40_3977" cx="0" cy="0" r="1" gradientUnits="userSpaceOnUse" gradientTransform="translate(13.3699 15.9571) rotate(3.57634) scale(0.730589 0.19707)">
<stop offset="0.26571" stop-color="#FFF249"/>
<stop offset="0.807393" stop-color="#FFF249" stop-opacity="0"/>
</radialGradient>
<radialGradient id="paint57_radial_40_3977" cx="0" cy="0" r="1" gradientUnits="userSpaceOnUse" gradientTransform="translate(12.7319 15.3646) rotate(74.4759) scale(0.851372 0.22965)">
<stop offset="0.26571" stop-color="#FFF249"/>
<stop offset="0.738695" stop-color="#FFF249" stop-opacity="0"/>
</radialGradient>
<radialGradient id="paint58_radial_40_3977" cx="0" cy="0" r="1" gradientUnits="userSpaceOnUse" gradientTransform="translate(13.3699 17.5521) rotate(-98.5308) scale(0.921655 0.248608)">
<stop offset="0.26571" stop-color="#FFF249"/>
<stop offset="0.738695" stop-color="#FFF249" stop-opacity="0"/>
</radialGradient>
<radialGradient id="paint59_radial_40_3977" cx="0" cy="0" r="1" gradientUnits="userSpaceOnUse" gradientTransform="translate(12.2762 15.319) rotate(116.565) scale(0.917137 0.23438)">
<stop offset="0.0888889" stop-color="#B58B32"/>
<stop offset="0.933333" stop-color="#B58B32" stop-opacity="0"/>
</radialGradient>
<radialGradient id="paint60_radial_40_3977" cx="0" cy="0" r="1" gradientUnits="userSpaceOnUse" gradientTransform="translate(11.228 16.3216) rotate(48.0128) scale(1.22624 0.435705)">
<stop offset="0.121202" stop-color="#B58B32"/>
<stop offset="0.758978" stop-color="#B58B32" stop-opacity="0"/>
</radialGradient>
<radialGradient id="paint61_radial_40_3977" cx="0" cy="0" r="1" gradientUnits="userSpaceOnUse" gradientTransform="translate(11.6382 17.1875) rotate(100.62) scale(0.741873 0.306198)">
<stop offset="0.121202" stop-color="#B58B32"/>
<stop offset="0.863208" stop-color="#B58B32" stop-opacity="0"/>
</radialGradient>
<radialGradient id="paint62_radial_40_3977" cx="0" cy="0" r="1" gradientUnits="userSpaceOnUse" gradientTransform="translate(12.1395 17.5977) rotate(153.435) scale(0.713329 0.343927)">
<stop offset="0.121202" stop-color="#C6913B"/>
<stop offset="0.957143" stop-color="#C6913B" stop-opacity="0"/>
</radialGradient>
<radialGradient id="paint63_radial_40_3977" cx="0" cy="0" r="1" gradientUnits="userSpaceOnUse" gradientTransform="translate(12.7775 17.5521) rotate(28.3007) scale(0.672876 0.244612)">
<stop offset="0.121202" stop-color="#B48A32"/>
<stop offset="0.738695" stop-color="#B48A32" stop-opacity="0"/>
</radialGradient>
<radialGradient id="paint64_radial_40_3977" cx="0" cy="0" r="1" gradientUnits="userSpaceOnUse" gradientTransform="translate(11.5926 17.6432) rotate(119.745) scale(0.367421 0.461042)">
<stop offset="0.144231" stop-color="#B58B32"/>
<stop offset="0.738695" stop-color="#B58B32" stop-opacity="0"/>
</radialGradient>
<radialGradient id="paint65_radial_40_3977" cx="0" cy="0" r="1" gradientUnits="userSpaceOnUse" gradientTransform="translate(13.6889 16.0026) rotate(-29.7449) scale(0.367421 0.426067)">
<stop offset="0.0027979" stop-color="#FFF249"/>
<stop offset="0.686538" stop-color="#FFF249" stop-opacity="0"/>
</radialGradient>
<radialGradient id="paint66_radial_40_3977" cx="0" cy="0" r="1" gradientUnits="userSpaceOnUse" gradientTransform="translate(13.5066 16.5039) rotate(45) scale(0.322249 0.784602)">
<stop offset="0.125" stop-color="#E0AE33"/>
<stop offset="0.95" stop-color="#E0AE33" stop-opacity="0"/>
</radialGradient>
<radialGradient id="paint67_radial_40_3977" cx="0" cy="0" r="1" gradientUnits="userSpaceOnUse" gradientTransform="translate(13.5522 16.5495) rotate(45) scale(0.257799 0.882577)">
<stop offset="0.234947" stop-color="#E5BD42"/>
<stop offset="0.693004" stop-color="#E5BD42" stop-opacity="0"/>
</radialGradient>
<radialGradient id="paint68_radial_40_3977" cx="0" cy="0" r="1" gradientUnits="userSpaceOnUse" gradientTransform="translate(7.23703 9.81749) rotate(132.939) scale(1.82113 1.80224)">
<stop stop-color="#FFBB57"/>
<stop offset="1" stop-color="#FFB956"/>
</radialGradient>
<radialGradient id="paint69_radial_40_3977" cx="0" cy="0" r="1" gradientUnits="userSpaceOnUse" gradientTransform="translate(6.46197 10.4536) rotate(90) scale(1.27128 1.27252)">
<stop stop-color="#DDBA38"/>
<stop offset="1" stop-color="#DDBA38" stop-opacity="0"/>
</radialGradient>
<radialGradient id="paint70_radial_40_3977" cx="0" cy="0" r="1" gradientUnits="userSpaceOnUse" gradientTransform="translate(5.64362 9.91891) rotate(74.0546) scale(0.206459 0.689008)">
<stop stop-color="#DDBA38"/>
<stop offset="1" stop-color="#DDBA38" stop-opacity="0"/>
</radialGradient>
<radialGradient id="paint71_radial_40_3977" cx="0" cy="0" r="1" gradientUnits="userSpaceOnUse" gradientTransform="translate(5.18945 10.0501) rotate(16.0828) scale(0.358296 0.358646)">
<stop stop-color="#B5953A"/>
<stop offset="1" stop-color="#B5953A" stop-opacity="0"/>
</radialGradient>
<radialGradient id="paint72_radial_40_3977" cx="0" cy="0" r="1" gradientUnits="userSpaceOnUse" gradientTransform="translate(5.81023 11.8083) rotate(-58.4957) scale(0.257781 0.258033)">
<stop stop-color="#C47E42"/>
<stop offset="1" stop-color="#C47E42" stop-opacity="0"/>
</radialGradient>
<radialGradient id="paint73_radial_40_3977" cx="0" cy="0" r="1" gradientUnits="userSpaceOnUse" gradientTransform="translate(7.83083 10.0642) rotate(150.751) scale(0.203145 0.267113)">
<stop stop-color="#FFF246"/>
<stop offset="1" stop-color="#FFF246" stop-opacity="0"/>
</radialGradient>
<radialGradient id="paint74_radial_40_3977" cx="0" cy="0" r="1" gradientUnits="userSpaceOnUse" gradientTransform="translate(7.36992 11.6888) rotate(21.8014) scale(0.245418 0.122709)">
<stop stop-color="#FFF246"/>
<stop offset="1" stop-color="#FFF246" stop-opacity="0"/>
</radialGradient>
<radialGradient id="paint75_radial_40_3977" cx="0" cy="0" r="1" gradientUnits="userSpaceOnUse" gradientTransform="translate(7.00534 9.82033) rotate(-45) scale(0.837848)">
<stop offset="0.113127" stop-color="#FFF249"/>
<stop offset="0.298269" stop-color="#FFF249" stop-opacity="0"/>
</radialGradient>
<radialGradient id="paint76_radial_40_3977" cx="0" cy="0" r="1" gradientUnits="userSpaceOnUse" gradientTransform="translate(7.32435 11.0964) rotate(-18.435) scale(0.576457 1.20245)">
<stop offset="0.0592265" stop-color="#FFF249"/>
<stop offset="0.39519" stop-color="#FFF249" stop-opacity="0"/>
</radialGradient>
<radialGradient id="paint77_radial_40_3977" cx="0" cy="0" r="1" gradientUnits="userSpaceOnUse" gradientTransform="translate(7.36992 9.95705) rotate(3.57634) scale(0.730589 0.19707)">
<stop offset="0.26571" stop-color="#FFF249"/>
<stop offset="0.807393" stop-color="#FFF249" stop-opacity="0"/>
</radialGradient>
<radialGradient id="paint78_radial_40_3977" cx="0" cy="0" r="1" gradientUnits="userSpaceOnUse" gradientTransform="translate(6.7319 9.3646) rotate(74.4759) scale(0.851372 0.22965)">
<stop offset="0.26571" stop-color="#FFF249"/>
<stop offset="0.738695" stop-color="#FFF249" stop-opacity="0"/>
</radialGradient>
<radialGradient id="paint79_radial_40_3977" cx="0" cy="0" r="1" gradientUnits="userSpaceOnUse" gradientTransform="translate(7.36992 11.5521) rotate(-98.5308) scale(0.921655 0.248608)">
<stop offset="0.26571" stop-color="#FFF249"/>
<stop offset="0.738695" stop-color="#FFF249" stop-opacity="0"/>
</radialGradient>
<radialGradient id="paint80_radial_40_3977" cx="0" cy="0" r="1" gradientUnits="userSpaceOnUse" gradientTransform="translate(6.27617 9.31903) rotate(116.565) scale(0.917137 0.23438)">
<stop offset="0.0888889" stop-color="#B58B32"/>
<stop offset="0.933333" stop-color="#B58B32" stop-opacity="0"/>
</radialGradient>
<radialGradient id="paint81_radial_40_3977" cx="0" cy="0" r="1" gradientUnits="userSpaceOnUse" gradientTransform="translate(5.22799 10.3216) rotate(48.0128) scale(1.22624 0.435705)">
<stop offset="0.121202" stop-color="#B58B32"/>
<stop offset="0.758978" stop-color="#B58B32" stop-opacity="0"/>
</radialGradient>
<radialGradient id="paint82_radial_40_3977" cx="0" cy="0" r="1" gradientUnits="userSpaceOnUse" gradientTransform="translate(5.63815 11.1875) rotate(100.62) scale(0.741873 0.306198)">
<stop offset="0.121202" stop-color="#B58B32"/>
<stop offset="0.863208" stop-color="#B58B32" stop-opacity="0"/>
</radialGradient>
<radialGradient id="paint83_radial_40_3977" cx="0" cy="0" r="1" gradientUnits="userSpaceOnUse" gradientTransform="translate(6.13945 11.5977) rotate(153.435) scale(0.713329 0.343927)">
<stop offset="0.121202" stop-color="#C6913B"/>
<stop offset="0.957143" stop-color="#C6913B" stop-opacity="0"/>
</radialGradient>
<radialGradient id="paint84_radial_40_3977" cx="0" cy="0" r="1" gradientUnits="userSpaceOnUse" gradientTransform="translate(6.77747 11.5521) rotate(28.3007) scale(0.672876 0.244612)">
<stop offset="0.121202" stop-color="#B48A32"/>
<stop offset="0.738695" stop-color="#B48A32" stop-opacity="0"/>
</radialGradient>
<radialGradient id="paint85_radial_40_3977" cx="0" cy="0" r="1" gradientUnits="userSpaceOnUse" gradientTransform="translate(5.59258 11.6432) rotate(119.745) scale(0.367421 0.461042)">
<stop offset="0.144231" stop-color="#B58B32"/>
<stop offset="0.738695" stop-color="#B58B32" stop-opacity="0"/>
</radialGradient>
<radialGradient id="paint86_radial_40_3977" cx="0" cy="0" r="1" gradientUnits="userSpaceOnUse" gradientTransform="translate(7.68893 10.0026) rotate(-29.7449) scale(0.367421 0.426067)">
<stop offset="0.0027979" stop-color="#FFF249"/>
<stop offset="0.686538" stop-color="#FFF249" stop-opacity="0"/>
</radialGradient>
<radialGradient id="paint87_radial_40_3977" cx="0" cy="0" r="1" gradientUnits="userSpaceOnUse" gradientTransform="translate(7.50664 10.5039) rotate(45) scale(0.322249 0.784602)">
<stop offset="0.125" stop-color="#E0AE33"/>
<stop offset="0.95" stop-color="#E0AE33" stop-opacity="0"/>
</radialGradient>
<radialGradient id="paint88_radial_40_3977" cx="0" cy="0" r="1" gradientUnits="userSpaceOnUse" gradientTransform="translate(7.55221 10.5495) rotate(45) scale(0.257799 0.882577)">
<stop offset="0.234947" stop-color="#E5BD42"/>
<stop offset="0.693004" stop-color="#E5BD42" stop-opacity="0"/>
</radialGradient>
<clipPath id="clip0_40_3977">
<rect width="2.91667" height="2.91667" fill="white" transform="translate(14 6)"/>
</clipPath>
<clipPath id="clip1_40_3977">
<rect width="2.91667" height="2.91667" fill="white" transform="translate(11 15)"/>
</clipPath>
<clipPath id="clip2_40_3977">
<rect width="2.91667" height="2.91667" fill="white" transform="translate(5 9)"/>
</clipPath>
</defs>
</svg>
