<svg width="32" height="32" viewBox="0 0 32 32" fill="none" xmlns="http://www.w3.org/2000/svg">
<path d="M10.3253 4.89006C11.4414 3.63382 12.9587 3.83376 13.9297 4.89006L14.5218 5.57561C14.7268 5.79868 15.0235 5.91434 15.3254 5.88892L16.3781 5.57561C17.813 5.26801 19.117 6.33849 19.117 8.00116V8.6275C19.1474 8.96942 19.446 9.2012 19.7545 9.35184L20.7056 9.74924C22.0814 10.4211 22.4252 12.0155 21.423 13.3536L21.1383 13.7294C20.883 14.0746 20.9354 14.5277 21.1896 14.8739L21.4743 15.2725C22.5106 16.5479 21.9263 18.2978 20.4624 18.9092L19.6437 19.2511C19.3353 19.3799 19.2145 19.601 19.1568 19.9302L19.0999 21.0007C18.9006 22.4698 17.5958 23.1333 16.5489 22.9851L15.3019 22.652C15.0024 22.6096 14.63 22.7089 14.4307 23.0221L13.9809 23.637C12.8649 24.8954 11.3586 24.6862 10.5986 23.9502L9.76883 22.9452C9.55155 22.7348 9.27762 22.5552 8.94976 22.6789L7.69467 23.0221C6.65851 23.1688 5.4384 22.3722 5.24311 21.3441L5.09819 19.8562C5.03936 19.5465 4.83514 19.284 4.54941 19.1509L3.66899 18.8483C2.34503 18.2314 1.90159 16.7377 2.66177 15.4905L3.158 14.8042C3.35732 14.4772 3.34785 14.064 3.13374 13.7465L2.76363 13.2226C1.71594 11.7308 2.44031 10.0633 3.99281 9.5634L4.33522 9.45315C4.71315 9.33146 5.07821 9.0176 5.10962 8.62181L5.18586 7.66102C5.30963 6.10149 6.7327 5.20662 8.22949 5.66165L8.71391 5.80891C9.18082 5.99112 9.54663 5.83595 9.80147 5.55837L10.3253 4.89006Z" fill="url(#paint0_linear_3_1315)"/>
<path d="M10.3253 4.89006C11.4414 3.63382 12.9587 3.83376 13.9297 4.89006L14.5218 5.57561C14.7268 5.79868 15.0235 5.91434 15.3254 5.88892L16.3781 5.57561C17.813 5.26801 19.117 6.33849 19.117 8.00116V8.6275C19.1474 8.96942 19.446 9.2012 19.7545 9.35184L20.7056 9.74924C22.0814 10.4211 22.4252 12.0155 21.423 13.3536L21.1383 13.7294C20.883 14.0746 20.9354 14.5277 21.1896 14.8739L21.4743 15.2725C22.5106 16.5479 21.9263 18.2978 20.4624 18.9092L19.6437 19.2511C19.3353 19.3799 19.2145 19.601 19.1568 19.9302L19.0999 21.0007C18.9006 22.4698 17.5958 23.1333 16.5489 22.9851L15.3019 22.652C15.0024 22.6096 14.63 22.7089 14.4307 23.0221L13.9809 23.637C12.8649 24.8954 11.3586 24.6862 10.5986 23.9502L9.76883 22.9452C9.55155 22.7348 9.27762 22.5552 8.94976 22.6789L7.69467 23.0221C6.65851 23.1688 5.4384 22.3722 5.24311 21.3441L5.09819 19.8562C5.03936 19.5465 4.83514 19.284 4.54941 19.1509L3.66899 18.8483C2.34503 18.2314 1.90159 16.7377 2.66177 15.4905L3.158 14.8042C3.35732 14.4772 3.34785 14.064 3.13374 13.7465L2.76363 13.2226C1.71594 11.7308 2.44031 10.0633 3.99281 9.5634L4.33522 9.45315C4.71315 9.33146 5.07821 9.0176 5.10962 8.62181L5.18586 7.66102C5.30963 6.10149 6.7327 5.20662 8.22949 5.66165L8.71391 5.80891C9.18082 5.99112 9.54663 5.83595 9.80147 5.55837L10.3253 4.89006Z" fill="url(#paint1_radial_3_1315)"/>
<path d="M10.3253 4.89006C11.4414 3.63382 12.9587 3.83376 13.9297 4.89006L14.5218 5.57561C14.7268 5.79868 15.0235 5.91434 15.3254 5.88892L16.3781 5.57561C17.813 5.26801 19.117 6.33849 19.117 8.00116V8.6275C19.1474 8.96942 19.446 9.2012 19.7545 9.35184L20.7056 9.74924C22.0814 10.4211 22.4252 12.0155 21.423 13.3536L21.1383 13.7294C20.883 14.0746 20.9354 14.5277 21.1896 14.8739L21.4743 15.2725C22.5106 16.5479 21.9263 18.2978 20.4624 18.9092L19.6437 19.2511C19.3353 19.3799 19.2145 19.601 19.1568 19.9302L19.0999 21.0007C18.9006 22.4698 17.5958 23.1333 16.5489 22.9851L15.3019 22.652C15.0024 22.6096 14.63 22.7089 14.4307 23.0221L13.9809 23.637C12.8649 24.8954 11.3586 24.6862 10.5986 23.9502L9.76883 22.9452C9.55155 22.7348 9.27762 22.5552 8.94976 22.6789L7.69467 23.0221C6.65851 23.1688 5.4384 22.3722 5.24311 21.3441L5.09819 19.8562C5.03936 19.5465 4.83514 19.284 4.54941 19.1509L3.66899 18.8483C2.34503 18.2314 1.90159 16.7377 2.66177 15.4905L3.158 14.8042C3.35732 14.4772 3.34785 14.064 3.13374 13.7465L2.76363 13.2226C1.71594 11.7308 2.44031 10.0633 3.99281 9.5634L4.33522 9.45315C4.71315 9.33146 5.07821 9.0176 5.10962 8.62181L5.18586 7.66102C5.30963 6.10149 6.7327 5.20662 8.22949 5.66165L8.71391 5.80891C9.18082 5.99112 9.54663 5.83595 9.80147 5.55837L10.3253 4.89006Z" fill="url(#paint2_radial_3_1315)"/>
<path d="M10.3253 4.89006C11.4414 3.63382 12.9587 3.83376 13.9297 4.89006L14.5218 5.57561C14.7268 5.79868 15.0235 5.91434 15.3254 5.88892L16.3781 5.57561C17.813 5.26801 19.117 6.33849 19.117 8.00116V8.6275C19.1474 8.96942 19.446 9.2012 19.7545 9.35184L20.7056 9.74924C22.0814 10.4211 22.4252 12.0155 21.423 13.3536L21.1383 13.7294C20.883 14.0746 20.9354 14.5277 21.1896 14.8739L21.4743 15.2725C22.5106 16.5479 21.9263 18.2978 20.4624 18.9092L19.6437 19.2511C19.3353 19.3799 19.2145 19.601 19.1568 19.9302L19.0999 21.0007C18.9006 22.4698 17.5958 23.1333 16.5489 22.9851L15.3019 22.652C15.0024 22.6096 14.63 22.7089 14.4307 23.0221L13.9809 23.637C12.8649 24.8954 11.3586 24.6862 10.5986 23.9502L9.76883 22.9452C9.55155 22.7348 9.27762 22.5552 8.94976 22.6789L7.69467 23.0221C6.65851 23.1688 5.4384 22.3722 5.24311 21.3441L5.09819 19.8562C5.03936 19.5465 4.83514 19.284 4.54941 19.1509L3.66899 18.8483C2.34503 18.2314 1.90159 16.7377 2.66177 15.4905L3.158 14.8042C3.35732 14.4772 3.34785 14.064 3.13374 13.7465L2.76363 13.2226C1.71594 11.7308 2.44031 10.0633 3.99281 9.5634L4.33522 9.45315C4.71315 9.33146 5.07821 9.0176 5.10962 8.62181L5.18586 7.66102C5.30963 6.10149 6.7327 5.20662 8.22949 5.66165L8.71391 5.80891C9.18082 5.99112 9.54663 5.83595 9.80147 5.55837L10.3253 4.89006Z" fill="url(#paint3_radial_3_1315)"/>
<path d="M10.3253 4.89006C11.4414 3.63382 12.9587 3.83376 13.9297 4.89006L14.5218 5.57561C14.7268 5.79868 15.0235 5.91434 15.3254 5.88892L16.3781 5.57561C17.813 5.26801 19.117 6.33849 19.117 8.00116V8.6275C19.1474 8.96942 19.446 9.2012 19.7545 9.35184L20.7056 9.74924C22.0814 10.4211 22.4252 12.0155 21.423 13.3536L21.1383 13.7294C20.883 14.0746 20.9354 14.5277 21.1896 14.8739L21.4743 15.2725C22.5106 16.5479 21.9263 18.2978 20.4624 18.9092L19.6437 19.2511C19.3353 19.3799 19.2145 19.601 19.1568 19.9302L19.0999 21.0007C18.9006 22.4698 17.5958 23.1333 16.5489 22.9851L15.3019 22.652C15.0024 22.6096 14.63 22.7089 14.4307 23.0221L13.9809 23.637C12.8649 24.8954 11.3586 24.6862 10.5986 23.9502L9.76883 22.9452C9.55155 22.7348 9.27762 22.5552 8.94976 22.6789L7.69467 23.0221C6.65851 23.1688 5.4384 22.3722 5.24311 21.3441L5.09819 19.8562C5.03936 19.5465 4.83514 19.284 4.54941 19.1509L3.66899 18.8483C2.34503 18.2314 1.90159 16.7377 2.66177 15.4905L3.158 14.8042C3.35732 14.4772 3.34785 14.064 3.13374 13.7465L2.76363 13.2226C1.71594 11.7308 2.44031 10.0633 3.99281 9.5634L4.33522 9.45315C4.71315 9.33146 5.07821 9.0176 5.10962 8.62181L5.18586 7.66102C5.30963 6.10149 6.7327 5.20662 8.22949 5.66165L8.71391 5.80891C9.18082 5.99112 9.54663 5.83595 9.80147 5.55837L10.3253 4.89006Z" fill="url(#paint4_radial_3_1315)"/>
<path d="M10.3253 4.89006C11.4414 3.63382 12.9587 3.83376 13.9297 4.89006L14.5218 5.57561C14.7268 5.79868 15.0235 5.91434 15.3254 5.88892L16.3781 5.57561C17.813 5.26801 19.117 6.33849 19.117 8.00116V8.6275C19.1474 8.96942 19.446 9.2012 19.7545 9.35184L20.7056 9.74924C22.0814 10.4211 22.4252 12.0155 21.423 13.3536L21.1383 13.7294C20.883 14.0746 20.9354 14.5277 21.1896 14.8739L21.4743 15.2725C22.5106 16.5479 21.9263 18.2978 20.4624 18.9092L19.6437 19.2511C19.3353 19.3799 19.2145 19.601 19.1568 19.9302L19.0999 21.0007C18.9006 22.4698 17.5958 23.1333 16.5489 22.9851L15.3019 22.652C15.0024 22.6096 14.63 22.7089 14.4307 23.0221L13.9809 23.637C12.8649 24.8954 11.3586 24.6862 10.5986 23.9502L9.76883 22.9452C9.55155 22.7348 9.27762 22.5552 8.94976 22.6789L7.69467 23.0221C6.65851 23.1688 5.4384 22.3722 5.24311 21.3441L5.09819 19.8562C5.03936 19.5465 4.83514 19.284 4.54941 19.1509L3.66899 18.8483C2.34503 18.2314 1.90159 16.7377 2.66177 15.4905L3.158 14.8042C3.35732 14.4772 3.34785 14.064 3.13374 13.7465L2.76363 13.2226C1.71594 11.7308 2.44031 10.0633 3.99281 9.5634L4.33522 9.45315C4.71315 9.33146 5.07821 9.0176 5.10962 8.62181L5.18586 7.66102C5.30963 6.10149 6.7327 5.20662 8.22949 5.66165L8.71391 5.80891C9.18082 5.99112 9.54663 5.83595 9.80147 5.55837L10.3253 4.89006Z" fill="url(#paint5_radial_3_1315)"/>
<path d="M10.3253 4.89006C11.4414 3.63382 12.9587 3.83376 13.9297 4.89006L14.5218 5.57561C14.7268 5.79868 15.0235 5.91434 15.3254 5.88892L16.3781 5.57561C17.813 5.26801 19.117 6.33849 19.117 8.00116V8.6275C19.1474 8.96942 19.446 9.2012 19.7545 9.35184L20.7056 9.74924C22.0814 10.4211 22.4252 12.0155 21.423 13.3536L21.1383 13.7294C20.883 14.0746 20.9354 14.5277 21.1896 14.8739L21.4743 15.2725C22.5106 16.5479 21.9263 18.2978 20.4624 18.9092L19.6437 19.2511C19.3353 19.3799 19.2145 19.601 19.1568 19.9302L19.0999 21.0007C18.9006 22.4698 17.5958 23.1333 16.5489 22.9851L15.3019 22.652C15.0024 22.6096 14.63 22.7089 14.4307 23.0221L13.9809 23.637C12.8649 24.8954 11.3586 24.6862 10.5986 23.9502L9.76883 22.9452C9.55155 22.7348 9.27762 22.5552 8.94976 22.6789L7.69467 23.0221C6.65851 23.1688 5.4384 22.3722 5.24311 21.3441L5.09819 19.8562C5.03936 19.5465 4.83514 19.284 4.54941 19.1509L3.66899 18.8483C2.34503 18.2314 1.90159 16.7377 2.66177 15.4905L3.158 14.8042C3.35732 14.4772 3.34785 14.064 3.13374 13.7465L2.76363 13.2226C1.71594 11.7308 2.44031 10.0633 3.99281 9.5634L4.33522 9.45315C4.71315 9.33146 5.07821 9.0176 5.10962 8.62181L5.18586 7.66102C5.30963 6.10149 6.7327 5.20662 8.22949 5.66165L8.71391 5.80891C9.18082 5.99112 9.54663 5.83595 9.80147 5.55837L10.3253 4.89006Z" fill="url(#paint6_radial_3_1315)"/>
<path d="M10.3253 4.89006C11.4414 3.63382 12.9587 3.83376 13.9297 4.89006L14.5218 5.57561C14.7268 5.79868 15.0235 5.91434 15.3254 5.88892L16.3781 5.57561C17.813 5.26801 19.117 6.33849 19.117 8.00116V8.6275C19.1474 8.96942 19.446 9.2012 19.7545 9.35184L20.7056 9.74924C22.0814 10.4211 22.4252 12.0155 21.423 13.3536L21.1383 13.7294C20.883 14.0746 20.9354 14.5277 21.1896 14.8739L21.4743 15.2725C22.5106 16.5479 21.9263 18.2978 20.4624 18.9092L19.6437 19.2511C19.3353 19.3799 19.2145 19.601 19.1568 19.9302L19.0999 21.0007C18.9006 22.4698 17.5958 23.1333 16.5489 22.9851L15.3019 22.652C15.0024 22.6096 14.63 22.7089 14.4307 23.0221L13.9809 23.637C12.8649 24.8954 11.3586 24.6862 10.5986 23.9502L9.76883 22.9452C9.55155 22.7348 9.27762 22.5552 8.94976 22.6789L7.69467 23.0221C6.65851 23.1688 5.4384 22.3722 5.24311 21.3441L5.09819 19.8562C5.03936 19.5465 4.83514 19.284 4.54941 19.1509L3.66899 18.8483C2.34503 18.2314 1.90159 16.7377 2.66177 15.4905L3.158 14.8042C3.35732 14.4772 3.34785 14.064 3.13374 13.7465L2.76363 13.2226C1.71594 11.7308 2.44031 10.0633 3.99281 9.5634L4.33522 9.45315C4.71315 9.33146 5.07821 9.0176 5.10962 8.62181L5.18586 7.66102C5.30963 6.10149 6.7327 5.20662 8.22949 5.66165L8.71391 5.80891C9.18082 5.99112 9.54663 5.83595 9.80147 5.55837L10.3253 4.89006Z" fill="url(#paint7_radial_3_1315)"/>
<path d="M10.3253 4.89006C11.4414 3.63382 12.9587 3.83376 13.9297 4.89006L14.5218 5.57561C14.7268 5.79868 15.0235 5.91434 15.3254 5.88892L16.3781 5.57561C17.813 5.26801 19.117 6.33849 19.117 8.00116V8.6275C19.1474 8.96942 19.446 9.2012 19.7545 9.35184L20.7056 9.74924C22.0814 10.4211 22.4252 12.0155 21.423 13.3536L21.1383 13.7294C20.883 14.0746 20.9354 14.5277 21.1896 14.8739L21.4743 15.2725C22.5106 16.5479 21.9263 18.2978 20.4624 18.9092L19.6437 19.2511C19.3353 19.3799 19.2145 19.601 19.1568 19.9302L19.0999 21.0007C18.9006 22.4698 17.5958 23.1333 16.5489 22.9851L15.3019 22.652C15.0024 22.6096 14.63 22.7089 14.4307 23.0221L13.9809 23.637C12.8649 24.8954 11.3586 24.6862 10.5986 23.9502L9.76883 22.9452C9.55155 22.7348 9.27762 22.5552 8.94976 22.6789L7.69467 23.0221C6.65851 23.1688 5.4384 22.3722 5.24311 21.3441L5.09819 19.8562C5.03936 19.5465 4.83514 19.284 4.54941 19.1509L3.66899 18.8483C2.34503 18.2314 1.90159 16.7377 2.66177 15.4905L3.158 14.8042C3.35732 14.4772 3.34785 14.064 3.13374 13.7465L2.76363 13.2226C1.71594 11.7308 2.44031 10.0633 3.99281 9.5634L4.33522 9.45315C4.71315 9.33146 5.07821 9.0176 5.10962 8.62181L5.18586 7.66102C5.30963 6.10149 6.7327 5.20662 8.22949 5.66165L8.71391 5.80891C9.18082 5.99112 9.54663 5.83595 9.80147 5.55837L10.3253 4.89006Z" fill="url(#paint8_radial_3_1315)"/>
<path d="M10.3253 4.89006C11.4414 3.63382 12.9587 3.83376 13.9297 4.89006L14.5218 5.57561C14.7268 5.79868 15.0235 5.91434 15.3254 5.88892L16.3781 5.57561C17.813 5.26801 19.117 6.33849 19.117 8.00116V8.6275C19.1474 8.96942 19.446 9.2012 19.7545 9.35184L20.7056 9.74924C22.0814 10.4211 22.4252 12.0155 21.423 13.3536L21.1383 13.7294C20.883 14.0746 20.9354 14.5277 21.1896 14.8739L21.4743 15.2725C22.5106 16.5479 21.9263 18.2978 20.4624 18.9092L19.6437 19.2511C19.3353 19.3799 19.2145 19.601 19.1568 19.9302L19.0999 21.0007C18.9006 22.4698 17.5958 23.1333 16.5489 22.9851L15.3019 22.652C15.0024 22.6096 14.63 22.7089 14.4307 23.0221L13.9809 23.637C12.8649 24.8954 11.3586 24.6862 10.5986 23.9502L9.76883 22.9452C9.55155 22.7348 9.27762 22.5552 8.94976 22.6789L7.69467 23.0221C6.65851 23.1688 5.4384 22.3722 5.24311 21.3441L5.09819 19.8562C5.03936 19.5465 4.83514 19.284 4.54941 19.1509L3.66899 18.8483C2.34503 18.2314 1.90159 16.7377 2.66177 15.4905L3.158 14.8042C3.35732 14.4772 3.34785 14.064 3.13374 13.7465L2.76363 13.2226C1.71594 11.7308 2.44031 10.0633 3.99281 9.5634L4.33522 9.45315C4.71315 9.33146 5.07821 9.0176 5.10962 8.62181L5.18586 7.66102C5.30963 6.10149 6.7327 5.20662 8.22949 5.66165L8.71391 5.80891C9.18082 5.99112 9.54663 5.83595 9.80147 5.55837L10.3253 4.89006Z" fill="url(#paint9_radial_3_1315)"/>
<path d="M12.1355 22.0928C16.4599 22.0928 19.9654 18.5873 19.9654 14.2629C19.9654 9.9386 16.4599 6.43304 12.1355 6.43304C7.81122 6.43304 4.30566 9.9386 4.30566 14.2629C4.30566 18.5873 7.81122 22.0928 12.1355 22.0928Z" fill="url(#paint10_radial_3_1315)"/>
<path d="M12.1355 22.0928C16.4599 22.0928 19.9654 18.5873 19.9654 14.2629C19.9654 9.9386 16.4599 6.43304 12.1355 6.43304C7.81122 6.43304 4.30566 9.9386 4.30566 14.2629C4.30566 18.5873 7.81122 22.0928 12.1355 22.0928Z" fill="url(#paint11_radial_3_1315)"/>
<path d="M12.1355 22.0928C16.4599 22.0928 19.9654 18.5873 19.9654 14.2629C19.9654 9.9386 16.4599 6.43304 12.1355 6.43304C7.81122 6.43304 4.30566 9.9386 4.30566 14.2629C4.30566 18.5873 7.81122 22.0928 12.1355 22.0928Z" fill="url(#paint12_radial_3_1315)"/>
<path d="M12.26 22.68C14.4912 22.68 16.3 20.8712 16.3 18.64C16.3 16.4087 14.4912 14.6 12.26 14.6C10.0287 14.6 8.21997 16.4087 8.21997 18.64C8.21997 20.8712 10.0287 22.68 12.26 22.68Z" fill="url(#paint13_radial_3_1315)"/>
<path d="M12.26 22.68C14.4912 22.68 16.3 20.8712 16.3 18.64C16.3 16.4087 14.4912 14.6 12.26 14.6C10.0287 14.6 8.21997 16.4087 8.21997 18.64C8.21997 20.8712 10.0287 22.68 12.26 22.68Z" fill="url(#paint14_radial_3_1315)"/>
<path d="M27.24 14.59C23.69 11.13 18.01 11.19 14.55 14.74C13.6263 15.682 12.9618 16.7746 12.5338 17.9412C12.4749 18.1017 12.2778 18.1645 12.1353 18.0702C11.8244 17.8645 11.493 17.6848 11.15 17.54C10.33 17.16 9.42 16.95 8.46 16.95C4.89 16.95 2 19.84 2 23.41C2 24.93 2.53 26.33 3.41 27.44C4.6 29 6.47 30 8.58 30C11.12 30 18.42 30 21.27 30C24.09 30 26.58 28.61 28.1 26.48C30.82 22.92 30.52 17.8 27.24 14.59Z" fill="#E0D3FF"/>
<path d="M27.24 14.59C23.69 11.13 18.01 11.19 14.55 14.74C13.6263 15.682 12.9618 16.7746 12.5338 17.9412C12.4749 18.1017 12.2778 18.1645 12.1353 18.0702C11.8244 17.8645 11.493 17.6848 11.15 17.54C10.33 17.16 9.42 16.95 8.46 16.95C4.89 16.95 2 19.84 2 23.41C2 24.93 2.53 26.33 3.41 27.44C4.6 29 6.47 30 8.58 30C11.12 30 18.42 30 21.27 30C24.09 30 26.58 28.61 28.1 26.48C30.82 22.92 30.52 17.8 27.24 14.59Z" fill="url(#paint15_radial_3_1315)"/>
<path d="M27.24 14.59C23.69 11.13 18.01 11.19 14.55 14.74C13.6263 15.682 12.9618 16.7746 12.5338 17.9412C12.4749 18.1017 12.2778 18.1645 12.1353 18.0702C11.8244 17.8645 11.493 17.6848 11.15 17.54C10.33 17.16 9.42 16.95 8.46 16.95C4.89 16.95 2 19.84 2 23.41C2 24.93 2.53 26.33 3.41 27.44C4.6 29 6.47 30 8.58 30C11.12 30 18.42 30 21.27 30C24.09 30 26.58 28.61 28.1 26.48C30.82 22.92 30.52 17.8 27.24 14.59Z" fill="url(#paint16_radial_3_1315)"/>
<path d="M27.24 14.59C23.69 11.13 18.01 11.19 14.55 14.74C13.6263 15.682 12.9618 16.7746 12.5338 17.9412C12.4749 18.1017 12.2778 18.1645 12.1353 18.0702C11.8244 17.8645 11.493 17.6848 11.15 17.54C10.33 17.16 9.42 16.95 8.46 16.95C4.89 16.95 2 19.84 2 23.41C2 24.93 2.53 26.33 3.41 27.44C4.6 29 6.47 30 8.58 30C11.12 30 18.42 30 21.27 30C24.09 30 26.58 28.61 28.1 26.48C30.82 22.92 30.52 17.8 27.24 14.59Z" fill="url(#paint17_radial_3_1315)"/>
<path d="M27.24 14.59C23.69 11.13 18.01 11.19 14.55 14.74C13.6263 15.682 12.9618 16.7746 12.5338 17.9412C12.4749 18.1017 12.2778 18.1645 12.1353 18.0702C11.8244 17.8645 11.493 17.6848 11.15 17.54C10.33 17.16 9.42 16.95 8.46 16.95C4.89 16.95 2 19.84 2 23.41C2 24.93 2.53 26.33 3.41 27.44C4.6 29 6.47 30 8.58 30C11.12 30 18.42 30 21.27 30C24.09 30 26.58 28.61 28.1 26.48C30.82 22.92 30.52 17.8 27.24 14.59Z" fill="url(#paint18_radial_3_1315)"/>
<path d="M27.24 14.59C23.69 11.13 18.01 11.19 14.55 14.74C13.6263 15.682 12.9618 16.7746 12.5338 17.9412C12.4749 18.1017 12.2778 18.1645 12.1353 18.0702C11.8244 17.8645 11.493 17.6848 11.15 17.54C10.33 17.16 9.42 16.95 8.46 16.95C4.89 16.95 2 19.84 2 23.41C2 24.93 2.53 26.33 3.41 27.44C4.6 29 6.47 30 8.58 30C11.12 30 18.42 30 21.27 30C24.09 30 26.58 28.61 28.1 26.48C30.82 22.92 30.52 17.8 27.24 14.59Z" fill="url(#paint19_radial_3_1315)" fill-opacity="0.9"/>
<path d="M27.24 14.59C23.69 11.13 18.01 11.19 14.55 14.74C13.6263 15.682 12.9618 16.7746 12.5338 17.9412C12.4749 18.1017 12.2778 18.1645 12.1353 18.0702C11.8244 17.8645 11.493 17.6848 11.15 17.54C10.33 17.16 9.42 16.95 8.46 16.95C4.89 16.95 2 19.84 2 23.41C2 24.93 2.53 26.33 3.41 27.44C4.6 29 6.47 30 8.58 30C11.12 30 18.42 30 21.27 30C24.09 30 26.58 28.61 28.1 26.48C30.82 22.92 30.52 17.8 27.24 14.59Z" fill="url(#paint20_radial_3_1315)"/>
<path d="M27.24 14.59C23.69 11.13 18.01 11.19 14.55 14.74C13.6263 15.682 12.9618 16.7746 12.5338 17.9412C12.4749 18.1017 12.2778 18.1645 12.1353 18.0702C11.8244 17.8645 11.493 17.6848 11.15 17.54C10.33 17.16 9.42 16.95 8.46 16.95C4.89 16.95 2 19.84 2 23.41C2 24.93 2.53 26.33 3.41 27.44C4.6 29 6.47 30 8.58 30C11.12 30 18.42 30 21.27 30C24.09 30 26.58 28.61 28.1 26.48C30.82 22.92 30.52 17.8 27.24 14.59Z" fill="url(#paint21_radial_3_1315)" fill-opacity="0.9"/>
<path d="M27.24 14.59C23.69 11.13 18.01 11.19 14.55 14.74C13.6263 15.682 12.9618 16.7746 12.5338 17.9412C12.4749 18.1017 12.2778 18.1645 12.1353 18.0702C11.8244 17.8645 11.493 17.6848 11.15 17.54C10.33 17.16 9.42 16.95 8.46 16.95C4.89 16.95 2 19.84 2 23.41C2 24.93 2.53 26.33 3.41 27.44C4.6 29 6.47 30 8.58 30C11.12 30 18.42 30 21.27 30C24.09 30 26.58 28.61 28.1 26.48C30.82 22.92 30.52 17.8 27.24 14.59Z" fill="url(#paint22_linear_3_1315)" fill-opacity="0.4"/>
<defs>
<linearGradient id="paint0_linear_3_1315" x1="18.2168" y1="7.4672" x2="7.02919" y2="21.7411" gradientUnits="userSpaceOnUse">
<stop stop-color="#FC8B23"/>
<stop offset="1" stop-color="#E67639"/>
</linearGradient>
<radialGradient id="paint1_radial_3_1315" cx="0" cy="0" r="1" gradientUnits="userSpaceOnUse" gradientTransform="translate(14.0192 4.96758) rotate(138.155) scale(2.75402 2.4299)">
<stop offset="0.300161" stop-color="#FFA13A"/>
<stop offset="1" stop-color="#FFA13A" stop-opacity="0"/>
</radialGradient>
<radialGradient id="paint2_radial_3_1315" cx="0" cy="0" r="1" gradientUnits="userSpaceOnUse" gradientTransform="translate(6.85391 4.09818) rotate(67.8105) scale(4.37825 3.86297)">
<stop offset="0.300161" stop-color="#FF942A"/>
<stop offset="1" stop-color="#FF942A" stop-opacity="0"/>
</radialGradient>
<radialGradient id="paint3_radial_3_1315" cx="0" cy="0" r="1" gradientUnits="userSpaceOnUse" gradientTransform="translate(18.6124 8.18279) rotate(-164.745) scale(1.74567 2.4171)">
<stop offset="0.300161" stop-color="#FFA13D"/>
<stop offset="1" stop-color="#FFA13D" stop-opacity="0"/>
</radialGradient>
<radialGradient id="paint4_radial_3_1315" cx="0" cy="0" r="1" gradientUnits="userSpaceOnUse" gradientTransform="translate(22.1338 10.7243) rotate(154.195) scale(3.09515 2.28599)">
<stop offset="0.300161" stop-color="#FFA13D"/>
<stop offset="1" stop-color="#FFA13D" stop-opacity="0"/>
</radialGradient>
<radialGradient id="paint5_radial_3_1315" cx="0" cy="0" r="1" gradientUnits="userSpaceOnUse" gradientTransform="translate(22.8075 15.9605) rotate(-173.379) scale(3.45258 1.94565)">
<stop offset="0.300161" stop-color="#FFA13D"/>
<stop offset="1" stop-color="#FFA13D" stop-opacity="0"/>
</radialGradient>
<radialGradient id="paint6_radial_3_1315" cx="0" cy="0" r="1" gradientUnits="userSpaceOnUse" gradientTransform="translate(19.7147 19.9719) rotate(-43.9639) scale(3.13177 3.01709)">
<stop stop-color="#E0762A"/>
<stop offset="1" stop-color="#E0762A" stop-opacity="0"/>
</radialGradient>
<radialGradient id="paint7_radial_3_1315" cx="0" cy="0" r="1" gradientUnits="userSpaceOnUse" gradientTransform="translate(5.20037 19.237) rotate(-127.747) scale(2.40097 2.31305)">
<stop stop-color="#E0762A"/>
<stop offset="1" stop-color="#E0762A" stop-opacity="0"/>
</radialGradient>
<radialGradient id="paint8_radial_3_1315" cx="0" cy="0" r="1" gradientUnits="userSpaceOnUse" gradientTransform="translate(1.92392 11.1224) rotate(25.2777) scale(2.43817 2.94688)">
<stop stop-color="#F0851D"/>
<stop offset="1" stop-color="#F0851D" stop-opacity="0"/>
</radialGradient>
<radialGradient id="paint9_radial_3_1315" cx="0" cy="0" r="1" gradientUnits="userSpaceOnUse" gradientTransform="translate(16.4778 23.4491) rotate(-142.487) scale(2.84265 2.6818)">
<stop offset="0.336586" stop-color="#E3745B"/>
<stop offset="1" stop-color="#E3745B" stop-opacity="0"/>
</radialGradient>
<radialGradient id="paint10_radial_3_1315" cx="0" cy="0" r="1" gradientUnits="userSpaceOnUse" gradientTransform="translate(16.5789 9.72675) rotate(117.739) scale(13.9718 17.2538)">
<stop offset="0.17178" stop-color="#FFD13D"/>
<stop offset="1" stop-color="#DCA21C"/>
<stop offset="1" stop-color="#D89A29"/>
</radialGradient>
<radialGradient id="paint11_radial_3_1315" cx="0" cy="0" r="1" gradientUnits="userSpaceOnUse" gradientTransform="translate(9.35261 18.771) rotate(-140.631) scale(4.87402 4.11509)">
<stop offset="0.340699" stop-color="#DCA225"/>
<stop offset="1" stop-color="#DCA225" stop-opacity="0"/>
</radialGradient>
<radialGradient id="paint12_radial_3_1315" cx="0" cy="0" r="1" gradientUnits="userSpaceOnUse" gradientTransform="translate(18.531 12.9259) rotate(168.299) scale(16.6744 14.078)">
<stop offset="0.620449" stop-color="#DCA225" stop-opacity="0"/>
<stop offset="1" stop-color="#DCA225"/>
</radialGradient>
<radialGradient id="paint13_radial_3_1315" cx="0" cy="0" r="1" gradientUnits="userSpaceOnUse" gradientTransform="translate(11.984 17.9498) rotate(-110.468) scale(3.57559 3.47283)">
<stop offset="0.30655" stop-color="#CECDFF"/>
<stop offset="1" stop-color="#B7B6FA"/>
</radialGradient>
<radialGradient id="paint14_radial_3_1315" cx="0" cy="0" r="1" gradientUnits="userSpaceOnUse" gradientTransform="translate(13.5001 17.0516) rotate(-148.811) scale(1.44966 4.82062)">
<stop offset="0.401187" stop-color="#B8B7FF"/>
<stop offset="1" stop-color="#B8B7FF" stop-opacity="0"/>
</radialGradient>
<radialGradient id="paint15_radial_3_1315" cx="0" cy="0" r="1" gradientUnits="userSpaceOnUse" gradientTransform="translate(16.4169 23.33) rotate(-106.955) scale(12.992 7.29952)">
<stop stop-color="#D6CCFF"/>
<stop offset="1" stop-color="#D6CCFF" stop-opacity="0"/>
</radialGradient>
<radialGradient id="paint16_radial_3_1315" cx="0" cy="0" r="1" gradientUnits="userSpaceOnUse" gradientTransform="translate(28.3138 17.1921) rotate(147.006) scale(12.1064 13.523)">
<stop offset="0.189911" stop-color="#F2F0FF"/>
<stop offset="1" stop-color="#F2F0FF" stop-opacity="0"/>
</radialGradient>
<radialGradient id="paint17_radial_3_1315" cx="0" cy="0" r="1" gradientUnits="userSpaceOnUse" gradientTransform="translate(11.2641 16.4343) rotate(71.9061) scale(8.05157 3.00167)">
<stop stop-color="#F2F0FF"/>
<stop offset="1" stop-color="#F2F0FF" stop-opacity="0"/>
</radialGradient>
<radialGradient id="paint18_radial_3_1315" cx="0" cy="0" r="1" gradientUnits="userSpaceOnUse" gradientTransform="translate(21.5643 21.0178) rotate(-142.843) scale(15.8526 16.0223)">
<stop offset="0.319632" stop-color="#E3DBFF" stop-opacity="0"/>
<stop offset="0.549037" stop-color="#B8B7FF" stop-opacity="0.83"/>
<stop offset="0.620706" stop-color="#B8B7FF"/>
<stop offset="1" stop-color="#B8B7FF" stop-opacity="0"/>
</radialGradient>
<radialGradient id="paint19_radial_3_1315" cx="0" cy="0" r="1" gradientUnits="userSpaceOnUse" gradientTransform="translate(7.81707 23.3214) rotate(-82.0245) scale(12.0921 11.055)">
<stop offset="0.234093" stop-color="#E3DBFF" stop-opacity="0"/>
<stop offset="0.513917" stop-color="#B8B7FF"/>
<stop offset="1" stop-color="#B8B7FF" stop-opacity="0"/>
</radialGradient>
<radialGradient id="paint20_radial_3_1315" cx="0" cy="0" r="1" gradientUnits="userSpaceOnUse" gradientTransform="translate(14.6959 24.96) rotate(-113.829) scale(17.3803 17.1569)">
<stop offset="0.127273" stop-color="#D8CDFF" stop-opacity="0.97"/>
<stop offset="0.531027" stop-color="#D8CDFF" stop-opacity="0"/>
</radialGradient>
<radialGradient id="paint21_radial_3_1315" cx="0" cy="0" r="1" gradientUnits="userSpaceOnUse" gradientTransform="translate(9.85673 22.3954) rotate(107.074) scale(11.8244 11.951)">
<stop stop-color="white" stop-opacity="0.65"/>
<stop offset="0.280304" stop-color="white" stop-opacity="0.34"/>
<stop offset="0.496314" stop-color="#E8E3FF" stop-opacity="0"/>
</radialGradient>
<linearGradient id="paint22_linear_3_1315" x1="18.9299" y1="30.818" x2="18.8249" y2="21.536" gradientUnits="userSpaceOnUse">
<stop offset="0.0758362" stop-color="#C1BCFE"/>
<stop offset="0.348536" stop-color="#C1BCFE" stop-opacity="0"/>
</linearGradient>
</defs>
</svg>
