<svg width="32" height="32" viewBox="0 0 32 32" fill="none" xmlns="http://www.w3.org/2000/svg">
<path d="M20.1769 2.71928C20.632 4.57593 20.6866 6.5964 20.1951 8.68968C19.0484 13.5406 15.062 17.3449 10.1656 18.2278C7.51713 18.7101 4.99609 18.3461 2.8027 17.3905C2.29303 17.1629 1.81066 17.7454 2.0746 18.2369C4.48642 22.6783 9.45569 25.5178 15.0165 24.7806C20.6866 24.0252 25.2281 19.4018 25.9107 13.7227C26.4568 9.00823 24.4545 4.74886 21.1053 2.1186C20.6775 1.79096 20.0495 2.19141 20.1769 2.71928Z" fill="url(#paint0_linear_3_1322)"/>
<path d="M20.1769 2.71928C20.632 4.57593 20.6866 6.5964 20.1951 8.68968C19.0484 13.5406 15.062 17.3449 10.1656 18.2278C7.51713 18.7101 4.99609 18.3461 2.8027 17.3905C2.29303 17.1629 1.81066 17.7454 2.0746 18.2369C4.48642 22.6783 9.45569 25.5178 15.0165 24.7806C20.6866 24.0252 25.2281 19.4018 25.9107 13.7227C26.4568 9.00823 24.4545 4.74886 21.1053 2.1186C20.6775 1.79096 20.0495 2.19141 20.1769 2.71928Z" fill="url(#paint1_radial_3_1322)"/>
<path d="M20.1769 2.71928C20.632 4.57593 20.6866 6.5964 20.1951 8.68968C19.0484 13.5406 15.062 17.3449 10.1656 18.2278C7.51713 18.7101 4.99609 18.3461 2.8027 17.3905C2.29303 17.1629 1.81066 17.7454 2.0746 18.2369C4.48642 22.6783 9.45569 25.5178 15.0165 24.7806C20.6866 24.0252 25.2281 19.4018 25.9107 13.7227C26.4568 9.00823 24.4545 4.74886 21.1053 2.1186C20.6775 1.79096 20.0495 2.19141 20.1769 2.71928Z" fill="url(#paint2_radial_3_1322)"/>
<path d="M20.1769 2.71928C20.632 4.57593 20.6866 6.5964 20.1951 8.68968C19.0484 13.5406 15.062 17.3449 10.1656 18.2278C7.51713 18.7101 4.99609 18.3461 2.8027 17.3905C2.29303 17.1629 1.81066 17.7454 2.0746 18.2369C4.48642 22.6783 9.45569 25.5178 15.0165 24.7806C20.6866 24.0252 25.2281 19.4018 25.9107 13.7227C26.4568 9.00823 24.4545 4.74886 21.1053 2.1186C20.6775 1.79096 20.0495 2.19141 20.1769 2.71928Z" fill="url(#paint3_radial_3_1322)"/>
<path d="M20.1769 2.71928C20.632 4.57593 20.6866 6.5964 20.1951 8.68968C19.0484 13.5406 15.062 17.3449 10.1656 18.2278C7.51713 18.7101 4.99609 18.3461 2.8027 17.3905C2.29303 17.1629 1.81066 17.7454 2.0746 18.2369C4.48642 22.6783 9.45569 25.5178 15.0165 24.7806C20.6866 24.0252 25.2281 19.4018 25.9107 13.7227C26.4568 9.00823 24.4545 4.74886 21.1053 2.1186C20.6775 1.79096 20.0495 2.19141 20.1769 2.71928Z" fill="url(#paint4_radial_3_1322)"/>
<path d="M20.1769 2.71928C20.632 4.57593 20.6866 6.5964 20.1951 8.68968C19.0484 13.5406 15.062 17.3449 10.1656 18.2278C7.51713 18.7101 4.99609 18.3461 2.8027 17.3905C2.29303 17.1629 1.81066 17.7454 2.0746 18.2369C4.48642 22.6783 9.45569 25.5178 15.0165 24.7806C20.6866 24.0252 25.2281 19.4018 25.9107 13.7227C26.4568 9.00823 24.4545 4.74886 21.1053 2.1186C20.6775 1.79096 20.0495 2.19141 20.1769 2.71928Z" fill="url(#paint5_radial_3_1322)"/>
<path d="M20.1769 2.71928C20.632 4.57593 20.6866 6.5964 20.1951 8.68968C19.0484 13.5406 15.062 17.3449 10.1656 18.2278C7.51713 18.7101 4.99609 18.3461 2.8027 17.3905C2.29303 17.1629 1.81066 17.7454 2.0746 18.2369C4.48642 22.6783 9.45569 25.5178 15.0165 24.7806C20.6866 24.0252 25.2281 19.4018 25.9107 13.7227C26.4568 9.00823 24.4545 4.74886 21.1053 2.1186C20.6775 1.79096 20.0495 2.19141 20.1769 2.71928Z" fill="url(#paint6_radial_3_1322)"/>
<path d="M20.1769 2.71928C20.632 4.57593 20.6866 6.5964 20.1951 8.68968C19.0484 13.5406 15.062 17.3449 10.1656 18.2278C7.51713 18.7101 4.99609 18.3461 2.8027 17.3905C2.29303 17.1629 1.81066 17.7454 2.0746 18.2369C4.48642 22.6783 9.45569 25.5178 15.0165 24.7806C20.6866 24.0252 25.2281 19.4018 25.9107 13.7227C26.4568 9.00823 24.4545 4.74886 21.1053 2.1186C20.6775 1.79096 20.0495 2.19141 20.1769 2.71928Z" fill="url(#paint7_radial_3_1322)"/>
<path d="M20.1769 2.71928C20.632 4.57593 20.6866 6.5964 20.1951 8.68968C19.0484 13.5406 15.062 17.3449 10.1656 18.2278C7.51713 18.7101 4.99609 18.3461 2.8027 17.3905C2.29303 17.1629 1.81066 17.7454 2.0746 18.2369C4.48642 22.6783 9.45569 25.5178 15.0165 24.7806C20.6866 24.0252 25.2281 19.4018 25.9107 13.7227C26.4568 9.00823 24.4545 4.74886 21.1053 2.1186C20.6775 1.79096 20.0495 2.19141 20.1769 2.71928Z" fill="url(#paint8_radial_3_1322)"/>
<path d="M20.1769 2.71928C20.632 4.57593 20.6866 6.5964 20.1951 8.68968C19.0484 13.5406 15.062 17.3449 10.1656 18.2278C7.51713 18.7101 4.99609 18.3461 2.8027 17.3905C2.29303 17.1629 1.81066 17.7454 2.0746 18.2369C4.48642 22.6783 9.45569 25.5178 15.0165 24.7806C20.6866 24.0252 25.2281 19.4018 25.9107 13.7227C26.4568 9.00823 24.4545 4.74886 21.1053 2.1186C20.6775 1.79096 20.0495 2.19141 20.1769 2.71928Z" fill="url(#paint9_radial_3_1322)"/>
<path d="M20.1769 2.71928C20.632 4.57593 20.6866 6.5964 20.1951 8.68968C19.0484 13.5406 15.062 17.3449 10.1656 18.2278C7.51713 18.7101 4.99609 18.3461 2.8027 17.3905C2.29303 17.1629 1.81066 17.7454 2.0746 18.2369C4.48642 22.6783 9.45569 25.5178 15.0165 24.7806C20.6866 24.0252 25.2281 19.4018 25.9107 13.7227C26.4568 9.00823 24.4545 4.74886 21.1053 2.1186C20.6775 1.79096 20.0495 2.19141 20.1769 2.71928Z" fill="url(#paint10_radial_3_1322)"/>
<path d="M20.1769 2.71928C20.632 4.57593 20.6866 6.5964 20.1951 8.68968C19.0484 13.5406 15.062 17.3449 10.1656 18.2278C7.51713 18.7101 4.99609 18.3461 2.8027 17.3905C2.29303 17.1629 1.81066 17.7454 2.0746 18.2369C4.48642 22.6783 9.45569 25.5178 15.0165 24.7806C20.6866 24.0252 25.2281 19.4018 25.9107 13.7227C26.4568 9.00823 24.4545 4.74886 21.1053 2.1186C20.6775 1.79096 20.0495 2.19141 20.1769 2.71928Z" fill="url(#paint11_radial_3_1322)"/>
<path d="M20.1769 2.71928C20.632 4.57593 20.6866 6.5964 20.1951 8.68968C19.0484 13.5406 15.062 17.3449 10.1656 18.2278C7.51713 18.7101 4.99609 18.3461 2.8027 17.3905C2.29303 17.1629 1.81066 17.7454 2.0746 18.2369C4.48642 22.6783 9.45569 25.5178 15.0165 24.7806C20.6866 24.0252 25.2281 19.4018 25.9107 13.7227C26.4568 9.00823 24.4545 4.74886 21.1053 2.1186C20.6775 1.79096 20.0495 2.19141 20.1769 2.71928Z" fill="url(#paint12_radial_3_1322)"/>
<path d="M20.1769 2.71928C20.632 4.57593 20.6866 6.5964 20.1951 8.68968C19.0484 13.5406 15.062 17.3449 10.1656 18.2278C7.51713 18.7101 4.99609 18.3461 2.8027 17.3905C2.29303 17.1629 1.81066 17.7454 2.0746 18.2369C4.48642 22.6783 9.45569 25.5178 15.0165 24.7806C20.6866 24.0252 25.2281 19.4018 25.9107 13.7227C26.4568 9.00823 24.4545 4.74886 21.1053 2.1186C20.6775 1.79096 20.0495 2.19141 20.1769 2.71928Z" fill="url(#paint13_radial_3_1322)"/>
<path d="M20.1769 2.71928C20.632 4.57593 20.6866 6.5964 20.1951 8.68968C19.0484 13.5406 15.062 17.3449 10.1656 18.2278C7.51713 18.7101 4.99609 18.3461 2.8027 17.3905C2.29303 17.1629 1.81066 17.7454 2.0746 18.2369C4.48642 22.6783 9.45569 25.5178 15.0165 24.7806C20.6866 24.0252 25.2281 19.4018 25.9107 13.7227C26.4568 9.00823 24.4545 4.74886 21.1053 2.1186C20.6775 1.79096 20.0495 2.19141 20.1769 2.71928Z" fill="url(#paint14_radial_3_1322)"/>
<path d="M11.048 22.1777C11.8372 22.1777 12.4769 21.5379 12.4769 20.7488C12.4769 19.9596 11.8372 19.3199 11.048 19.3199C10.2589 19.3199 9.61914 19.9596 9.61914 20.7488C9.61914 21.5379 10.2589 22.1777 11.048 22.1777Z" fill="url(#paint15_radial_3_1322)"/>
<path d="M11.048 22.1777C11.8372 22.1777 12.4769 21.5379 12.4769 20.7488C12.4769 19.9596 11.8372 19.3199 11.048 19.3199C10.2589 19.3199 9.61914 19.9596 9.61914 20.7488C9.61914 21.5379 10.2589 22.1777 11.048 22.1777Z" fill="url(#paint16_radial_3_1322)"/>
<path d="M11.048 22.1777C11.8372 22.1777 12.4769 21.5379 12.4769 20.7488C12.4769 19.9596 11.8372 19.3199 11.048 19.3199C10.2589 19.3199 9.61914 19.9596 9.61914 20.7488C9.61914 21.5379 10.2589 22.1777 11.048 22.1777Z" fill="url(#paint17_radial_3_1322)"/>
<path d="M22.8068 10.4553C23.596 10.4553 24.2357 9.81552 24.2357 9.02636C24.2357 8.23721 23.596 7.59747 22.8068 7.59747C22.0177 7.59747 21.3779 8.23721 21.3779 9.02636C21.3779 9.81552 22.0177 10.4553 22.8068 10.4553Z" fill="url(#paint18_radial_3_1322)"/>
<path d="M22.8068 10.4553C23.596 10.4553 24.2357 9.81552 24.2357 9.02636C24.2357 8.23721 23.596 7.59747 22.8068 7.59747C22.0177 7.59747 21.3779 8.23721 21.3779 9.02636C21.3779 9.81552 22.0177 10.4553 22.8068 10.4553Z" fill="url(#paint19_radial_3_1322)"/>
<path d="M22.8068 10.4553C23.596 10.4553 24.2357 9.81552 24.2357 9.02636C24.2357 8.23721 23.596 7.59747 22.8068 7.59747C22.0177 7.59747 21.3779 8.23721 21.3779 9.02636C21.3779 9.81552 22.0177 10.4553 22.8068 10.4553Z" fill="url(#paint20_radial_3_1322)"/>
<path d="M23.2619 14.8602C23.7595 14.8602 24.1629 14.4568 24.1629 13.9592C24.1629 13.4616 23.7595 13.0582 23.2619 13.0582C22.7642 13.0582 22.3608 13.4616 22.3608 13.9592C22.3608 14.4568 22.7642 14.8602 23.2619 14.8602Z" stroke="url(#paint21_linear_3_1322)" stroke-width="0.2"/>
<path d="M23.2619 14.8602C23.7595 14.8602 24.1629 14.4568 24.1629 13.9592C24.1629 13.4616 23.7595 13.0582 23.2619 13.0582C22.7642 13.0582 22.3608 13.4616 22.3608 13.9592C22.3608 14.4568 22.7642 14.8602 23.2619 14.8602Z" fill="url(#paint22_radial_3_1322)"/>
<path d="M18.7113 20.33C20.2193 20.33 21.4417 19.1076 21.4417 17.5996C21.4417 16.0917 20.2193 14.8693 18.7113 14.8693C17.2034 14.8693 15.981 16.0917 15.981 17.5996C15.981 19.1076 17.2034 20.33 18.7113 20.33Z" fill="url(#paint23_radial_3_1322)"/>
<path d="M18.7113 20.33C20.2193 20.33 21.4417 19.1076 21.4417 17.5996C21.4417 16.0917 20.2193 14.8693 18.7113 14.8693C17.2034 14.8693 15.981 16.0917 15.981 17.5996C15.981 19.1076 17.2034 20.33 18.7113 20.33Z" fill="url(#paint24_radial_3_1322)"/>
<path d="M18.7113 20.33C20.2193 20.33 21.4417 19.1076 21.4417 17.5996C21.4417 16.0917 20.2193 14.8693 18.7113 14.8693C17.2034 14.8693 15.981 16.0917 15.981 17.5996C15.981 19.1076 17.2034 20.33 18.7113 20.33Z" fill="url(#paint25_radial_3_1322)"/>
<path d="M13.8933 23.0944C16.0448 23.0944 17.789 21.3502 17.789 19.1987C17.789 17.0471 16.0448 15.303 13.8933 15.303C11.7417 15.303 9.99756 17.0471 9.99756 19.1987C9.99756 21.3502 11.7417 23.0944 13.8933 23.0944Z" fill="url(#paint26_radial_3_1322)"/>
<path d="M13.8933 23.0944C16.0448 23.0944 17.789 21.3502 17.789 19.1987C17.789 17.0471 16.0448 15.303 13.8933 15.303C11.7417 15.303 9.99756 17.0471 9.99756 19.1987C9.99756 21.3502 11.7417 23.0944 13.8933 23.0944Z" fill="url(#paint27_radial_3_1322)"/>
<path d="M28.387 15.2983C24.957 11.9553 19.4689 12.0132 16.1259 15.4433C15.2363 16.3505 14.5956 17.4022 14.1818 18.5253C14.1227 18.6857 13.9257 18.7484 13.7829 18.6544C13.4854 18.4584 13.1686 18.287 12.8408 18.1486C12.0485 17.7815 11.1692 17.5786 10.2417 17.5786C6.79233 17.5786 4 20.3709 4 23.8202C4 25.2888 4.51208 26.6415 5.36235 27.714C6.51213 29.2213 8.31894 30.1875 10.3576 30.1875C12.8118 30.1875 19.8651 30.1875 22.6188 30.1875C25.3435 30.1875 27.7493 28.8444 29.218 26.7864C31.846 23.3468 31.5658 18.3998 28.387 15.2983Z" fill="#D5D4DA"/>
<path d="M28.387 15.2983C24.957 11.9553 19.4689 12.0132 16.1259 15.4433C15.2363 16.3505 14.5956 17.4022 14.1818 18.5253C14.1227 18.6857 13.9257 18.7484 13.7829 18.6544C13.4854 18.4584 13.1686 18.287 12.8408 18.1486C12.0485 17.7815 11.1692 17.5786 10.2417 17.5786C6.79233 17.5786 4 20.3709 4 23.8202C4 25.2888 4.51208 26.6415 5.36235 27.714C6.51213 29.2213 8.31894 30.1875 10.3576 30.1875C12.8118 30.1875 19.8651 30.1875 22.6188 30.1875C25.3435 30.1875 27.7493 28.8444 29.218 26.7864C31.846 23.3468 31.5658 18.3998 28.387 15.2983Z" fill="url(#paint28_linear_3_1322)"/>
<path d="M28.387 15.2983C24.957 11.9553 19.4689 12.0132 16.1259 15.4433C15.2363 16.3505 14.5956 17.4022 14.1818 18.5253C14.1227 18.6857 13.9257 18.7484 13.7829 18.6544C13.4854 18.4584 13.1686 18.287 12.8408 18.1486C12.0485 17.7815 11.1692 17.5786 10.2417 17.5786C6.79233 17.5786 4 20.3709 4 23.8202C4 25.2888 4.51208 26.6415 5.36235 27.714C6.51213 29.2213 8.31894 30.1875 10.3576 30.1875C12.8118 30.1875 19.8651 30.1875 22.6188 30.1875C25.3435 30.1875 27.7493 28.8444 29.218 26.7864C31.846 23.3468 31.5658 18.3998 28.387 15.2983Z" fill="url(#paint29_radial_3_1322)" fill-opacity="0.8"/>
<path d="M28.387 15.2983C24.957 11.9553 19.4689 12.0132 16.1259 15.4433C15.2363 16.3505 14.5956 17.4022 14.1818 18.5253C14.1227 18.6857 13.9257 18.7484 13.7829 18.6544C13.4854 18.4584 13.1686 18.287 12.8408 18.1486C12.0485 17.7815 11.1692 17.5786 10.2417 17.5786C6.79233 17.5786 4 20.3709 4 23.8202C4 25.2888 4.51208 26.6415 5.36235 27.714C6.51213 29.2213 8.31894 30.1875 10.3576 30.1875C12.8118 30.1875 19.8651 30.1875 22.6188 30.1875C25.3435 30.1875 27.7493 28.8444 29.218 26.7864C31.846 23.3468 31.5658 18.3998 28.387 15.2983Z" fill="url(#paint30_radial_3_1322)"/>
<path d="M28.387 15.2983C24.957 11.9553 19.4689 12.0132 16.1259 15.4433C15.2363 16.3505 14.5956 17.4022 14.1818 18.5253C14.1227 18.6857 13.9257 18.7484 13.7829 18.6544C13.4854 18.4584 13.1686 18.287 12.8408 18.1486C12.0485 17.7815 11.1692 17.5786 10.2417 17.5786C6.79233 17.5786 4 20.3709 4 23.8202C4 25.2888 4.51208 26.6415 5.36235 27.714C6.51213 29.2213 8.31894 30.1875 10.3576 30.1875C12.8118 30.1875 19.8651 30.1875 22.6188 30.1875C25.3435 30.1875 27.7493 28.8444 29.218 26.7864C31.846 23.3468 31.5658 18.3998 28.387 15.2983Z" fill="url(#paint31_radial_3_1322)"/>
<path d="M28.387 15.2983C24.957 11.9553 19.4689 12.0132 16.1259 15.4433C15.2363 16.3505 14.5956 17.4022 14.1818 18.5253C14.1227 18.6857 13.9257 18.7484 13.7829 18.6544C13.4854 18.4584 13.1686 18.287 12.8408 18.1486C12.0485 17.7815 11.1692 17.5786 10.2417 17.5786C6.79233 17.5786 4 20.3709 4 23.8202C4 25.2888 4.51208 26.6415 5.36235 27.714C6.51213 29.2213 8.31894 30.1875 10.3576 30.1875C12.8118 30.1875 19.8651 30.1875 22.6188 30.1875C25.3435 30.1875 27.7493 28.8444 29.218 26.7864C31.846 23.3468 31.5658 18.3998 28.387 15.2983Z" fill="url(#paint32_radial_3_1322)"/>
<path d="M28.387 15.2983C24.957 11.9553 19.4689 12.0132 16.1259 15.4433C15.2363 16.3505 14.5956 17.4022 14.1818 18.5253C14.1227 18.6857 13.9257 18.7484 13.7829 18.6544C13.4854 18.4584 13.1686 18.287 12.8408 18.1486C12.0485 17.7815 11.1692 17.5786 10.2417 17.5786C6.79233 17.5786 4 20.3709 4 23.8202C4 25.2888 4.51208 26.6415 5.36235 27.714C6.51213 29.2213 8.31894 30.1875 10.3576 30.1875C12.8118 30.1875 19.8651 30.1875 22.6188 30.1875C25.3435 30.1875 27.7493 28.8444 29.218 26.7864C31.846 23.3468 31.5658 18.3998 28.387 15.2983Z" fill="url(#paint33_radial_3_1322)"/>
<path d="M28.387 15.2983C24.957 11.9553 19.4689 12.0132 16.1259 15.4433C15.2363 16.3505 14.5956 17.4022 14.1818 18.5253C14.1227 18.6857 13.9257 18.7484 13.7829 18.6544C13.4854 18.4584 13.1686 18.287 12.8408 18.1486C12.0485 17.7815 11.1692 17.5786 10.2417 17.5786C6.79233 17.5786 4 20.3709 4 23.8202C4 25.2888 4.51208 26.6415 5.36235 27.714C6.51213 29.2213 8.31894 30.1875 10.3576 30.1875C12.8118 30.1875 19.8651 30.1875 22.6188 30.1875C25.3435 30.1875 27.7493 28.8444 29.218 26.7864C31.846 23.3468 31.5658 18.3998 28.387 15.2983Z" fill="url(#paint34_radial_3_1322)"/>
<path d="M28.387 15.2983C24.957 11.9553 19.4689 12.0132 16.1259 15.4433C15.2363 16.3505 14.5956 17.4022 14.1818 18.5253C14.1227 18.6857 13.9257 18.7484 13.7829 18.6544C13.4854 18.4584 13.1686 18.287 12.8408 18.1486C12.0485 17.7815 11.1692 17.5786 10.2417 17.5786C6.79233 17.5786 4 20.3709 4 23.8202C4 25.2888 4.51208 26.6415 5.36235 27.714C6.51213 29.2213 8.31894 30.1875 10.3576 30.1875C12.8118 30.1875 19.8651 30.1875 22.6188 30.1875C25.3435 30.1875 27.7493 28.8444 29.218 26.7864C31.846 23.3468 31.5658 18.3998 28.387 15.2983Z" fill="url(#paint35_radial_3_1322)" fill-opacity="0.5"/>
<path d="M28.387 15.2983C24.957 11.9553 19.4689 12.0132 16.1259 15.4433C15.2363 16.3505 14.5956 17.4022 14.1818 18.5253C14.1227 18.6857 13.9257 18.7484 13.7829 18.6544C13.4854 18.4584 13.1686 18.287 12.8408 18.1486C12.0485 17.7815 11.1692 17.5786 10.2417 17.5786C6.79233 17.5786 4 20.3709 4 23.8202C4 25.2888 4.51208 26.6415 5.36235 27.714C6.51213 29.2213 8.31894 30.1875 10.3576 30.1875C12.8118 30.1875 19.8651 30.1875 22.6188 30.1875C25.3435 30.1875 27.7493 28.8444 29.218 26.7864C31.846 23.3468 31.5658 18.3998 28.387 15.2983Z" fill="url(#paint36_linear_3_1322)"/>
<path d="M28.387 15.2983C24.957 11.9553 19.4689 12.0132 16.1259 15.4433C15.2363 16.3505 14.5956 17.4022 14.1818 18.5253C14.1227 18.6857 13.9257 18.7484 13.7829 18.6544C13.4854 18.4584 13.1686 18.287 12.8408 18.1486C12.0485 17.7815 11.1692 17.5786 10.2417 17.5786C6.79233 17.5786 4 20.3709 4 23.8202C4 25.2888 4.51208 26.6415 5.36235 27.714C6.51213 29.2213 8.31894 30.1875 10.3576 30.1875C12.8118 30.1875 19.8651 30.1875 22.6188 30.1875C25.3435 30.1875 27.7493 28.8444 29.218 26.7864C31.846 23.3468 31.5658 18.3998 28.387 15.2983Z" fill="url(#paint37_radial_3_1322)"/>
<path d="M28.387 15.2983C24.957 11.9553 19.4689 12.0132 16.1259 15.4433C15.2363 16.3505 14.5956 17.4022 14.1818 18.5253C14.1227 18.6857 13.9257 18.7484 13.7829 18.6544C13.4854 18.4584 13.1686 18.287 12.8408 18.1486C12.0485 17.7815 11.1692 17.5786 10.2417 17.5786C6.79233 17.5786 4 20.3709 4 23.8202C4 25.2888 4.51208 26.6415 5.36235 27.714C6.51213 29.2213 8.31894 30.1875 10.3576 30.1875C12.8118 30.1875 19.8651 30.1875 22.6188 30.1875C25.3435 30.1875 27.7493 28.8444 29.218 26.7864C31.846 23.3468 31.5658 18.3998 28.387 15.2983Z" fill="url(#paint38_radial_3_1322)"/>
<defs>
<linearGradient id="paint0_linear_3_1322" x1="24.8895" y1="7.77514" x2="8.5642" y2="24.2711" gradientUnits="userSpaceOnUse">
<stop stop-color="#FFD874"/>
<stop offset="1" stop-color="#FFBC4C"/>
</linearGradient>
<radialGradient id="paint1_radial_3_1322" cx="0" cy="0" r="1" gradientUnits="userSpaceOnUse" gradientTransform="translate(12.1478 12.7239) rotate(-23.4078) scale(14.3183 15.0081)">
<stop offset="0.769006" stop-color="#FFECAE" stop-opacity="0"/>
<stop offset="0.984059" stop-color="#FFECAE"/>
</radialGradient>
<radialGradient id="paint2_radial_3_1322" cx="0" cy="0" r="1" gradientUnits="userSpaceOnUse" gradientTransform="translate(6.70309 26.0014) rotate(-39.8461) scale(12.7533 13.3677)">
<stop stop-color="#FF984F"/>
<stop offset="1" stop-color="#FF984F" stop-opacity="0"/>
</radialGradient>
<radialGradient id="paint3_radial_3_1322" cx="0" cy="0" r="1" gradientUnits="userSpaceOnUse" gradientTransform="translate(18.9602 8.07365) rotate(13.627) scale(2.39195 6.05767)">
<stop offset="0.229694" stop-color="#BA935B"/>
<stop offset="0.978688" stop-color="#BA935B" stop-opacity="0"/>
</radialGradient>
<radialGradient id="paint4_radial_3_1322" cx="0" cy="0" r="1" gradientUnits="userSpaceOnUse" gradientTransform="translate(12.8872 -8.7777) rotate(89.2462) scale(34.5876 22.885)">
<stop offset="0.948773" stop-color="#C1685A" stop-opacity="0"/>
<stop offset="0.955746" stop-color="#C1685A" stop-opacity="0.2"/>
<stop offset="0.974078" stop-color="#C1685A"/>
</radialGradient>
<radialGradient id="paint5_radial_3_1322" cx="0" cy="0" r="1" gradientUnits="userSpaceOnUse" gradientTransform="translate(-2.58483 2.59882) rotate(30.1414) scale(32.6251 20.4906)">
<stop offset="0.937301" stop-color="#C1685A" stop-opacity="0"/>
<stop offset="0.986552" stop-color="#C1685A"/>
</radialGradient>
<radialGradient id="paint6_radial_3_1322" cx="0" cy="0" r="1" gradientUnits="userSpaceOnUse" gradientTransform="translate(2.42084 -6.5024) rotate(65.1576) scale(27.079 17.1987)">
<stop offset="0.943131" stop-color="#C1685A"/>
<stop offset="0.978926" stop-color="#C1685A" stop-opacity="0.2"/>
<stop offset="1" stop-color="#C1685A" stop-opacity="0"/>
</radialGradient>
<radialGradient id="paint7_radial_3_1322" cx="0" cy="0" r="1" gradientUnits="userSpaceOnUse" gradientTransform="translate(24.7188 1.6887) rotate(138.215) scale(28.6833 18.9783)">
<stop offset="0.943242" stop-color="#C1685A" stop-opacity="0"/>
<stop offset="0.957054" stop-color="#C1685A" stop-opacity="0.2"/>
<stop offset="0.990341" stop-color="#C1685A"/>
</radialGradient>
<radialGradient id="paint8_radial_3_1322" cx="0" cy="0" r="1" gradientUnits="userSpaceOnUse" gradientTransform="translate(18.803 17.6158) rotate(135) scale(3.21777)">
<stop offset="0.870313" stop-color="#FFD472"/>
<stop offset="1" stop-color="#FFD472" stop-opacity="0"/>
</radialGradient>
<radialGradient id="paint9_radial_3_1322" cx="0" cy="0" r="1" gradientUnits="userSpaceOnUse" gradientTransform="translate(22.8986 6.23931) rotate(-112.62) scale(5.9158 1.00857)">
<stop offset="0.456731" stop-color="#FFE59A"/>
<stop offset="1" stop-color="#FFE59A" stop-opacity="0"/>
</radialGradient>
<radialGradient id="paint10_radial_3_1322" cx="0" cy="0" r="1" gradientUnits="userSpaceOnUse" gradientTransform="translate(19.2581 17.1608) rotate(-33.6901) scale(4.92224 5.52174)">
<stop stop-color="#EBB54F" stop-opacity="0"/>
<stop offset="0.403847" stop-color="#EBB54F"/>
<stop offset="0.479968" stop-color="#EBB54F" stop-opacity="0"/>
</radialGradient>
<radialGradient id="paint11_radial_3_1322" cx="0" cy="0" r="1" gradientUnits="userSpaceOnUse" gradientTransform="translate(22.8986 8.96968) rotate(123.69) scale(1.64075)">
<stop offset="0.870313" stop-color="#FFD472"/>
<stop offset="1" stop-color="#FFD472" stop-opacity="0"/>
</radialGradient>
<radialGradient id="paint12_radial_3_1322" cx="0" cy="0" r="1" gradientUnits="userSpaceOnUse" gradientTransform="translate(22.4435 9.42474) rotate(-56.3099) scale(3.28149 3.68116)">
<stop stop-color="#FFE090" stop-opacity="0"/>
<stop offset="0.204327" stop-color="#FFE090"/>
<stop offset="0.371394" stop-color="#FFE090" stop-opacity="0"/>
</radialGradient>
<radialGradient id="paint13_radial_3_1322" cx="0" cy="0" r="1" gradientUnits="userSpaceOnUse" gradientTransform="translate(11.067 20.8013) rotate(135) scale(1.93066)">
<stop offset="0.75" stop-color="#DE9543"/>
<stop offset="0.901041" stop-color="#DE9543" stop-opacity="0"/>
</radialGradient>
<radialGradient id="paint14_radial_3_1322" cx="0" cy="0" r="1" gradientUnits="userSpaceOnUse" gradientTransform="translate(10.6119 21.2563) rotate(-35.5377) scale(3.91458 4.39136)">
<stop offset="0.060177" stop-color="#FFC266" stop-opacity="0"/>
<stop offset="0.202069" stop-color="#FFC266"/>
<stop offset="0.364442" stop-color="#FFC266" stop-opacity="0"/>
</radialGradient>
<radialGradient id="paint15_radial_3_1322" cx="0" cy="0" r="1" gradientUnits="userSpaceOnUse" gradientTransform="translate(10.441 21.0102) rotate(-22.978) scale(2.21142)">
<stop stop-color="#FFBA6A"/>
<stop offset="1" stop-color="#EB9E58"/>
</radialGradient>
<radialGradient id="paint16_radial_3_1322" cx="0" cy="0" r="1" gradientUnits="userSpaceOnUse" gradientTransform="translate(10.6117 21.2563) rotate(-45) scale(5.14843)">
<stop offset="0.238281" stop-color="#D78B4E" stop-opacity="0"/>
<stop offset="0.361328" stop-color="#D78B4E"/>
</radialGradient>
<radialGradient id="paint17_radial_3_1322" cx="0" cy="0" r="1" gradientUnits="userSpaceOnUse" gradientTransform="translate(11.0668 18.0709) rotate(101.31) scale(4.64073 4.79011)">
<stop offset="0.699519" stop-color="#FED98C" stop-opacity="0"/>
<stop offset="0.886936" stop-color="#FED98C"/>
</radialGradient>
<radialGradient id="paint18_radial_3_1322" cx="0" cy="0" r="1" gradientUnits="userSpaceOnUse" gradientTransform="translate(22.1998 9.2878) rotate(-15.5214) scale(2.11301)">
<stop stop-color="#FFD778"/>
<stop offset="1" stop-color="#FFC767"/>
</radialGradient>
<radialGradient id="paint19_radial_3_1322" cx="0" cy="0" r="1" gradientUnits="userSpaceOnUse" gradientTransform="translate(22.4431 9.42472) rotate(-59.0362) scale(2.65344)">
<stop offset="0.433823" stop-color="#FFD475"/>
<stop offset="0.698529" stop-color="#DA8F3E"/>
</radialGradient>
<radialGradient id="paint20_radial_3_1322" cx="0" cy="0" r="1" gradientUnits="userSpaceOnUse" gradientTransform="translate(22.8982 8.51459) rotate(-56.3099) scale(3.28149 3.85153)">
<stop offset="0.377404" stop-color="#FFEBAD" stop-opacity="0"/>
<stop offset="0.519231" stop-color="#FFEBAD"/>
</radialGradient>
<linearGradient id="paint21_linear_3_1322" x1="24.0359" y1="13.1931" x2="22.628" y2="14.7005" gradientUnits="userSpaceOnUse">
<stop stop-color="#E7AC47"/>
<stop offset="1" stop-color="#FFE9A7"/>
</linearGradient>
<radialGradient id="paint22_radial_3_1322" cx="0" cy="0" r="1" gradientUnits="userSpaceOnUse" gradientTransform="translate(22.8791 14.1241) rotate(-15.5214) scale(1.33241)">
<stop stop-color="#FFDE8F"/>
<stop offset="1" stop-color="#FFC25B"/>
</radialGradient>
<radialGradient id="paint23_radial_3_1322" cx="0" cy="0" r="1" gradientUnits="userSpaceOnUse" gradientTransform="translate(17.5513 18.0992) rotate(-22.978) scale(4.22564 4.22564)">
<stop stop-color="#FFC75F"/>
<stop offset="1" stop-color="#FABC5A"/>
</radialGradient>
<radialGradient id="paint24_radial_3_1322" cx="0" cy="0" r="1" gradientUnits="userSpaceOnUse" gradientTransform="translate(16.9826 19.436) rotate(-50.7106) scale(6.46763 4.82058)">
<stop offset="0.655941" stop-color="#BD8D44" stop-opacity="0"/>
<stop offset="1" stop-color="#BD8D44"/>
</radialGradient>
<radialGradient id="paint25_radial_3_1322" cx="0" cy="0" r="1" gradientUnits="userSpaceOnUse" gradientTransform="translate(19.8413 17.2096) rotate(162.476) scale(4.04823 4.17854)">
<stop offset="0.594982" stop-color="#FED98C" stop-opacity="0"/>
<stop offset="0.886936" stop-color="#FED98C"/>
</radialGradient>
<radialGradient id="paint26_radial_3_1322" cx="0" cy="0" r="1" gradientUnits="userSpaceOnUse" gradientTransform="translate(15.2978 17.7533) rotate(-172.463) scale(5.34644)">
<stop offset="0.308752" stop-color="#E8E8E9"/>
<stop offset="1" stop-color="#D2D2D2"/>
</radialGradient>
<radialGradient id="paint27_radial_3_1322" cx="0" cy="0" r="1" gradientUnits="userSpaceOnUse" gradientTransform="translate(14.3096 18.869) rotate(-141.242) scale(2.9024 2.65927)">
<stop stop-color="#CDCDCE"/>
<stop offset="1" stop-color="#CDCDCE" stop-opacity="0"/>
</radialGradient>
<linearGradient id="paint28_linear_3_1322" x1="20.2583" y1="29.2542" x2="20.2583" y2="22.0096" gradientUnits="userSpaceOnUse">
<stop stop-color="#DED7FA"/>
<stop offset="1" stop-color="#DED7FA" stop-opacity="0"/>
</linearGradient>
<radialGradient id="paint29_radial_3_1322" cx="0" cy="0" r="1" gradientUnits="userSpaceOnUse" gradientTransform="translate(28.7794 26.6387) rotate(-105.484) scale(14.8666 17.1961)">
<stop stop-color="#D0C9EE"/>
<stop offset="0.658942" stop-color="#D0C9EE"/>
<stop offset="1" stop-color="#D0C9EE" stop-opacity="0"/>
</radialGradient>
<radialGradient id="paint30_radial_3_1322" cx="0" cy="0" r="1" gradientUnits="userSpaceOnUse" gradientTransform="translate(27.5028 18.6659) rotate(136.5) scale(10.7557 11.5377)">
<stop offset="0.178875" stop-color="#FCFBFE"/>
<stop offset="0.472102" stop-color="#FCFBFE" stop-opacity="0.61999"/>
<stop offset="1" stop-color="#FCFBFE" stop-opacity="0"/>
</radialGradient>
<radialGradient id="paint31_radial_3_1322" cx="0" cy="0" r="1" gradientUnits="userSpaceOnUse" gradientTransform="translate(10.8717 22.8475) rotate(153.435) scale(5.50446 5.76784)">
<stop stop-color="#FCFBFE"/>
<stop offset="0.388394" stop-color="#FCFBFE" stop-opacity="0.85"/>
<stop offset="0.772504" stop-color="#FCFBFE" stop-opacity="0.326419"/>
<stop offset="1" stop-color="#FCFBFE" stop-opacity="0"/>
</radialGradient>
<radialGradient id="paint32_radial_3_1322" cx="0" cy="0" r="1" gradientUnits="userSpaceOnUse" gradientTransform="translate(12.6884 21.4416) rotate(163.113) scale(3.22472 7.57493)">
<stop stop-color="#FCFBFE"/>
<stop offset="0.303296" stop-color="#FCFBFE" stop-opacity="0.74"/>
<stop offset="0.671369" stop-color="#FCFBFE" stop-opacity="0.316221"/>
<stop offset="0.867495" stop-color="#FCFBFE" stop-opacity="0.112283"/>
<stop offset="1" stop-color="#FCFBFE" stop-opacity="0"/>
</radialGradient>
<radialGradient id="paint33_radial_3_1322" cx="0" cy="0" r="1" gradientUnits="userSpaceOnUse" gradientTransform="translate(26.3843 20.9944) rotate(166.654) scale(23.0056 18.1176)">
<stop offset="0.815422" stop-color="#CECCD7" stop-opacity="0"/>
<stop offset="1" stop-color="#CECCD7"/>
</radialGradient>
<radialGradient id="paint34_radial_3_1322" cx="0" cy="0" r="1" gradientUnits="userSpaceOnUse" gradientTransform="translate(7.51419 31.1693) rotate(-46.7899) scale(6.23263 8.6012)">
<stop stop-color="#D0C9EE"/>
<stop offset="1" stop-color="#D0C9EE" stop-opacity="0"/>
</radialGradient>
<radialGradient id="paint35_radial_3_1322" cx="0" cy="0" r="1" gradientUnits="userSpaceOnUse" gradientTransform="translate(7.49631 24.7675) rotate(-29.5115) scale(6.30081 18.272)">
<stop stop-color="#D0C9EE"/>
<stop offset="1" stop-color="#D0C9EE" stop-opacity="0"/>
</radialGradient>
<linearGradient id="paint36_linear_3_1322" x1="17.5" y1="23.8004" x2="17.5" y2="30.1875" gradientUnits="userSpaceOnUse">
<stop stop-color="#D0C8F4" stop-opacity="0"/>
<stop offset="0.335771" stop-color="#D0C8F4" stop-opacity="0.0319533"/>
<stop offset="0.601889" stop-color="#D0C8F4" stop-opacity="0.151303"/>
<stop offset="1" stop-color="#D0C8F4"/>
</linearGradient>
<radialGradient id="paint37_radial_3_1322" cx="0" cy="0" r="1" gradientUnits="userSpaceOnUse" gradientTransform="translate(13.0429 11.8508) rotate(44.5778) scale(23.9375 17.8653)">
<stop stop-color="#D0C8F4" stop-opacity="0"/>
<stop offset="0.797031" stop-color="#D0C8F4" stop-opacity="0"/>
<stop offset="0.815429" stop-color="#D0C8F4" stop-opacity="0.0341227"/>
<stop offset="0.85129" stop-color="#D0C8F4" stop-opacity="0.15447"/>
<stop offset="1" stop-color="#D0C8F4"/>
</radialGradient>
<radialGradient id="paint38_radial_3_1322" cx="0" cy="0" r="1" gradientUnits="userSpaceOnUse" gradientTransform="translate(15.0831 20.8415) rotate(161.202) scale(1.76993 7.25707)">
<stop stop-color="#D2D2D2" stop-opacity="0.85"/>
<stop offset="0.380548" stop-color="#D2D2D2" stop-opacity="0.51597"/>
<stop offset="0.765588" stop-color="#D2D2D2" stop-opacity="0.109165"/>
<stop offset="1" stop-color="#D2D2D2" stop-opacity="0"/>
</radialGradient>
</defs>
</svg>
