<svg width="32" height="32" viewBox="0 0 32 32" fill="none" xmlns="http://www.w3.org/2000/svg">
<path d="M26.2902 6.55941C22.7332 3.09254 17.0419 3.15266 13.575 6.70971C12.6492 7.65377 11.9834 8.74875 11.5545 9.91796C11.4956 10.0784 11.2986 10.1412 11.156 10.0469C10.8443 9.84063 10.5121 9.66046 10.1682 9.51527C9.34657 9.13451 8.43477 8.9241 7.47286 8.9241C3.89575 8.9241 1 11.8198 1 15.3969C1 16.9199 1.53105 18.3227 2.4128 19.4349C3.60517 20.998 5.4789 22 7.5931 22C10.1382 22 17.4527 22 20.3084 22C23.134 22 25.6289 20.6072 27.152 18.473C29.8774 14.9059 29.5868 9.77578 26.2902 6.55941Z" fill="#D5D4DA"/>
<path d="M26.2902 6.55941C22.7332 3.09254 17.0419 3.15266 13.575 6.70971C12.6492 7.65377 11.9834 8.74875 11.5545 9.91796C11.4956 10.0784 11.2986 10.1412 11.156 10.0469C10.8443 9.84063 10.5121 9.66046 10.1682 9.51527C9.34657 9.13451 8.43477 8.9241 7.47286 8.9241C3.89575 8.9241 1 11.8198 1 15.3969C1 16.9199 1.53105 18.3227 2.4128 19.4349C3.60517 20.998 5.4789 22 7.5931 22C10.1382 22 17.4527 22 20.3084 22C23.134 22 25.6289 20.6072 27.152 18.473C29.8774 14.9059 29.5868 9.77578 26.2902 6.55941Z" fill="url(#paint0_linear_40_3891)"/>
<path d="M26.2902 6.55941C22.7332 3.09254 17.0419 3.15266 13.575 6.70971C12.6492 7.65377 11.9834 8.74875 11.5545 9.91796C11.4956 10.0784 11.2986 10.1412 11.156 10.0469C10.8443 9.84063 10.5121 9.66046 10.1682 9.51527C9.34657 9.13451 8.43477 8.9241 7.47286 8.9241C3.89575 8.9241 1 11.8198 1 15.3969C1 16.9199 1.53105 18.3227 2.4128 19.4349C3.60517 20.998 5.4789 22 7.5931 22C10.1382 22 17.4527 22 20.3084 22C23.134 22 25.6289 20.6072 27.152 18.473C29.8774 14.9059 29.5868 9.77578 26.2902 6.55941Z" fill="url(#paint1_radial_40_3891)" fill-opacity="0.8"/>
<path d="M26.2902 6.55941C22.7332 3.09254 17.0419 3.15266 13.575 6.70971C12.6492 7.65377 11.9834 8.74875 11.5545 9.91796C11.4956 10.0784 11.2986 10.1412 11.156 10.0469C10.8443 9.84063 10.5121 9.66046 10.1682 9.51527C9.34657 9.13451 8.43477 8.9241 7.47286 8.9241C3.89575 8.9241 1 11.8198 1 15.3969C1 16.9199 1.53105 18.3227 2.4128 19.4349C3.60517 20.998 5.4789 22 7.5931 22C10.1382 22 17.4527 22 20.3084 22C23.134 22 25.6289 20.6072 27.152 18.473C29.8774 14.9059 29.5868 9.77578 26.2902 6.55941Z" fill="url(#paint2_radial_40_3891)"/>
<path d="M26.2902 6.55941C22.7332 3.09254 17.0419 3.15266 13.575 6.70971C12.6492 7.65377 11.9834 8.74875 11.5545 9.91796C11.4956 10.0784 11.2986 10.1412 11.156 10.0469C10.8443 9.84063 10.5121 9.66046 10.1682 9.51527C9.34657 9.13451 8.43477 8.9241 7.47286 8.9241C3.89575 8.9241 1 11.8198 1 15.3969C1 16.9199 1.53105 18.3227 2.4128 19.4349C3.60517 20.998 5.4789 22 7.5931 22C10.1382 22 17.4527 22 20.3084 22C23.134 22 25.6289 20.6072 27.152 18.473C29.8774 14.9059 29.5868 9.77578 26.2902 6.55941Z" fill="url(#paint3_radial_40_3891)"/>
<path d="M26.2902 6.55941C22.7332 3.09254 17.0419 3.15266 13.575 6.70971C12.6492 7.65377 11.9834 8.74875 11.5545 9.91796C11.4956 10.0784 11.2986 10.1412 11.156 10.0469C10.8443 9.84063 10.5121 9.66046 10.1682 9.51527C9.34657 9.13451 8.43477 8.9241 7.47286 8.9241C3.89575 8.9241 1 11.8198 1 15.3969C1 16.9199 1.53105 18.3227 2.4128 19.4349C3.60517 20.998 5.4789 22 7.5931 22C10.1382 22 17.4527 22 20.3084 22C23.134 22 25.6289 20.6072 27.152 18.473C29.8774 14.9059 29.5868 9.77578 26.2902 6.55941Z" fill="url(#paint4_radial_40_3891)"/>
<path d="M26.2902 6.55941C22.7332 3.09254 17.0419 3.15266 13.575 6.70971C12.6492 7.65377 11.9834 8.74875 11.5545 9.91796C11.4956 10.0784 11.2986 10.1412 11.156 10.0469C10.8443 9.84063 10.5121 9.66046 10.1682 9.51527C9.34657 9.13451 8.43477 8.9241 7.47286 8.9241C3.89575 8.9241 1 11.8198 1 15.3969C1 16.9199 1.53105 18.3227 2.4128 19.4349C3.60517 20.998 5.4789 22 7.5931 22C10.1382 22 17.4527 22 20.3084 22C23.134 22 25.6289 20.6072 27.152 18.473C29.8774 14.9059 29.5868 9.77578 26.2902 6.55941Z" fill="url(#paint5_radial_40_3891)"/>
<path d="M26.2902 6.55941C22.7332 3.09254 17.0419 3.15266 13.575 6.70971C12.6492 7.65377 11.9834 8.74875 11.5545 9.91796C11.4956 10.0784 11.2986 10.1412 11.156 10.0469C10.8443 9.84063 10.5121 9.66046 10.1682 9.51527C9.34657 9.13451 8.43477 8.9241 7.47286 8.9241C3.89575 8.9241 1 11.8198 1 15.3969C1 16.9199 1.53105 18.3227 2.4128 19.4349C3.60517 20.998 5.4789 22 7.5931 22C10.1382 22 17.4527 22 20.3084 22C23.134 22 25.6289 20.6072 27.152 18.473C29.8774 14.9059 29.5868 9.77578 26.2902 6.55941Z" fill="url(#paint6_radial_40_3891)"/>
<path d="M26.2902 6.55941C22.7332 3.09254 17.0419 3.15266 13.575 6.70971C12.6492 7.65377 11.9834 8.74875 11.5545 9.91796C11.4956 10.0784 11.2986 10.1412 11.156 10.0469C10.8443 9.84063 10.5121 9.66046 10.1682 9.51527C9.34657 9.13451 8.43477 8.9241 7.47286 8.9241C3.89575 8.9241 1 11.8198 1 15.3969C1 16.9199 1.53105 18.3227 2.4128 19.4349C3.60517 20.998 5.4789 22 7.5931 22C10.1382 22 17.4527 22 20.3084 22C23.134 22 25.6289 20.6072 27.152 18.473C29.8774 14.9059 29.5868 9.77578 26.2902 6.55941Z" fill="url(#paint7_radial_40_3891)" fill-opacity="0.5"/>
<path d="M26.2902 6.55941C22.7332 3.09254 17.0419 3.15266 13.575 6.70971C12.6492 7.65377 11.9834 8.74875 11.5545 9.91796C11.4956 10.0784 11.2986 10.1412 11.156 10.0469C10.8443 9.84063 10.5121 9.66046 10.1682 9.51527C9.34657 9.13451 8.43477 8.9241 7.47286 8.9241C3.89575 8.9241 1 11.8198 1 15.3969C1 16.9199 1.53105 18.3227 2.4128 19.4349C3.60517 20.998 5.4789 22 7.5931 22C10.1382 22 17.4527 22 20.3084 22C23.134 22 25.6289 20.6072 27.152 18.473C29.8774 14.9059 29.5868 9.77578 26.2902 6.55941Z" fill="url(#paint8_linear_40_3891)"/>
<path d="M26.2902 6.55941C22.7332 3.09254 17.0419 3.15266 13.575 6.70971C12.6492 7.65377 11.9834 8.74875 11.5545 9.91796C11.4956 10.0784 11.2986 10.1412 11.156 10.0469C10.8443 9.84063 10.5121 9.66046 10.1682 9.51527C9.34657 9.13451 8.43477 8.9241 7.47286 8.9241C3.89575 8.9241 1 11.8198 1 15.3969C1 16.9199 1.53105 18.3227 2.4128 19.4349C3.60517 20.998 5.4789 22 7.5931 22C10.1382 22 17.4527 22 20.3084 22C23.134 22 25.6289 20.6072 27.152 18.473C29.8774 14.9059 29.5868 9.77578 26.2902 6.55941Z" fill="url(#paint9_radial_40_3891)"/>
<path d="M26.2902 6.55941C22.7332 3.09254 17.0419 3.15266 13.575 6.70971C12.6492 7.65377 11.9834 8.74875 11.5545 9.91796C11.4956 10.0784 11.2986 10.1412 11.156 10.0469C10.8443 9.84063 10.5121 9.66046 10.1682 9.51527C9.34657 9.13451 8.43477 8.9241 7.47286 8.9241C3.89575 8.9241 1 11.8198 1 15.3969C1 16.9199 1.53105 18.3227 2.4128 19.4349C3.60517 20.998 5.4789 22 7.5931 22C10.1382 22 17.4527 22 20.3084 22C23.134 22 25.6289 20.6072 27.152 18.473C29.8774 14.9059 29.5868 9.77578 26.2902 6.55941Z" fill="url(#paint10_radial_40_3891)"/>
<path d="M12.2597 19.6442C14.491 19.6442 16.2997 17.8354 16.2997 15.6042C16.2997 13.373 14.491 11.5642 12.2597 11.5642C10.0285 11.5642 8.21973 13.373 8.21973 15.6042C8.21973 17.8354 10.0285 19.6442 12.2597 19.6442Z" fill="url(#paint11_radial_40_3891)"/>
<path d="M12.2597 19.6442C14.491 19.6442 16.2997 17.8354 16.2997 15.6042C16.2997 13.373 14.491 11.5642 12.2597 11.5642C10.0285 11.5642 8.21973 13.373 8.21973 15.6042C8.21973 17.8354 10.0285 19.6442 12.2597 19.6442Z" fill="url(#paint12_radial_40_3891)"/>
<path d="M28.2902 11.5594C24.7332 8.09254 19.0419 8.15266 15.575 11.7097C14.6492 12.6538 13.9834 13.7488 13.5545 14.918C13.4956 15.0784 13.2986 15.1412 13.156 15.0469C12.8443 14.8406 12.5121 14.6605 12.1682 14.5153C11.3466 14.1345 10.4348 13.9241 9.47286 13.9241C5.89575 13.9241 3 16.8198 3 20.3969C3 21.9199 3.53105 23.3227 4.4128 24.4349C5.60517 25.998 7.4789 27 9.5931 27C12.1382 27 19.4527 27 22.3084 27C25.134 27 27.6289 25.6072 29.152 23.473C31.8774 19.9059 31.5868 14.7758 28.2902 11.5594Z" fill="#D5D4DA"/>
<path d="M28.2902 11.5594C24.7332 8.09254 19.0419 8.15266 15.575 11.7097C14.6492 12.6538 13.9834 13.7488 13.5545 14.918C13.4956 15.0784 13.2986 15.1412 13.156 15.0469C12.8443 14.8406 12.5121 14.6605 12.1682 14.5153C11.3466 14.1345 10.4348 13.9241 9.47286 13.9241C5.89575 13.9241 3 16.8198 3 20.3969C3 21.9199 3.53105 23.3227 4.4128 24.4349C5.60517 25.998 7.4789 27 9.5931 27C12.1382 27 19.4527 27 22.3084 27C25.134 27 27.6289 25.6072 29.152 23.473C31.8774 19.9059 31.5868 14.7758 28.2902 11.5594Z" fill="url(#paint13_linear_40_3891)"/>
<path d="M28.2902 11.5594C24.7332 8.09254 19.0419 8.15266 15.575 11.7097C14.6492 12.6538 13.9834 13.7488 13.5545 14.918C13.4956 15.0784 13.2986 15.1412 13.156 15.0469C12.8443 14.8406 12.5121 14.6605 12.1682 14.5153C11.3466 14.1345 10.4348 13.9241 9.47286 13.9241C5.89575 13.9241 3 16.8198 3 20.3969C3 21.9199 3.53105 23.3227 4.4128 24.4349C5.60517 25.998 7.4789 27 9.5931 27C12.1382 27 19.4527 27 22.3084 27C25.134 27 27.6289 25.6072 29.152 23.473C31.8774 19.9059 31.5868 14.7758 28.2902 11.5594Z" fill="url(#paint14_radial_40_3891)" fill-opacity="0.8"/>
<path d="M28.2902 11.5594C24.7332 8.09254 19.0419 8.15266 15.575 11.7097C14.6492 12.6538 13.9834 13.7488 13.5545 14.918C13.4956 15.0784 13.2986 15.1412 13.156 15.0469C12.8443 14.8406 12.5121 14.6605 12.1682 14.5153C11.3466 14.1345 10.4348 13.9241 9.47286 13.9241C5.89575 13.9241 3 16.8198 3 20.3969C3 21.9199 3.53105 23.3227 4.4128 24.4349C5.60517 25.998 7.4789 27 9.5931 27C12.1382 27 19.4527 27 22.3084 27C25.134 27 27.6289 25.6072 29.152 23.473C31.8774 19.9059 31.5868 14.7758 28.2902 11.5594Z" fill="url(#paint15_radial_40_3891)"/>
<path d="M28.2902 11.5594C24.7332 8.09254 19.0419 8.15266 15.575 11.7097C14.6492 12.6538 13.9834 13.7488 13.5545 14.918C13.4956 15.0784 13.2986 15.1412 13.156 15.0469C12.8443 14.8406 12.5121 14.6605 12.1682 14.5153C11.3466 14.1345 10.4348 13.9241 9.47286 13.9241C5.89575 13.9241 3 16.8198 3 20.3969C3 21.9199 3.53105 23.3227 4.4128 24.4349C5.60517 25.998 7.4789 27 9.5931 27C12.1382 27 19.4527 27 22.3084 27C25.134 27 27.6289 25.6072 29.152 23.473C31.8774 19.9059 31.5868 14.7758 28.2902 11.5594Z" fill="url(#paint16_radial_40_3891)"/>
<path d="M28.2902 11.5594C24.7332 8.09254 19.0419 8.15266 15.575 11.7097C14.6492 12.6538 13.9834 13.7488 13.5545 14.918C13.4956 15.0784 13.2986 15.1412 13.156 15.0469C12.8443 14.8406 12.5121 14.6605 12.1682 14.5153C11.3466 14.1345 10.4348 13.9241 9.47286 13.9241C5.89575 13.9241 3 16.8198 3 20.3969C3 21.9199 3.53105 23.3227 4.4128 24.4349C5.60517 25.998 7.4789 27 9.5931 27C12.1382 27 19.4527 27 22.3084 27C25.134 27 27.6289 25.6072 29.152 23.473C31.8774 19.9059 31.5868 14.7758 28.2902 11.5594Z" fill="url(#paint17_radial_40_3891)"/>
<path d="M28.2902 11.5594C24.7332 8.09254 19.0419 8.15266 15.575 11.7097C14.6492 12.6538 13.9834 13.7488 13.5545 14.918C13.4956 15.0784 13.2986 15.1412 13.156 15.0469C12.8443 14.8406 12.5121 14.6605 12.1682 14.5153C11.3466 14.1345 10.4348 13.9241 9.47286 13.9241C5.89575 13.9241 3 16.8198 3 20.3969C3 21.9199 3.53105 23.3227 4.4128 24.4349C5.60517 25.998 7.4789 27 9.5931 27C12.1382 27 19.4527 27 22.3084 27C25.134 27 27.6289 25.6072 29.152 23.473C31.8774 19.9059 31.5868 14.7758 28.2902 11.5594Z" fill="url(#paint18_radial_40_3891)"/>
<path d="M28.2902 11.5594C24.7332 8.09254 19.0419 8.15266 15.575 11.7097C14.6492 12.6538 13.9834 13.7488 13.5545 14.918C13.4956 15.0784 13.2986 15.1412 13.156 15.0469C12.8443 14.8406 12.5121 14.6605 12.1682 14.5153C11.3466 14.1345 10.4348 13.9241 9.47286 13.9241C5.89575 13.9241 3 16.8198 3 20.3969C3 21.9199 3.53105 23.3227 4.4128 24.4349C5.60517 25.998 7.4789 27 9.5931 27C12.1382 27 19.4527 27 22.3084 27C25.134 27 27.6289 25.6072 29.152 23.473C31.8774 19.9059 31.5868 14.7758 28.2902 11.5594Z" fill="url(#paint19_radial_40_3891)"/>
<path d="M28.2902 11.5594C24.7332 8.09254 19.0419 8.15266 15.575 11.7097C14.6492 12.6538 13.9834 13.7488 13.5545 14.918C13.4956 15.0784 13.2986 15.1412 13.156 15.0469C12.8443 14.8406 12.5121 14.6605 12.1682 14.5153C11.3466 14.1345 10.4348 13.9241 9.47286 13.9241C5.89575 13.9241 3 16.8198 3 20.3969C3 21.9199 3.53105 23.3227 4.4128 24.4349C5.60517 25.998 7.4789 27 9.5931 27C12.1382 27 19.4527 27 22.3084 27C25.134 27 27.6289 25.6072 29.152 23.473C31.8774 19.9059 31.5868 14.7758 28.2902 11.5594Z" fill="url(#paint20_radial_40_3891)" fill-opacity="0.5"/>
<path d="M28.2902 11.5594C24.7332 8.09254 19.0419 8.15266 15.575 11.7097C14.6492 12.6538 13.9834 13.7488 13.5545 14.918C13.4956 15.0784 13.2986 15.1412 13.156 15.0469C12.8443 14.8406 12.5121 14.6605 12.1682 14.5153C11.3466 14.1345 10.4348 13.9241 9.47286 13.9241C5.89575 13.9241 3 16.8198 3 20.3969C3 21.9199 3.53105 23.3227 4.4128 24.4349C5.60517 25.998 7.4789 27 9.5931 27C12.1382 27 19.4527 27 22.3084 27C25.134 27 27.6289 25.6072 29.152 23.473C31.8774 19.9059 31.5868 14.7758 28.2902 11.5594Z" fill="url(#paint21_linear_40_3891)"/>
<path d="M28.2902 11.5594C24.7332 8.09254 19.0419 8.15266 15.575 11.7097C14.6492 12.6538 13.9834 13.7488 13.5545 14.918C13.4956 15.0784 13.2986 15.1412 13.156 15.0469C12.8443 14.8406 12.5121 14.6605 12.1682 14.5153C11.3466 14.1345 10.4348 13.9241 9.47286 13.9241C5.89575 13.9241 3 16.8198 3 20.3969C3 21.9199 3.53105 23.3227 4.4128 24.4349C5.60517 25.998 7.4789 27 9.5931 27C12.1382 27 19.4527 27 22.3084 27C25.134 27 27.6289 25.6072 29.152 23.473C31.8774 19.9059 31.5868 14.7758 28.2902 11.5594Z" fill="url(#paint22_radial_40_3891)"/>
<path d="M28.2902 11.5594C24.7332 8.09254 19.0419 8.15266 15.575 11.7097C14.6492 12.6538 13.9834 13.7488 13.5545 14.918C13.4956 15.0784 13.2986 15.1412 13.156 15.0469C12.8443 14.8406 12.5121 14.6605 12.1682 14.5153C11.3466 14.1345 10.4348 13.9241 9.47286 13.9241C5.89575 13.9241 3 16.8198 3 20.3969C3 21.9199 3.53105 23.3227 4.4128 24.4349C5.60517 25.998 7.4789 27 9.5931 27C12.1382 27 19.4527 27 22.3084 27C25.134 27 27.6289 25.6072 29.152 23.473C31.8774 19.9059 31.5868 14.7758 28.2902 11.5594Z" fill="url(#paint23_radial_40_3891)"/>
<defs>
<linearGradient id="paint0_linear_40_3891" x1="17.8604" y1="21.0321" x2="17.8604" y2="13.5192" gradientUnits="userSpaceOnUse">
<stop stop-color="#DED7FA"/>
<stop offset="1" stop-color="#DED7FA" stop-opacity="0"/>
</linearGradient>
<radialGradient id="paint1_radial_40_3891" cx="0" cy="0" r="1" gradientUnits="userSpaceOnUse" gradientTransform="translate(26.6971 18.3198) rotate(-105.484) scale(15.4172 17.833)">
<stop stop-color="#D0C9EE"/>
<stop offset="0.658942" stop-color="#D0C9EE"/>
<stop offset="1" stop-color="#D0C9EE" stop-opacity="0"/>
</radialGradient>
<radialGradient id="paint2_radial_40_3891" cx="0" cy="0" r="1" gradientUnits="userSpaceOnUse" gradientTransform="translate(25.3733 10.0518) rotate(136.5) scale(11.1541 11.965)">
<stop offset="0.178875" stop-color="#FCFBFE"/>
<stop offset="0.472102" stop-color="#FCFBFE" stop-opacity="0.61999"/>
<stop offset="1" stop-color="#FCFBFE" stop-opacity="0"/>
</radialGradient>
<radialGradient id="paint3_radial_40_3891" cx="0" cy="0" r="1" gradientUnits="userSpaceOnUse" gradientTransform="translate(8.12616 14.3881) rotate(153.435) scale(5.70833 5.98147)">
<stop stop-color="#FCFBFE"/>
<stop offset="0.388394" stop-color="#FCFBFE" stop-opacity="0.85"/>
<stop offset="0.772504" stop-color="#FCFBFE" stop-opacity="0.326419"/>
<stop offset="1" stop-color="#FCFBFE" stop-opacity="0"/>
</radialGradient>
<radialGradient id="paint4_radial_40_3891" cx="0" cy="0" r="1" gradientUnits="userSpaceOnUse" gradientTransform="translate(10.0101 12.9302) rotate(163.113) scale(3.34415 7.85548)">
<stop stop-color="#FCFBFE"/>
<stop offset="0.303296" stop-color="#FCFBFE" stop-opacity="0.74"/>
<stop offset="0.671369" stop-color="#FCFBFE" stop-opacity="0.316221"/>
<stop offset="0.867495" stop-color="#FCFBFE" stop-opacity="0.112283"/>
<stop offset="1" stop-color="#FCFBFE" stop-opacity="0"/>
</radialGradient>
<radialGradient id="paint5_radial_40_3891" cx="0" cy="0" r="1" gradientUnits="userSpaceOnUse" gradientTransform="translate(24.2134 12.4665) rotate(166.654) scale(23.8577 18.7887)">
<stop offset="0.815422" stop-color="#CECCD7" stop-opacity="0"/>
<stop offset="1" stop-color="#CECCD7"/>
</radialGradient>
<radialGradient id="paint6_radial_40_3891" cx="0" cy="0" r="1" gradientUnits="userSpaceOnUse" gradientTransform="translate(4.64434 23.0182) rotate(-46.7899) scale(6.46347 8.91976)">
<stop stop-color="#D0C9EE"/>
<stop offset="1" stop-color="#D0C9EE" stop-opacity="0"/>
</radialGradient>
<radialGradient id="paint7_radial_40_3891" cx="0" cy="0" r="1" gradientUnits="userSpaceOnUse" gradientTransform="translate(4.6258 16.3793) rotate(-29.5115) scale(6.53417 18.9487)">
<stop stop-color="#D0C9EE"/>
<stop offset="1" stop-color="#D0C9EE" stop-opacity="0"/>
</radialGradient>
<linearGradient id="paint8_linear_40_3891" x1="15" y1="15.3764" x2="15" y2="22" gradientUnits="userSpaceOnUse">
<stop stop-color="#D0C8F4" stop-opacity="0"/>
<stop offset="0.335771" stop-color="#D0C8F4" stop-opacity="0.0319533"/>
<stop offset="0.601889" stop-color="#D0C8F4" stop-opacity="0.151303"/>
<stop offset="1" stop-color="#D0C8F4"/>
</linearGradient>
<radialGradient id="paint9_radial_40_3891" cx="0" cy="0" r="1" gradientUnits="userSpaceOnUse" gradientTransform="translate(10.3778 2.98418) rotate(44.5778) scale(24.8241 18.527)">
<stop stop-color="#D0C8F4" stop-opacity="0"/>
<stop offset="0.797031" stop-color="#D0C8F4" stop-opacity="0"/>
<stop offset="0.815429" stop-color="#D0C8F4" stop-opacity="0.0341227"/>
<stop offset="0.85129" stop-color="#D0C8F4" stop-opacity="0.15447"/>
<stop offset="1" stop-color="#D0C8F4"/>
</radialGradient>
<radialGradient id="paint10_radial_40_3891" cx="0" cy="0" r="1" gradientUnits="userSpaceOnUse" gradientTransform="translate(12.4936 12.3079) rotate(161.202) scale(1.83548 7.52585)">
<stop stop-color="#D2D2D2" stop-opacity="0.85"/>
<stop offset="0.380548" stop-color="#D2D2D2" stop-opacity="0.51597"/>
<stop offset="0.765588" stop-color="#D2D2D2" stop-opacity="0.109165"/>
<stop offset="1" stop-color="#D2D2D2" stop-opacity="0"/>
</radialGradient>
<radialGradient id="paint11_radial_40_3891" cx="0" cy="0" r="1" gradientUnits="userSpaceOnUse" gradientTransform="translate(13.7163 14.1053) rotate(-172.463) scale(5.54446)">
<stop offset="0.308752" stop-color="#E8E8E9"/>
<stop offset="1" stop-color="#D2D2D2"/>
</radialGradient>
<radialGradient id="paint12_radial_40_3891" cx="0" cy="0" r="1" gradientUnits="userSpaceOnUse" gradientTransform="translate(12.6915 15.2623) rotate(-141.242) scale(3.0099 2.75776)">
<stop stop-color="#CDCDCE"/>
<stop offset="1" stop-color="#CDCDCE" stop-opacity="0"/>
</radialGradient>
<linearGradient id="paint13_linear_40_3891" x1="19.8604" y1="26.0321" x2="19.8604" y2="18.5192" gradientUnits="userSpaceOnUse">
<stop stop-color="#DED7FA"/>
<stop offset="1" stop-color="#DED7FA" stop-opacity="0"/>
</linearGradient>
<radialGradient id="paint14_radial_40_3891" cx="0" cy="0" r="1" gradientUnits="userSpaceOnUse" gradientTransform="translate(28.6971 23.3198) rotate(-105.484) scale(15.4172 17.833)">
<stop stop-color="#D0C9EE"/>
<stop offset="0.658942" stop-color="#D0C9EE"/>
<stop offset="1" stop-color="#D0C9EE" stop-opacity="0"/>
</radialGradient>
<radialGradient id="paint15_radial_40_3891" cx="0" cy="0" r="1" gradientUnits="userSpaceOnUse" gradientTransform="translate(27.3733 15.0518) rotate(136.5) scale(11.1541 11.965)">
<stop offset="0.178875" stop-color="#FCFBFE"/>
<stop offset="0.472102" stop-color="#FCFBFE" stop-opacity="0.61999"/>
<stop offset="1" stop-color="#FCFBFE" stop-opacity="0"/>
</radialGradient>
<radialGradient id="paint16_radial_40_3891" cx="0" cy="0" r="1" gradientUnits="userSpaceOnUse" gradientTransform="translate(10.1262 19.3881) rotate(153.435) scale(5.70833 5.98147)">
<stop stop-color="#FCFBFE"/>
<stop offset="0.388394" stop-color="#FCFBFE" stop-opacity="0.85"/>
<stop offset="0.772504" stop-color="#FCFBFE" stop-opacity="0.326419"/>
<stop offset="1" stop-color="#FCFBFE" stop-opacity="0"/>
</radialGradient>
<radialGradient id="paint17_radial_40_3891" cx="0" cy="0" r="1" gradientUnits="userSpaceOnUse" gradientTransform="translate(12.0101 17.9302) rotate(163.113) scale(3.34415 7.85548)">
<stop stop-color="#FCFBFE"/>
<stop offset="0.303296" stop-color="#FCFBFE" stop-opacity="0.74"/>
<stop offset="0.671369" stop-color="#FCFBFE" stop-opacity="0.316221"/>
<stop offset="0.867495" stop-color="#FCFBFE" stop-opacity="0.112283"/>
<stop offset="1" stop-color="#FCFBFE" stop-opacity="0"/>
</radialGradient>
<radialGradient id="paint18_radial_40_3891" cx="0" cy="0" r="1" gradientUnits="userSpaceOnUse" gradientTransform="translate(26.2134 17.4665) rotate(166.654) scale(23.8577 18.7887)">
<stop offset="0.815422" stop-color="#CECCD7" stop-opacity="0"/>
<stop offset="1" stop-color="#CECCD7"/>
</radialGradient>
<radialGradient id="paint19_radial_40_3891" cx="0" cy="0" r="1" gradientUnits="userSpaceOnUse" gradientTransform="translate(6.64434 28.0182) rotate(-46.7899) scale(6.46347 8.91976)">
<stop stop-color="#D0C9EE"/>
<stop offset="1" stop-color="#D0C9EE" stop-opacity="0"/>
</radialGradient>
<radialGradient id="paint20_radial_40_3891" cx="0" cy="0" r="1" gradientUnits="userSpaceOnUse" gradientTransform="translate(6.6258 21.3793) rotate(-29.5115) scale(6.53417 18.9487)">
<stop stop-color="#D0C9EE"/>
<stop offset="1" stop-color="#D0C9EE" stop-opacity="0"/>
</radialGradient>
<linearGradient id="paint21_linear_40_3891" x1="17" y1="20.3764" x2="17" y2="27" gradientUnits="userSpaceOnUse">
<stop stop-color="#D0C8F4" stop-opacity="0"/>
<stop offset="0.335771" stop-color="#D0C8F4" stop-opacity="0.0319533"/>
<stop offset="0.601889" stop-color="#D0C8F4" stop-opacity="0.151303"/>
<stop offset="1" stop-color="#D0C8F4"/>
</linearGradient>
<radialGradient id="paint22_radial_40_3891" cx="0" cy="0" r="1" gradientUnits="userSpaceOnUse" gradientTransform="translate(12.3778 7.98418) rotate(44.5778) scale(24.8241 18.527)">
<stop stop-color="#D0C8F4" stop-opacity="0"/>
<stop offset="0.797031" stop-color="#D0C8F4" stop-opacity="0"/>
<stop offset="0.815429" stop-color="#D0C8F4" stop-opacity="0.0341227"/>
<stop offset="0.85129" stop-color="#D0C8F4" stop-opacity="0.15447"/>
<stop offset="1" stop-color="#D0C8F4"/>
</radialGradient>
<radialGradient id="paint23_radial_40_3891" cx="0" cy="0" r="1" gradientUnits="userSpaceOnUse" gradientTransform="translate(14.4936 17.3079) rotate(161.202) scale(1.83548 7.52585)">
<stop stop-color="#D2D2D2" stop-opacity="0.85"/>
<stop offset="0.380548" stop-color="#D2D2D2" stop-opacity="0.51597"/>
<stop offset="0.765588" stop-color="#D2D2D2" stop-opacity="0.109165"/>
<stop offset="1" stop-color="#D2D2D2" stop-opacity="0"/>
</radialGradient>
</defs>
</svg>
