<svg width="32" height="32" viewBox="0 0 32 32" fill="none" xmlns="http://www.w3.org/2000/svg">
<path d="M8.09922 2.65794C8.94438 1.70661 10.0935 1.85802 10.8287 2.65794L11.2771 3.1771C11.4324 3.34602 11.6571 3.43362 11.8857 3.41437L12.6829 3.1771C13.7695 2.94416 14.757 3.75482 14.757 5.01392V5.48824C14.78 5.74717 15.0062 5.9227 15.2398 6.03677L15.96 6.33772C17.0019 6.84654 17.2623 8.0539 16.5033 9.06722L16.2877 9.35181C16.0943 9.61325 16.1341 9.9564 16.3265 10.2185L16.5421 10.5204C17.3269 11.4863 16.8844 12.8114 15.7759 13.2744L15.1559 13.5333C14.9223 13.6309 14.8308 13.7983 14.7872 14.0476L14.744 14.8582C14.5931 15.9707 13.605 16.4732 12.8123 16.361L11.8679 16.1087C11.6411 16.0766 11.3591 16.1519 11.2082 16.389L10.8675 16.8547C10.0224 17.8077 8.88169 17.6492 8.3062 17.0919L7.6778 16.3308C7.51326 16.1714 7.30581 16.0354 7.05753 16.1291L6.10707 16.389C5.3224 16.5001 4.39844 15.8969 4.25055 15.1183L4.1408 13.9915C4.09625 13.757 3.9416 13.5582 3.72522 13.4574L3.05849 13.2283C2.05588 12.7611 1.72007 11.63 2.29574 10.6854L2.67153 10.1658C2.82247 9.91811 2.8153 9.60522 2.65316 9.36475L2.37288 8.96804C1.57948 7.8383 2.12803 6.57555 3.30372 6.19698L3.56302 6.11349C3.84922 6.02134 4.12567 5.78366 4.14945 5.48394L4.20719 4.75635C4.30092 3.57534 5.37859 2.89767 6.51208 3.24225L6.87892 3.35377C7.23251 3.49176 7.50953 3.37425 7.70252 3.16405L8.09922 2.65794Z" fill="url(#paint0_linear_3_1311)"/>
<path d="M8.09922 2.65794C8.94438 1.70661 10.0935 1.85802 10.8287 2.65794L11.2771 3.1771C11.4324 3.34602 11.6571 3.43362 11.8857 3.41437L12.6829 3.1771C13.7695 2.94416 14.757 3.75482 14.757 5.01392V5.48824C14.78 5.74717 15.0062 5.9227 15.2398 6.03677L15.96 6.33772C17.0019 6.84654 17.2623 8.0539 16.5033 9.06722L16.2877 9.35181C16.0943 9.61325 16.1341 9.9564 16.3265 10.2185L16.5421 10.5204C17.3269 11.4863 16.8844 12.8114 15.7759 13.2744L15.1559 13.5333C14.9223 13.6309 14.8308 13.7983 14.7872 14.0476L14.744 14.8582C14.5931 15.9707 13.605 16.4732 12.8123 16.361L11.8679 16.1087C11.6411 16.0766 11.3591 16.1519 11.2082 16.389L10.8675 16.8547C10.0224 17.8077 8.88169 17.6492 8.3062 17.0919L7.6778 16.3308C7.51326 16.1714 7.30581 16.0354 7.05753 16.1291L6.10707 16.389C5.3224 16.5001 4.39844 15.8969 4.25055 15.1183L4.1408 13.9915C4.09625 13.757 3.9416 13.5582 3.72522 13.4574L3.05849 13.2283C2.05588 12.7611 1.72007 11.63 2.29574 10.6854L2.67153 10.1658C2.82247 9.91811 2.8153 9.60522 2.65316 9.36475L2.37288 8.96804C1.57948 7.8383 2.12803 6.57555 3.30372 6.19698L3.56302 6.11349C3.84922 6.02134 4.12567 5.78366 4.14945 5.48394L4.20719 4.75635C4.30092 3.57534 5.37859 2.89767 6.51208 3.24225L6.87892 3.35377C7.23251 3.49176 7.50953 3.37425 7.70252 3.16405L8.09922 2.65794Z" fill="url(#paint1_radial_3_1311)"/>
<path d="M8.09922 2.65794C8.94438 1.70661 10.0935 1.85802 10.8287 2.65794L11.2771 3.1771C11.4324 3.34602 11.6571 3.43362 11.8857 3.41437L12.6829 3.1771C13.7695 2.94416 14.757 3.75482 14.757 5.01392V5.48824C14.78 5.74717 15.0062 5.9227 15.2398 6.03677L15.96 6.33772C17.0019 6.84654 17.2623 8.0539 16.5033 9.06722L16.2877 9.35181C16.0943 9.61325 16.1341 9.9564 16.3265 10.2185L16.5421 10.5204C17.3269 11.4863 16.8844 12.8114 15.7759 13.2744L15.1559 13.5333C14.9223 13.6309 14.8308 13.7983 14.7872 14.0476L14.744 14.8582C14.5931 15.9707 13.605 16.4732 12.8123 16.361L11.8679 16.1087C11.6411 16.0766 11.3591 16.1519 11.2082 16.389L10.8675 16.8547C10.0224 17.8077 8.88169 17.6492 8.3062 17.0919L7.6778 16.3308C7.51326 16.1714 7.30581 16.0354 7.05753 16.1291L6.10707 16.389C5.3224 16.5001 4.39844 15.8969 4.25055 15.1183L4.1408 13.9915C4.09625 13.757 3.9416 13.5582 3.72522 13.4574L3.05849 13.2283C2.05588 12.7611 1.72007 11.63 2.29574 10.6854L2.67153 10.1658C2.82247 9.91811 2.8153 9.60522 2.65316 9.36475L2.37288 8.96804C1.57948 7.8383 2.12803 6.57555 3.30372 6.19698L3.56302 6.11349C3.84922 6.02134 4.12567 5.78366 4.14945 5.48394L4.20719 4.75635C4.30092 3.57534 5.37859 2.89767 6.51208 3.24225L6.87892 3.35377C7.23251 3.49176 7.50953 3.37425 7.70252 3.16405L8.09922 2.65794Z" fill="url(#paint2_radial_3_1311)"/>
<path d="M8.09922 2.65794C8.94438 1.70661 10.0935 1.85802 10.8287 2.65794L11.2771 3.1771C11.4324 3.34602 11.6571 3.43362 11.8857 3.41437L12.6829 3.1771C13.7695 2.94416 14.757 3.75482 14.757 5.01392V5.48824C14.78 5.74717 15.0062 5.9227 15.2398 6.03677L15.96 6.33772C17.0019 6.84654 17.2623 8.0539 16.5033 9.06722L16.2877 9.35181C16.0943 9.61325 16.1341 9.9564 16.3265 10.2185L16.5421 10.5204C17.3269 11.4863 16.8844 12.8114 15.7759 13.2744L15.1559 13.5333C14.9223 13.6309 14.8308 13.7983 14.7872 14.0476L14.744 14.8582C14.5931 15.9707 13.605 16.4732 12.8123 16.361L11.8679 16.1087C11.6411 16.0766 11.3591 16.1519 11.2082 16.389L10.8675 16.8547C10.0224 17.8077 8.88169 17.6492 8.3062 17.0919L7.6778 16.3308C7.51326 16.1714 7.30581 16.0354 7.05753 16.1291L6.10707 16.389C5.3224 16.5001 4.39844 15.8969 4.25055 15.1183L4.1408 13.9915C4.09625 13.757 3.9416 13.5582 3.72522 13.4574L3.05849 13.2283C2.05588 12.7611 1.72007 11.63 2.29574 10.6854L2.67153 10.1658C2.82247 9.91811 2.8153 9.60522 2.65316 9.36475L2.37288 8.96804C1.57948 7.8383 2.12803 6.57555 3.30372 6.19698L3.56302 6.11349C3.84922 6.02134 4.12567 5.78366 4.14945 5.48394L4.20719 4.75635C4.30092 3.57534 5.37859 2.89767 6.51208 3.24225L6.87892 3.35377C7.23251 3.49176 7.50953 3.37425 7.70252 3.16405L8.09922 2.65794Z" fill="url(#paint3_radial_3_1311)"/>
<path d="M8.09922 2.65794C8.94438 1.70661 10.0935 1.85802 10.8287 2.65794L11.2771 3.1771C11.4324 3.34602 11.6571 3.43362 11.8857 3.41437L12.6829 3.1771C13.7695 2.94416 14.757 3.75482 14.757 5.01392V5.48824C14.78 5.74717 15.0062 5.9227 15.2398 6.03677L15.96 6.33772C17.0019 6.84654 17.2623 8.0539 16.5033 9.06722L16.2877 9.35181C16.0943 9.61325 16.1341 9.9564 16.3265 10.2185L16.5421 10.5204C17.3269 11.4863 16.8844 12.8114 15.7759 13.2744L15.1559 13.5333C14.9223 13.6309 14.8308 13.7983 14.7872 14.0476L14.744 14.8582C14.5931 15.9707 13.605 16.4732 12.8123 16.361L11.8679 16.1087C11.6411 16.0766 11.3591 16.1519 11.2082 16.389L10.8675 16.8547C10.0224 17.8077 8.88169 17.6492 8.3062 17.0919L7.6778 16.3308C7.51326 16.1714 7.30581 16.0354 7.05753 16.1291L6.10707 16.389C5.3224 16.5001 4.39844 15.8969 4.25055 15.1183L4.1408 13.9915C4.09625 13.757 3.9416 13.5582 3.72522 13.4574L3.05849 13.2283C2.05588 12.7611 1.72007 11.63 2.29574 10.6854L2.67153 10.1658C2.82247 9.91811 2.8153 9.60522 2.65316 9.36475L2.37288 8.96804C1.57948 7.8383 2.12803 6.57555 3.30372 6.19698L3.56302 6.11349C3.84922 6.02134 4.12567 5.78366 4.14945 5.48394L4.20719 4.75635C4.30092 3.57534 5.37859 2.89767 6.51208 3.24225L6.87892 3.35377C7.23251 3.49176 7.50953 3.37425 7.70252 3.16405L8.09922 2.65794Z" fill="url(#paint4_radial_3_1311)"/>
<path d="M8.09922 2.65794C8.94438 1.70661 10.0935 1.85802 10.8287 2.65794L11.2771 3.1771C11.4324 3.34602 11.6571 3.43362 11.8857 3.41437L12.6829 3.1771C13.7695 2.94416 14.757 3.75482 14.757 5.01392V5.48824C14.78 5.74717 15.0062 5.9227 15.2398 6.03677L15.96 6.33772C17.0019 6.84654 17.2623 8.0539 16.5033 9.06722L16.2877 9.35181C16.0943 9.61325 16.1341 9.9564 16.3265 10.2185L16.5421 10.5204C17.3269 11.4863 16.8844 12.8114 15.7759 13.2744L15.1559 13.5333C14.9223 13.6309 14.8308 13.7983 14.7872 14.0476L14.744 14.8582C14.5931 15.9707 13.605 16.4732 12.8123 16.361L11.8679 16.1087C11.6411 16.0766 11.3591 16.1519 11.2082 16.389L10.8675 16.8547C10.0224 17.8077 8.88169 17.6492 8.3062 17.0919L7.6778 16.3308C7.51326 16.1714 7.30581 16.0354 7.05753 16.1291L6.10707 16.389C5.3224 16.5001 4.39844 15.8969 4.25055 15.1183L4.1408 13.9915C4.09625 13.757 3.9416 13.5582 3.72522 13.4574L3.05849 13.2283C2.05588 12.7611 1.72007 11.63 2.29574 10.6854L2.67153 10.1658C2.82247 9.91811 2.8153 9.60522 2.65316 9.36475L2.37288 8.96804C1.57948 7.8383 2.12803 6.57555 3.30372 6.19698L3.56302 6.11349C3.84922 6.02134 4.12567 5.78366 4.14945 5.48394L4.20719 4.75635C4.30092 3.57534 5.37859 2.89767 6.51208 3.24225L6.87892 3.35377C7.23251 3.49176 7.50953 3.37425 7.70252 3.16405L8.09922 2.65794Z" fill="url(#paint5_radial_3_1311)"/>
<path d="M8.09922 2.65794C8.94438 1.70661 10.0935 1.85802 10.8287 2.65794L11.2771 3.1771C11.4324 3.34602 11.6571 3.43362 11.8857 3.41437L12.6829 3.1771C13.7695 2.94416 14.757 3.75482 14.757 5.01392V5.48824C14.78 5.74717 15.0062 5.9227 15.2398 6.03677L15.96 6.33772C17.0019 6.84654 17.2623 8.0539 16.5033 9.06722L16.2877 9.35181C16.0943 9.61325 16.1341 9.9564 16.3265 10.2185L16.5421 10.5204C17.3269 11.4863 16.8844 12.8114 15.7759 13.2744L15.1559 13.5333C14.9223 13.6309 14.8308 13.7983 14.7872 14.0476L14.744 14.8582C14.5931 15.9707 13.605 16.4732 12.8123 16.361L11.8679 16.1087C11.6411 16.0766 11.3591 16.1519 11.2082 16.389L10.8675 16.8547C10.0224 17.8077 8.88169 17.6492 8.3062 17.0919L7.6778 16.3308C7.51326 16.1714 7.30581 16.0354 7.05753 16.1291L6.10707 16.389C5.3224 16.5001 4.39844 15.8969 4.25055 15.1183L4.1408 13.9915C4.09625 13.757 3.9416 13.5582 3.72522 13.4574L3.05849 13.2283C2.05588 12.7611 1.72007 11.63 2.29574 10.6854L2.67153 10.1658C2.82247 9.91811 2.8153 9.60522 2.65316 9.36475L2.37288 8.96804C1.57948 7.8383 2.12803 6.57555 3.30372 6.19698L3.56302 6.11349C3.84922 6.02134 4.12567 5.78366 4.14945 5.48394L4.20719 4.75635C4.30092 3.57534 5.37859 2.89767 6.51208 3.24225L6.87892 3.35377C7.23251 3.49176 7.50953 3.37425 7.70252 3.16405L8.09922 2.65794Z" fill="url(#paint6_radial_3_1311)"/>
<path d="M8.09922 2.65794C8.94438 1.70661 10.0935 1.85802 10.8287 2.65794L11.2771 3.1771C11.4324 3.34602 11.6571 3.43362 11.8857 3.41437L12.6829 3.1771C13.7695 2.94416 14.757 3.75482 14.757 5.01392V5.48824C14.78 5.74717 15.0062 5.9227 15.2398 6.03677L15.96 6.33772C17.0019 6.84654 17.2623 8.0539 16.5033 9.06722L16.2877 9.35181C16.0943 9.61325 16.1341 9.9564 16.3265 10.2185L16.5421 10.5204C17.3269 11.4863 16.8844 12.8114 15.7759 13.2744L15.1559 13.5333C14.9223 13.6309 14.8308 13.7983 14.7872 14.0476L14.744 14.8582C14.5931 15.9707 13.605 16.4732 12.8123 16.361L11.8679 16.1087C11.6411 16.0766 11.3591 16.1519 11.2082 16.389L10.8675 16.8547C10.0224 17.8077 8.88169 17.6492 8.3062 17.0919L7.6778 16.3308C7.51326 16.1714 7.30581 16.0354 7.05753 16.1291L6.10707 16.389C5.3224 16.5001 4.39844 15.8969 4.25055 15.1183L4.1408 13.9915C4.09625 13.757 3.9416 13.5582 3.72522 13.4574L3.05849 13.2283C2.05588 12.7611 1.72007 11.63 2.29574 10.6854L2.67153 10.1658C2.82247 9.91811 2.8153 9.60522 2.65316 9.36475L2.37288 8.96804C1.57948 7.8383 2.12803 6.57555 3.30372 6.19698L3.56302 6.11349C3.84922 6.02134 4.12567 5.78366 4.14945 5.48394L4.20719 4.75635C4.30092 3.57534 5.37859 2.89767 6.51208 3.24225L6.87892 3.35377C7.23251 3.49176 7.50953 3.37425 7.70252 3.16405L8.09922 2.65794Z" fill="url(#paint7_radial_3_1311)"/>
<path d="M8.09922 2.65794C8.94438 1.70661 10.0935 1.85802 10.8287 2.65794L11.2771 3.1771C11.4324 3.34602 11.6571 3.43362 11.8857 3.41437L12.6829 3.1771C13.7695 2.94416 14.757 3.75482 14.757 5.01392V5.48824C14.78 5.74717 15.0062 5.9227 15.2398 6.03677L15.96 6.33772C17.0019 6.84654 17.2623 8.0539 16.5033 9.06722L16.2877 9.35181C16.0943 9.61325 16.1341 9.9564 16.3265 10.2185L16.5421 10.5204C17.3269 11.4863 16.8844 12.8114 15.7759 13.2744L15.1559 13.5333C14.9223 13.6309 14.8308 13.7983 14.7872 14.0476L14.744 14.8582C14.5931 15.9707 13.605 16.4732 12.8123 16.361L11.8679 16.1087C11.6411 16.0766 11.3591 16.1519 11.2082 16.389L10.8675 16.8547C10.0224 17.8077 8.88169 17.6492 8.3062 17.0919L7.6778 16.3308C7.51326 16.1714 7.30581 16.0354 7.05753 16.1291L6.10707 16.389C5.3224 16.5001 4.39844 15.8969 4.25055 15.1183L4.1408 13.9915C4.09625 13.757 3.9416 13.5582 3.72522 13.4574L3.05849 13.2283C2.05588 12.7611 1.72007 11.63 2.29574 10.6854L2.67153 10.1658C2.82247 9.91811 2.8153 9.60522 2.65316 9.36475L2.37288 8.96804C1.57948 7.8383 2.12803 6.57555 3.30372 6.19698L3.56302 6.11349C3.84922 6.02134 4.12567 5.78366 4.14945 5.48394L4.20719 4.75635C4.30092 3.57534 5.37859 2.89767 6.51208 3.24225L6.87892 3.35377C7.23251 3.49176 7.50953 3.37425 7.70252 3.16405L8.09922 2.65794Z" fill="url(#paint8_radial_3_1311)"/>
<path d="M8.09922 2.65794C8.94438 1.70661 10.0935 1.85802 10.8287 2.65794L11.2771 3.1771C11.4324 3.34602 11.6571 3.43362 11.8857 3.41437L12.6829 3.1771C13.7695 2.94416 14.757 3.75482 14.757 5.01392V5.48824C14.78 5.74717 15.0062 5.9227 15.2398 6.03677L15.96 6.33772C17.0019 6.84654 17.2623 8.0539 16.5033 9.06722L16.2877 9.35181C16.0943 9.61325 16.1341 9.9564 16.3265 10.2185L16.5421 10.5204C17.3269 11.4863 16.8844 12.8114 15.7759 13.2744L15.1559 13.5333C14.9223 13.6309 14.8308 13.7983 14.7872 14.0476L14.744 14.8582C14.5931 15.9707 13.605 16.4732 12.8123 16.361L11.8679 16.1087C11.6411 16.0766 11.3591 16.1519 11.2082 16.389L10.8675 16.8547C10.0224 17.8077 8.88169 17.6492 8.3062 17.0919L7.6778 16.3308C7.51326 16.1714 7.30581 16.0354 7.05753 16.1291L6.10707 16.389C5.3224 16.5001 4.39844 15.8969 4.25055 15.1183L4.1408 13.9915C4.09625 13.757 3.9416 13.5582 3.72522 13.4574L3.05849 13.2283C2.05588 12.7611 1.72007 11.63 2.29574 10.6854L2.67153 10.1658C2.82247 9.91811 2.8153 9.60522 2.65316 9.36475L2.37288 8.96804C1.57948 7.8383 2.12803 6.57555 3.30372 6.19698L3.56302 6.11349C3.84922 6.02134 4.12567 5.78366 4.14945 5.48394L4.20719 4.75635C4.30092 3.57534 5.37859 2.89767 6.51208 3.24225L6.87892 3.35377C7.23251 3.49176 7.50953 3.37425 7.70252 3.16405L8.09922 2.65794Z" fill="url(#paint9_radial_3_1311)"/>
<path d="M9.46996 15.6853C12.7447 15.6853 15.3994 13.0306 15.3994 9.75585C15.3994 6.48111 12.7447 3.82642 9.46996 3.82642C6.19523 3.82642 3.54053 6.48111 3.54053 9.75585C3.54053 13.0306 6.19523 15.6853 9.46996 15.6853Z" fill="url(#paint10_radial_3_1311)"/>
<path d="M9.46996 15.6853C12.7447 15.6853 15.3994 13.0306 15.3994 9.75585C15.3994 6.48111 12.7447 3.82642 9.46996 3.82642C6.19523 3.82642 3.54053 6.48111 3.54053 9.75585C3.54053 13.0306 6.19523 15.6853 9.46996 15.6853Z" fill="url(#paint11_radial_3_1311)"/>
<path d="M9.46996 15.6853C12.7447 15.6853 15.3994 13.0306 15.3994 9.75585C15.3994 6.48111 12.7447 3.82642 9.46996 3.82642C6.19523 3.82642 3.54053 6.48111 3.54053 9.75585C3.54053 13.0306 6.19523 15.6853 9.46996 15.6853Z" fill="url(#paint12_radial_3_1311)"/>
<path d="M12.274 14.4852C14.5083 14.4852 16.3195 12.674 16.3195 10.4398C16.3195 8.20551 14.5083 6.39429 12.274 6.39429C10.0397 6.39429 8.22852 8.20551 8.22852 10.4398C8.22852 12.674 10.0397 14.4852 12.274 14.4852Z" fill="url(#paint13_radial_3_1311)"/>
<path d="M12.274 14.4852C14.5083 14.4852 16.3195 12.674 16.3195 10.4398C16.3195 8.20551 14.5083 6.39429 12.274 6.39429C10.0397 6.39429 8.22852 8.20551 8.22852 10.4398C8.22852 12.674 10.0397 14.4852 12.274 14.4852Z" fill="url(#paint14_radial_3_1311)"/>
<path d="M8.71321 25.0563L6.40321 28.2163C5.83321 28.9963 4.74321 29.1663 3.96321 28.5963C3.18321 28.0263 3.01322 26.9363 3.58322 26.1563L5.89322 22.9963C6.46322 22.2163 7.55322 22.0463 8.33322 22.6163C9.11322 23.1763 9.28321 24.2763 8.71321 25.0563Z" fill="#535DFF"/>
<path d="M8.71321 25.0563L6.40321 28.2163C5.83321 28.9963 4.74321 29.1663 3.96321 28.5963C3.18321 28.0263 3.01322 26.9363 3.58322 26.1563L5.89322 22.9963C6.46322 22.2163 7.55322 22.0463 8.33322 22.6163C9.11322 23.1763 9.28321 24.2763 8.71321 25.0563Z" fill="url(#paint15_radial_3_1311)"/>
<path d="M8.71321 25.0563L6.40321 28.2163C5.83321 28.9963 4.74321 29.1663 3.96321 28.5963C3.18321 28.0263 3.01322 26.9363 3.58322 26.1563L5.89322 22.9963C6.46322 22.2163 7.55322 22.0463 8.33322 22.6163C9.11322 23.1763 9.28321 24.2763 8.71321 25.0563Z" fill="url(#paint16_linear_3_1311)" fill-opacity="0.7"/>
<path d="M8.71321 25.0563L6.40321 28.2163C5.83321 28.9963 4.74321 29.1663 3.96321 28.5963C3.18321 28.0263 3.01322 26.9363 3.58322 26.1563L5.89322 22.9963C6.46322 22.2163 7.55322 22.0463 8.33322 22.6163C9.11322 23.1763 9.28321 24.2763 8.71321 25.0563Z" fill="url(#paint17_linear_3_1311)" fill-opacity="0.1"/>
<path d="M8.71321 25.0563L6.40321 28.2163C5.83321 28.9963 4.74321 29.1663 3.96321 28.5963C3.18321 28.0263 3.01322 26.9363 3.58322 26.1563L5.89322 22.9963C6.46322 22.2163 7.55322 22.0463 8.33322 22.6163C9.11322 23.1763 9.28321 24.2763 8.71321 25.0563Z" fill="url(#paint18_linear_3_1311)" fill-opacity="0.8"/>
<path d="M15.2799 25.0563L12.9699 28.2163C12.3999 28.9963 11.3099 29.1663 10.5299 28.5963C9.74986 28.0263 9.57987 26.9363 10.1499 26.1563L12.4599 22.9963C13.0299 22.2163 14.1199 22.0463 14.8999 22.6163C15.6799 23.1763 15.8499 24.2763 15.2799 25.0563Z" fill="#535DFF"/>
<path d="M15.2799 25.0563L12.9699 28.2163C12.3999 28.9963 11.3099 29.1663 10.5299 28.5963C9.74986 28.0263 9.57987 26.9363 10.1499 26.1563L12.4599 22.9963C13.0299 22.2163 14.1199 22.0463 14.8999 22.6163C15.6799 23.1763 15.8499 24.2763 15.2799 25.0563Z" fill="url(#paint19_radial_3_1311)"/>
<path d="M15.2799 25.0563L12.9699 28.2163C12.3999 28.9963 11.3099 29.1663 10.5299 28.5963C9.74986 28.0263 9.57987 26.9363 10.1499 26.1563L12.4599 22.9963C13.0299 22.2163 14.1199 22.0463 14.8999 22.6163C15.6799 23.1763 15.8499 24.2763 15.2799 25.0563Z" fill="url(#paint20_linear_3_1311)" fill-opacity="0.7"/>
<path d="M15.2799 25.0563L12.9699 28.2163C12.3999 28.9963 11.3099 29.1663 10.5299 28.5963C9.74986 28.0263 9.57987 26.9363 10.1499 26.1563L12.4599 22.9963C13.0299 22.2163 14.1199 22.0463 14.8999 22.6163C15.6799 23.1763 15.8499 24.2763 15.2799 25.0563Z" fill="url(#paint21_linear_3_1311)" fill-opacity="0.1"/>
<path d="M15.2799 25.0563L12.9699 28.2163C12.3999 28.9963 11.3099 29.1663 10.5299 28.5963C9.74986 28.0263 9.57987 26.9363 10.1499 26.1563L12.4599 22.9963C13.0299 22.2163 14.1199 22.0463 14.8999 22.6163C15.6799 23.1763 15.8499 24.2763 15.2799 25.0563Z" fill="url(#paint22_linear_3_1311)" fill-opacity="0.8"/>
<path d="M21.8465 25.0563L19.5365 28.2163C18.9665 28.9963 17.8765 29.1663 17.0965 28.5963C16.3165 28.0263 16.1465 26.9363 16.7165 26.1563L19.0265 22.9963C19.5965 22.2163 20.6865 22.0463 21.4665 22.6163C22.2465 23.1763 22.4165 24.2763 21.8465 25.0563Z" fill="#535DFF"/>
<path d="M21.8465 25.0563L19.5365 28.2163C18.9665 28.9963 17.8765 29.1663 17.0965 28.5963C16.3165 28.0263 16.1465 26.9363 16.7165 26.1563L19.0265 22.9963C19.5965 22.2163 20.6865 22.0463 21.4665 22.6163C22.2465 23.1763 22.4165 24.2763 21.8465 25.0563Z" fill="url(#paint23_radial_3_1311)"/>
<path d="M21.8465 25.0563L19.5365 28.2163C18.9665 28.9963 17.8765 29.1663 17.0965 28.5963C16.3165 28.0263 16.1465 26.9363 16.7165 26.1563L19.0265 22.9963C19.5965 22.2163 20.6865 22.0463 21.4665 22.6163C22.2465 23.1763 22.4165 24.2763 21.8465 25.0563Z" fill="url(#paint24_linear_3_1311)" fill-opacity="0.7"/>
<path d="M21.8465 25.0563L19.5365 28.2163C18.9665 28.9963 17.8765 29.1663 17.0965 28.5963C16.3165 28.0263 16.1465 26.9363 16.7165 26.1563L19.0265 22.9963C19.5965 22.2163 20.6865 22.0463 21.4665 22.6163C22.2465 23.1763 22.4165 24.2763 21.8465 25.0563Z" fill="url(#paint25_linear_3_1311)" fill-opacity="0.1"/>
<path d="M21.8465 25.0563L19.5365 28.2163C18.9665 28.9963 17.8765 29.1663 17.0965 28.5963C16.3165 28.0263 16.1465 26.9363 16.7165 26.1563L19.0265 22.9963C19.5965 22.2163 20.6865 22.0463 21.4665 22.6163C22.2465 23.1763 22.4165 24.2763 21.8465 25.0563Z" fill="url(#paint26_linear_3_1311)" fill-opacity="0.8"/>
<path d="M27.3245 6.3893C23.7626 2.91773 18.0636 2.97793 14.592 6.5398C13.6649 7.48526 12.9981 8.58189 12.5686 9.75284C12.5098 9.91333 12.3127 9.97609 12.1702 9.88175C11.858 9.67511 11.5251 9.49462 11.1806 9.34916C10.3579 8.96789 9.44485 8.75719 8.48163 8.75719C4.89968 8.75719 2 11.6569 2 15.2388C2 16.7639 2.53177 18.1686 3.41472 19.2823C4.6087 20.8475 6.48497 21.8508 8.60204 21.8508C11.1505 21.8508 18.475 21.8508 21.3345 21.8508C24.164 21.8508 26.6623 20.4562 28.1874 18.3191C30.9165 14.7472 30.6256 9.61003 27.3245 6.3893Z" fill="#D5D4DA"/>
<path d="M27.3245 6.3893C23.7626 2.91773 18.0636 2.97793 14.592 6.5398C13.6649 7.48526 12.9981 8.58189 12.5686 9.75284C12.5098 9.91333 12.3127 9.97609 12.1702 9.88175C11.858 9.67511 11.5251 9.49462 11.1806 9.34916C10.3579 8.96789 9.44485 8.75719 8.48163 8.75719C4.89968 8.75719 2 11.6569 2 15.2388C2 16.7639 2.53177 18.1686 3.41472 19.2823C4.6087 20.8475 6.48497 21.8508 8.60204 21.8508C11.1505 21.8508 18.475 21.8508 21.3345 21.8508C24.164 21.8508 26.6623 20.4562 28.1874 18.3191C30.9165 14.7472 30.6256 9.61003 27.3245 6.3893Z" fill="url(#paint27_linear_3_1311)"/>
<path d="M27.3245 6.3893C23.7626 2.91773 18.0636 2.97793 14.592 6.5398C13.6649 7.48526 12.9981 8.58189 12.5686 9.75284C12.5098 9.91333 12.3127 9.97609 12.1702 9.88175C11.858 9.67511 11.5251 9.49462 11.1806 9.34916C10.3579 8.96789 9.44485 8.75719 8.48163 8.75719C4.89968 8.75719 2 11.6569 2 15.2388C2 16.7639 2.53177 18.1686 3.41472 19.2823C4.6087 20.8475 6.48497 21.8508 8.60204 21.8508C11.1505 21.8508 18.475 21.8508 21.3345 21.8508C24.164 21.8508 26.6623 20.4562 28.1874 18.3191C30.9165 14.7472 30.6256 9.61003 27.3245 6.3893Z" fill="url(#paint28_radial_3_1311)"/>
<path d="M27.3245 6.3893C23.7626 2.91773 18.0636 2.97793 14.592 6.5398C13.6649 7.48526 12.9981 8.58189 12.5686 9.75284C12.5098 9.91333 12.3127 9.97609 12.1702 9.88175C11.858 9.67511 11.5251 9.49462 11.1806 9.34916C10.3579 8.96789 9.44485 8.75719 8.48163 8.75719C4.89968 8.75719 2 11.6569 2 15.2388C2 16.7639 2.53177 18.1686 3.41472 19.2823C4.6087 20.8475 6.48497 21.8508 8.60204 21.8508C11.1505 21.8508 18.475 21.8508 21.3345 21.8508C24.164 21.8508 26.6623 20.4562 28.1874 18.3191C30.9165 14.7472 30.6256 9.61003 27.3245 6.3893Z" fill="url(#paint29_radial_3_1311)"/>
<path d="M27.3245 6.3893C23.7626 2.91773 18.0636 2.97793 14.592 6.5398C13.6649 7.48526 12.9981 8.58189 12.5686 9.75284C12.5098 9.91333 12.3127 9.97609 12.1702 9.88175C11.858 9.67511 11.5251 9.49462 11.1806 9.34916C10.3579 8.96789 9.44485 8.75719 8.48163 8.75719C4.89968 8.75719 2 11.6569 2 15.2388C2 16.7639 2.53177 18.1686 3.41472 19.2823C4.6087 20.8475 6.48497 21.8508 8.60204 21.8508C11.1505 21.8508 18.475 21.8508 21.3345 21.8508C24.164 21.8508 26.6623 20.4562 28.1874 18.3191C30.9165 14.7472 30.6256 9.61003 27.3245 6.3893Z" fill="url(#paint30_radial_3_1311)"/>
<path d="M27.3245 6.3893C23.7626 2.91773 18.0636 2.97793 14.592 6.5398C13.6649 7.48526 12.9981 8.58189 12.5686 9.75284C12.5098 9.91333 12.3127 9.97609 12.1702 9.88175C11.858 9.67511 11.5251 9.49462 11.1806 9.34916C10.3579 8.96789 9.44485 8.75719 8.48163 8.75719C4.89968 8.75719 2 11.6569 2 15.2388C2 16.7639 2.53177 18.1686 3.41472 19.2823C4.6087 20.8475 6.48497 21.8508 8.60204 21.8508C11.1505 21.8508 18.475 21.8508 21.3345 21.8508C24.164 21.8508 26.6623 20.4562 28.1874 18.3191C30.9165 14.7472 30.6256 9.61003 27.3245 6.3893Z" fill="url(#paint31_radial_3_1311)"/>
<path d="M27.3245 6.3893C23.7626 2.91773 18.0636 2.97793 14.592 6.5398C13.6649 7.48526 12.9981 8.58189 12.5686 9.75284C12.5098 9.91333 12.3127 9.97609 12.1702 9.88175C11.858 9.67511 11.5251 9.49462 11.1806 9.34916C10.3579 8.96789 9.44485 8.75719 8.48163 8.75719C4.89968 8.75719 2 11.6569 2 15.2388C2 16.7639 2.53177 18.1686 3.41472 19.2823C4.6087 20.8475 6.48497 21.8508 8.60204 21.8508C11.1505 21.8508 18.475 21.8508 21.3345 21.8508C24.164 21.8508 26.6623 20.4562 28.1874 18.3191C30.9165 14.7472 30.6256 9.61003 27.3245 6.3893Z" fill="url(#paint32_linear_3_1311)"/>
<path d="M27.3245 6.3893C23.7626 2.91773 18.0636 2.97793 14.592 6.5398C13.6649 7.48526 12.9981 8.58189 12.5686 9.75284C12.5098 9.91333 12.3127 9.97609 12.1702 9.88175C11.858 9.67511 11.5251 9.49462 11.1806 9.34916C10.3579 8.96789 9.44485 8.75719 8.48163 8.75719C4.89968 8.75719 2 11.6569 2 15.2388C2 16.7639 2.53177 18.1686 3.41472 19.2823C4.6087 20.8475 6.48497 21.8508 8.60204 21.8508C11.1505 21.8508 18.475 21.8508 21.3345 21.8508C24.164 21.8508 26.6623 20.4562 28.1874 18.3191C30.9165 14.7472 30.6256 9.61003 27.3245 6.3893Z" fill="url(#paint33_radial_3_1311)" fill-opacity="0.7"/>
<path d="M27.3245 6.3893C23.7626 2.91773 18.0636 2.97793 14.592 6.5398C13.6649 7.48526 12.9981 8.58189 12.5686 9.75284C12.5098 9.91333 12.3127 9.97609 12.1702 9.88175C11.858 9.67511 11.5251 9.49462 11.1806 9.34916C10.3579 8.96789 9.44485 8.75719 8.48163 8.75719C4.89968 8.75719 2 11.6569 2 15.2388C2 16.7639 2.53177 18.1686 3.41472 19.2823C4.6087 20.8475 6.48497 21.8508 8.60204 21.8508C11.1505 21.8508 18.475 21.8508 21.3345 21.8508C24.164 21.8508 26.6623 20.4562 28.1874 18.3191C30.9165 14.7472 30.6256 9.61003 27.3245 6.3893Z" fill="url(#paint34_linear_3_1311)" fill-opacity="0.6"/>
<defs>
<linearGradient id="paint0_linear_3_1311" x1="14.0753" y1="4.60956" x2="5.60311" y2="15.4189" gradientUnits="userSpaceOnUse">
<stop stop-color="#FC8B23"/>
<stop offset="1" stop-color="#E67639"/>
</linearGradient>
<radialGradient id="paint1_radial_3_1311" cx="0" cy="0" r="1" gradientUnits="userSpaceOnUse" gradientTransform="translate(10.8966 2.71665) rotate(138.155) scale(2.08557 1.84012)">
<stop offset="0.300161" stop-color="#FFA13A"/>
<stop offset="1" stop-color="#FFA13A" stop-opacity="0"/>
</radialGradient>
<radialGradient id="paint2_radial_3_1311" cx="0" cy="0" r="1" gradientUnits="userSpaceOnUse" gradientTransform="translate(5.47038 2.05826) rotate(67.8105) scale(3.31557 2.92536)">
<stop offset="0.300161" stop-color="#FF942A"/>
<stop offset="1" stop-color="#FF942A" stop-opacity="0"/>
</radialGradient>
<radialGradient id="paint3_radial_3_1311" cx="0" cy="0" r="1" gradientUnits="userSpaceOnUse" gradientTransform="translate(14.3749 5.15147) rotate(-164.745) scale(1.32196 1.83043)">
<stop offset="0.300161" stop-color="#FFA13D"/>
<stop offset="1" stop-color="#FFA13D" stop-opacity="0"/>
</radialGradient>
<radialGradient id="paint4_radial_3_1311" cx="0" cy="0" r="1" gradientUnits="userSpaceOnUse" gradientTransform="translate(17.0416 7.07614) rotate(154.195) scale(2.3439 1.73114)">
<stop offset="0.300161" stop-color="#FFA13D"/>
<stop offset="1" stop-color="#FFA13D" stop-opacity="0"/>
</radialGradient>
<radialGradient id="paint5_radial_3_1311" cx="0" cy="0" r="1" gradientUnits="userSpaceOnUse" gradientTransform="translate(17.5517 11.0414) rotate(-173.379) scale(2.61458 1.47341)">
<stop offset="0.300161" stop-color="#FFA13D"/>
<stop offset="1" stop-color="#FFA13D" stop-opacity="0"/>
</radialGradient>
<radialGradient id="paint6_radial_3_1311" cx="0" cy="0" r="1" gradientUnits="userSpaceOnUse" gradientTransform="translate(15.2097 14.0792) rotate(-43.9639) scale(2.37164 2.28479)">
<stop stop-color="#E0762A"/>
<stop offset="1" stop-color="#E0762A" stop-opacity="0"/>
</radialGradient>
<radialGradient id="paint7_radial_3_1311" cx="0" cy="0" r="1" gradientUnits="userSpaceOnUse" gradientTransform="translate(4.21818 13.5226) rotate(-127.747) scale(1.81821 1.75164)">
<stop stop-color="#E0762A"/>
<stop offset="1" stop-color="#E0762A" stop-opacity="0"/>
</radialGradient>
<radialGradient id="paint8_radial_3_1311" cx="0" cy="0" r="1" gradientUnits="userSpaceOnUse" gradientTransform="translate(1.73698 7.3776) rotate(25.2777) scale(1.84639 2.23162)">
<stop stop-color="#F0851D"/>
<stop offset="1" stop-color="#F0851D" stop-opacity="0"/>
</radialGradient>
<radialGradient id="paint9_radial_3_1311" cx="0" cy="0" r="1" gradientUnits="userSpaceOnUse" gradientTransform="translate(12.7584 16.7124) rotate(-142.487) scale(2.15269 2.03088)">
<stop offset="0.336586" stop-color="#E3745B"/>
<stop offset="1" stop-color="#E3745B" stop-opacity="0"/>
</radialGradient>
<radialGradient id="paint10_radial_3_1311" cx="0" cy="0" r="1" gradientUnits="userSpaceOnUse" gradientTransform="translate(12.8348 6.32068) rotate(117.739) scale(10.5806 13.066)">
<stop offset="0.17178" stop-color="#FFD13D"/>
<stop offset="1" stop-color="#DCA21C"/>
<stop offset="1" stop-color="#D89A29"/>
</radialGradient>
<radialGradient id="paint11_radial_3_1311" cx="0" cy="0" r="1" gradientUnits="userSpaceOnUse" gradientTransform="translate(7.3625 13.1698) rotate(-140.631) scale(3.69101 3.11629)">
<stop offset="0.340699" stop-color="#DCA225"/>
<stop offset="1" stop-color="#DCA225" stop-opacity="0"/>
</radialGradient>
<radialGradient id="paint12_radial_3_1311" cx="0" cy="0" r="1" gradientUnits="userSpaceOnUse" gradientTransform="translate(15.8058 7.55246) rotate(159.638) scale(13.8145 11.6634)">
<stop offset="0.642222" stop-color="#DCA225" stop-opacity="0"/>
<stop offset="1" stop-color="#DCA225"/>
</radialGradient>
<radialGradient id="paint13_radial_3_1311" cx="0" cy="0" r="1" gradientUnits="userSpaceOnUse" gradientTransform="translate(13.7325 8.93883) rotate(-172.463) scale(5.55198)">
<stop offset="0.308752" stop-color="#E8E8E9"/>
<stop offset="1" stop-color="#D2D2D2"/>
</radialGradient>
<radialGradient id="paint14_radial_3_1311" cx="0" cy="0" r="1" gradientUnits="userSpaceOnUse" gradientTransform="translate(12.7063 10.0974) rotate(-141.242) scale(3.01398 2.7615)">
<stop stop-color="#CDCDCE"/>
<stop offset="1" stop-color="#CDCDCE" stop-opacity="0"/>
</radialGradient>
<radialGradient id="paint15_radial_3_1311" cx="0" cy="0" r="1" gradientUnits="userSpaceOnUse" gradientTransform="translate(9.05033 23.2101) rotate(149.241) scale(2.26585 1.96547)">
<stop stop-color="#6779FF"/>
<stop offset="1" stop-color="#6779FF" stop-opacity="0"/>
</radialGradient>
<linearGradient id="paint16_linear_3_1311" x1="1.61913" y1="28.6754" x2="8.49632" y2="26.6953" gradientUnits="userSpaceOnUse">
<stop offset="0.230135" stop-opacity="0.49"/>
<stop offset="0.622662" stop-color="#545EFF" stop-opacity="0"/>
</linearGradient>
<linearGradient id="paint17_linear_3_1311" x1="7.0225" y1="20.6614" x2="8.49632" y2="26.6953" gradientUnits="userSpaceOnUse">
<stop offset="0.230135" stop-opacity="0.49"/>
<stop offset="0.622662" stop-color="#545EFF" stop-opacity="0"/>
</linearGradient>
<linearGradient id="paint18_linear_3_1311" x1="3.24609" y1="23.3188" x2="7.97355" y2="26.8363" gradientUnits="userSpaceOnUse">
<stop offset="0.318192" stop-opacity="0.37"/>
<stop offset="0.622662" stop-color="#545EFF" stop-opacity="0"/>
</linearGradient>
<radialGradient id="paint19_radial_3_1311" cx="0" cy="0" r="1" gradientUnits="userSpaceOnUse" gradientTransform="translate(15.617 23.2101) rotate(149.241) scale(2.26585 1.96547)">
<stop stop-color="#6779FF"/>
<stop offset="1" stop-color="#6779FF" stop-opacity="0"/>
</radialGradient>
<linearGradient id="paint20_linear_3_1311" x1="8.18578" y1="28.6754" x2="15.063" y2="26.6953" gradientUnits="userSpaceOnUse">
<stop offset="0.230135" stop-opacity="0.49"/>
<stop offset="0.622662" stop-color="#545EFF" stop-opacity="0"/>
</linearGradient>
<linearGradient id="paint21_linear_3_1311" x1="13.5892" y1="20.6614" x2="15.063" y2="26.6953" gradientUnits="userSpaceOnUse">
<stop offset="0.230135" stop-opacity="0.49"/>
<stop offset="0.622662" stop-color="#545EFF" stop-opacity="0"/>
</linearGradient>
<linearGradient id="paint22_linear_3_1311" x1="9.81274" y1="23.3188" x2="14.5402" y2="26.8363" gradientUnits="userSpaceOnUse">
<stop offset="0.318192" stop-opacity="0.37"/>
<stop offset="0.622662" stop-color="#545EFF" stop-opacity="0"/>
</linearGradient>
<radialGradient id="paint23_radial_3_1311" cx="0" cy="0" r="1" gradientUnits="userSpaceOnUse" gradientTransform="translate(22.1836 23.2101) rotate(149.241) scale(2.26585 1.96547)">
<stop stop-color="#6779FF"/>
<stop offset="1" stop-color="#6779FF" stop-opacity="0"/>
</radialGradient>
<linearGradient id="paint24_linear_3_1311" x1="14.7524" y1="28.6754" x2="21.6296" y2="26.6953" gradientUnits="userSpaceOnUse">
<stop offset="0.230135" stop-opacity="0.49"/>
<stop offset="0.622662" stop-color="#545EFF" stop-opacity="0"/>
</linearGradient>
<linearGradient id="paint25_linear_3_1311" x1="20.1558" y1="20.6614" x2="21.6296" y2="26.6953" gradientUnits="userSpaceOnUse">
<stop offset="0.230135" stop-opacity="0.49"/>
<stop offset="0.622662" stop-color="#545EFF" stop-opacity="0"/>
</linearGradient>
<linearGradient id="paint26_linear_3_1311" x1="16.3794" y1="23.3188" x2="21.1069" y2="26.8363" gradientUnits="userSpaceOnUse">
<stop offset="0.318192" stop-opacity="0.37"/>
<stop offset="0.622662" stop-color="#545EFF" stop-opacity="0"/>
</linearGradient>
<linearGradient id="paint27_linear_3_1311" x1="18.8833" y1="20.8817" x2="18.8833" y2="13.3586" gradientUnits="userSpaceOnUse">
<stop stop-color="#DED7FA"/>
<stop offset="1" stop-color="#DED7FA" stop-opacity="0"/>
</linearGradient>
<radialGradient id="paint28_radial_3_1311" cx="0" cy="0" r="1" gradientUnits="userSpaceOnUse" gradientTransform="translate(26.4064 9.88637) rotate(136.5) scale(11.1692 11.9812)">
<stop offset="0.178875" stop-color="#FCFBFE"/>
<stop offset="1" stop-color="#FCFBFE" stop-opacity="0"/>
</radialGradient>
<radialGradient id="paint29_radial_3_1311" cx="0" cy="0" r="1" gradientUnits="userSpaceOnUse" gradientTransform="translate(8.66771 14.169) rotate(144.444) scale(6.85223 7.18009)">
<stop stop-color="#FCFBFE"/>
<stop offset="1" stop-color="#FCFBFE" stop-opacity="0"/>
</radialGradient>
<radialGradient id="paint30_radial_3_1311" cx="0" cy="0" r="1" gradientUnits="userSpaceOnUse" gradientTransform="translate(25.2449 12.3044) rotate(166.654) scale(23.89 18.8142)">
<stop offset="0.815422" stop-color="#CECCD7" stop-opacity="0"/>
<stop offset="1" stop-color="#CECCD7"/>
</radialGradient>
<radialGradient id="paint31_radial_3_1311" cx="0" cy="0" r="1" gradientUnits="userSpaceOnUse" gradientTransform="translate(5.64928 22.8704) rotate(-50.5724) scale(8.50633 11.739)">
<stop stop-color="#D0C9EE"/>
<stop offset="1" stop-color="#D0C9EE" stop-opacity="0"/>
</radialGradient>
<linearGradient id="paint32_linear_3_1311" x1="22.7575" y1="23.7231" x2="22.8289" y2="17.4419" gradientUnits="userSpaceOnUse">
<stop stop-color="#CFC6FF"/>
<stop offset="1" stop-color="#CFC6FF" stop-opacity="0"/>
</linearGradient>
<radialGradient id="paint33_radial_3_1311" cx="0" cy="0" r="1" gradientUnits="userSpaceOnUse" gradientTransform="translate(16.019 19.4486) rotate(90) scale(3.82053 4.22292)">
<stop offset="0.152358" stop-color="#EFE8FF" stop-opacity="0.76"/>
<stop offset="0.578849" stop-color="#E7DDFE" stop-opacity="0"/>
</radialGradient>
<linearGradient id="paint34_linear_3_1311" x1="18.9886" y1="22.6716" x2="18.8833" y2="13.3586" gradientUnits="userSpaceOnUse">
<stop offset="0.0758362" stop-color="#B0A2ED"/>
<stop offset="0.348536" stop-color="#DED7FA" stop-opacity="0"/>
</linearGradient>
</defs>
</svg>
