<svg width="32" height="32" viewBox="0 0 32 32" fill="none" xmlns="http://www.w3.org/2000/svg">
<path d="M14.1141 1.4398C14.3923 2.57502 14.4257 3.81041 14.1252 5.09032C13.424 8.05638 10.9866 10.3825 7.99275 10.9223C6.37338 11.2172 4.83192 10.9946 3.4908 10.4103C3.17917 10.2712 2.88423 10.6273 3.04561 10.9278C4.52029 13.6435 7.55869 15.3797 10.9588 14.9289C14.4257 14.4671 17.2025 11.6401 17.6199 8.16767C17.9538 5.28509 16.7295 2.68075 14.6817 1.07252C14.4201 0.872184 14.0362 1.11704 14.1141 1.4398Z" fill="url(#paint0_linear_40_4107)"/>
<path d="M14.1141 1.4398C14.3923 2.57502 14.4257 3.81041 14.1252 5.09032C13.424 8.05638 10.9866 10.3825 7.99275 10.9223C6.37338 11.2172 4.83192 10.9946 3.4908 10.4103C3.17917 10.2712 2.88423 10.6273 3.04561 10.9278C4.52029 13.6435 7.55869 15.3797 10.9588 14.9289C14.4257 14.4671 17.2025 11.6401 17.6199 8.16767C17.9538 5.28509 16.7295 2.68075 14.6817 1.07252C14.4201 0.872184 14.0362 1.11704 14.1141 1.4398Z" fill="url(#paint1_radial_40_4107)"/>
<path d="M14.1141 1.4398C14.3923 2.57502 14.4257 3.81041 14.1252 5.09032C13.424 8.05638 10.9866 10.3825 7.99275 10.9223C6.37338 11.2172 4.83192 10.9946 3.4908 10.4103C3.17917 10.2712 2.88423 10.6273 3.04561 10.9278C4.52029 13.6435 7.55869 15.3797 10.9588 14.9289C14.4257 14.4671 17.2025 11.6401 17.6199 8.16767C17.9538 5.28509 16.7295 2.68075 14.6817 1.07252C14.4201 0.872184 14.0362 1.11704 14.1141 1.4398Z" fill="url(#paint2_radial_40_4107)"/>
<path d="M14.1141 1.4398C14.3923 2.57502 14.4257 3.81041 14.1252 5.09032C13.424 8.05638 10.9866 10.3825 7.99275 10.9223C6.37338 11.2172 4.83192 10.9946 3.4908 10.4103C3.17917 10.2712 2.88423 10.6273 3.04561 10.9278C4.52029 13.6435 7.55869 15.3797 10.9588 14.9289C14.4257 14.4671 17.2025 11.6401 17.6199 8.16767C17.9538 5.28509 16.7295 2.68075 14.6817 1.07252C14.4201 0.872184 14.0362 1.11704 14.1141 1.4398Z" fill="url(#paint3_radial_40_4107)"/>
<path d="M14.1141 1.4398C14.3923 2.57502 14.4257 3.81041 14.1252 5.09032C13.424 8.05638 10.9866 10.3825 7.99275 10.9223C6.37338 11.2172 4.83192 10.9946 3.4908 10.4103C3.17917 10.2712 2.88423 10.6273 3.04561 10.9278C4.52029 13.6435 7.55869 15.3797 10.9588 14.9289C14.4257 14.4671 17.2025 11.6401 17.6199 8.16767C17.9538 5.28509 16.7295 2.68075 14.6817 1.07252C14.4201 0.872184 14.0362 1.11704 14.1141 1.4398Z" fill="url(#paint4_radial_40_4107)"/>
<path d="M14.1141 1.4398C14.3923 2.57502 14.4257 3.81041 14.1252 5.09032C13.424 8.05638 10.9866 10.3825 7.99275 10.9223C6.37338 11.2172 4.83192 10.9946 3.4908 10.4103C3.17917 10.2712 2.88423 10.6273 3.04561 10.9278C4.52029 13.6435 7.55869 15.3797 10.9588 14.9289C14.4257 14.4671 17.2025 11.6401 17.6199 8.16767C17.9538 5.28509 16.7295 2.68075 14.6817 1.07252C14.4201 0.872184 14.0362 1.11704 14.1141 1.4398Z" fill="url(#paint5_radial_40_4107)"/>
<path d="M14.1141 1.4398C14.3923 2.57502 14.4257 3.81041 14.1252 5.09032C13.424 8.05638 10.9866 10.3825 7.99275 10.9223C6.37338 11.2172 4.83192 10.9946 3.4908 10.4103C3.17917 10.2712 2.88423 10.6273 3.04561 10.9278C4.52029 13.6435 7.55869 15.3797 10.9588 14.9289C14.4257 14.4671 17.2025 11.6401 17.6199 8.16767C17.9538 5.28509 16.7295 2.68075 14.6817 1.07252C14.4201 0.872184 14.0362 1.11704 14.1141 1.4398Z" fill="url(#paint6_radial_40_4107)"/>
<path d="M14.1141 1.4398C14.3923 2.57502 14.4257 3.81041 14.1252 5.09032C13.424 8.05638 10.9866 10.3825 7.99275 10.9223C6.37338 11.2172 4.83192 10.9946 3.4908 10.4103C3.17917 10.2712 2.88423 10.6273 3.04561 10.9278C4.52029 13.6435 7.55869 15.3797 10.9588 14.9289C14.4257 14.4671 17.2025 11.6401 17.6199 8.16767C17.9538 5.28509 16.7295 2.68075 14.6817 1.07252C14.4201 0.872184 14.0362 1.11704 14.1141 1.4398Z" fill="url(#paint7_radial_40_4107)"/>
<path d="M14.1141 1.4398C14.3923 2.57502 14.4257 3.81041 14.1252 5.09032C13.424 8.05638 10.9866 10.3825 7.99275 10.9223C6.37338 11.2172 4.83192 10.9946 3.4908 10.4103C3.17917 10.2712 2.88423 10.6273 3.04561 10.9278C4.52029 13.6435 7.55869 15.3797 10.9588 14.9289C14.4257 14.4671 17.2025 11.6401 17.6199 8.16767C17.9538 5.28509 16.7295 2.68075 14.6817 1.07252C14.4201 0.872184 14.0362 1.11704 14.1141 1.4398Z" fill="url(#paint8_radial_40_4107)"/>
<path d="M14.1141 1.4398C14.3923 2.57502 14.4257 3.81041 14.1252 5.09032C13.424 8.05638 10.9866 10.3825 7.99275 10.9223C6.37338 11.2172 4.83192 10.9946 3.4908 10.4103C3.17917 10.2712 2.88423 10.6273 3.04561 10.9278C4.52029 13.6435 7.55869 15.3797 10.9588 14.9289C14.4257 14.4671 17.2025 11.6401 17.6199 8.16767C17.9538 5.28509 16.7295 2.68075 14.6817 1.07252C14.4201 0.872184 14.0362 1.11704 14.1141 1.4398Z" fill="url(#paint9_radial_40_4107)"/>
<path d="M14.1141 1.4398C14.3923 2.57502 14.4257 3.81041 14.1252 5.09032C13.424 8.05638 10.9866 10.3825 7.99275 10.9223C6.37338 11.2172 4.83192 10.9946 3.4908 10.4103C3.17917 10.2712 2.88423 10.6273 3.04561 10.9278C4.52029 13.6435 7.55869 15.3797 10.9588 14.9289C14.4257 14.4671 17.2025 11.6401 17.6199 8.16767C17.9538 5.28509 16.7295 2.68075 14.6817 1.07252C14.4201 0.872184 14.0362 1.11704 14.1141 1.4398Z" fill="url(#paint10_radial_40_4107)"/>
<path d="M14.1141 1.4398C14.3923 2.57502 14.4257 3.81041 14.1252 5.09032C13.424 8.05638 10.9866 10.3825 7.99275 10.9223C6.37338 11.2172 4.83192 10.9946 3.4908 10.4103C3.17917 10.2712 2.88423 10.6273 3.04561 10.9278C4.52029 13.6435 7.55869 15.3797 10.9588 14.9289C14.4257 14.4671 17.2025 11.6401 17.6199 8.16767C17.9538 5.28509 16.7295 2.68075 14.6817 1.07252C14.4201 0.872184 14.0362 1.11704 14.1141 1.4398Z" fill="url(#paint11_radial_40_4107)"/>
<path d="M14.1141 1.4398C14.3923 2.57502 14.4257 3.81041 14.1252 5.09032C13.424 8.05638 10.9866 10.3825 7.99275 10.9223C6.37338 11.2172 4.83192 10.9946 3.4908 10.4103C3.17917 10.2712 2.88423 10.6273 3.04561 10.9278C4.52029 13.6435 7.55869 15.3797 10.9588 14.9289C14.4257 14.4671 17.2025 11.6401 17.6199 8.16767C17.9538 5.28509 16.7295 2.68075 14.6817 1.07252C14.4201 0.872184 14.0362 1.11704 14.1141 1.4398Z" fill="url(#paint12_radial_40_4107)"/>
<path d="M14.1141 1.4398C14.3923 2.57502 14.4257 3.81041 14.1252 5.09032C13.424 8.05638 10.9866 10.3825 7.99275 10.9223C6.37338 11.2172 4.83192 10.9946 3.4908 10.4103C3.17917 10.2712 2.88423 10.6273 3.04561 10.9278C4.52029 13.6435 7.55869 15.3797 10.9588 14.9289C14.4257 14.4671 17.2025 11.6401 17.6199 8.16767C17.9538 5.28509 16.7295 2.68075 14.6817 1.07252C14.4201 0.872184 14.0362 1.11704 14.1141 1.4398Z" fill="url(#paint13_radial_40_4107)"/>
<path d="M14.1141 1.4398C14.3923 2.57502 14.4257 3.81041 14.1252 5.09032C13.424 8.05638 10.9866 10.3825 7.99275 10.9223C6.37338 11.2172 4.83192 10.9946 3.4908 10.4103C3.17917 10.2712 2.88423 10.6273 3.04561 10.9278C4.52029 13.6435 7.55869 15.3797 10.9588 14.9289C14.4257 14.4671 17.2025 11.6401 17.6199 8.16767C17.9538 5.28509 16.7295 2.68075 14.6817 1.07252C14.4201 0.872184 14.0362 1.11704 14.1141 1.4398Z" fill="url(#paint14_radial_40_4107)"/>
<path d="M8.53237 13.3374C9.01489 13.3374 9.40605 12.9462 9.40605 12.4637C9.40605 11.9812 9.01489 11.59 8.53237 11.59C8.04985 11.59 7.65869 11.9812 7.65869 12.4637C7.65869 12.9462 8.04985 13.3374 8.53237 13.3374Z" fill="url(#paint15_radial_40_4107)"/>
<path d="M8.53237 13.3374C9.01489 13.3374 9.40605 12.9462 9.40605 12.4637C9.40605 11.9812 9.01489 11.59 8.53237 11.59C8.04985 11.59 7.65869 11.9812 7.65869 12.4637C7.65869 12.9462 8.04985 13.3374 8.53237 13.3374Z" fill="url(#paint16_radial_40_4107)"/>
<path d="M8.53237 13.3374C9.01489 13.3374 9.40605 12.9462 9.40605 12.4637C9.40605 11.9812 9.01489 11.59 8.53237 11.59C8.04985 11.59 7.65869 11.9812 7.65869 12.4637C7.65869 12.9462 8.04985 13.3374 8.53237 13.3374Z" fill="url(#paint17_radial_40_4107)"/>
<path d="M15.7223 6.1699C16.2048 6.1699 16.596 5.77874 16.596 5.29622C16.596 4.81371 16.2048 4.42255 15.7223 4.42255C15.2398 4.42255 14.8486 4.81371 14.8486 5.29622C14.8486 5.77874 15.2398 6.1699 15.7223 6.1699Z" fill="url(#paint18_radial_40_4107)"/>
<path d="M15.7223 6.1699C16.2048 6.1699 16.596 5.77874 16.596 5.29622C16.596 4.81371 16.2048 4.42255 15.7223 4.42255C15.2398 4.42255 14.8486 4.81371 14.8486 5.29622C14.8486 5.77874 15.2398 6.1699 15.7223 6.1699Z" fill="url(#paint19_radial_40_4107)"/>
<path d="M15.7223 6.1699C16.2048 6.1699 16.596 5.77874 16.596 5.29622C16.596 4.81371 16.2048 4.42255 15.7223 4.42255C15.2398 4.42255 14.8486 4.81371 14.8486 5.29622C14.8486 5.77874 15.2398 6.1699 15.7223 6.1699Z" fill="url(#paint20_radial_40_4107)"/>
<path d="M16.0006 8.86331C16.3049 8.86331 16.5515 8.61666 16.5515 8.31239C16.5515 8.00813 16.3049 7.76147 16.0006 7.76147C15.6964 7.76147 15.4497 8.00813 15.4497 8.31239C15.4497 8.61666 15.6964 8.86331 16.0006 8.86331Z" stroke="url(#paint21_linear_40_4107)" stroke-width="0.111297"/>
<path d="M16.0006 8.86331C16.3049 8.86331 16.5515 8.61666 16.5515 8.31239C16.5515 8.00813 16.3049 7.76147 16.0006 7.76147C15.6964 7.76147 15.4497 8.00813 15.4497 8.31239C15.4497 8.61666 15.6964 8.86331 16.0006 8.86331Z" fill="url(#paint22_radial_40_4107)"/>
<path d="M13.2183 12.2078C14.1403 12.2078 14.8877 11.4603 14.8877 10.5383C14.8877 9.6163 14.1403 8.86887 13.2183 8.86887C12.2963 8.86887 11.5488 9.6163 11.5488 10.5383C11.5488 11.4603 12.2963 12.2078 13.2183 12.2078Z" fill="url(#paint23_radial_40_4107)"/>
<path d="M13.2183 12.2078C14.1403 12.2078 14.8877 11.4603 14.8877 10.5383C14.8877 9.6163 14.1403 8.86887 13.2183 8.86887C12.2963 8.86887 11.5488 9.6163 11.5488 10.5383C11.5488 11.4603 12.2963 12.2078 13.2183 12.2078Z" fill="url(#paint24_radial_40_4107)"/>
<path d="M13.2183 12.2078C14.1403 12.2078 14.8877 11.4603 14.8877 10.5383C14.8877 9.6163 14.1403 8.86887 13.2183 8.86887C12.2963 8.86887 11.5488 9.6163 11.5488 10.5383C11.5488 11.4603 12.2963 12.2078 13.2183 12.2078Z" fill="url(#paint25_radial_40_4107)"/>
<path d="M13.274 18.4852C15.5083 18.4852 17.3195 16.674 17.3195 14.4398C17.3195 12.2055 15.5083 10.3943 13.274 10.3943C11.0397 10.3943 9.22852 12.2055 9.22852 14.4398C9.22852 16.674 11.0397 18.4852 13.274 18.4852Z" fill="url(#paint26_radial_40_4107)"/>
<path d="M13.274 18.4852C15.5083 18.4852 17.3195 16.674 17.3195 14.4398C17.3195 12.2055 15.5083 10.3943 13.274 10.3943C11.0397 10.3943 9.22852 12.2055 9.22852 14.4398C9.22852 16.674 11.0397 18.4852 13.274 18.4852Z" fill="url(#paint27_radial_40_4107)"/>
<path d="M9.83673 27.4569L7.79308 30.2525C7.28881 30.9426 6.32449 31.093 5.63443 30.5887C4.94437 30.0844 4.79398 29.1201 5.29825 28.4301L7.3419 25.6344C7.84617 24.9444 8.81049 24.794 9.50055 25.2982C10.1906 25.7937 10.341 26.7668 9.83673 27.4569Z" fill="#535DFF"/>
<path d="M9.83673 27.4569L7.79308 30.2525C7.28881 30.9426 6.32449 31.093 5.63443 30.5887C4.94437 30.0844 4.79398 29.1201 5.29825 28.4301L7.3419 25.6344C7.84617 24.9444 8.81049 24.794 9.50055 25.2982C10.1906 25.7937 10.341 26.7668 9.83673 27.4569Z" fill="url(#paint28_radial_40_4107)"/>
<path d="M9.83673 27.4569L7.79308 30.2525C7.28881 30.9426 6.32449 31.093 5.63443 30.5887C4.94437 30.0844 4.79398 29.1201 5.29825 28.4301L7.3419 25.6344C7.84617 24.9444 8.81049 24.794 9.50055 25.2982C10.1906 25.7937 10.341 26.7668 9.83673 27.4569Z" fill="url(#paint29_linear_40_4107)" fill-opacity="0.7"/>
<path d="M9.83673 27.4569L7.79308 30.2525C7.28881 30.9426 6.32449 31.093 5.63443 30.5887C4.94437 30.0844 4.79398 29.1201 5.29825 28.4301L7.3419 25.6344C7.84617 24.9444 8.81049 24.794 9.50055 25.2982C10.1906 25.7937 10.341 26.7668 9.83673 27.4569Z" fill="url(#paint30_linear_40_4107)" fill-opacity="0.1"/>
<path d="M9.83673 27.4569L7.79308 30.2525C7.28881 30.9426 6.32449 31.093 5.63443 30.5887C4.94437 30.0844 4.79398 29.1201 5.29825 28.4301L7.3419 25.6344C7.84617 24.9444 8.81049 24.794 9.50055 25.2982C10.1906 25.7937 10.341 26.7668 9.83673 27.4569Z" fill="url(#paint31_linear_40_4107)" fill-opacity="0.8"/>
<path d="M15.6463 27.4569L13.6027 30.2525C13.0984 30.9426 12.1341 31.093 11.444 30.5887C10.7539 30.0844 10.6035 29.1201 11.1078 28.4301L13.1515 25.6344C13.6557 24.9444 14.6201 24.794 15.3101 25.2982C16.0002 25.7937 16.1506 26.7668 15.6463 27.4569Z" fill="#535DFF"/>
<path d="M15.6463 27.4569L13.6027 30.2525C13.0984 30.9426 12.1341 31.093 11.444 30.5887C10.7539 30.0844 10.6035 29.1201 11.1078 28.4301L13.1515 25.6344C13.6557 24.9444 14.6201 24.794 15.3101 25.2982C16.0002 25.7937 16.1506 26.7668 15.6463 27.4569Z" fill="url(#paint32_radial_40_4107)"/>
<path d="M15.6463 27.4569L13.6027 30.2525C13.0984 30.9426 12.1341 31.093 11.444 30.5887C10.7539 30.0844 10.6035 29.1201 11.1078 28.4301L13.1515 25.6344C13.6557 24.9444 14.6201 24.794 15.3101 25.2982C16.0002 25.7937 16.1506 26.7668 15.6463 27.4569Z" fill="url(#paint33_linear_40_4107)" fill-opacity="0.7"/>
<path d="M15.6463 27.4569L13.6027 30.2525C13.0984 30.9426 12.1341 31.093 11.444 30.5887C10.7539 30.0844 10.6035 29.1201 11.1078 28.4301L13.1515 25.6344C13.6557 24.9444 14.6201 24.794 15.3101 25.2982C16.0002 25.7937 16.1506 26.7668 15.6463 27.4569Z" fill="url(#paint34_linear_40_4107)" fill-opacity="0.1"/>
<path d="M15.6463 27.4569L13.6027 30.2525C13.0984 30.9426 12.1341 31.093 11.444 30.5887C10.7539 30.0844 10.6035 29.1201 11.1078 28.4301L13.1515 25.6344C13.6557 24.9444 14.6201 24.794 15.3101 25.2982C16.0002 25.7937 16.1506 26.7668 15.6463 27.4569Z" fill="url(#paint35_linear_40_4107)" fill-opacity="0.8"/>
<path d="M21.4559 27.4569L19.4122 30.2525C18.9079 30.9426 17.9436 31.093 17.2536 30.5887C16.5635 30.0844 16.4131 29.1201 16.9174 28.4301L18.961 25.6344C19.4653 24.9444 20.4296 24.794 21.1197 25.2982C21.8098 25.7937 21.9601 26.7668 21.4559 27.4569Z" fill="#535DFF"/>
<path d="M21.4559 27.4569L19.4122 30.2525C18.9079 30.9426 17.9436 31.093 17.2536 30.5887C16.5635 30.0844 16.4131 29.1201 16.9174 28.4301L18.961 25.6344C19.4653 24.9444 20.4296 24.794 21.1197 25.2982C21.8098 25.7937 21.9601 26.7668 21.4559 27.4569Z" fill="url(#paint36_radial_40_4107)"/>
<path d="M21.4559 27.4569L19.4122 30.2525C18.9079 30.9426 17.9436 31.093 17.2536 30.5887C16.5635 30.0844 16.4131 29.1201 16.9174 28.4301L18.961 25.6344C19.4653 24.9444 20.4296 24.794 21.1197 25.2982C21.8098 25.7937 21.9601 26.7668 21.4559 27.4569Z" fill="url(#paint37_linear_40_4107)" fill-opacity="0.7"/>
<path d="M21.4559 27.4569L19.4122 30.2525C18.9079 30.9426 17.9436 31.093 17.2536 30.5887C16.5635 30.0844 16.4131 29.1201 16.9174 28.4301L18.961 25.6344C19.4653 24.9444 20.4296 24.794 21.1197 25.2982C21.8098 25.7937 21.9601 26.7668 21.4559 27.4569Z" fill="url(#paint38_linear_40_4107)" fill-opacity="0.1"/>
<path d="M21.4559 27.4569L19.4122 30.2525C18.9079 30.9426 17.9436 31.093 17.2536 30.5887C16.5635 30.0844 16.4131 29.1201 16.9174 28.4301L18.961 25.6344C19.4653 24.9444 20.4296 24.794 21.1197 25.2982C21.8098 25.7937 21.9601 26.7668 21.4559 27.4569Z" fill="url(#paint39_linear_40_4107)" fill-opacity="0.8"/>
<path d="M26.2706 10.2538C23.1383 7.20089 18.1265 7.25383 15.0735 10.3862C14.2582 11.2176 13.6719 12.182 13.2942 13.2118C13.2424 13.3529 13.0691 13.4081 12.9437 13.3251C12.6692 13.1434 12.3765 12.9847 12.0735 12.8568C11.35 12.5215 10.5471 12.3362 9.70001 12.3362C6.55 12.3362 4 14.8862 4 18.0361C4 19.3773 4.46764 20.6126 5.24412 21.592C6.29412 22.9685 7.94412 23.8508 9.80589 23.8508C12.0471 23.8508 18.4883 23.8508 21.003 23.8508C23.4912 23.8508 25.6883 22.6244 27.0294 20.745C29.4294 17.6038 29.1736 13.0862 26.2706 10.2538Z" fill="#D5D4DA"/>
<path d="M26.2706 10.2538C23.1383 7.20089 18.1265 7.25383 15.0735 10.3862C14.2582 11.2176 13.6719 12.182 13.2942 13.2118C13.2424 13.3529 13.0691 13.4081 12.9437 13.3251C12.6692 13.1434 12.3765 12.9847 12.0735 12.8568C11.35 12.5215 10.5471 12.3362 9.70001 12.3362C6.55 12.3362 4 14.8862 4 18.0361C4 19.3773 4.46764 20.6126 5.24412 21.592C6.29412 22.9685 7.94412 23.8508 9.80589 23.8508C12.0471 23.8508 18.4883 23.8508 21.003 23.8508C23.4912 23.8508 25.6883 22.6244 27.0294 20.745C29.4294 17.6038 29.1736 13.0862 26.2706 10.2538Z" fill="url(#paint40_linear_40_4107)"/>
<path d="M26.2706 10.2538C23.1383 7.20089 18.1265 7.25383 15.0735 10.3862C14.2582 11.2176 13.6719 12.182 13.2942 13.2118C13.2424 13.3529 13.0691 13.4081 12.9437 13.3251C12.6692 13.1434 12.3765 12.9847 12.0735 12.8568C11.35 12.5215 10.5471 12.3362 9.70001 12.3362C6.55 12.3362 4 14.8862 4 18.0361C4 19.3773 4.46764 20.6126 5.24412 21.592C6.29412 22.9685 7.94412 23.8508 9.80589 23.8508C12.0471 23.8508 18.4883 23.8508 21.003 23.8508C23.4912 23.8508 25.6883 22.6244 27.0294 20.745C29.4294 17.6038 29.1736 13.0862 26.2706 10.2538Z" fill="url(#paint41_radial_40_4107)"/>
<path d="M26.2706 10.2538C23.1383 7.20089 18.1265 7.25383 15.0735 10.3862C14.2582 11.2176 13.6719 12.182 13.2942 13.2118C13.2424 13.3529 13.0691 13.4081 12.9437 13.3251C12.6692 13.1434 12.3765 12.9847 12.0735 12.8568C11.35 12.5215 10.5471 12.3362 9.70001 12.3362C6.55 12.3362 4 14.8862 4 18.0361C4 19.3773 4.46764 20.6126 5.24412 21.592C6.29412 22.9685 7.94412 23.8508 9.80589 23.8508C12.0471 23.8508 18.4883 23.8508 21.003 23.8508C23.4912 23.8508 25.6883 22.6244 27.0294 20.745C29.4294 17.6038 29.1736 13.0862 26.2706 10.2538Z" fill="url(#paint42_radial_40_4107)"/>
<path d="M26.2706 10.2538C23.1383 7.20089 18.1265 7.25383 15.0735 10.3862C14.2582 11.2176 13.6719 12.182 13.2942 13.2118C13.2424 13.3529 13.0691 13.4081 12.9437 13.3251C12.6692 13.1434 12.3765 12.9847 12.0735 12.8568C11.35 12.5215 10.5471 12.3362 9.70001 12.3362C6.55 12.3362 4 14.8862 4 18.0361C4 19.3773 4.46764 20.6126 5.24412 21.592C6.29412 22.9685 7.94412 23.8508 9.80589 23.8508C12.0471 23.8508 18.4883 23.8508 21.003 23.8508C23.4912 23.8508 25.6883 22.6244 27.0294 20.745C29.4294 17.6038 29.1736 13.0862 26.2706 10.2538Z" fill="url(#paint43_radial_40_4107)"/>
<path d="M26.2706 10.2538C23.1383 7.20089 18.1265 7.25383 15.0735 10.3862C14.2582 11.2176 13.6719 12.182 13.2942 13.2118C13.2424 13.3529 13.0691 13.4081 12.9437 13.3251C12.6692 13.1434 12.3765 12.9847 12.0735 12.8568C11.35 12.5215 10.5471 12.3362 9.70001 12.3362C6.55 12.3362 4 14.8862 4 18.0361C4 19.3773 4.46764 20.6126 5.24412 21.592C6.29412 22.9685 7.94412 23.8508 9.80589 23.8508C12.0471 23.8508 18.4883 23.8508 21.003 23.8508C23.4912 23.8508 25.6883 22.6244 27.0294 20.745C29.4294 17.6038 29.1736 13.0862 26.2706 10.2538Z" fill="url(#paint44_radial_40_4107)"/>
<path d="M26.2706 10.2538C23.1383 7.20089 18.1265 7.25383 15.0735 10.3862C14.2582 11.2176 13.6719 12.182 13.2942 13.2118C13.2424 13.3529 13.0691 13.4081 12.9437 13.3251C12.6692 13.1434 12.3765 12.9847 12.0735 12.8568C11.35 12.5215 10.5471 12.3362 9.70001 12.3362C6.55 12.3362 4 14.8862 4 18.0361C4 19.3773 4.46764 20.6126 5.24412 21.592C6.29412 22.9685 7.94412 23.8508 9.80589 23.8508C12.0471 23.8508 18.4883 23.8508 21.003 23.8508C23.4912 23.8508 25.6883 22.6244 27.0294 20.745C29.4294 17.6038 29.1736 13.0862 26.2706 10.2538Z" fill="url(#paint45_linear_40_4107)"/>
<path d="M26.2706 10.2538C23.1383 7.20089 18.1265 7.25383 15.0735 10.3862C14.2582 11.2176 13.6719 12.182 13.2942 13.2118C13.2424 13.3529 13.0691 13.4081 12.9437 13.3251C12.6692 13.1434 12.3765 12.9847 12.0735 12.8568C11.35 12.5215 10.5471 12.3362 9.70001 12.3362C6.55 12.3362 4 14.8862 4 18.0361C4 19.3773 4.46764 20.6126 5.24412 21.592C6.29412 22.9685 7.94412 23.8508 9.80589 23.8508C12.0471 23.8508 18.4883 23.8508 21.003 23.8508C23.4912 23.8508 25.6883 22.6244 27.0294 20.745C29.4294 17.6038 29.1736 13.0862 26.2706 10.2538Z" fill="url(#paint46_radial_40_4107)" fill-opacity="0.7"/>
<path d="M26.2706 10.2538C23.1383 7.20089 18.1265 7.25383 15.0735 10.3862C14.2582 11.2176 13.6719 12.182 13.2942 13.2118C13.2424 13.3529 13.0691 13.4081 12.9437 13.3251C12.6692 13.1434 12.3765 12.9847 12.0735 12.8568C11.35 12.5215 10.5471 12.3362 9.70001 12.3362C6.55 12.3362 4 14.8862 4 18.0361C4 19.3773 4.46764 20.6126 5.24412 21.592C6.29412 22.9685 7.94412 23.8508 9.80589 23.8508C12.0471 23.8508 18.4883 23.8508 21.003 23.8508C23.4912 23.8508 25.6883 22.6244 27.0294 20.745C29.4294 17.6038 29.1736 13.0862 26.2706 10.2538Z" fill="url(#paint47_linear_40_4107)" fill-opacity="0.6"/>
<defs>
<linearGradient id="paint0_linear_40_4107" x1="16.9955" y1="4.53114" x2="7.01361" y2="14.6174" gradientUnits="userSpaceOnUse">
<stop stop-color="#FFD874"/>
<stop offset="1" stop-color="#FFBC4C"/>
</linearGradient>
<radialGradient id="paint1_radial_40_4107" cx="0" cy="0" r="1" gradientUnits="userSpaceOnUse" gradientTransform="translate(9.20475 7.55701) rotate(-23.4078) scale(8.75474 9.17652)">
<stop offset="0.769006" stop-color="#FFECAE" stop-opacity="0"/>
<stop offset="0.984059" stop-color="#FFECAE"/>
</radialGradient>
<radialGradient id="paint2_radial_40_4107" cx="0" cy="0" r="1" gradientUnits="userSpaceOnUse" gradientTransform="translate(5.87565 15.6753) rotate(-39.8461) scale(7.79784 8.17352)">
<stop stop-color="#FF984F"/>
<stop offset="1" stop-color="#FF984F" stop-opacity="0"/>
</radialGradient>
<radialGradient id="paint3_radial_40_4107" cx="0" cy="0" r="1" gradientUnits="userSpaceOnUse" gradientTransform="translate(13.3701 4.71365) rotate(13.627) scale(1.46253 3.70389)">
<stop offset="0.229694" stop-color="#BA935B"/>
<stop offset="0.978688" stop-color="#BA935B" stop-opacity="0"/>
</radialGradient>
<radialGradient id="paint4_radial_40_4107" cx="0" cy="0" r="1" gradientUnits="userSpaceOnUse" gradientTransform="translate(9.65688 -5.58989) rotate(89.2462) scale(21.1482 13.9927)">
<stop offset="0.948773" stop-color="#C1685A" stop-opacity="0"/>
<stop offset="0.955746" stop-color="#C1685A" stop-opacity="0.2"/>
<stop offset="0.974078" stop-color="#C1685A"/>
</radialGradient>
<radialGradient id="paint5_radial_40_4107" cx="0" cy="0" r="1" gradientUnits="userSpaceOnUse" gradientTransform="translate(0.196661 1.36614) rotate(30.1414) scale(19.9482 12.5287)">
<stop offset="0.937301" stop-color="#C1685A" stop-opacity="0"/>
<stop offset="0.986552" stop-color="#C1685A"/>
</radialGradient>
<radialGradient id="paint6_radial_40_4107" cx="0" cy="0" r="1" gradientUnits="userSpaceOnUse" gradientTransform="translate(3.25732 -4.19869) rotate(65.1576) scale(16.5571 10.516)">
<stop offset="0.943131" stop-color="#C1685A"/>
<stop offset="0.978926" stop-color="#C1685A" stop-opacity="0.2"/>
<stop offset="1" stop-color="#C1685A" stop-opacity="0"/>
</radialGradient>
<radialGradient id="paint7_radial_40_4107" cx="0" cy="0" r="1" gradientUnits="userSpaceOnUse" gradientTransform="translate(16.8912 0.80966) rotate(138.216) scale(17.538 11.6041)">
<stop offset="0.943242" stop-color="#C1685A" stop-opacity="0"/>
<stop offset="0.957054" stop-color="#C1685A" stop-opacity="0.2"/>
<stop offset="0.990341" stop-color="#C1685A"/>
</radialGradient>
<radialGradient id="paint8_radial_40_4107" cx="0" cy="0" r="1" gradientUnits="userSpaceOnUse" gradientTransform="translate(13.274 10.5481) rotate(135) scale(1.96746)">
<stop offset="0.870313" stop-color="#FFD472"/>
<stop offset="1" stop-color="#FFD472" stop-opacity="0"/>
</radialGradient>
<radialGradient id="paint9_radial_40_4107" cx="0" cy="0" r="1" gradientUnits="userSpaceOnUse" gradientTransform="translate(15.7782 3.59208) rotate(-112.62) scale(3.61714 0.61668)">
<stop offset="0.456731" stop-color="#FFE59A"/>
<stop offset="1" stop-color="#FFE59A" stop-opacity="0"/>
</radialGradient>
<radialGradient id="paint10_radial_40_4107" cx="0" cy="0" r="1" gradientUnits="userSpaceOnUse" gradientTransform="translate(13.5523 10.2699) rotate(-33.69) scale(3.00964 3.3762)">
<stop stop-color="#EBB54F" stop-opacity="0"/>
<stop offset="0.403847" stop-color="#EBB54F"/>
<stop offset="0.479968" stop-color="#EBB54F" stop-opacity="0"/>
</radialGradient>
<radialGradient id="paint11_radial_40_4107" cx="0" cy="0" r="1" gradientUnits="userSpaceOnUse" gradientTransform="translate(15.7782 5.26152) rotate(123.69) scale(1.00321)">
<stop offset="0.870313" stop-color="#FFD472"/>
<stop offset="1" stop-color="#FFD472" stop-opacity="0"/>
</radialGradient>
<radialGradient id="paint12_radial_40_4107" cx="0" cy="0" r="1" gradientUnits="userSpaceOnUse" gradientTransform="translate(15.5 5.53976) rotate(-56.3099) scale(2.00643 2.2508)">
<stop stop-color="#FFE090" stop-opacity="0"/>
<stop offset="0.204327" stop-color="#FFE090"/>
<stop offset="0.371394" stop-color="#FFE090" stop-opacity="0"/>
</radialGradient>
<radialGradient id="paint13_radial_40_4107" cx="0" cy="0" r="1" gradientUnits="userSpaceOnUse" gradientTransform="translate(8.54391 12.4958) rotate(135) scale(1.18048)">
<stop offset="0.75" stop-color="#DE9543"/>
<stop offset="0.901041" stop-color="#DE9543" stop-opacity="0"/>
</radialGradient>
<radialGradient id="paint14_radial_40_4107" cx="0" cy="0" r="1" gradientUnits="userSpaceOnUse" gradientTransform="translate(8.26567 12.774) rotate(-35.5377) scale(2.39352 2.68504)">
<stop offset="0.060177" stop-color="#FFC266" stop-opacity="0"/>
<stop offset="0.202069" stop-color="#FFC266"/>
<stop offset="0.364442" stop-color="#FFC266" stop-opacity="0"/>
</radialGradient>
<radialGradient id="paint15_radial_40_4107" cx="0" cy="0" r="1" gradientUnits="userSpaceOnUse" gradientTransform="translate(8.16119 12.6236) rotate(-22.978) scale(1.35214)">
<stop stop-color="#FFBA6A"/>
<stop offset="1" stop-color="#EB9E58"/>
</radialGradient>
<radialGradient id="paint16_radial_40_4107" cx="0" cy="0" r="1" gradientUnits="userSpaceOnUse" gradientTransform="translate(8.26558 12.774) rotate(-45) scale(3.14794)">
<stop offset="0.238281" stop-color="#D78B4E" stop-opacity="0"/>
<stop offset="0.361328" stop-color="#D78B4E"/>
</radialGradient>
<radialGradient id="paint17_radial_40_4107" cx="0" cy="0" r="1" gradientUnits="userSpaceOnUse" gradientTransform="translate(8.54382 10.8264) rotate(101.31) scale(2.83752 2.92886)">
<stop offset="0.699519" stop-color="#FED98C" stop-opacity="0"/>
<stop offset="0.886936" stop-color="#FED98C"/>
</radialGradient>
<radialGradient id="paint18_radial_40_4107" cx="0" cy="0" r="1" gradientUnits="userSpaceOnUse" gradientTransform="translate(15.3511 5.45608) rotate(-15.5214) scale(1.29198)">
<stop stop-color="#FFD778"/>
<stop offset="1" stop-color="#FFC767"/>
</radialGradient>
<radialGradient id="paint19_radial_40_4107" cx="0" cy="0" r="1" gradientUnits="userSpaceOnUse" gradientTransform="translate(15.4999 5.53979) rotate(-59.0362) scale(1.62241 1.62241)">
<stop offset="0.433823" stop-color="#FFD475"/>
<stop offset="0.698529" stop-color="#DA8F3E"/>
</radialGradient>
<radialGradient id="paint20_radial_40_4107" cx="0" cy="0" r="1" gradientUnits="userSpaceOnUse" gradientTransform="translate(15.7782 4.98331) rotate(-56.3099) scale(2.00643 2.35497)">
<stop offset="0.377404" stop-color="#FFEBAD" stop-opacity="0"/>
<stop offset="0.519231" stop-color="#FFEBAD"/>
</radialGradient>
<linearGradient id="paint21_linear_40_4107" x1="16.4739" y1="7.84398" x2="15.6131" y2="8.76566" gradientUnits="userSpaceOnUse">
<stop stop-color="#E7AC47"/>
<stop offset="1" stop-color="#FFE9A7"/>
</linearGradient>
<radialGradient id="paint22_radial_40_4107" cx="0" cy="0" r="1" gradientUnits="userSpaceOnUse" gradientTransform="translate(15.7666 8.41319) rotate(-15.5214) scale(0.814685)">
<stop stop-color="#FFDE8F"/>
<stop offset="1" stop-color="#FFC25B"/>
</radialGradient>
<radialGradient id="paint23_radial_40_4107" cx="0" cy="0" r="1" gradientUnits="userSpaceOnUse" gradientTransform="translate(12.509 10.8438) rotate(-22.978) scale(2.58371)">
<stop stop-color="#FFC75F"/>
<stop offset="1" stop-color="#FABC5A"/>
</radialGradient>
<radialGradient id="paint24_radial_40_4107" cx="0" cy="0" r="1" gradientUnits="userSpaceOnUse" gradientTransform="translate(12.1613 11.6611) rotate(-50.7106) scale(3.95455 2.94748)">
<stop offset="0.655941" stop-color="#BD8D44" stop-opacity="0"/>
<stop offset="1" stop-color="#BD8D44"/>
</radialGradient>
<radialGradient id="paint25_radial_40_4107" cx="0" cy="0" r="1" gradientUnits="userSpaceOnUse" gradientTransform="translate(13.9092 10.2998) rotate(162.476) scale(2.47524 2.55492)">
<stop offset="0.594982" stop-color="#FED98C" stop-opacity="0"/>
<stop offset="0.886936" stop-color="#FED98C"/>
</radialGradient>
<radialGradient id="paint26_radial_40_4107" cx="0" cy="0" r="1" gradientUnits="userSpaceOnUse" gradientTransform="translate(14.7325 12.9388) rotate(-172.463) scale(5.55198)">
<stop offset="0.308752" stop-color="#E8E8E9"/>
<stop offset="1" stop-color="#D2D2D2"/>
</radialGradient>
<radialGradient id="paint27_radial_40_4107" cx="0" cy="0" r="1" gradientUnits="userSpaceOnUse" gradientTransform="translate(13.7063 14.0974) rotate(-141.242) scale(3.01398 2.7615)">
<stop stop-color="#CDCDCE"/>
<stop offset="1" stop-color="#CDCDCE" stop-opacity="0"/>
</radialGradient>
<radialGradient id="paint28_radial_40_4107" cx="0" cy="0" r="1" gradientUnits="userSpaceOnUse" gradientTransform="translate(10.135 25.8235) rotate(149.241) scale(2.00458 1.73884)">
<stop stop-color="#6779FF"/>
<stop offset="1" stop-color="#6779FF" stop-opacity="0"/>
</radialGradient>
<linearGradient id="paint29_linear_40_4107" x1="3.56063" y1="30.6587" x2="9.64484" y2="28.9069" gradientUnits="userSpaceOnUse">
<stop offset="0.230135" stop-opacity="0.49"/>
<stop offset="0.622662" stop-color="#545EFF" stop-opacity="0"/>
</linearGradient>
<linearGradient id="paint30_linear_40_4107" x1="8.34097" y1="23.5688" x2="9.64485" y2="28.9069" gradientUnits="userSpaceOnUse">
<stop offset="0.230135" stop-opacity="0.49"/>
<stop offset="0.622662" stop-color="#545EFF" stop-opacity="0"/>
</linearGradient>
<linearGradient id="paint31_linear_40_4107" x1="5" y1="25.9197" x2="9.18236" y2="29.0316" gradientUnits="userSpaceOnUse">
<stop offset="0.318192" stop-opacity="0.37"/>
<stop offset="0.622662" stop-color="#545EFF" stop-opacity="0"/>
</linearGradient>
<radialGradient id="paint32_radial_40_4107" cx="0" cy="0" r="1" gradientUnits="userSpaceOnUse" gradientTransform="translate(15.9446 25.8235) rotate(149.241) scale(2.00458 1.73884)">
<stop stop-color="#6779FF"/>
<stop offset="1" stop-color="#6779FF" stop-opacity="0"/>
</radialGradient>
<linearGradient id="paint33_linear_40_4107" x1="9.3702" y1="30.6587" x2="15.4544" y2="28.9069" gradientUnits="userSpaceOnUse">
<stop offset="0.230135" stop-opacity="0.49"/>
<stop offset="0.622662" stop-color="#545EFF" stop-opacity="0"/>
</linearGradient>
<linearGradient id="paint34_linear_40_4107" x1="14.1505" y1="23.5688" x2="15.4544" y2="28.9069" gradientUnits="userSpaceOnUse">
<stop offset="0.230135" stop-opacity="0.49"/>
<stop offset="0.622662" stop-color="#545EFF" stop-opacity="0"/>
</linearGradient>
<linearGradient id="paint35_linear_40_4107" x1="10.8096" y1="25.9197" x2="14.9919" y2="29.0316" gradientUnits="userSpaceOnUse">
<stop offset="0.318192" stop-opacity="0.37"/>
<stop offset="0.622662" stop-color="#545EFF" stop-opacity="0"/>
</linearGradient>
<radialGradient id="paint36_radial_40_4107" cx="0" cy="0" r="1" gradientUnits="userSpaceOnUse" gradientTransform="translate(21.7541 25.8235) rotate(149.241) scale(2.00458 1.73884)">
<stop stop-color="#6779FF"/>
<stop offset="1" stop-color="#6779FF" stop-opacity="0"/>
</radialGradient>
<linearGradient id="paint37_linear_40_4107" x1="15.1798" y1="30.6587" x2="21.264" y2="28.9069" gradientUnits="userSpaceOnUse">
<stop offset="0.230135" stop-opacity="0.49"/>
<stop offset="0.622662" stop-color="#545EFF" stop-opacity="0"/>
</linearGradient>
<linearGradient id="paint38_linear_40_4107" x1="19.9601" y1="23.5688" x2="21.264" y2="28.9069" gradientUnits="userSpaceOnUse">
<stop offset="0.230135" stop-opacity="0.49"/>
<stop offset="0.622662" stop-color="#545EFF" stop-opacity="0"/>
</linearGradient>
<linearGradient id="paint39_linear_40_4107" x1="16.6191" y1="25.9197" x2="20.8015" y2="29.0316" gradientUnits="userSpaceOnUse">
<stop offset="0.318192" stop-opacity="0.37"/>
<stop offset="0.622662" stop-color="#545EFF" stop-opacity="0"/>
</linearGradient>
<linearGradient id="paint40_linear_40_4107" x1="18.8473" y1="22.9985" x2="18.8473" y2="16.3827" gradientUnits="userSpaceOnUse">
<stop stop-color="#DED7FA"/>
<stop offset="1" stop-color="#DED7FA" stop-opacity="0"/>
</linearGradient>
<radialGradient id="paint41_radial_40_4107" cx="0" cy="0" r="1" gradientUnits="userSpaceOnUse" gradientTransform="translate(25.4632 13.3292) rotate(136.5) scale(9.82229 10.5364)">
<stop offset="0.178875" stop-color="#FCFBFE"/>
<stop offset="1" stop-color="#FCFBFE" stop-opacity="0"/>
</radialGradient>
<radialGradient id="paint42_radial_40_4107" cx="0" cy="0" r="1" gradientUnits="userSpaceOnUse" gradientTransform="translate(9.86364 17.0953) rotate(144.444) scale(6.02591 6.31424)">
<stop stop-color="#FCFBFE"/>
<stop offset="1" stop-color="#FCFBFE" stop-opacity="0"/>
</radialGradient>
<radialGradient id="paint43_radial_40_4107" cx="0" cy="0" r="1" gradientUnits="userSpaceOnUse" gradientTransform="translate(24.4417 15.4556) rotate(166.654) scale(21.0091 16.5453)">
<stop offset="0.815422" stop-color="#CECCD7" stop-opacity="0"/>
<stop offset="1" stop-color="#CECCD7"/>
</radialGradient>
<radialGradient id="paint44_radial_40_4107" cx="0" cy="0" r="1" gradientUnits="userSpaceOnUse" gradientTransform="translate(7.20921 24.7474) rotate(-50.5724) scale(7.48054 10.3233)">
<stop stop-color="#D0C9EE"/>
<stop offset="1" stop-color="#D0C9EE" stop-opacity="0"/>
</radialGradient>
<linearGradient id="paint45_linear_40_4107" x1="22.2543" y1="25.4973" x2="22.3171" y2="19.9736" gradientUnits="userSpaceOnUse">
<stop stop-color="#CFC6FF"/>
<stop offset="1" stop-color="#CFC6FF" stop-opacity="0"/>
</linearGradient>
<radialGradient id="paint46_radial_40_4107" cx="0" cy="0" r="1" gradientUnits="userSpaceOnUse" gradientTransform="translate(16.3284 21.7382) rotate(90) scale(3.35981 3.71367)">
<stop offset="0.152358" stop-color="#EFE8FF" stop-opacity="0.76"/>
<stop offset="0.578849" stop-color="#E7DDFE" stop-opacity="0"/>
</radialGradient>
<linearGradient id="paint47_linear_40_4107" x1="18.9399" y1="24.5726" x2="18.8473" y2="16.3827" gradientUnits="userSpaceOnUse">
<stop offset="0.0758362" stop-color="#B0A2ED"/>
<stop offset="0.348536" stop-color="#DED7FA" stop-opacity="0"/>
</linearGradient>
</defs>
</svg>
