<svg width="32" height="32" viewBox="0 0 32 32" fill="none" xmlns="http://www.w3.org/2000/svg">
<path d="M12.9875 12.461C15.3067 12.461 17.1867 10.581 17.1867 8.2618C17.1867 5.94264 15.3067 4.06262 12.9875 4.06262C10.6684 4.06262 8.78833 5.94264 8.78833 8.2618C8.78833 10.581 10.6684 12.461 12.9875 12.461Z" fill="url(#paint0_radial_3_1318)"/>
<path d="M12.9875 12.461C15.3067 12.461 17.1867 10.581 17.1867 8.2618C17.1867 5.94264 15.3067 4.06262 12.9875 4.06262C10.6684 4.06262 8.78833 5.94264 8.78833 8.2618C8.78833 10.581 10.6684 12.461 12.9875 12.461Z" fill="url(#paint1_radial_3_1318)"/>
<path d="M30 11.0483C30 15.9736 26.011 19.9663 21.0904 19.9663H8.81868C5.20801 19.9663 2.28125 16.9256 2.28125 13.5256C2.28125 10.1255 5.11507 7.32914 8.72574 7.32914C9.45141 7.32914 10.4203 7.51521 11.3125 7.85938C12.2047 8.20354 12.8697 7.48946 13.187 6.85453C14.5593 4.10881 17.5635 2 21.125 2C26.0456 2 30 6.12307 30 11.0483Z" fill="#3124C5"/>
<path d="M30 11.0483C30 15.9736 26.011 19.9663 21.0904 19.9663H8.81868C5.20801 19.9663 2.28125 16.9256 2.28125 13.5256C2.28125 10.1255 5.11507 7.32914 8.72574 7.32914C9.45141 7.32914 10.4203 7.51521 11.3125 7.85938C12.2047 8.20354 12.8697 7.48946 13.187 6.85453C14.5593 4.10881 17.5635 2 21.125 2C26.0456 2 30 6.12307 30 11.0483Z" fill="url(#paint2_radial_3_1318)"/>
<path d="M30 11.0483C30 15.9736 26.011 19.9663 21.0904 19.9663H8.81868C5.20801 19.9663 2.28125 16.9256 2.28125 13.5256C2.28125 10.1255 5.11507 7.32914 8.72574 7.32914C9.45141 7.32914 10.4203 7.51521 11.3125 7.85938C12.2047 8.20354 12.8697 7.48946 13.187 6.85453C14.5593 4.10881 17.5635 2 21.125 2C26.0456 2 30 6.12307 30 11.0483Z" fill="url(#paint3_radial_3_1318)"/>
<path d="M30 11.0483C30 15.9736 26.011 19.9663 21.0904 19.9663H8.81868C5.20801 19.9663 2.28125 16.9256 2.28125 13.5256C2.28125 10.1255 5.11507 7.32914 8.72574 7.32914C9.45141 7.32914 10.4203 7.51521 11.3125 7.85938C12.2047 8.20354 12.8697 7.48946 13.187 6.85453C14.5593 4.10881 17.5635 2 21.125 2C26.0456 2 30 6.12307 30 11.0483Z" fill="url(#paint4_radial_3_1318)"/>
<path d="M30 11.0483C30 15.9736 26.011 19.9663 21.0904 19.9663H8.81868C5.20801 19.9663 2.28125 16.9256 2.28125 13.5256C2.28125 10.1255 5.11507 7.32914 8.72574 7.32914C9.45141 7.32914 10.4203 7.51521 11.3125 7.85938C12.2047 8.20354 12.8697 7.48946 13.187 6.85453C14.5593 4.10881 17.5635 2 21.125 2C26.0456 2 30 6.12307 30 11.0483Z" fill="url(#paint5_radial_3_1318)"/>
<path d="M30 11.0483C30 15.9736 26.011 19.9663 21.0904 19.9663H8.81868C5.20801 19.9663 2.28125 16.9256 2.28125 13.5256C2.28125 10.1255 5.11507 7.32914 8.72574 7.32914C9.45141 7.32914 10.4203 7.51521 11.3125 7.85938C12.2047 8.20354 12.8697 7.48946 13.187 6.85453C14.5593 4.10881 17.5635 2 21.125 2C26.0456 2 30 6.12307 30 11.0483Z" fill="url(#paint6_linear_3_1318)"/>
<path d="M30 11.0483C30 15.9736 26.011 19.9663 21.0904 19.9663H8.81868C5.20801 19.9663 2.28125 16.9256 2.28125 13.5256C2.28125 10.1255 5.11507 7.32914 8.72574 7.32914C9.45141 7.32914 10.4203 7.51521 11.3125 7.85938C12.2047 8.20354 12.8697 7.48946 13.187 6.85453C14.5593 4.10881 17.5635 2 21.125 2C26.0456 2 30 6.12307 30 11.0483Z" fill="url(#paint7_radial_3_1318)" fill-opacity="0.35"/>
<path d="M16.59 13.9661L12.1974 21.2514C12.097 21.418 12.217 21.6304 12.4115 21.6304L14.6337 21.6304C14.7994 21.6304 14.9337 21.7647 14.9337 21.9304V26.5815H14.6695V27.8419H15.0744C15.1256 27.8456 15.179 27.8234 15.2117 27.7698L20.0978 19.7646C20.1588 19.6647 20.0868 19.5365 19.9697 19.5365H17.4342C17.2961 19.5365 17.1842 19.4246 17.1842 19.2865V13.52C17.1842 13.4311 17.1157 13.3752 17.0432 13.3701L16.59 13.3698V13.9661Z" fill="url(#paint8_linear_3_1318)"/>
<path d="M16.59 13.9661L12.1974 21.2514C12.097 21.418 12.217 21.6304 12.4115 21.6304L14.6337 21.6304C14.7994 21.6304 14.9337 21.7647 14.9337 21.9304V26.5815H14.6695V27.8419H15.0744C15.1256 27.8456 15.179 27.8234 15.2117 27.7698L20.0978 19.7646C20.1588 19.6647 20.0868 19.5365 19.9697 19.5365H17.4342C17.2961 19.5365 17.1842 19.4246 17.1842 19.2865V13.52C17.1842 13.4311 17.1157 13.3752 17.0432 13.3701L16.59 13.3698V13.9661Z" fill="url(#paint9_linear_3_1318)"/>
<path d="M16.59 13.9661L12.1974 21.2514C12.097 21.418 12.217 21.6304 12.4115 21.6304L14.6337 21.6304C14.7994 21.6304 14.9337 21.7647 14.9337 21.9304V26.5815H14.6695V27.8419H15.0744C15.1256 27.8456 15.179 27.8234 15.2117 27.7698L20.0978 19.7646C20.1588 19.6647 20.0868 19.5365 19.9697 19.5365H17.4342C17.2961 19.5365 17.1842 19.4246 17.1842 19.2865V13.52C17.1842 13.4311 17.1157 13.3752 17.0432 13.3701L16.59 13.3698V13.9661Z" fill="url(#paint10_radial_3_1318)"/>
<path d="M16.4655 13.4426L11.7572 21.2513C11.6568 21.418 11.7768 21.6304 11.9713 21.6304L14.1935 21.6304C14.3592 21.6304 14.4935 21.7647 14.4935 21.9304V27.6917C14.4935 27.8432 14.6926 27.8992 14.7715 27.7698L19.6575 19.7646C19.7186 19.6647 19.6466 19.5365 19.5295 19.5365H16.9939C16.8559 19.5365 16.7439 19.4246 16.7439 19.2865V13.52C16.7439 13.368 16.544 13.3124 16.4655 13.4426Z" fill="url(#paint11_linear_3_1318)"/>
<path d="M16.4655 13.4426L11.7572 21.2513C11.6568 21.418 11.7768 21.6304 11.9713 21.6304L14.1935 21.6304C14.3592 21.6304 14.4935 21.7647 14.4935 21.9304V27.6917C14.4935 27.8432 14.6926 27.8992 14.7715 27.7698L19.6575 19.7646C19.7186 19.6647 19.6466 19.5365 19.5295 19.5365H16.9939C16.8559 19.5365 16.7439 19.4246 16.7439 19.2865V13.52C16.7439 13.368 16.544 13.3124 16.4655 13.4426Z" fill="url(#paint12_linear_3_1318)"/>
<path d="M16.4655 13.4426L11.7572 21.2513C11.6568 21.418 11.7768 21.6304 11.9713 21.6304L14.1935 21.6304C14.3592 21.6304 14.4935 21.7647 14.4935 21.9304V27.6917C14.4935 27.8432 14.6926 27.8992 14.7715 27.7698L19.6575 19.7646C19.7186 19.6647 19.6466 19.5365 19.5295 19.5365H16.9939C16.8559 19.5365 16.7439 19.4246 16.7439 19.2865V13.52C16.7439 13.368 16.544 13.3124 16.4655 13.4426Z" fill="url(#paint13_radial_3_1318)"/>
<path d="M16.4655 13.4426L11.7572 21.2513C11.6568 21.418 11.7768 21.6304 11.9713 21.6304L14.1935 21.6304C14.3592 21.6304 14.4935 21.7647 14.4935 21.9304V27.6917C14.4935 27.8432 14.6926 27.8992 14.7715 27.7698L19.6575 19.7646C19.7186 19.6647 19.6466 19.5365 19.5295 19.5365H16.9939C16.8559 19.5365 16.7439 19.4246 16.7439 19.2865V13.52C16.7439 13.368 16.544 13.3124 16.4655 13.4426Z" fill="url(#paint14_radial_3_1318)"/>
<path d="M16.4655 13.4426L11.7572 21.2513C11.6568 21.418 11.7768 21.6304 11.9713 21.6304L14.1935 21.6304C14.3592 21.6304 14.4935 21.7647 14.4935 21.9304V27.6917C14.4935 27.8432 14.6926 27.8992 14.7715 27.7698L19.6575 19.7646C19.7186 19.6647 19.6466 19.5365 19.5295 19.5365H16.9939C16.8559 19.5365 16.7439 19.4246 16.7439 19.2865V13.52C16.7439 13.368 16.544 13.3124 16.4655 13.4426Z" fill="url(#paint15_radial_3_1318)" fill-opacity="0.8"/>
<path d="M16.4655 13.4426L11.7572 21.2513C11.6568 21.418 11.7768 21.6304 11.9713 21.6304L14.1935 21.6304C14.3592 21.6304 14.4935 21.7647 14.4935 21.9304V27.6917C14.4935 27.8432 14.6926 27.8992 14.7715 27.7698L19.6575 19.7646C19.7186 19.6647 19.6466 19.5365 19.5295 19.5365H16.9939C16.8559 19.5365 16.7439 19.4246 16.7439 19.2865V13.52C16.7439 13.368 16.544 13.3124 16.4655 13.4426Z" fill="url(#paint16_radial_3_1318)" fill-opacity="0.65"/>
<path d="M16.4655 13.4426L11.7572 21.2513C11.6568 21.418 11.7768 21.6304 11.9713 21.6304L14.1935 21.6304C14.3592 21.6304 14.4935 21.7647 14.4935 21.9304V27.6917C14.4935 27.8432 14.6926 27.8992 14.7715 27.7698L19.6575 19.7646C19.7186 19.6647 19.6466 19.5365 19.5295 19.5365H16.9939C16.8559 19.5365 16.7439 19.4246 16.7439 19.2865V13.52C16.7439 13.368 16.544 13.3124 16.4655 13.4426Z" fill="url(#paint17_radial_3_1318)" fill-opacity="0.85"/>
<path d="M16.4655 13.4426L11.7572 21.2513C11.6568 21.418 11.7768 21.6304 11.9713 21.6304L14.1935 21.6304C14.3592 21.6304 14.4935 21.7647 14.4935 21.9304V27.6917C14.4935 27.8432 14.6926 27.8992 14.7715 27.7698L19.6575 19.7646C19.7186 19.6647 19.6466 19.5365 19.5295 19.5365H16.9939C16.8559 19.5365 16.7439 19.4246 16.7439 19.2865V13.52C16.7439 13.368 16.544 13.3124 16.4655 13.4426Z" fill="url(#paint18_radial_3_1318)" fill-opacity="0.9"/>
<path d="M16.4655 13.4426L11.7572 21.2513C11.6568 21.418 11.7768 21.6304 11.9713 21.6304L14.1935 21.6304C14.3592 21.6304 14.4935 21.7647 14.4935 21.9304V27.6917C14.4935 27.8432 14.6926 27.8992 14.7715 27.7698L19.6575 19.7646C19.7186 19.6647 19.6466 19.5365 19.5295 19.5365H16.9939C16.8559 19.5365 16.7439 19.4246 16.7439 19.2865V13.52C16.7439 13.368 16.544 13.3124 16.4655 13.4426Z" fill="url(#paint19_radial_3_1318)" fill-opacity="0.7"/>
<path d="M16.4655 13.4426L11.7572 21.2513C11.6568 21.418 11.7768 21.6304 11.9713 21.6304L14.1935 21.6304C14.3592 21.6304 14.4935 21.7647 14.4935 21.9304V27.6917C14.4935 27.8432 14.6926 27.8992 14.7715 27.7698L19.6575 19.7646C19.7186 19.6647 19.6466 19.5365 19.5295 19.5365H16.9939C16.8559 19.5365 16.7439 19.4246 16.7439 19.2865V13.52C16.7439 13.368 16.544 13.3124 16.4655 13.4426Z" fill="url(#paint20_radial_3_1318)" fill-opacity="0.8"/>
<path d="M16.4655 13.4426L11.7572 21.2513C11.6568 21.418 11.7768 21.6304 11.9713 21.6304L14.1935 21.6304C14.3592 21.6304 14.4935 21.7647 14.4935 21.9304V27.6917C14.4935 27.8432 14.6926 27.8992 14.7715 27.7698L19.6575 19.7646C19.7186 19.6647 19.6466 19.5365 19.5295 19.5365H16.9939C16.8559 19.5365 16.7439 19.4246 16.7439 19.2865V13.52C16.7439 13.368 16.544 13.3124 16.4655 13.4426Z" fill="url(#paint21_linear_3_1318)"/>
<path d="M16.4655 13.4426L11.7572 21.2513C11.6568 21.418 11.7768 21.6304 11.9713 21.6304L14.1935 21.6304C14.3592 21.6304 14.4935 21.7647 14.4935 21.9304V27.6917C14.4935 27.8432 14.6926 27.8992 14.7715 27.7698L19.6575 19.7646C19.7186 19.6647 19.6466 19.5365 19.5295 19.5365H16.9939C16.8559 19.5365 16.7439 19.4246 16.7439 19.2865V13.52C16.7439 13.368 16.544 13.3124 16.4655 13.4426Z" fill="url(#paint22_linear_3_1318)"/>
<path d="M16.4655 13.4426L11.7572 21.2513C11.6568 21.418 11.7768 21.6304 11.9713 21.6304L14.1935 21.6304C14.3592 21.6304 14.4935 21.7647 14.4935 21.9304V27.6917C14.4935 27.8432 14.6926 27.8992 14.7715 27.7698L19.6575 19.7646C19.7186 19.6647 19.6466 19.5365 19.5295 19.5365H16.9939C16.8559 19.5365 16.7439 19.4246 16.7439 19.2865V13.52C16.7439 13.368 16.544 13.3124 16.4655 13.4426Z" fill="url(#paint23_linear_3_1318)" fill-opacity="0.8"/>
<path d="M16.4655 13.4426L11.7572 21.2513C11.6568 21.418 11.7768 21.6304 11.9713 21.6304L14.1935 21.6304C14.3592 21.6304 14.4935 21.7647 14.4935 21.9304V27.6917C14.4935 27.8432 14.6926 27.8992 14.7715 27.7698L19.6575 19.7646C19.7186 19.6647 19.6466 19.5365 19.5295 19.5365H16.9939C16.8559 19.5365 16.7439 19.4246 16.7439 19.2865V13.52C16.7439 13.368 16.544 13.3124 16.4655 13.4426Z" fill="url(#paint24_radial_3_1318)"/>
<defs>
<radialGradient id="paint0_radial_3_1318" cx="0" cy="0" r="1" gradientUnits="userSpaceOnUse" gradientTransform="translate(14.2881 5.6181) rotate(153.208) scale(4.20461 3.59222)">
<stop stop-color="#5347D7"/>
<stop offset="1" stop-color="#3831B0"/>
</radialGradient>
<radialGradient id="paint1_radial_3_1318" cx="0" cy="0" r="1" gradientUnits="userSpaceOnUse" gradientTransform="translate(13.7558 8.09163) rotate(-58.1906) scale(3.56509 3.46861)">
<stop offset="0.185678" stop-color="#281EA4"/>
<stop offset="1" stop-color="#281EA4" stop-opacity="0"/>
</radialGradient>
<radialGradient id="paint2_radial_3_1318" cx="0" cy="0" r="1" gradientUnits="userSpaceOnUse" gradientTransform="translate(15.0206 18.0156) rotate(111.609) scale(10.3526 6.47339)">
<stop offset="0.362507" stop-color="#381B90"/>
<stop offset="1" stop-color="#381B90" stop-opacity="0"/>
</radialGradient>
<radialGradient id="paint3_radial_3_1318" cx="0" cy="0" r="1" gradientUnits="userSpaceOnUse" gradientTransform="translate(10.6198 10.9832) rotate(137.466) scale(4.74976 4.48072)">
<stop stop-color="#534ADD"/>
<stop offset="1" stop-color="#574ADF" stop-opacity="0"/>
</radialGradient>
<radialGradient id="paint4_radial_3_1318" cx="0" cy="0" r="1" gradientUnits="userSpaceOnUse" gradientTransform="translate(24.7278 7.22033) rotate(142.503) scale(10.8234 11.8782)">
<stop offset="0.141507" stop-color="#6051FF"/>
<stop offset="1" stop-color="#6051FF" stop-opacity="0"/>
</radialGradient>
<radialGradient id="paint5_radial_3_1318" cx="0" cy="0" r="1" gradientUnits="userSpaceOnUse" gradientTransform="translate(20.935 10.3925) rotate(170.656) scale(18.9046 16.1511)">
<stop offset="0.799468" stop-color="#35209A" stop-opacity="0"/>
<stop offset="1" stop-color="#35209A"/>
</radialGradient>
<linearGradient id="paint6_linear_3_1318" x1="9.77248" y1="21.6628" x2="9.77248" y2="14.7307" gradientUnits="userSpaceOnUse">
<stop offset="0.239875" stop-color="#35209D"/>
<stop offset="1" stop-color="#35209D" stop-opacity="0"/>
</linearGradient>
<radialGradient id="paint7_radial_3_1318" cx="0" cy="0" r="1" gradientUnits="userSpaceOnUse" gradientTransform="translate(7.73236 14.6434) rotate(159.404) scale(18.2604 19.6437)">
<stop offset="0.365531" stop-color="#4C40D5" stop-opacity="0.05"/>
<stop offset="0.418579" stop-color="#5B4EF0" stop-opacity="0.66"/>
<stop offset="0.430396" stop-color="#5B4EF0" stop-opacity="0.66"/>
<stop offset="0.493172" stop-color="#4C42D8" stop-opacity="0.26"/>
<stop offset="0.527653" stop-color="#4C42D8" stop-opacity="0"/>
</radialGradient>
<linearGradient id="paint8_linear_3_1318" x1="17.4963" y1="17.5756" x2="17.4963" y2="24.6866" gradientUnits="userSpaceOnUse">
<stop stop-color="#EA9B4C"/>
<stop offset="1" stop-color="#EB5C74"/>
</linearGradient>
<linearGradient id="paint9_linear_3_1318" x1="14.9373" y1="19.276" x2="17.4701" y2="19.276" gradientUnits="userSpaceOnUse">
<stop offset="0.771379" stop-color="#EA9B4C" stop-opacity="0"/>
<stop offset="0.901379" stop-color="#E96847"/>
<stop offset="1" stop-color="#EB5C74" stop-opacity="0"/>
</linearGradient>
<radialGradient id="paint10_radial_3_1318" cx="0" cy="0" r="1" gradientUnits="userSpaceOnUse" gradientTransform="translate(17.1695 24.3037) rotate(90.9878) scale(1.743 0.958515)">
<stop offset="0.268648" stop-color="#EB676E"/>
<stop offset="0.693314" stop-color="#EB676E" stop-opacity="0"/>
</radialGradient>
<linearGradient id="paint11_linear_3_1318" x1="15.7003" y1="14.8281" x2="15.7003" y2="26.2344" gradientUnits="userSpaceOnUse">
<stop stop-color="#F39445"/>
<stop offset="1" stop-color="#F14B49"/>
</linearGradient>
<linearGradient id="paint12_linear_3_1318" x1="15.7003" y1="13.3698" x2="15.7003" y2="19.3281" gradientUnits="userSpaceOnUse">
<stop stop-color="#DF9844"/>
<stop offset="1" stop-color="#DF9844" stop-opacity="0"/>
</linearGradient>
<radialGradient id="paint13_radial_3_1318" cx="0" cy="0" r="1" gradientUnits="userSpaceOnUse" gradientTransform="translate(16.7919 16.1849) rotate(90) scale(3.47652 0.758514)">
<stop stop-color="#FE9052"/>
<stop offset="1" stop-color="#FE9052" stop-opacity="0"/>
</radialGradient>
<radialGradient id="paint14_radial_3_1318" cx="0" cy="0" r="1" gradientUnits="userSpaceOnUse" gradientTransform="translate(14.1026 27.414) rotate(8.69228) scale(1.44991 6.09462)">
<stop offset="0.274676" stop-color="#D44749"/>
<stop offset="0.533583" stop-color="#F26148" stop-opacity="0"/>
</radialGradient>
<radialGradient id="paint15_radial_3_1318" cx="0" cy="0" r="1" gradientUnits="userSpaceOnUse" gradientTransform="translate(14.202 24.148) rotate(-0.329656) scale(1.49836 5.29038)">
<stop offset="0.164528" stop-color="#B33638"/>
<stop offset="0.404017" stop-color="#D5484A" stop-opacity="0"/>
</radialGradient>
<radialGradient id="paint16_radial_3_1318" cx="0" cy="0" r="1" gradientUnits="userSpaceOnUse" gradientTransform="translate(18.9967 19.4206) rotate(-96.9112) scale(0.676355 2.98054)">
<stop offset="0.344404" stop-color="#D85045"/>
<stop offset="0.854979" stop-color="#F37647" stop-opacity="0"/>
</radialGradient>
<radialGradient id="paint17_radial_3_1318" cx="0" cy="0" r="1" gradientUnits="userSpaceOnUse" gradientTransform="translate(17.2668 18.791) rotate(-1.70982) scale(1.38424 1.68672)">
<stop offset="0.412098" stop-color="#D85045"/>
<stop offset="0.659512" stop-color="#E16048" stop-opacity="0"/>
</radialGradient>
<radialGradient id="paint18_radial_3_1318" cx="0" cy="0" r="1" gradientUnits="userSpaceOnUse" gradientTransform="translate(14.0643 22.9137) rotate(-179.421) scale(1.11964 1.71129)">
<stop offset="0.344404" stop-color="#C3413F"/>
<stop offset="0.791061" stop-color="#F37647" stop-opacity="0"/>
</radialGradient>
<radialGradient id="paint19_radial_3_1318" cx="0" cy="0" r="1" gradientUnits="userSpaceOnUse" gradientTransform="translate(14.1328 22.1005) rotate(148.627) scale(1.16224 1.11582)">
<stop offset="0.344404" stop-color="#C3413F" stop-opacity="0.84"/>
<stop offset="0.842447" stop-color="#F37647" stop-opacity="0"/>
</radialGradient>
<radialGradient id="paint20_radial_3_1318" cx="0" cy="0" r="1" gradientUnits="userSpaceOnUse" gradientTransform="translate(16.9118 16.7661) rotate(10.7389) scale(1.24522 7.15615)">
<stop stop-color="#E25F47"/>
<stop offset="0.618864" stop-color="#F37647" stop-opacity="0"/>
</radialGradient>
<linearGradient id="paint21_linear_3_1318" x1="13.9117" y1="20.4299" x2="12.0482" y2="19.1092" gradientUnits="userSpaceOnUse">
<stop offset="0.452356" stop-color="#F99150" stop-opacity="0"/>
<stop offset="0.667742" stop-color="#F5934D"/>
</linearGradient>
<linearGradient id="paint22_linear_3_1318" x1="14.0926" y1="20.8279" x2="12.0553" y2="19.821" gradientUnits="userSpaceOnUse">
<stop offset="0.561325" stop-color="#F36C49" stop-opacity="0"/>
<stop offset="0.753054" stop-color="#EC6647"/>
</linearGradient>
<linearGradient id="paint23_linear_3_1318" x1="15.2437" y1="24.5097" x2="17.3261" y2="25.7692" gradientUnits="userSpaceOnUse">
<stop offset="0.412195" stop-color="#C33C4A" stop-opacity="0"/>
<stop offset="0.595683" stop-color="#C22C3B" stop-opacity="0.87"/>
</linearGradient>
<radialGradient id="paint24_radial_3_1318" cx="0" cy="0" r="1" gradientUnits="userSpaceOnUse" gradientTransform="translate(13.0569 21.9032) rotate(-90.9652) scale(0.834252 2.10303)">
<stop offset="0.344404" stop-color="#D85045"/>
<stop offset="1" stop-color="#F37647" stop-opacity="0"/>
</radialGradient>
</defs>
</svg>
