<svg width="32" height="32" viewBox="0 0 32 32" fill="none" xmlns="http://www.w3.org/2000/svg">
<path d="M12.7918 12.4302C15.0197 12.4302 16.8257 10.6242 16.8257 8.39626C16.8257 6.16837 15.0197 4.3623 12.7918 4.3623C10.5639 4.3623 8.75781 6.16837 8.75781 8.39626C8.75781 10.6242 10.5639 12.4302 12.7918 12.4302Z" fill="url(#paint0_radial_3_1313)"/>
<path d="M12.7918 12.4302C15.0197 12.4302 16.8257 10.6242 16.8257 8.39626C16.8257 6.16837 15.0197 4.3623 12.7918 4.3623C10.5639 4.3623 8.75781 6.16837 8.75781 8.39626C8.75781 10.6242 10.5639 12.4302 12.7918 12.4302Z" fill="url(#paint1_radial_3_1313)"/>
<path d="M27.6275 4.67772C24.0829 1.22289 18.4114 1.2828 14.9565 4.82749C14.0343 5.76797 13.3709 6.85875 12.9435 8.02346C12.8846 8.18394 12.6875 8.2467 12.545 8.1524C12.2347 7.94715 11.9039 7.76784 11.5616 7.62331C10.7428 7.24387 9.8342 7.03419 8.87563 7.03419C5.31097 7.03419 2.42529 9.91987 2.42529 13.4845C2.42529 15.0023 2.9545 16.4002 3.83318 17.5085C5.0214 19.0662 6.88861 20.0647 8.99545 20.0647C11.5317 20.0647 18.8207 20.0647 21.6665 20.0647C24.4823 20.0647 26.9685 18.6768 28.4863 16.5499C31.2022 12.9953 30.9026 7.88292 27.6275 4.67772Z" fill="#E0D3FF"/>
<path d="M27.6275 4.67772C24.0829 1.22289 18.4114 1.2828 14.9565 4.82749C14.0343 5.76797 13.3709 6.85875 12.9435 8.02346C12.8846 8.18394 12.6875 8.2467 12.545 8.1524C12.2347 7.94715 11.9039 7.76784 11.5616 7.62331C10.7428 7.24387 9.8342 7.03419 8.87563 7.03419C5.31097 7.03419 2.42529 9.91987 2.42529 13.4845C2.42529 15.0023 2.9545 16.4002 3.83318 17.5085C5.0214 19.0662 6.88861 20.0647 8.99545 20.0647C11.5317 20.0647 18.8207 20.0647 21.6665 20.0647C24.4823 20.0647 26.9685 18.6768 28.4863 16.5499C31.2022 12.9953 30.9026 7.88292 27.6275 4.67772Z" fill="url(#paint2_radial_3_1313)"/>
<path d="M27.6275 4.67772C24.0829 1.22289 18.4114 1.2828 14.9565 4.82749C14.0343 5.76797 13.3709 6.85875 12.9435 8.02346C12.8846 8.18394 12.6875 8.2467 12.545 8.1524C12.2347 7.94715 11.9039 7.76784 11.5616 7.62331C10.7428 7.24387 9.8342 7.03419 8.87563 7.03419C5.31097 7.03419 2.42529 9.91987 2.42529 13.4845C2.42529 15.0023 2.9545 16.4002 3.83318 17.5085C5.0214 19.0662 6.88861 20.0647 8.99545 20.0647C11.5317 20.0647 18.8207 20.0647 21.6665 20.0647C24.4823 20.0647 26.9685 18.6768 28.4863 16.5499C31.2022 12.9953 30.9026 7.88292 27.6275 4.67772Z" fill="url(#paint3_radial_3_1313)" fill-opacity="0.7"/>
<path d="M27.6275 4.67772C24.0829 1.22289 18.4114 1.2828 14.9565 4.82749C14.0343 5.76797 13.3709 6.85875 12.9435 8.02346C12.8846 8.18394 12.6875 8.2467 12.545 8.1524C12.2347 7.94715 11.9039 7.76784 11.5616 7.62331C10.7428 7.24387 9.8342 7.03419 8.87563 7.03419C5.31097 7.03419 2.42529 9.91987 2.42529 13.4845C2.42529 15.0023 2.9545 16.4002 3.83318 17.5085C5.0214 19.0662 6.88861 20.0647 8.99545 20.0647C11.5317 20.0647 18.8207 20.0647 21.6665 20.0647C24.4823 20.0647 26.9685 18.6768 28.4863 16.5499C31.2022 12.9953 30.9026 7.88292 27.6275 4.67772Z" fill="url(#paint4_radial_3_1313)"/>
<path d="M27.6275 4.67772C24.0829 1.22289 18.4114 1.2828 14.9565 4.82749C14.0343 5.76797 13.3709 6.85875 12.9435 8.02346C12.8846 8.18394 12.6875 8.2467 12.545 8.1524C12.2347 7.94715 11.9039 7.76784 11.5616 7.62331C10.7428 7.24387 9.8342 7.03419 8.87563 7.03419C5.31097 7.03419 2.42529 9.91987 2.42529 13.4845C2.42529 15.0023 2.9545 16.4002 3.83318 17.5085C5.0214 19.0662 6.88861 20.0647 8.99545 20.0647C11.5317 20.0647 18.8207 20.0647 21.6665 20.0647C24.4823 20.0647 26.9685 18.6768 28.4863 16.5499C31.2022 12.9953 30.9026 7.88292 27.6275 4.67772Z" fill="url(#paint5_radial_3_1313)"/>
<path d="M27.6275 4.67772C24.0829 1.22289 18.4114 1.2828 14.9565 4.82749C14.0343 5.76797 13.3709 6.85875 12.9435 8.02346C12.8846 8.18394 12.6875 8.2467 12.545 8.1524C12.2347 7.94715 11.9039 7.76784 11.5616 7.62331C10.7428 7.24387 9.8342 7.03419 8.87563 7.03419C5.31097 7.03419 2.42529 9.91987 2.42529 13.4845C2.42529 15.0023 2.9545 16.4002 3.83318 17.5085C5.0214 19.0662 6.88861 20.0647 8.99545 20.0647C11.5317 20.0647 18.8207 20.0647 21.6665 20.0647C24.4823 20.0647 26.9685 18.6768 28.4863 16.5499C31.2022 12.9953 30.9026 7.88292 27.6275 4.67772Z" fill="url(#paint6_radial_3_1313)"/>
<path d="M27.6275 4.67772C24.0829 1.22289 18.4114 1.2828 14.9565 4.82749C14.0343 5.76797 13.3709 6.85875 12.9435 8.02346C12.8846 8.18394 12.6875 8.2467 12.545 8.1524C12.2347 7.94715 11.9039 7.76784 11.5616 7.62331C10.7428 7.24387 9.8342 7.03419 8.87563 7.03419C5.31097 7.03419 2.42529 9.91987 2.42529 13.4845C2.42529 15.0023 2.9545 16.4002 3.83318 17.5085C5.0214 19.0662 6.88861 20.0647 8.99545 20.0647C11.5317 20.0647 18.8207 20.0647 21.6665 20.0647C24.4823 20.0647 26.9685 18.6768 28.4863 16.5499C31.2022 12.9953 30.9026 7.88292 27.6275 4.67772Z" fill="url(#paint7_radial_3_1313)"/>
<path d="M27.6275 4.67772C24.0829 1.22289 18.4114 1.2828 14.9565 4.82749C14.0343 5.76797 13.3709 6.85875 12.9435 8.02346C12.8846 8.18394 12.6875 8.2467 12.545 8.1524C12.2347 7.94715 11.9039 7.76784 11.5616 7.62331C10.7428 7.24387 9.8342 7.03419 8.87563 7.03419C5.31097 7.03419 2.42529 9.91987 2.42529 13.4845C2.42529 15.0023 2.9545 16.4002 3.83318 17.5085C5.0214 19.0662 6.88861 20.0647 8.99545 20.0647C11.5317 20.0647 18.8207 20.0647 21.6665 20.0647C24.4823 20.0647 26.9685 18.6768 28.4863 16.5499C31.2022 12.9953 30.9026 7.88292 27.6275 4.67772Z" fill="url(#paint8_radial_3_1313)" fill-opacity="0.55"/>
<path d="M27.6275 4.67772C24.0829 1.22289 18.4114 1.2828 14.9565 4.82749C14.0343 5.76797 13.3709 6.85875 12.9435 8.02346C12.8846 8.18394 12.6875 8.2467 12.545 8.1524C12.2347 7.94715 11.9039 7.76784 11.5616 7.62331C10.7428 7.24387 9.8342 7.03419 8.87563 7.03419C5.31097 7.03419 2.42529 9.91987 2.42529 13.4845C2.42529 15.0023 2.9545 16.4002 3.83318 17.5085C5.0214 19.0662 6.88861 20.0647 8.99545 20.0647C11.5317 20.0647 18.8207 20.0647 21.6665 20.0647C24.4823 20.0647 26.9685 18.6768 28.4863 16.5499C31.2022 12.9953 30.9026 7.88292 27.6275 4.67772Z" fill="url(#paint9_linear_3_1313)" fill-opacity="0.6"/>
<path d="M9.09057 25.077L9.26336 25.4391C9.36507 25.6522 9.30377 25.9075 9.11637 26.0512L8.95152 26.1776C8.24895 26.7164 8.60039 27.8386 9.48477 27.8804L9.57394 27.8846C9.83289 27.8969 10.0395 28.105 10.0499 28.364L10.0646 28.7307C10.0951 29.4901 10.9949 29.8722 11.5625 29.3667L11.8218 29.1358C12.0056 28.9721 12.2811 28.9665 12.4714 29.1225L12.6821 29.2953C13.2742 29.7807 14.1635 29.3522 14.1526 28.5866L14.1471 28.1971C14.1436 27.9459 14.3271 27.731 14.5758 27.6952L14.7363 27.672C15.5298 27.5577 15.8121 26.557 15.1953 26.0448L14.8876 25.7893C14.7106 25.6424 14.6568 25.3936 14.7571 25.1866L14.8557 24.9832C15.2209 24.2299 14.5037 23.4067 13.7074 23.6653L13.4949 23.7343C13.2703 23.8072 13.0253 23.7131 12.9074 23.5085L12.71 23.1662C12.352 22.5454 11.4473 22.5717 11.1259 23.2122L10.9413 23.5801C10.8457 23.7706 10.6398 23.8796 10.4285 23.8514L10.0216 23.7973C9.31325 23.703 8.78282 24.4321 9.09057 25.077Z" fill="#BFBBFF"/>
<path d="M9.09057 25.077L9.26336 25.4391C9.36507 25.6522 9.30377 25.9075 9.11637 26.0512L8.95152 26.1776C8.24895 26.7164 8.60039 27.8386 9.48477 27.8804L9.57394 27.8846C9.83289 27.8969 10.0395 28.105 10.0499 28.364L10.0646 28.7307C10.0951 29.4901 10.9949 29.8722 11.5625 29.3667L11.8218 29.1358C12.0056 28.9721 12.2811 28.9665 12.4714 29.1225L12.6821 29.2953C13.2742 29.7807 14.1635 29.3522 14.1526 28.5866L14.1471 28.1971C14.1436 27.9459 14.3271 27.731 14.5758 27.6952L14.7363 27.672C15.5298 27.5577 15.8121 26.557 15.1953 26.0448L14.8876 25.7893C14.7106 25.6424 14.6568 25.3936 14.7571 25.1866L14.8557 24.9832C15.2209 24.2299 14.5037 23.4067 13.7074 23.6653L13.4949 23.7343C13.2703 23.8072 13.0253 23.7131 12.9074 23.5085L12.71 23.1662C12.352 22.5454 11.4473 22.5717 11.1259 23.2122L10.9413 23.5801C10.8457 23.7706 10.6398 23.8796 10.4285 23.8514L10.0216 23.7973C9.31325 23.703 8.78282 24.4321 9.09057 25.077Z" fill="url(#paint10_radial_3_1313)"/>
<path d="M9.09057 25.077L9.26336 25.4391C9.36507 25.6522 9.30377 25.9075 9.11637 26.0512L8.95152 26.1776C8.24895 26.7164 8.60039 27.8386 9.48477 27.8804L9.57394 27.8846C9.83289 27.8969 10.0395 28.105 10.0499 28.364L10.0646 28.7307C10.0951 29.4901 10.9949 29.8722 11.5625 29.3667L11.8218 29.1358C12.0056 28.9721 12.2811 28.9665 12.4714 29.1225L12.6821 29.2953C13.2742 29.7807 14.1635 29.3522 14.1526 28.5866L14.1471 28.1971C14.1436 27.9459 14.3271 27.731 14.5758 27.6952L14.7363 27.672C15.5298 27.5577 15.8121 26.557 15.1953 26.0448L14.8876 25.7893C14.7106 25.6424 14.6568 25.3936 14.7571 25.1866L14.8557 24.9832C15.2209 24.2299 14.5037 23.4067 13.7074 23.6653L13.4949 23.7343C13.2703 23.8072 13.0253 23.7131 12.9074 23.5085L12.71 23.1662C12.352 22.5454 11.4473 22.5717 11.1259 23.2122L10.9413 23.5801C10.8457 23.7706 10.6398 23.8796 10.4285 23.8514L10.0216 23.7973C9.31325 23.703 8.78282 24.4321 9.09057 25.077Z" fill="url(#paint11_radial_3_1313)"/>
<path d="M9.09057 25.077L9.26336 25.4391C9.36507 25.6522 9.30377 25.9075 9.11637 26.0512L8.95152 26.1776C8.24895 26.7164 8.60039 27.8386 9.48477 27.8804L9.57394 27.8846C9.83289 27.8969 10.0395 28.105 10.0499 28.364L10.0646 28.7307C10.0951 29.4901 10.9949 29.8722 11.5625 29.3667L11.8218 29.1358C12.0056 28.9721 12.2811 28.9665 12.4714 29.1225L12.6821 29.2953C13.2742 29.7807 14.1635 29.3522 14.1526 28.5866L14.1471 28.1971C14.1436 27.9459 14.3271 27.731 14.5758 27.6952L14.7363 27.672C15.5298 27.5577 15.8121 26.557 15.1953 26.0448L14.8876 25.7893C14.7106 25.6424 14.6568 25.3936 14.7571 25.1866L14.8557 24.9832C15.2209 24.2299 14.5037 23.4067 13.7074 23.6653L13.4949 23.7343C13.2703 23.8072 13.0253 23.7131 12.9074 23.5085L12.71 23.1662C12.352 22.5454 11.4473 22.5717 11.1259 23.2122L10.9413 23.5801C10.8457 23.7706 10.6398 23.8796 10.4285 23.8514L10.0216 23.7973C9.31325 23.703 8.78282 24.4321 9.09057 25.077Z" fill="url(#paint12_radial_3_1313)"/>
<path d="M9.09057 25.077L9.26336 25.4391C9.36507 25.6522 9.30377 25.9075 9.11637 26.0512L8.95152 26.1776C8.24895 26.7164 8.60039 27.8386 9.48477 27.8804L9.57394 27.8846C9.83289 27.8969 10.0395 28.105 10.0499 28.364L10.0646 28.7307C10.0951 29.4901 10.9949 29.8722 11.5625 29.3667L11.8218 29.1358C12.0056 28.9721 12.2811 28.9665 12.4714 29.1225L12.6821 29.2953C13.2742 29.7807 14.1635 29.3522 14.1526 28.5866L14.1471 28.1971C14.1436 27.9459 14.3271 27.731 14.5758 27.6952L14.7363 27.672C15.5298 27.5577 15.8121 26.557 15.1953 26.0448L14.8876 25.7893C14.7106 25.6424 14.6568 25.3936 14.7571 25.1866L14.8557 24.9832C15.2209 24.2299 14.5037 23.4067 13.7074 23.6653L13.4949 23.7343C13.2703 23.8072 13.0253 23.7131 12.9074 23.5085L12.71 23.1662C12.352 22.5454 11.4473 22.5717 11.1259 23.2122L10.9413 23.5801C10.8457 23.7706 10.6398 23.8796 10.4285 23.8514L10.0216 23.7973C9.31325 23.703 8.78282 24.4321 9.09057 25.077Z" fill="url(#paint13_radial_3_1313)"/>
<path d="M9.09057 25.077L9.26336 25.4391C9.36507 25.6522 9.30377 25.9075 9.11637 26.0512L8.95152 26.1776C8.24895 26.7164 8.60039 27.8386 9.48477 27.8804L9.57394 27.8846C9.83289 27.8969 10.0395 28.105 10.0499 28.364L10.0646 28.7307C10.0951 29.4901 10.9949 29.8722 11.5625 29.3667L11.8218 29.1358C12.0056 28.9721 12.2811 28.9665 12.4714 29.1225L12.6821 29.2953C13.2742 29.7807 14.1635 29.3522 14.1526 28.5866L14.1471 28.1971C14.1436 27.9459 14.3271 27.731 14.5758 27.6952L14.7363 27.672C15.5298 27.5577 15.8121 26.557 15.1953 26.0448L14.8876 25.7893C14.7106 25.6424 14.6568 25.3936 14.7571 25.1866L14.8557 24.9832C15.2209 24.2299 14.5037 23.4067 13.7074 23.6653L13.4949 23.7343C13.2703 23.8072 13.0253 23.7131 12.9074 23.5085L12.71 23.1662C12.352 22.5454 11.4473 22.5717 11.1259 23.2122L10.9413 23.5801C10.8457 23.7706 10.6398 23.8796 10.4285 23.8514L10.0216 23.7973C9.31325 23.703 8.78282 24.4321 9.09057 25.077Z" fill="url(#paint14_radial_3_1313)"/>
<path d="M9.09057 25.077L9.26336 25.4391C9.36507 25.6522 9.30377 25.9075 9.11637 26.0512L8.95152 26.1776C8.24895 26.7164 8.60039 27.8386 9.48477 27.8804L9.57394 27.8846C9.83289 27.8969 10.0395 28.105 10.0499 28.364L10.0646 28.7307C10.0951 29.4901 10.9949 29.8722 11.5625 29.3667L11.8218 29.1358C12.0056 28.9721 12.2811 28.9665 12.4714 29.1225L12.6821 29.2953C13.2742 29.7807 14.1635 29.3522 14.1526 28.5866L14.1471 28.1971C14.1436 27.9459 14.3271 27.731 14.5758 27.6952L14.7363 27.672C15.5298 27.5577 15.8121 26.557 15.1953 26.0448L14.8876 25.7893C14.7106 25.6424 14.6568 25.3936 14.7571 25.1866L14.8557 24.9832C15.2209 24.2299 14.5037 23.4067 13.7074 23.6653L13.4949 23.7343C13.2703 23.8072 13.0253 23.7131 12.9074 23.5085L12.71 23.1662C12.352 22.5454 11.4473 22.5717 11.1259 23.2122L10.9413 23.5801C10.8457 23.7706 10.6398 23.8796 10.4285 23.8514L10.0216 23.7973C9.31325 23.703 8.78282 24.4321 9.09057 25.077Z" fill="url(#paint15_radial_3_1313)"/>
<path d="M9.09057 25.077L9.26336 25.4391C9.36507 25.6522 9.30377 25.9075 9.11637 26.0512L8.95152 26.1776C8.24895 26.7164 8.60039 27.8386 9.48477 27.8804L9.57394 27.8846C9.83289 27.8969 10.0395 28.105 10.0499 28.364L10.0646 28.7307C10.0951 29.4901 10.9949 29.8722 11.5625 29.3667L11.8218 29.1358C12.0056 28.9721 12.2811 28.9665 12.4714 29.1225L12.6821 29.2953C13.2742 29.7807 14.1635 29.3522 14.1526 28.5866L14.1471 28.1971C14.1436 27.9459 14.3271 27.731 14.5758 27.6952L14.7363 27.672C15.5298 27.5577 15.8121 26.557 15.1953 26.0448L14.8876 25.7893C14.7106 25.6424 14.6568 25.3936 14.7571 25.1866L14.8557 24.9832C15.2209 24.2299 14.5037 23.4067 13.7074 23.6653L13.4949 23.7343C13.2703 23.8072 13.0253 23.7131 12.9074 23.5085L12.71 23.1662C12.352 22.5454 11.4473 22.5717 11.1259 23.2122L10.9413 23.5801C10.8457 23.7706 10.6398 23.8796 10.4285 23.8514L10.0216 23.7973C9.31325 23.703 8.78282 24.4321 9.09057 25.077Z" fill="url(#paint16_radial_3_1313)"/>
<path d="M9.09057 25.077L9.26336 25.4391C9.36507 25.6522 9.30377 25.9075 9.11637 26.0512L8.95152 26.1776C8.24895 26.7164 8.60039 27.8386 9.48477 27.8804L9.57394 27.8846C9.83289 27.8969 10.0395 28.105 10.0499 28.364L10.0646 28.7307C10.0951 29.4901 10.9949 29.8722 11.5625 29.3667L11.8218 29.1358C12.0056 28.9721 12.2811 28.9665 12.4714 29.1225L12.6821 29.2953C13.2742 29.7807 14.1635 29.3522 14.1526 28.5866L14.1471 28.1971C14.1436 27.9459 14.3271 27.731 14.5758 27.6952L14.7363 27.672C15.5298 27.5577 15.8121 26.557 15.1953 26.0448L14.8876 25.7893C14.7106 25.6424 14.6568 25.3936 14.7571 25.1866L14.8557 24.9832C15.2209 24.2299 14.5037 23.4067 13.7074 23.6653L13.4949 23.7343C13.2703 23.8072 13.0253 23.7131 12.9074 23.5085L12.71 23.1662C12.352 22.5454 11.4473 22.5717 11.1259 23.2122L10.9413 23.5801C10.8457 23.7706 10.6398 23.8796 10.4285 23.8514L10.0216 23.7973C9.31325 23.703 8.78282 24.4321 9.09057 25.077Z" fill="url(#paint17_radial_3_1313)"/>
<path d="M9.09057 25.077L9.26336 25.4391C9.36507 25.6522 9.30377 25.9075 9.11637 26.0512L8.95152 26.1776C8.24895 26.7164 8.60039 27.8386 9.48477 27.8804L9.57394 27.8846C9.83289 27.8969 10.0395 28.105 10.0499 28.364L10.0646 28.7307C10.0951 29.4901 10.9949 29.8722 11.5625 29.3667L11.8218 29.1358C12.0056 28.9721 12.2811 28.9665 12.4714 29.1225L12.6821 29.2953C13.2742 29.7807 14.1635 29.3522 14.1526 28.5866L14.1471 28.1971C14.1436 27.9459 14.3271 27.731 14.5758 27.6952L14.7363 27.672C15.5298 27.5577 15.8121 26.557 15.1953 26.0448L14.8876 25.7893C14.7106 25.6424 14.6568 25.3936 14.7571 25.1866L14.8557 24.9832C15.2209 24.2299 14.5037 23.4067 13.7074 23.6653L13.4949 23.7343C13.2703 23.8072 13.0253 23.7131 12.9074 23.5085L12.71 23.1662C12.352 22.5454 11.4473 22.5717 11.1259 23.2122L10.9413 23.5801C10.8457 23.7706 10.6398 23.8796 10.4285 23.8514L10.0216 23.7973C9.31325 23.703 8.78282 24.4321 9.09057 25.077Z" fill="url(#paint18_radial_3_1313)" fill-opacity="0.7"/>
<path d="M19.0456 22.6271L19.241 22.7583C19.356 22.8355 19.4013 22.9826 19.3497 23.1112L19.3042 23.2242C19.1106 23.7061 19.6232 24.1675 20.0821 23.9244L20.1284 23.8999C20.2627 23.8287 20.4292 23.8721 20.5119 23.9997L20.6288 24.1804C20.8711 24.5546 21.4395 24.4787 21.5749 24.054L21.6368 23.8599C21.6807 23.7224 21.8181 23.6372 21.9607 23.6592L22.1187 23.6834C22.5626 23.7516 22.8835 23.2696 22.6493 22.8864L22.5301 22.6914C22.4533 22.5656 22.4817 22.4024 22.5965 22.31L22.6707 22.2503C23.037 21.9556 22.8805 21.3661 22.4162 21.2919L22.1846 21.2548C22.0513 21.2335 21.9498 21.124 21.9386 20.9895L21.9276 20.8575C21.8869 20.3681 21.279 20.1668 20.9543 20.5352L20.8677 20.6336C20.7761 20.7375 20.6243 20.7632 20.5036 20.6951L20.3017 20.5813C19.9356 20.3749 19.4868 20.6584 19.5159 21.0778L19.5326 21.3186C19.5413 21.4434 19.4699 21.5599 19.3548 21.6088L19.1332 21.703C18.7475 21.867 18.6976 22.3935 19.0456 22.6271Z" fill="#C9C1FF"/>
<path d="M19.0456 22.6271L19.241 22.7583C19.356 22.8355 19.4013 22.9826 19.3497 23.1112L19.3042 23.2242C19.1106 23.7061 19.6232 24.1675 20.0821 23.9244L20.1284 23.8999C20.2627 23.8287 20.4292 23.8721 20.5119 23.9997L20.6288 24.1804C20.8711 24.5546 21.4395 24.4787 21.5749 24.054L21.6368 23.8599C21.6807 23.7224 21.8181 23.6372 21.9607 23.6592L22.1187 23.6834C22.5626 23.7516 22.8835 23.2696 22.6493 22.8864L22.5301 22.6914C22.4533 22.5656 22.4817 22.4024 22.5965 22.31L22.6707 22.2503C23.037 21.9556 22.8805 21.3661 22.4162 21.2919L22.1846 21.2548C22.0513 21.2335 21.9498 21.124 21.9386 20.9895L21.9276 20.8575C21.8869 20.3681 21.279 20.1668 20.9543 20.5352L20.8677 20.6336C20.7761 20.7375 20.6243 20.7632 20.5036 20.6951L20.3017 20.5813C19.9356 20.3749 19.4868 20.6584 19.5159 21.0778L19.5326 21.3186C19.5413 21.4434 19.4699 21.5599 19.3548 21.6088L19.1332 21.703C18.7475 21.867 18.6976 22.3935 19.0456 22.6271Z" fill="url(#paint19_radial_3_1313)"/>
<path d="M19.0456 22.6271L19.241 22.7583C19.356 22.8355 19.4013 22.9826 19.3497 23.1112L19.3042 23.2242C19.1106 23.7061 19.6232 24.1675 20.0821 23.9244L20.1284 23.8999C20.2627 23.8287 20.4292 23.8721 20.5119 23.9997L20.6288 24.1804C20.8711 24.5546 21.4395 24.4787 21.5749 24.054L21.6368 23.8599C21.6807 23.7224 21.8181 23.6372 21.9607 23.6592L22.1187 23.6834C22.5626 23.7516 22.8835 23.2696 22.6493 22.8864L22.5301 22.6914C22.4533 22.5656 22.4817 22.4024 22.5965 22.31L22.6707 22.2503C23.037 21.9556 22.8805 21.3661 22.4162 21.2919L22.1846 21.2548C22.0513 21.2335 21.9498 21.124 21.9386 20.9895L21.9276 20.8575C21.8869 20.3681 21.279 20.1668 20.9543 20.5352L20.8677 20.6336C20.7761 20.7375 20.6243 20.7632 20.5036 20.6951L20.3017 20.5813C19.9356 20.3749 19.4868 20.6584 19.5159 21.0778L19.5326 21.3186C19.5413 21.4434 19.4699 21.5599 19.3548 21.6088L19.1332 21.703C18.7475 21.867 18.6976 22.3935 19.0456 22.6271Z" fill="url(#paint20_radial_3_1313)"/>
<path d="M19.0456 22.6271L19.241 22.7583C19.356 22.8355 19.4013 22.9826 19.3497 23.1112L19.3042 23.2242C19.1106 23.7061 19.6232 24.1675 20.0821 23.9244L20.1284 23.8999C20.2627 23.8287 20.4292 23.8721 20.5119 23.9997L20.6288 24.1804C20.8711 24.5546 21.4395 24.4787 21.5749 24.054L21.6368 23.8599C21.6807 23.7224 21.8181 23.6372 21.9607 23.6592L22.1187 23.6834C22.5626 23.7516 22.8835 23.2696 22.6493 22.8864L22.5301 22.6914C22.4533 22.5656 22.4817 22.4024 22.5965 22.31L22.6707 22.2503C23.037 21.9556 22.8805 21.3661 22.4162 21.2919L22.1846 21.2548C22.0513 21.2335 21.9498 21.124 21.9386 20.9895L21.9276 20.8575C21.8869 20.3681 21.279 20.1668 20.9543 20.5352L20.8677 20.6336C20.7761 20.7375 20.6243 20.7632 20.5036 20.6951L20.3017 20.5813C19.9356 20.3749 19.4868 20.6584 19.5159 21.0778L19.5326 21.3186C19.5413 21.4434 19.4699 21.5599 19.3548 21.6088L19.1332 21.703C18.7475 21.867 18.6976 22.3935 19.0456 22.6271Z" fill="url(#paint21_radial_3_1313)"/>
<path d="M19.0456 22.6271L19.241 22.7583C19.356 22.8355 19.4013 22.9826 19.3497 23.1112L19.3042 23.2242C19.1106 23.7061 19.6232 24.1675 20.0821 23.9244L20.1284 23.8999C20.2627 23.8287 20.4292 23.8721 20.5119 23.9997L20.6288 24.1804C20.8711 24.5546 21.4395 24.4787 21.5749 24.054L21.6368 23.8599C21.6807 23.7224 21.8181 23.6372 21.9607 23.6592L22.1187 23.6834C22.5626 23.7516 22.8835 23.2696 22.6493 22.8864L22.5301 22.6914C22.4533 22.5656 22.4817 22.4024 22.5965 22.31L22.6707 22.2503C23.037 21.9556 22.8805 21.3661 22.4162 21.2919L22.1846 21.2548C22.0513 21.2335 21.9498 21.124 21.9386 20.9895L21.9276 20.8575C21.8869 20.3681 21.279 20.1668 20.9543 20.5352L20.8677 20.6336C20.7761 20.7375 20.6243 20.7632 20.5036 20.6951L20.3017 20.5813C19.9356 20.3749 19.4868 20.6584 19.5159 21.0778L19.5326 21.3186C19.5413 21.4434 19.4699 21.5599 19.3548 21.6088L19.1332 21.703C18.7475 21.867 18.6976 22.3935 19.0456 22.6271Z" fill="url(#paint22_radial_3_1313)"/>
<path d="M19.0456 22.6271L19.241 22.7583C19.356 22.8355 19.4013 22.9826 19.3497 23.1112L19.3042 23.2242C19.1106 23.7061 19.6232 24.1675 20.0821 23.9244L20.1284 23.8999C20.2627 23.8287 20.4292 23.8721 20.5119 23.9997L20.6288 24.1804C20.8711 24.5546 21.4395 24.4787 21.5749 24.054L21.6368 23.8599C21.6807 23.7224 21.8181 23.6372 21.9607 23.6592L22.1187 23.6834C22.5626 23.7516 22.8835 23.2696 22.6493 22.8864L22.5301 22.6914C22.4533 22.5656 22.4817 22.4024 22.5965 22.31L22.6707 22.2503C23.037 21.9556 22.8805 21.3661 22.4162 21.2919L22.1846 21.2548C22.0513 21.2335 21.9498 21.124 21.9386 20.9895L21.9276 20.8575C21.8869 20.3681 21.279 20.1668 20.9543 20.5352L20.8677 20.6336C20.7761 20.7375 20.6243 20.7632 20.5036 20.6951L20.3017 20.5813C19.9356 20.3749 19.4868 20.6584 19.5159 21.0778L19.5326 21.3186C19.5413 21.4434 19.4699 21.5599 19.3548 21.6088L19.1332 21.703C18.7475 21.867 18.6976 22.3935 19.0456 22.6271Z" fill="url(#paint23_radial_3_1313)"/>
<path d="M19.0456 22.6271L19.241 22.7583C19.356 22.8355 19.4013 22.9826 19.3497 23.1112L19.3042 23.2242C19.1106 23.7061 19.6232 24.1675 20.0821 23.9244L20.1284 23.8999C20.2627 23.8287 20.4292 23.8721 20.5119 23.9997L20.6288 24.1804C20.8711 24.5546 21.4395 24.4787 21.5749 24.054L21.6368 23.8599C21.6807 23.7224 21.8181 23.6372 21.9607 23.6592L22.1187 23.6834C22.5626 23.7516 22.8835 23.2696 22.6493 22.8864L22.5301 22.6914C22.4533 22.5656 22.4817 22.4024 22.5965 22.31L22.6707 22.2503C23.037 21.9556 22.8805 21.3661 22.4162 21.2919L22.1846 21.2548C22.0513 21.2335 21.9498 21.124 21.9386 20.9895L21.9276 20.8575C21.8869 20.3681 21.279 20.1668 20.9543 20.5352L20.8677 20.6336C20.7761 20.7375 20.6243 20.7632 20.5036 20.6951L20.3017 20.5813C19.9356 20.3749 19.4868 20.6584 19.5159 21.0778L19.5326 21.3186C19.5413 21.4434 19.4699 21.5599 19.3548 21.6088L19.1332 21.703C18.7475 21.867 18.6976 22.3935 19.0456 22.6271Z" fill="url(#paint24_radial_3_1313)"/>
<path d="M19.0456 22.6271L19.241 22.7583C19.356 22.8355 19.4013 22.9826 19.3497 23.1112L19.3042 23.2242C19.1106 23.7061 19.6232 24.1675 20.0821 23.9244L20.1284 23.8999C20.2627 23.8287 20.4292 23.8721 20.5119 23.9997L20.6288 24.1804C20.8711 24.5546 21.4395 24.4787 21.5749 24.054L21.6368 23.8599C21.6807 23.7224 21.8181 23.6372 21.9607 23.6592L22.1187 23.6834C22.5626 23.7516 22.8835 23.2696 22.6493 22.8864L22.5301 22.6914C22.4533 22.5656 22.4817 22.4024 22.5965 22.31L22.6707 22.2503C23.037 21.9556 22.8805 21.3661 22.4162 21.2919L22.1846 21.2548C22.0513 21.2335 21.9498 21.124 21.9386 20.9895L21.9276 20.8575C21.8869 20.3681 21.279 20.1668 20.9543 20.5352L20.8677 20.6336C20.7761 20.7375 20.6243 20.7632 20.5036 20.6951L20.3017 20.5813C19.9356 20.3749 19.4868 20.6584 19.5159 21.0778L19.5326 21.3186C19.5413 21.4434 19.4699 21.5599 19.3548 21.6088L19.1332 21.703C18.7475 21.867 18.6976 22.3935 19.0456 22.6271Z" fill="url(#paint25_radial_3_1313)"/>
<path d="M19.0456 22.6271L19.241 22.7583C19.356 22.8355 19.4013 22.9826 19.3497 23.1112L19.3042 23.2242C19.1106 23.7061 19.6232 24.1675 20.0821 23.9244L20.1284 23.8999C20.2627 23.8287 20.4292 23.8721 20.5119 23.9997L20.6288 24.1804C20.8711 24.5546 21.4395 24.4787 21.5749 24.054L21.6368 23.8599C21.6807 23.7224 21.8181 23.6372 21.9607 23.6592L22.1187 23.6834C22.5626 23.7516 22.8835 23.2696 22.6493 22.8864L22.5301 22.6914C22.4533 22.5656 22.4817 22.4024 22.5965 22.31L22.6707 22.2503C23.037 21.9556 22.8805 21.3661 22.4162 21.2919L22.1846 21.2548C22.0513 21.2335 21.9498 21.124 21.9386 20.9895L21.9276 20.8575C21.8869 20.3681 21.279 20.1668 20.9543 20.5352L20.8677 20.6336C20.7761 20.7375 20.6243 20.7632 20.5036 20.6951L20.3017 20.5813C19.9356 20.3749 19.4868 20.6584 19.5159 21.0778L19.5326 21.3186C19.5413 21.4434 19.4699 21.5599 19.3548 21.6088L19.1332 21.703C18.7475 21.867 18.6976 22.3935 19.0456 22.6271Z" fill="url(#paint26_radial_3_1313)"/>
<path d="M19.0456 22.6271L19.241 22.7583C19.356 22.8355 19.4013 22.9826 19.3497 23.1112L19.3042 23.2242C19.1106 23.7061 19.6232 24.1675 20.0821 23.9244L20.1284 23.8999C20.2627 23.8287 20.4292 23.8721 20.5119 23.9997L20.6288 24.1804C20.8711 24.5546 21.4395 24.4787 21.5749 24.054L21.6368 23.8599C21.6807 23.7224 21.8181 23.6372 21.9607 23.6592L22.1187 23.6834C22.5626 23.7516 22.8835 23.2696 22.6493 22.8864L22.5301 22.6914C22.4533 22.5656 22.4817 22.4024 22.5965 22.31L22.6707 22.2503C23.037 21.9556 22.8805 21.3661 22.4162 21.2919L22.1846 21.2548C22.0513 21.2335 21.9498 21.124 21.9386 20.9895L21.9276 20.8575C21.8869 20.3681 21.279 20.1668 20.9543 20.5352L20.8677 20.6336C20.7761 20.7375 20.6243 20.7632 20.5036 20.6951L20.3017 20.5813C19.9356 20.3749 19.4868 20.6584 19.5159 21.0778L19.5326 21.3186C19.5413 21.4434 19.4699 21.5599 19.3548 21.6088L19.1332 21.703C18.7475 21.867 18.6976 22.3935 19.0456 22.6271Z" fill="url(#paint27_radial_3_1313)" fill-opacity="0.7"/>
<defs>
<radialGradient id="paint0_radial_3_1313" cx="0" cy="0" r="1" gradientUnits="userSpaceOnUse" gradientTransform="translate(12.5162 7.70716) rotate(-110.468) scale(3.57025 3.46764)">
<stop offset="0.30655" stop-color="#CECDFF"/>
<stop offset="1" stop-color="#B7B6FA"/>
</radialGradient>
<radialGradient id="paint1_radial_3_1313" cx="0" cy="0" r="1" gradientUnits="userSpaceOnUse" gradientTransform="translate(14.0301 6.81021) rotate(-148.811) scale(1.44749 4.81341)">
<stop offset="0.401187" stop-color="#B8B7FF"/>
<stop offset="1" stop-color="#B8B7FF" stop-opacity="0"/>
</radialGradient>
<radialGradient id="paint2_radial_3_1313" cx="0" cy="0" r="1" gradientUnits="userSpaceOnUse" gradientTransform="translate(16.8206 13.4046) rotate(-106.955) scale(12.9726 7.2886)">
<stop stop-color="#D6CCFF"/>
<stop offset="1" stop-color="#D6CCFF" stop-opacity="0"/>
</radialGradient>
<radialGradient id="paint3_radial_3_1313" cx="0" cy="0" r="1" gradientUnits="userSpaceOnUse" gradientTransform="translate(28.6997 7.27592) rotate(147.006) scale(12.0883 13.5028)">
<stop offset="0.352536" stop-color="white" stop-opacity="0.72"/>
<stop offset="1" stop-color="#F2F0FF" stop-opacity="0"/>
</radialGradient>
<radialGradient id="paint4_radial_3_1313" cx="0" cy="0" r="1" gradientUnits="userSpaceOnUse" gradientTransform="translate(11.6756 6.51929) rotate(71.9061) scale(8.03953 2.99718)">
<stop stop-color="#F2F0FF"/>
<stop offset="1" stop-color="#F2F0FF" stop-opacity="0"/>
</radialGradient>
<radialGradient id="paint5_radial_3_1313" cx="0" cy="0" r="1" gradientUnits="userSpaceOnUse" gradientTransform="translate(21.9603 11.0959) rotate(-142.843) scale(15.8289 15.9984)">
<stop offset="0.319632" stop-color="#D4C8FF" stop-opacity="0"/>
<stop offset="0.549037" stop-color="#B8B7FF" stop-opacity="0.83"/>
<stop offset="0.620706" stop-color="#B8B7FF"/>
<stop offset="1" stop-color="#B8B7FF" stop-opacity="0"/>
</radialGradient>
<radialGradient id="paint6_radial_3_1313" cx="0" cy="0" r="1" gradientUnits="userSpaceOnUse" gradientTransform="translate(8.23366 13.3961) rotate(-82.0245) scale(12.074 11.0385)">
<stop offset="0.234093" stop-color="#E3DBFF" stop-opacity="0"/>
<stop offset="0.513917" stop-color="#B8B7FF"/>
<stop offset="1" stop-color="#B8B7FF" stop-opacity="0"/>
</radialGradient>
<radialGradient id="paint7_radial_3_1313" cx="0" cy="0" r="1" gradientUnits="userSpaceOnUse" gradientTransform="translate(15.1022 15.0322) rotate(-113.829) scale(17.3543 17.1313)">
<stop offset="0.127273" stop-color="#D8CDFF" stop-opacity="0.97"/>
<stop offset="0.531027" stop-color="#D8CDFF" stop-opacity="0"/>
</radialGradient>
<radialGradient id="paint8_radial_3_1313" cx="0" cy="0" r="1" gradientUnits="userSpaceOnUse" gradientTransform="translate(10.561 12.7635) rotate(110.136) scale(9.07607 8.92305)">
<stop stop-color="white" stop-opacity="0.88"/>
<stop offset="0.280304" stop-color="white" stop-opacity="0.63"/>
<stop offset="0.656385" stop-color="white" stop-opacity="0"/>
</radialGradient>
<linearGradient id="paint9_linear_3_1313" x1="19.853" y1="21.786" x2="19.225" y2="11.6134" gradientUnits="userSpaceOnUse">
<stop offset="0.0758362" stop-color="#B6B0FF"/>
<stop offset="0.478742" stop-color="#C1BCFE" stop-opacity="0"/>
</linearGradient>
<radialGradient id="paint10_radial_3_1313" cx="0" cy="0" r="1" gradientUnits="userSpaceOnUse" gradientTransform="translate(10.941 28.8187) rotate(-78.2692) scale(1.85722 1.46841)">
<stop offset="0.056668" stop-color="#E0D9FF" stop-opacity="0.99"/>
<stop offset="0.327565" stop-color="#E0D9FF" stop-opacity="0.51"/>
<stop offset="0.676516" stop-color="#CBC4FF" stop-opacity="0"/>
</radialGradient>
<radialGradient id="paint11_radial_3_1313" cx="0" cy="0" r="1" gradientUnits="userSpaceOnUse" gradientTransform="translate(13.4774 28.6105) rotate(-46.5823) scale(1.86171 1.47196)">
<stop offset="0.056668" stop-color="#E0D9FF" stop-opacity="0.99"/>
<stop offset="0.327565" stop-color="#E0D9FF" stop-opacity="0.51"/>
<stop offset="0.676516" stop-color="#CBC4FF" stop-opacity="0"/>
</radialGradient>
<radialGradient id="paint12_radial_3_1313" cx="0" cy="0" r="1" gradientUnits="userSpaceOnUse" gradientTransform="translate(14.6977 26.7417) rotate(-163.058) scale(1.22264 1.37522)">
<stop offset="0.056668" stop-color="white"/>
<stop offset="0.494978" stop-color="#E0D9FF" stop-opacity="0.79"/>
<stop offset="0.676516" stop-color="#CBC4FF" stop-opacity="0.25"/>
</radialGradient>
<radialGradient id="paint13_radial_3_1313" cx="0" cy="0" r="1" gradientUnits="userSpaceOnUse" gradientTransform="translate(9.46751 26.9714) rotate(-5.07112) scale(1.62687 1.82989)">
<stop offset="0.056668" stop-color="#E0D9FF" stop-opacity="0.99"/>
<stop offset="0.277308" stop-color="#E0D9FF" stop-opacity="0.79"/>
<stop offset="0.676516" stop-color="#CBC4FF" stop-opacity="0.25"/>
</radialGradient>
<radialGradient id="paint14_radial_3_1313" cx="0" cy="0" r="1" gradientUnits="userSpaceOnUse" gradientTransform="translate(9.75598 24.6373) rotate(45.4762) scale(1.2752 1.43434)">
<stop offset="0.056668" stop-color="#E0D9FF" stop-opacity="0.99"/>
<stop offset="0.277308" stop-color="#E0D9FF" stop-opacity="0.79"/>
<stop offset="0.676516" stop-color="#CBC4FF" stop-opacity="0.25"/>
</radialGradient>
<radialGradient id="paint15_radial_3_1313" cx="0" cy="0" r="1" gradientUnits="userSpaceOnUse" gradientTransform="translate(11.8609 23.4329) rotate(81.1885) scale(1.26216 1.41967)">
<stop offset="0.056668" stop-color="#E0D9FF" stop-opacity="0.99"/>
<stop offset="0.277308" stop-color="#E0D9FF" stop-opacity="0.79"/>
<stop offset="0.676516" stop-color="#CBC4FF" stop-opacity="0.25"/>
</radialGradient>
<radialGradient id="paint16_radial_3_1313" cx="0" cy="0" r="1" gradientUnits="userSpaceOnUse" gradientTransform="translate(14.2343 24.4574) rotate(132.337) scale(1.35861 1.37657)">
<stop offset="0.056668" stop-color="#E0D9FF" stop-opacity="0.99"/>
<stop offset="0.327565" stop-color="#E0D9FF" stop-opacity="0.51"/>
<stop offset="0.676516" stop-color="#CBC4FF" stop-opacity="0"/>
</radialGradient>
<radialGradient id="paint17_radial_3_1313" cx="0" cy="0" r="1" gradientUnits="userSpaceOnUse" gradientTransform="translate(12.499 25.5213) rotate(141.506) scale(4.70668 4.85271)">
<stop offset="0.0904056" stop-color="#F0EDFF" stop-opacity="0.69"/>
<stop offset="0.160377" stop-color="#F0EDFF" stop-opacity="0.69"/>
<stop offset="0.45283" stop-color="#E0D9FF" stop-opacity="0.51"/>
<stop offset="0.676516" stop-color="#CBC4FF" stop-opacity="0"/>
</radialGradient>
<radialGradient id="paint18_radial_3_1313" cx="0" cy="0" r="1" gradientUnits="userSpaceOnUse" gradientTransform="translate(12.0542 26.156) rotate(140.615) scale(2.48502 2.50693)">
<stop offset="0.644262" stop-color="#E0D9FF" stop-opacity="0"/>
<stop offset="0.824766" stop-color="#CBC4FF" stop-opacity="0.24"/>
<stop offset="1" stop-color="#CBC4FF" stop-opacity="0"/>
</radialGradient>
<radialGradient id="paint19_radial_3_1313" cx="0" cy="0" r="1" gradientUnits="userSpaceOnUse" gradientTransform="translate(21.0975 23.963) rotate(-108.889) scale(1.08936 0.861298)">
<stop offset="0.056668" stop-color="#E0D9FF" stop-opacity="0.99"/>
<stop offset="0.327565" stop-color="#E0D9FF" stop-opacity="0.51"/>
<stop offset="0.676516" stop-color="#CBC4FF" stop-opacity="0"/>
</radialGradient>
<radialGradient id="paint20_radial_3_1313" cx="0" cy="0" r="1" gradientUnits="userSpaceOnUse" gradientTransform="translate(22.3156 23.1002) rotate(-77.2019) scale(1.09199 0.863378)">
<stop offset="0.056668" stop-color="#E0D9FF" stop-opacity="0.99"/>
<stop offset="0.327565" stop-color="#E0D9FF" stop-opacity="0.51"/>
<stop offset="0.676516" stop-color="#CBC4FF" stop-opacity="0"/>
</radialGradient>
<radialGradient id="paint21_radial_3_1313" cx="0" cy="0" r="1" gradientUnits="userSpaceOnUse" gradientTransform="translate(22.3732 21.7923) rotate(166.322) scale(0.71714 0.806635)">
<stop offset="0.056668" stop-color="white"/>
<stop offset="0.494978" stop-color="#E0D9FF" stop-opacity="0.79"/>
<stop offset="0.676516" stop-color="#CBC4FF" stop-opacity="0.25"/>
</radialGradient>
<radialGradient id="paint22_radial_3_1313" cx="0" cy="0" r="1" gradientUnits="userSpaceOnUse" gradientTransform="translate(19.8018 23.4708) rotate(-35.6907) scale(0.95424 1.07332)">
<stop offset="0.056668" stop-color="#E0D9FF" stop-opacity="0.99"/>
<stop offset="0.277308" stop-color="#E0D9FF" stop-opacity="0.79"/>
<stop offset="0.676516" stop-color="#CBC4FF" stop-opacity="0.25"/>
</radialGradient>
<radialGradient id="paint23_radial_3_1313" cx="0" cy="0" r="1" gradientUnits="userSpaceOnUse" gradientTransform="translate(19.2501 22.2064) rotate(14.8566) scale(0.747968 0.841311)">
<stop offset="0.056668" stop-color="#E0D9FF" stop-opacity="0.99"/>
<stop offset="0.277308" stop-color="#E0D9FF" stop-opacity="0.79"/>
<stop offset="0.676516" stop-color="#CBC4FF" stop-opacity="0.25"/>
</radialGradient>
<radialGradient id="paint24_radial_3_1313" cx="0" cy="0" r="1" gradientUnits="userSpaceOnUse" gradientTransform="translate(19.9528 20.9696) rotate(50.569) scale(0.740321 0.832709)">
<stop offset="0.056668" stop-color="#E0D9FF" stop-opacity="0.99"/>
<stop offset="0.277308" stop-color="#E0D9FF" stop-opacity="0.79"/>
<stop offset="0.676516" stop-color="#CBC4FF" stop-opacity="0.25"/>
</radialGradient>
<radialGradient id="paint25_radial_3_1313" cx="0" cy="0" r="1" gradientUnits="userSpaceOnUse" gradientTransform="translate(21.4569 20.7777) rotate(101.717) scale(0.796894 0.80743)">
<stop offset="0.056668" stop-color="#E0D9FF" stop-opacity="0.99"/>
<stop offset="0.327565" stop-color="#E0D9FF" stop-opacity="0.51"/>
<stop offset="0.676516" stop-color="#CBC4FF" stop-opacity="0"/>
</radialGradient>
<radialGradient id="paint26_radial_3_1313" cx="0" cy="0" r="1" gradientUnits="userSpaceOnUse" gradientTransform="translate(20.8988 21.8331) rotate(110.886) scale(2.76071 2.84636)">
<stop offset="0.0904056" stop-color="#F0EDFF" stop-opacity="0.69"/>
<stop offset="0.160377" stop-color="#F0EDFF" stop-opacity="0.69"/>
<stop offset="0.45283" stop-color="#E0D9FF" stop-opacity="0.51"/>
<stop offset="0.676516" stop-color="#CBC4FF" stop-opacity="0"/>
</radialGradient>
<radialGradient id="paint27_radial_3_1313" cx="0" cy="0" r="1" gradientUnits="userSpaceOnUse" gradientTransform="translate(20.8639 22.2864) rotate(109.996) scale(1.45759 1.47044)">
<stop offset="0.644262" stop-color="#E0D9FF" stop-opacity="0"/>
<stop offset="0.824766" stop-color="#CBC4FF" stop-opacity="0.24"/>
<stop offset="1" stop-color="#CBC4FF" stop-opacity="0"/>
</radialGradient>
</defs>
</svg>
