<svg width="32" height="32" viewBox="0 0 32 32" fill="none" xmlns="http://www.w3.org/2000/svg">
<path d="M27 8C25.35 8 24 6.65 24 5C24 3.35 25.35 2 27 2C28.65 2 30 3.35 30 5C30 6.65 28.65 8 27 8ZM27 3.38C26.11 3.38 25.39 4.1 25.39 4.99C25.39 5.88 26.11 6.6 27 6.6C27.89 6.6 28.61 5.88 28.61 4.99C28.61 4.1 27.88 3.38 27 3.38Z" fill="url(#paint0_linear_3_1794)"/>
<path d="M27 8C25.35 8 24 6.65 24 5C24 3.35 25.35 2 27 2C28.65 2 30 3.35 30 5C30 6.65 28.65 8 27 8ZM27 3.38C26.11 3.38 25.39 4.1 25.39 4.99C25.39 5.88 26.11 6.6 27 6.6C27.89 6.6 28.61 5.88 28.61 4.99C28.61 4.1 27.88 3.38 27 3.38Z" fill="url(#paint1_radial_3_1794)"/>
<path d="M27 8C25.35 8 24 6.65 24 5C24 3.35 25.35 2 27 2C28.65 2 30 3.35 30 5C30 6.65 28.65 8 27 8ZM27 3.38C26.11 3.38 25.39 4.1 25.39 4.99C25.39 5.88 26.11 6.6 27 6.6C27.89 6.6 28.61 5.88 28.61 4.99C28.61 4.1 27.88 3.38 27 3.38Z" fill="url(#paint2_radial_3_1794)"/>
<path d="M27 8C25.35 8 24 6.65 24 5C24 3.35 25.35 2 27 2C28.65 2 30 3.35 30 5C30 6.65 28.65 8 27 8ZM27 3.38C26.11 3.38 25.39 4.1 25.39 4.99C25.39 5.88 26.11 6.6 27 6.6C27.89 6.6 28.61 5.88 28.61 4.99C28.61 4.1 27.88 3.38 27 3.38Z" fill="url(#paint3_radial_3_1794)"/>
<path d="M27 8C25.35 8 24 6.65 24 5C24 3.35 25.35 2 27 2C28.65 2 30 3.35 30 5C30 6.65 28.65 8 27 8ZM27 3.38C26.11 3.38 25.39 4.1 25.39 4.99C25.39 5.88 26.11 6.6 27 6.6C27.89 6.6 28.61 5.88 28.61 4.99C28.61 4.1 27.88 3.38 27 3.38Z" fill="url(#paint4_radial_3_1794)"/>
<path d="M27 8C25.35 8 24 6.65 24 5C24 3.35 25.35 2 27 2C28.65 2 30 3.35 30 5C30 6.65 28.65 8 27 8ZM27 3.38C26.11 3.38 25.39 4.1 25.39 4.99C25.39 5.88 26.11 6.6 27 6.6C27.89 6.6 28.61 5.88 28.61 4.99C28.61 4.1 27.88 3.38 27 3.38Z" fill="url(#paint5_radial_3_1794)"/>
<path d="M25.3502 7.99994L23.9902 6.63994L25.3502 5.27994C25.7202 4.90994 26.3302 4.90994 26.7102 5.27994C27.0802 5.64994 27.0802 6.25994 26.7102 6.63994L25.3502 7.99994Z" fill="url(#paint6_radial_3_1794)"/>
<path d="M15.4995 27.9975C21.8494 27.9975 26.997 22.8499 26.997 16.5C26.997 10.1501 21.8494 5.00244 15.4995 5.00244C9.14957 5.00244 4.00195 10.1501 4.00195 16.5C4.00195 22.8499 9.14957 27.9975 15.4995 27.9975Z" fill="url(#paint7_radial_3_1794)"/>
<path d="M15.4995 27.9975C21.8494 27.9975 26.997 22.8499 26.997 16.5C26.997 10.1501 21.8494 5.00244 15.4995 5.00244C9.14957 5.00244 4.00195 10.1501 4.00195 16.5C4.00195 22.8499 9.14957 27.9975 15.4995 27.9975Z" fill="url(#paint8_radial_3_1794)"/>
<path fill-rule="evenodd" clip-rule="evenodd" d="M29 16.5C29 23.9558 22.9558 30 15.5 30C8.04416 30 2 23.9558 2 16.5C2 9.04416 8.04416 3 15.5 3C22.9558 3 29 9.04416 29 16.5ZM26.54 16.5C26.54 22.5972 21.5972 27.54 15.5 27.54C9.40274 27.54 4.45996 22.5972 4.45996 16.5C4.45996 10.4027 9.40274 5.45996 15.5 5.45996C21.5972 5.45996 26.54 10.4027 26.54 16.5Z" fill="url(#paint9_linear_3_1794)"/>
<path fill-rule="evenodd" clip-rule="evenodd" d="M29 16.5C29 23.9558 22.9558 30 15.5 30C8.04416 30 2 23.9558 2 16.5C2 9.04416 8.04416 3 15.5 3C22.9558 3 29 9.04416 29 16.5ZM26.54 16.5C26.54 22.5972 21.5972 27.54 15.5 27.54C9.40274 27.54 4.45996 22.5972 4.45996 16.5C4.45996 10.4027 9.40274 5.45996 15.5 5.45996C21.5972 5.45996 26.54 10.4027 26.54 16.5Z" fill="url(#paint10_radial_3_1794)"/>
<path fill-rule="evenodd" clip-rule="evenodd" d="M29 16.5C29 23.9558 22.9558 30 15.5 30C8.04416 30 2 23.9558 2 16.5C2 9.04416 8.04416 3 15.5 3C22.9558 3 29 9.04416 29 16.5ZM26.54 16.5C26.54 22.5972 21.5972 27.54 15.5 27.54C9.40274 27.54 4.45996 22.5972 4.45996 16.5C4.45996 10.4027 9.40274 5.45996 15.5 5.45996C21.5972 5.45996 26.54 10.4027 26.54 16.5Z" fill="url(#paint11_linear_3_1794)"/>
<path fill-rule="evenodd" clip-rule="evenodd" d="M29 16.5C29 23.9558 22.9558 30 15.5 30C8.04416 30 2 23.9558 2 16.5C2 9.04416 8.04416 3 15.5 3C22.9558 3 29 9.04416 29 16.5ZM26.54 16.5C26.54 22.5972 21.5972 27.54 15.5 27.54C9.40274 27.54 4.45996 22.5972 4.45996 16.5C4.45996 10.4027 9.40274 5.45996 15.5 5.45996C21.5972 5.45996 26.54 10.4027 26.54 16.5Z" fill="url(#paint12_radial_3_1794)"/>
<path fill-rule="evenodd" clip-rule="evenodd" d="M29 16.5C29 23.9558 22.9558 30 15.5 30C8.04416 30 2 23.9558 2 16.5C2 9.04416 8.04416 3 15.5 3C22.9558 3 29 9.04416 29 16.5ZM26.54 16.5C26.54 22.5972 21.5972 27.54 15.5 27.54C9.40274 27.54 4.45996 22.5972 4.45996 16.5C4.45996 10.4027 9.40274 5.45996 15.5 5.45996C21.5972 5.45996 26.54 10.4027 26.54 16.5Z" fill="url(#paint13_radial_3_1794)"/>
<path fill-rule="evenodd" clip-rule="evenodd" d="M29 16.5C29 23.9558 22.9558 30 15.5 30C8.04416 30 2 23.9558 2 16.5C2 9.04416 8.04416 3 15.5 3C22.9558 3 29 9.04416 29 16.5ZM26.54 16.5C26.54 22.5972 21.5972 27.54 15.5 27.54C9.40274 27.54 4.45996 22.5972 4.45996 16.5C4.45996 10.4027 9.40274 5.45996 15.5 5.45996C21.5972 5.45996 26.54 10.4027 26.54 16.5Z" fill="url(#paint14_radial_3_1794)"/>
<path fill-rule="evenodd" clip-rule="evenodd" d="M29 16.5C29 23.9558 22.9558 30 15.5 30C8.04416 30 2 23.9558 2 16.5C2 9.04416 8.04416 3 15.5 3C22.9558 3 29 9.04416 29 16.5ZM26.54 16.5C26.54 22.5972 21.5972 27.54 15.5 27.54C9.40274 27.54 4.45996 22.5972 4.45996 16.5C4.45996 10.4027 9.40274 5.45996 15.5 5.45996C21.5972 5.45996 26.54 10.4027 26.54 16.5Z" fill="url(#paint15_radial_3_1794)"/>
<path d="M17.0799 16.4999L15.7899 8.24994C15.7399 7.91994 15.2599 7.91994 15.2099 8.24994L13.9199 16.4999L15.2099 24.7499C15.2599 25.0799 15.7399 25.0799 15.7899 24.7499L17.0799 16.4999Z" fill="url(#paint16_linear_3_1794)"/>
<path d="M17.0799 16.4999L15.7899 8.24994C15.7399 7.91994 15.2599 7.91994 15.2099 8.24994L13.9199 16.4999L15.2099 24.7499C15.2599 25.0799 15.7399 25.0799 15.7899 24.7499L17.0799 16.4999Z" fill="url(#paint17_radial_3_1794)"/>
<path d="M15.4995 18.0799L23.7495 16.7899C24.0795 16.7399 24.0795 16.2599 23.7495 16.2099L15.4995 14.9199L7.24945 16.2099C6.91945 16.2599 6.91945 16.7399 7.24945 16.7899L15.4995 18.0799Z" fill="url(#paint18_linear_3_1794)"/>
<path d="M15.4995 18.0799L23.7495 16.7899C24.0795 16.7399 24.0795 16.2599 23.7495 16.2099L15.4995 14.9199L7.24945 16.2099C6.91945 16.2599 6.91945 16.7399 7.24945 16.7899L15.4995 18.0799Z" fill="url(#paint19_radial_3_1794)"/>
<path d="M15.4111 15.5146L9.89562 16.3773C9.59863 16.4197 9.59863 16.844 9.89562 16.9005L15.4111 17.7632L20.9265 16.9005C21.2235 16.8581 21.2235 16.4339 20.9265 16.3773L15.4111 15.5146Z" fill="url(#paint20_linear_3_1794)"/>
<path d="M15.4111 15.5146L9.89562 16.3773C9.59863 16.4197 9.59863 16.844 9.89562 16.9005L15.4111 17.7632L20.9265 16.9005C21.2235 16.8581 21.2235 16.4339 20.9265 16.3773L15.4111 15.5146Z" fill="url(#paint21_radial_3_1794)"/>
<ellipse cx="16.6224" cy="20.4716" rx="3.7704" ry="0.449155" transform="rotate(-73.9037 16.6224 20.4716)" fill="url(#paint22_radial_3_1794)"/>
<ellipse cx="16.5826" cy="12.5118" rx="3.7704" ry="0.449155" transform="rotate(-107.996 16.5826 12.5118)" fill="url(#paint23_radial_3_1794)"/>
<path d="M17.8368 16.6392L15.8639 23.8871C15.7367 24.3396 15.1003 24.3396 14.973 23.8871L12.986 16.6392L17.8368 16.6392Z" fill="url(#paint24_linear_3_1794)"/>
<path d="M17.8368 16.6392L15.8639 23.8871C15.7367 24.3396 15.1003 24.3396 14.973 23.8871L12.986 16.6392L17.8368 16.6392Z" fill="url(#paint25_linear_3_1794)"/>
<path d="M17.8368 16.6392L15.8639 23.8871C15.7367 24.3396 15.1003 24.3396 14.973 23.8871L12.986 16.6392L17.8368 16.6392Z" fill="url(#paint26_radial_3_1794)"/>
<path d="M17.8368 16.6392L15.8639 23.8871C15.7367 24.3396 15.1003 24.3396 14.973 23.8871L12.986 16.6392L17.8368 16.6392Z" fill="url(#paint27_linear_3_1794)"/>
<path d="M12.9858 16.6388L14.9727 9.41923C15.1 8.96668 15.7364 8.96668 15.8637 9.41923L17.8365 16.6388L12.9858 16.6388Z" fill="#6B656E"/>
<path d="M12.9858 16.6388L14.9727 9.41923C15.1 8.96668 15.7364 8.96668 15.8637 9.41923L17.8365 16.6388L12.9858 16.6388Z" fill="url(#paint28_linear_3_1794)"/>
<path d="M12.9858 16.6388L14.9727 9.41923C15.1 8.96668 15.7364 8.96668 15.8637 9.41923L17.8365 16.6388L12.9858 16.6388Z" fill="url(#paint29_radial_3_1794)"/>
<path d="M12.9858 16.6388L14.9727 9.41923C15.1 8.96668 15.7364 8.96668 15.8637 9.41923L17.8365 16.6388L12.9858 16.6388Z" fill="url(#paint30_linear_3_1794)"/>
<path d="M17.1289 14.9134C16.1799 13.9644 14.6413 13.9644 13.6924 14.9134C12.7434 15.8624 12.7434 17.4009 13.6924 18.3499C14.6413 19.2989 16.1799 19.2989 17.1289 18.3499C18.0779 17.4009 18.0779 15.8624 17.1289 14.9134Z" fill="url(#paint31_radial_3_1794)"/>
<defs>
<linearGradient id="paint0_linear_3_1794" x1="25.2425" y1="7.49792" x2="30" y2="3.04178" gradientUnits="userSpaceOnUse">
<stop stop-color="#E2881C"/>
<stop offset="1" stop-color="#F6C942"/>
</linearGradient>
<radialGradient id="paint1_radial_3_1794" cx="0" cy="0" r="1" gradientUnits="userSpaceOnUse" gradientTransform="translate(24.6302 6.74298) rotate(-32.0054) scale(6.76952 6.23488)">
<stop offset="0.712329" stop-color="#FFEA6A" stop-opacity="0"/>
<stop offset="0.942173" stop-color="#FFEA6A"/>
</radialGradient>
<radialGradient id="paint2_radial_3_1794" cx="0" cy="0" r="1" gradientUnits="userSpaceOnUse" gradientTransform="translate(27.2887 4.81383) rotate(-48.1396) scale(2.00321 2.04026)">
<stop offset="0.614468" stop-color="#C0813E"/>
<stop offset="1" stop-color="#C0813E" stop-opacity="0"/>
</radialGradient>
<radialGradient id="paint3_radial_3_1794" cx="0" cy="0" r="1" gradientUnits="userSpaceOnUse" gradientTransform="translate(28.0778 3.95896) rotate(134.772) scale(4.64777 4.46393)">
<stop offset="0.709501" stop-color="#CA7412" stop-opacity="0"/>
<stop offset="1" stop-color="#CA7412"/>
</radialGradient>
<radialGradient id="paint4_radial_3_1794" cx="0" cy="0" r="1" gradientUnits="userSpaceOnUse" gradientTransform="translate(24.5279 6.68748) rotate(-112.148) scale(1.40019 3.90267)">
<stop offset="0.0734402" stop-color="#7C3D03"/>
<stop offset="0.735787" stop-color="#7C3D03" stop-opacity="0"/>
</radialGradient>
<radialGradient id="paint5_radial_3_1794" cx="0" cy="0" r="1" gradientUnits="userSpaceOnUse" gradientTransform="translate(25.4341 8) rotate(-3.98039) scale(0.90061 2.51023)">
<stop offset="0.307476" stop-color="#7C3D03"/>
<stop offset="0.735787" stop-color="#7C3D03" stop-opacity="0"/>
</radialGradient>
<radialGradient id="paint6_radial_3_1794" cx="0" cy="0" r="1" gradientUnits="userSpaceOnUse" gradientTransform="translate(26.1062 6.21873) rotate(-135.277) scale(1.14354 2.65509)">
<stop stop-color="#FFE160"/>
<stop offset="0.787818" stop-color="#F3B535"/>
</radialGradient>
<radialGradient id="paint7_radial_3_1794" cx="0" cy="0" r="1" gradientUnits="userSpaceOnUse" gradientTransform="translate(5.20715 11.6953) rotate(20.7627) scale(18.333 24.9855)">
<stop stop-color="#B5AAB3"/>
<stop offset="0.765006" stop-color="#E1D4E4"/>
</radialGradient>
<radialGradient id="paint8_radial_3_1794" cx="0" cy="0" r="1" gradientUnits="userSpaceOnUse" gradientTransform="translate(14.5664 17.5478) rotate(88.0748) scale(13.838)">
<stop offset="0.726247" stop-color="#9F7B89" stop-opacity="0"/>
<stop offset="0.839564" stop-color="#9F7B89" stop-opacity="0.42"/>
<stop offset="0.899027" stop-color="#8C6C79" stop-opacity="0.9"/>
</radialGradient>
<linearGradient id="paint9_linear_3_1794" x1="5.59036" y1="25.8125" x2="24.2154" y2="7.18748" gradientUnits="userSpaceOnUse">
<stop stop-color="#DE8D39"/>
<stop offset="1" stop-color="#EDC14B"/>
</linearGradient>
<radialGradient id="paint10_radial_3_1794" cx="0" cy="0" r="1" gradientUnits="userSpaceOnUse" gradientTransform="translate(15.9062 16.25) rotate(90) scale(13.375)">
<stop offset="0.888973" stop-color="white" stop-opacity="0"/>
<stop offset="0.921296" stop-color="white" stop-opacity="0.2"/>
<stop offset="0.959732" stop-color="white" stop-opacity="0"/>
</radialGradient>
<linearGradient id="paint11_linear_3_1794" x1="24.8438" y1="6.84375" x2="5.8125" y2="25.875" gradientUnits="userSpaceOnUse">
<stop offset="0.184729" stop-color="#E6A842" stop-opacity="0"/>
<stop offset="0.279146" stop-color="#E6A842" stop-opacity="0.893204"/>
<stop offset="0.762726" stop-color="#E6A842"/>
<stop offset="0.875205" stop-color="#E6A842" stop-opacity="0"/>
</linearGradient>
<radialGradient id="paint12_radial_3_1794" cx="0" cy="0" r="1" gradientUnits="userSpaceOnUse" gradientTransform="translate(4.49971 23.9406) rotate(-29.785) scale(28.2295 22.1446)">
<stop offset="0.873189" stop-color="#FFED6A" stop-opacity="0"/>
<stop offset="1" stop-color="#FFED6A"/>
</radialGradient>
<radialGradient id="paint13_radial_3_1794" cx="0" cy="0" r="1" gradientUnits="userSpaceOnUse" gradientTransform="translate(18.5935 10.2718) rotate(119.722) scale(21.8559 17.2879)">
<stop offset="0.873137" stop-color="#B66635" stop-opacity="0"/>
<stop offset="0.974704" stop-color="#B66635"/>
</radialGradient>
<radialGradient id="paint14_radial_3_1794" cx="0" cy="0" r="1" gradientUnits="userSpaceOnUse" gradientTransform="translate(16.1529 16.0625) rotate(-45.8425) scale(12.0221 12.6674)">
<stop offset="0.862629" stop-color="#B88245"/>
<stop offset="0.939433" stop-color="#B88245" stop-opacity="0"/>
</radialGradient>
<radialGradient id="paint15_radial_3_1794" cx="0" cy="0" r="1" gradientUnits="userSpaceOnUse" gradientTransform="translate(31.0511 16.5) rotate(180) scale(29.8039 19.6734)">
<stop offset="0.952381" stop-color="#F58D49" stop-opacity="0"/>
<stop offset="1" stop-color="#F58D49"/>
</radialGradient>
<linearGradient id="paint16_linear_3_1794" x1="15.4999" y1="8.00244" x2="15.4999" y2="24.9974" gradientUnits="userSpaceOnUse">
<stop stop-color="#B6ACB7"/>
<stop offset="1" stop-color="#968C98"/>
</linearGradient>
<radialGradient id="paint17_radial_3_1794" cx="0" cy="0" r="1" gradientUnits="userSpaceOnUse" gradientTransform="translate(14.9966 18.0937) rotate(105.642) scale(1.21695 2.23861)">
<stop offset="0.324704" stop-color="#5F4D63"/>
<stop offset="0.983093" stop-color="#5F4D63" stop-opacity="0"/>
</radialGradient>
<linearGradient id="paint18_linear_3_1794" x1="21.1471" y1="15.9298" x2="8.24203" y2="15.9298" gradientUnits="userSpaceOnUse">
<stop stop-color="#B6ABB8"/>
<stop offset="1" stop-color="#988E9A"/>
</linearGradient>
<radialGradient id="paint19_radial_3_1794" cx="0" cy="0" r="1" gradientUnits="userSpaceOnUse" gradientTransform="translate(14.3798 17.0314) rotate(159.274) scale(1.55648 1.47903)">
<stop offset="0.573163" stop-color="#5F4D63"/>
<stop offset="1" stop-color="#5F4D63" stop-opacity="0"/>
</radialGradient>
<linearGradient id="paint20_linear_3_1794" x1="9.87987" y1="16.3155" x2="21.4017" y2="15.9934" gradientUnits="userSpaceOnUse">
<stop stop-color="#B6ACB8"/>
<stop offset="1" stop-color="#958B97"/>
</linearGradient>
<radialGradient id="paint21_radial_3_1794" cx="0" cy="0" r="1" gradientUnits="userSpaceOnUse" gradientTransform="translate(17.302 16.5915) rotate(-5.85601) scale(0.872566 1.33231)">
<stop offset="0.458686" stop-color="#5F4D63"/>
<stop offset="1" stop-color="#5F4D63" stop-opacity="0"/>
</radialGradient>
<radialGradient id="paint22_radial_3_1794" cx="0" cy="0" r="1" gradientUnits="userSpaceOnUse" gradientTransform="translate(16.6224 20.4716) rotate(90) scale(0.449155 3.7704)">
<stop stop-color="#5F4D63"/>
<stop offset="1" stop-color="#5F4D63" stop-opacity="0"/>
</radialGradient>
<radialGradient id="paint23_radial_3_1794" cx="0" cy="0" r="1" gradientUnits="userSpaceOnUse" gradientTransform="translate(16.5826 12.5118) rotate(90) scale(0.449155 3.7704)">
<stop stop-color="#5F4D63"/>
<stop offset="1" stop-color="#5F4D63" stop-opacity="0"/>
</radialGradient>
<linearGradient id="paint24_linear_3_1794" x1="15.6578" y1="23.5219" x2="16.1372" y2="17.29" gradientUnits="userSpaceOnUse">
<stop stop-color="#E43465"/>
<stop offset="1" stop-color="#E6386A"/>
</linearGradient>
<linearGradient id="paint25_linear_3_1794" x1="16.6174" y1="20.9994" x2="13.6178" y2="20.1776" gradientUnits="userSpaceOnUse">
<stop stop-opacity="0.2"/>
<stop offset="0.089535" stop-opacity="0"/>
</linearGradient>
<radialGradient id="paint26_radial_3_1794" cx="0" cy="0" r="1" gradientUnits="userSpaceOnUse" gradientTransform="translate(15.4962 24.3431) rotate(74.5306) scale(0.394986 0.589094)">
<stop stop-opacity="0.2"/>
<stop offset="1" stop-opacity="0"/>
</radialGradient>
<linearGradient id="paint27_linear_3_1794" x1="14.1836" y1="20.9931" x2="16.6111" y2="20.3644" gradientUnits="userSpaceOnUse">
<stop stop-color="white" stop-opacity="0.35"/>
<stop offset="0.089535" stop-color="white" stop-opacity="0"/>
</linearGradient>
<linearGradient id="paint28_linear_3_1794" x1="16.7924" y1="12.7539" x2="12.8676" y2="13.8162" gradientUnits="userSpaceOnUse">
<stop stop-opacity="0.2"/>
<stop offset="0.089535" stop-opacity="0"/>
</linearGradient>
<radialGradient id="paint29_radial_3_1794" cx="0" cy="0" r="1" gradientUnits="userSpaceOnUse" gradientTransform="translate(15.6861 9.15345) rotate(-47.3798) scale(0.752602 1.12405)">
<stop stop-opacity="0.2"/>
<stop offset="1" stop-opacity="0"/>
</radialGradient>
<linearGradient id="paint30_linear_3_1794" x1="13.9529" y1="13.229" x2="17.1991" y2="14.0986" gradientUnits="userSpaceOnUse">
<stop stop-color="white" stop-opacity="0.35"/>
<stop offset="0.089535" stop-color="white" stop-opacity="0"/>
</linearGradient>
<radialGradient id="paint31_radial_3_1794" cx="0" cy="0" r="1" gradientUnits="userSpaceOnUse" gradientTransform="translate(13.2862 16.1536) rotate(2.29062) scale(4.64886 4.84678)">
<stop stop-color="#C0BCBF"/>
<stop offset="1" stop-color="#856F79"/>
</radialGradient>
</defs>
</svg>
