<svg width="32" height="32" viewBox="0 0 32 32" fill="none" xmlns="http://www.w3.org/2000/svg">
<path d="M27 8C25.35 8 24 6.65 24 5C24 3.35 25.35 2 27 2C28.65 2 30 3.35 30 5C30 6.65 28.65 8 27 8ZM27 3.38C26.11 3.38 25.39 4.1 25.39 4.99C25.39 5.88 26.11 6.6 27 6.6C27.89 6.6 28.61 5.88 28.61 4.99C28.61 4.1 27.88 3.38 27 3.38Z" fill="url(#paint0_linear_3_1807)"/>
<path d="M27 8C25.35 8 24 6.65 24 5C24 3.35 25.35 2 27 2C28.65 2 30 3.35 30 5C30 6.65 28.65 8 27 8ZM27 3.38C26.11 3.38 25.39 4.1 25.39 4.99C25.39 5.88 26.11 6.6 27 6.6C27.89 6.6 28.61 5.88 28.61 4.99C28.61 4.1 27.88 3.38 27 3.38Z" fill="url(#paint1_radial_3_1807)"/>
<path d="M27 8C25.35 8 24 6.65 24 5C24 3.35 25.35 2 27 2C28.65 2 30 3.35 30 5C30 6.65 28.65 8 27 8ZM27 3.38C26.11 3.38 25.39 4.1 25.39 4.99C25.39 5.88 26.11 6.6 27 6.6C27.89 6.6 28.61 5.88 28.61 4.99C28.61 4.1 27.88 3.38 27 3.38Z" fill="url(#paint2_radial_3_1807)"/>
<path d="M27 8C25.35 8 24 6.65 24 5C24 3.35 25.35 2 27 2C28.65 2 30 3.35 30 5C30 6.65 28.65 8 27 8ZM27 3.38C26.11 3.38 25.39 4.1 25.39 4.99C25.39 5.88 26.11 6.6 27 6.6C27.89 6.6 28.61 5.88 28.61 4.99C28.61 4.1 27.88 3.38 27 3.38Z" fill="url(#paint3_radial_3_1807)"/>
<path d="M27 8C25.35 8 24 6.65 24 5C24 3.35 25.35 2 27 2C28.65 2 30 3.35 30 5C30 6.65 28.65 8 27 8ZM27 3.38C26.11 3.38 25.39 4.1 25.39 4.99C25.39 5.88 26.11 6.6 27 6.6C27.89 6.6 28.61 5.88 28.61 4.99C28.61 4.1 27.88 3.38 27 3.38Z" fill="url(#paint4_radial_3_1807)"/>
<path d="M27 8C25.35 8 24 6.65 24 5C24 3.35 25.35 2 27 2C28.65 2 30 3.35 30 5C30 6.65 28.65 8 27 8ZM27 3.38C26.11 3.38 25.39 4.1 25.39 4.99C25.39 5.88 26.11 6.6 27 6.6C27.89 6.6 28.61 5.88 28.61 4.99C28.61 4.1 27.88 3.38 27 3.38Z" fill="url(#paint5_radial_3_1807)"/>
<path d="M25.3502 7.99994L23.9902 6.63994L25.3502 5.27994C25.7202 4.90994 26.3302 4.90994 26.7102 5.27994C27.0802 5.64994 27.0802 6.25994 26.7102 6.63994L25.3502 7.99994Z" fill="url(#paint6_radial_3_1807)"/>
<path d="M15.4995 27.9975C21.8494 27.9975 26.997 22.8499 26.997 16.5C26.997 10.1501 21.8494 5.00244 15.4995 5.00244C9.14957 5.00244 4.00195 10.1501 4.00195 16.5C4.00195 22.8499 9.14957 27.9975 15.4995 27.9975Z" fill="url(#paint7_radial_3_1807)"/>
<path d="M15.4995 27.9975C21.8494 27.9975 26.997 22.8499 26.997 16.5C26.997 10.1501 21.8494 5.00244 15.4995 5.00244C9.14957 5.00244 4.00195 10.1501 4.00195 16.5C4.00195 22.8499 9.14957 27.9975 15.4995 27.9975Z" fill="url(#paint8_radial_3_1807)"/>
<path fill-rule="evenodd" clip-rule="evenodd" d="M29 16.5C29 23.9558 22.9558 30 15.5 30C8.04416 30 2 23.9558 2 16.5C2 9.04416 8.04416 3 15.5 3C22.9558 3 29 9.04416 29 16.5ZM26.54 16.5C26.54 22.5972 21.5972 27.54 15.5 27.54C9.40274 27.54 4.45996 22.5972 4.45996 16.5C4.45996 10.4027 9.40274 5.45996 15.5 5.45996C21.5972 5.45996 26.54 10.4027 26.54 16.5Z" fill="url(#paint9_linear_3_1807)"/>
<path fill-rule="evenodd" clip-rule="evenodd" d="M29 16.5C29 23.9558 22.9558 30 15.5 30C8.04416 30 2 23.9558 2 16.5C2 9.04416 8.04416 3 15.5 3C22.9558 3 29 9.04416 29 16.5ZM26.54 16.5C26.54 22.5972 21.5972 27.54 15.5 27.54C9.40274 27.54 4.45996 22.5972 4.45996 16.5C4.45996 10.4027 9.40274 5.45996 15.5 5.45996C21.5972 5.45996 26.54 10.4027 26.54 16.5Z" fill="url(#paint10_radial_3_1807)"/>
<path fill-rule="evenodd" clip-rule="evenodd" d="M29 16.5C29 23.9558 22.9558 30 15.5 30C8.04416 30 2 23.9558 2 16.5C2 9.04416 8.04416 3 15.5 3C22.9558 3 29 9.04416 29 16.5ZM26.54 16.5C26.54 22.5972 21.5972 27.54 15.5 27.54C9.40274 27.54 4.45996 22.5972 4.45996 16.5C4.45996 10.4027 9.40274 5.45996 15.5 5.45996C21.5972 5.45996 26.54 10.4027 26.54 16.5Z" fill="url(#paint11_linear_3_1807)"/>
<path fill-rule="evenodd" clip-rule="evenodd" d="M29 16.5C29 23.9558 22.9558 30 15.5 30C8.04416 30 2 23.9558 2 16.5C2 9.04416 8.04416 3 15.5 3C22.9558 3 29 9.04416 29 16.5ZM26.54 16.5C26.54 22.5972 21.5972 27.54 15.5 27.54C9.40274 27.54 4.45996 22.5972 4.45996 16.5C4.45996 10.4027 9.40274 5.45996 15.5 5.45996C21.5972 5.45996 26.54 10.4027 26.54 16.5Z" fill="url(#paint12_radial_3_1807)"/>
<path fill-rule="evenodd" clip-rule="evenodd" d="M29 16.5C29 23.9558 22.9558 30 15.5 30C8.04416 30 2 23.9558 2 16.5C2 9.04416 8.04416 3 15.5 3C22.9558 3 29 9.04416 29 16.5ZM26.54 16.5C26.54 22.5972 21.5972 27.54 15.5 27.54C9.40274 27.54 4.45996 22.5972 4.45996 16.5C4.45996 10.4027 9.40274 5.45996 15.5 5.45996C21.5972 5.45996 26.54 10.4027 26.54 16.5Z" fill="url(#paint13_radial_3_1807)"/>
<path fill-rule="evenodd" clip-rule="evenodd" d="M29 16.5C29 23.9558 22.9558 30 15.5 30C8.04416 30 2 23.9558 2 16.5C2 9.04416 8.04416 3 15.5 3C22.9558 3 29 9.04416 29 16.5ZM26.54 16.5C26.54 22.5972 21.5972 27.54 15.5 27.54C9.40274 27.54 4.45996 22.5972 4.45996 16.5C4.45996 10.4027 9.40274 5.45996 15.5 5.45996C21.5972 5.45996 26.54 10.4027 26.54 16.5Z" fill="url(#paint14_radial_3_1807)"/>
<path fill-rule="evenodd" clip-rule="evenodd" d="M29 16.5C29 23.9558 22.9558 30 15.5 30C8.04416 30 2 23.9558 2 16.5C2 9.04416 8.04416 3 15.5 3C22.9558 3 29 9.04416 29 16.5ZM26.54 16.5C26.54 22.5972 21.5972 27.54 15.5 27.54C9.40274 27.54 4.45996 22.5972 4.45996 16.5C4.45996 10.4027 9.40274 5.45996 15.5 5.45996C21.5972 5.45996 26.54 10.4027 26.54 16.5Z" fill="url(#paint15_radial_3_1807)"/>
<path d="M17.0799 16.4999L15.7899 8.24994C15.7399 7.91994 15.2599 7.91994 15.2099 8.24994L13.9199 16.4999L15.2099 24.7499C15.2599 25.0799 15.7399 25.0799 15.7899 24.7499L17.0799 16.4999Z" fill="url(#paint16_linear_3_1807)"/>
<path d="M17.0799 16.4999L15.7899 8.24994C15.7399 7.91994 15.2599 7.91994 15.2099 8.24994L13.9199 16.4999L15.2099 24.7499C15.2599 25.0799 15.7399 25.0799 15.7899 24.7499L17.0799 16.4999Z" fill="url(#paint17_radial_3_1807)"/>
<path d="M15.4995 18.0799L23.7495 16.7899C24.0795 16.7399 24.0795 16.2599 23.7495 16.2099L15.4995 14.9199L7.24945 16.2099C6.91945 16.2599 6.91945 16.7399 7.24945 16.7899L15.4995 18.0799Z" fill="url(#paint18_linear_3_1807)"/>
<path d="M15.4995 18.0799L23.7495 16.7899C24.0795 16.7399 24.0795 16.2599 23.7495 16.2099L15.4995 14.9199L7.24945 16.2099C6.91945 16.2599 6.91945 16.7399 7.24945 16.7899L15.4995 18.0799Z" fill="url(#paint19_radial_3_1807)"/>
<path d="M16.1808 15.8336L11.6708 12.5436C11.4308 12.3636 11.1308 12.6636 11.3008 12.9136L14.5908 17.4236L19.1008 20.7136C19.3408 20.8936 19.6408 20.5936 19.4708 20.3436L16.1808 15.8336Z" fill="url(#paint20_linear_3_1807)"/>
<path d="M16.1808 15.8336L11.6708 12.5436C11.4308 12.3636 11.1308 12.6636 11.3008 12.9136L14.5908 17.4236L19.1008 20.7136C19.3408 20.8936 19.6408 20.5936 19.4708 20.3436L16.1808 15.8336Z" fill="url(#paint21_radial_3_1807)"/>
<ellipse cx="13.5325" cy="20.1954" rx="3.7704" ry="0.449155" transform="rotate(-28.9037 13.5325 20.1954)" fill="url(#paint22_radial_3_1807)"/>
<ellipse cx="19.1331" cy="14.5388" rx="3.7704" ry="0.449155" transform="rotate(-62.9959 19.1331 14.5388)" fill="url(#paint23_radial_3_1807)"/>
<path d="M17.1011 18.3442L10.5811 22.0742C10.1711 22.3042 9.72107 21.8542 9.95107 21.4442L13.6711 14.9142L17.1011 18.3442Z" fill="url(#paint24_linear_3_1807)"/>
<path d="M17.1011 18.3442L10.5811 22.0742C10.1711 22.3042 9.72107 21.8542 9.95107 21.4442L13.6711 14.9142L17.1011 18.3442Z" fill="url(#paint25_linear_3_1807)"/>
<path d="M17.1011 18.3442L10.5811 22.0742C10.1711 22.3042 9.72107 21.8542 9.95107 21.4442L13.6711 14.9142L17.1011 18.3442Z" fill="url(#paint26_radial_3_1807)"/>
<path d="M17.1011 18.3442L10.5811 22.0742C10.1711 22.3042 9.72107 21.8542 9.95107 21.4442L13.6711 14.9142L17.1011 18.3442Z" fill="url(#paint27_linear_3_1807)"/>
<path d="M13.6714 14.9138L20.1814 11.2138C20.5914 10.9838 21.0414 11.4338 20.8114 11.8438L17.1014 18.3438L13.6714 14.9138Z" fill="#6B656E"/>
<path d="M13.6714 14.9138L20.1814 11.2138C20.5914 10.9838 21.0414 11.4338 20.8114 11.8438L17.1014 18.3438L13.6714 14.9138Z" fill="url(#paint28_linear_3_1807)"/>
<path d="M13.6714 14.9138L20.1814 11.2138C20.5914 10.9838 21.0414 11.4338 20.8114 11.8438L17.1014 18.3438L13.6714 14.9138Z" fill="url(#paint29_radial_3_1807)"/>
<path d="M13.6714 14.9138L20.1814 11.2138C20.5914 10.9838 21.0414 11.4338 20.8114 11.8438L17.1014 18.3438L13.6714 14.9138Z" fill="url(#paint30_linear_3_1807)"/>
<path d="M17.8209 16.6234C17.8209 15.2813 16.733 14.1934 15.3909 14.1934C14.0489 14.1934 12.9609 15.2813 12.9609 16.6234C12.9609 17.9654 14.0489 19.0534 15.3909 19.0534C16.733 19.0534 17.8209 17.9654 17.8209 16.6234Z" fill="url(#paint31_radial_3_1807)"/>
<defs>
<linearGradient id="paint0_linear_3_1807" x1="25.2425" y1="7.49792" x2="30" y2="3.04178" gradientUnits="userSpaceOnUse">
<stop stop-color="#E2881C"/>
<stop offset="1" stop-color="#F6C942"/>
</linearGradient>
<radialGradient id="paint1_radial_3_1807" cx="0" cy="0" r="1" gradientUnits="userSpaceOnUse" gradientTransform="translate(24.6302 6.74298) rotate(-32.0054) scale(6.76952 6.23488)">
<stop offset="0.712329" stop-color="#FFEA6A" stop-opacity="0"/>
<stop offset="0.942173" stop-color="#FFEA6A"/>
</radialGradient>
<radialGradient id="paint2_radial_3_1807" cx="0" cy="0" r="1" gradientUnits="userSpaceOnUse" gradientTransform="translate(27.2887 4.81383) rotate(-48.1396) scale(2.00321 2.04026)">
<stop offset="0.614468" stop-color="#C0813E"/>
<stop offset="1" stop-color="#C0813E" stop-opacity="0"/>
</radialGradient>
<radialGradient id="paint3_radial_3_1807" cx="0" cy="0" r="1" gradientUnits="userSpaceOnUse" gradientTransform="translate(28.0778 3.95896) rotate(134.772) scale(4.64777 4.46393)">
<stop offset="0.709501" stop-color="#CA7412" stop-opacity="0"/>
<stop offset="1" stop-color="#CA7412"/>
</radialGradient>
<radialGradient id="paint4_radial_3_1807" cx="0" cy="0" r="1" gradientUnits="userSpaceOnUse" gradientTransform="translate(24.5279 6.68748) rotate(-112.148) scale(1.40019 3.90267)">
<stop offset="0.0734402" stop-color="#7C3D03"/>
<stop offset="0.735787" stop-color="#7C3D03" stop-opacity="0"/>
</radialGradient>
<radialGradient id="paint5_radial_3_1807" cx="0" cy="0" r="1" gradientUnits="userSpaceOnUse" gradientTransform="translate(25.4341 8) rotate(-3.98039) scale(0.90061 2.51023)">
<stop offset="0.307476" stop-color="#7C3D03"/>
<stop offset="0.735787" stop-color="#7C3D03" stop-opacity="0"/>
</radialGradient>
<radialGradient id="paint6_radial_3_1807" cx="0" cy="0" r="1" gradientUnits="userSpaceOnUse" gradientTransform="translate(26.1062 6.21873) rotate(-135.277) scale(1.14354 2.65509)">
<stop stop-color="#FFE160"/>
<stop offset="0.787818" stop-color="#F3B535"/>
</radialGradient>
<radialGradient id="paint7_radial_3_1807" cx="0" cy="0" r="1" gradientUnits="userSpaceOnUse" gradientTransform="translate(5.20715 11.6953) rotate(20.7627) scale(18.333 24.9855)">
<stop stop-color="#B5AAB3"/>
<stop offset="0.765006" stop-color="#E1D4E4"/>
</radialGradient>
<radialGradient id="paint8_radial_3_1807" cx="0" cy="0" r="1" gradientUnits="userSpaceOnUse" gradientTransform="translate(14.5664 17.5478) rotate(88.0748) scale(13.838)">
<stop offset="0.726247" stop-color="#9F7B89" stop-opacity="0"/>
<stop offset="0.839564" stop-color="#9F7B89" stop-opacity="0.42"/>
<stop offset="0.899027" stop-color="#8C6C79" stop-opacity="0.9"/>
</radialGradient>
<linearGradient id="paint9_linear_3_1807" x1="5.59036" y1="25.8125" x2="24.2154" y2="7.18748" gradientUnits="userSpaceOnUse">
<stop stop-color="#DE8D39"/>
<stop offset="1" stop-color="#EDC14B"/>
</linearGradient>
<radialGradient id="paint10_radial_3_1807" cx="0" cy="0" r="1" gradientUnits="userSpaceOnUse" gradientTransform="translate(15.9062 16.25) rotate(90) scale(13.375)">
<stop offset="0.888973" stop-color="white" stop-opacity="0"/>
<stop offset="0.921296" stop-color="white" stop-opacity="0.2"/>
<stop offset="0.959732" stop-color="white" stop-opacity="0"/>
</radialGradient>
<linearGradient id="paint11_linear_3_1807" x1="24.8438" y1="6.84375" x2="5.8125" y2="25.875" gradientUnits="userSpaceOnUse">
<stop offset="0.184729" stop-color="#E6A842" stop-opacity="0"/>
<stop offset="0.279146" stop-color="#E6A842" stop-opacity="0.893204"/>
<stop offset="0.762726" stop-color="#E6A842"/>
<stop offset="0.875205" stop-color="#E6A842" stop-opacity="0"/>
</linearGradient>
<radialGradient id="paint12_radial_3_1807" cx="0" cy="0" r="1" gradientUnits="userSpaceOnUse" gradientTransform="translate(4.49971 23.9406) rotate(-29.785) scale(28.2295 22.1446)">
<stop offset="0.873189" stop-color="#FFED6A" stop-opacity="0"/>
<stop offset="1" stop-color="#FFED6A"/>
</radialGradient>
<radialGradient id="paint13_radial_3_1807" cx="0" cy="0" r="1" gradientUnits="userSpaceOnUse" gradientTransform="translate(18.5935 10.2718) rotate(119.722) scale(21.8559 17.2879)">
<stop offset="0.873137" stop-color="#B66635" stop-opacity="0"/>
<stop offset="0.974704" stop-color="#B66635"/>
</radialGradient>
<radialGradient id="paint14_radial_3_1807" cx="0" cy="0" r="1" gradientUnits="userSpaceOnUse" gradientTransform="translate(16.1529 16.0625) rotate(-45.8425) scale(12.0221 12.6674)">
<stop offset="0.862629" stop-color="#B88245"/>
<stop offset="0.939433" stop-color="#B88245" stop-opacity="0"/>
</radialGradient>
<radialGradient id="paint15_radial_3_1807" cx="0" cy="0" r="1" gradientUnits="userSpaceOnUse" gradientTransform="translate(31.0511 16.5) rotate(180) scale(29.8039 19.6734)">
<stop offset="0.952381" stop-color="#F58D49" stop-opacity="0"/>
<stop offset="1" stop-color="#F58D49"/>
</radialGradient>
<linearGradient id="paint16_linear_3_1807" x1="15.4999" y1="8.00244" x2="15.4999" y2="24.9974" gradientUnits="userSpaceOnUse">
<stop stop-color="#B6ACB7"/>
<stop offset="1" stop-color="#968C98"/>
</linearGradient>
<radialGradient id="paint17_radial_3_1807" cx="0" cy="0" r="1" gradientUnits="userSpaceOnUse" gradientTransform="translate(14.9966 18.0937) rotate(105.642) scale(1.21695 2.23861)">
<stop offset="0.324704" stop-color="#5F4D63"/>
<stop offset="0.983093" stop-color="#5F4D63" stop-opacity="0"/>
</radialGradient>
<linearGradient id="paint18_linear_3_1807" x1="21.1471" y1="15.9298" x2="8.24203" y2="15.9298" gradientUnits="userSpaceOnUse">
<stop stop-color="#B6ABB8"/>
<stop offset="1" stop-color="#988E9A"/>
</linearGradient>
<radialGradient id="paint19_radial_3_1807" cx="0" cy="0" r="1" gradientUnits="userSpaceOnUse" gradientTransform="translate(14.3798 17.0314) rotate(159.274) scale(1.55648 1.47903)">
<stop offset="0.573163" stop-color="#5F4D63"/>
<stop offset="1" stop-color="#5F4D63" stop-opacity="0"/>
</radialGradient>
<linearGradient id="paint20_linear_3_1807" x1="11.7034" y1="12.4888" x2="20.0784" y2="20.4082" gradientUnits="userSpaceOnUse">
<stop stop-color="#B6ACB8"/>
<stop offset="1" stop-color="#958B97"/>
</linearGradient>
<radialGradient id="paint21_radial_3_1807" cx="0" cy="0" r="1" gradientUnits="userSpaceOnUse" gradientTransform="translate(16.7565 17.9321) rotate(39.144) scale(0.872566 1.33231)">
<stop offset="0.458686" stop-color="#5F4D63"/>
<stop offset="1" stop-color="#5F4D63" stop-opacity="0"/>
</radialGradient>
<radialGradient id="paint22_radial_3_1807" cx="0" cy="0" r="1" gradientUnits="userSpaceOnUse" gradientTransform="translate(13.5325 20.1954) rotate(90) scale(0.449155 3.7704)">
<stop stop-color="#5F4D63"/>
<stop offset="1" stop-color="#5F4D63" stop-opacity="0"/>
</radialGradient>
<radialGradient id="paint23_radial_3_1807" cx="0" cy="0" r="1" gradientUnits="userSpaceOnUse" gradientTransform="translate(19.1331 14.5388) rotate(90) scale(0.449155 3.7704)">
<stop stop-color="#5F4D63"/>
<stop offset="1" stop-color="#5F4D63" stop-opacity="0"/>
</radialGradient>
<linearGradient id="paint24_linear_3_1807" x1="10.6936" y1="21.6703" x2="15.4391" y2="17.6026" gradientUnits="userSpaceOnUse">
<stop stop-color="#E43465"/>
<stop offset="1" stop-color="#E6386A"/>
</linearGradient>
<linearGradient id="paint25_linear_3_1807" x1="13.1557" y1="20.5651" x2="11.6158" y2="17.8629" gradientUnits="userSpaceOnUse">
<stop stop-opacity="0.2"/>
<stop offset="0.089535" stop-opacity="0"/>
</linearGradient>
<radialGradient id="paint26_radial_3_1807" cx="0" cy="0" r="1" gradientUnits="userSpaceOnUse" gradientTransform="translate(9.99863 22.1366) rotate(119.531) scale(0.394986 0.589094)">
<stop stop-opacity="0.2"/>
<stop offset="1" stop-opacity="0"/>
</radialGradient>
<linearGradient id="paint27_linear_3_1807" x1="11.4393" y1="18.8397" x2="13.6003" y2="20.1116" gradientUnits="userSpaceOnUse">
<stop stop-color="white" stop-opacity="0.35"/>
<stop offset="0.089535" stop-color="white" stop-opacity="0"/>
</linearGradient>
<linearGradient id="paint28_linear_3_1807" x1="19.1101" y1="14.8584" x2="15.5837" y2="12.8344" gradientUnits="userSpaceOnUse">
<stop stop-opacity="0.2"/>
<stop offset="0.089535" stop-opacity="0"/>
</linearGradient>
<radialGradient id="paint29_radial_3_1807" cx="0" cy="0" r="1" gradientUnits="userSpaceOnUse" gradientTransform="translate(20.8738 11.5303) rotate(-2.37979) scale(0.752602 1.12405)">
<stop stop-opacity="0.2"/>
<stop offset="1" stop-opacity="0"/>
</radialGradient>
<linearGradient id="paint30_linear_3_1807" x1="16.7664" y1="13.1865" x2="18.4468" y2="16.0969" gradientUnits="userSpaceOnUse">
<stop stop-color="white" stop-opacity="0.35"/>
<stop offset="0.089535" stop-color="white" stop-opacity="0"/>
</linearGradient>
<radialGradient id="paint31_radial_3_1807" cx="0" cy="0" r="1" gradientUnits="userSpaceOnUse" gradientTransform="translate(14.2268 14.7831) rotate(47.2906) scale(4.64886 4.84678)">
<stop stop-color="#C0BCBF"/>
<stop offset="1" stop-color="#856F79"/>
</radialGradient>
</defs>
</svg>
