<svg width="40" height="40" viewBox="0 0 40 40" fill="none" xmlns="http://www.w3.org/2000/svg">
<path d="M23.358 31.0693C23.907 30.83 24.1354 30.4796 24.3004 30.2734C25.7821 28.4228 22.6207 22.9297 18.1074 19.7511C13.3238 15.5859 8.05694 14.1666 6.57529 16.0173C6.32098 16.3349 6.12169 16.7676 6.03868 17.2558L3.22618 33.4375C3.12852 35.4101 3.88248 36.1597 4.25979 36.5259C4.9435 37.1895 6.27305 37.7539 7.65977 37.2656C13.0113 35.2051 18.0248 33.3944 23.358 31.0693Z" fill="url(#paint0_linear_3_2693)"/>
<path d="M23.358 31.0693C23.907 30.83 24.1354 30.4796 24.3004 30.2734C25.7821 28.4228 22.6207 22.9297 18.1074 19.7511C13.3238 15.5859 8.05694 14.1666 6.57529 16.0173C6.32098 16.3349 6.12169 16.7676 6.03868 17.2558L3.22618 33.4375C3.12852 35.4101 3.88248 36.1597 4.25979 36.5259C4.9435 37.1895 6.27305 37.7539 7.65977 37.2656C13.0113 35.2051 18.0248 33.3944 23.358 31.0693Z" fill="url(#paint1_linear_3_2693)"/>
<path d="M23.358 31.0693C23.907 30.83 24.1354 30.4796 24.3004 30.2734C25.7821 28.4228 22.6207 22.9297 18.1074 19.7511C13.3238 15.5859 8.05694 14.1666 6.57529 16.0173C6.32098 16.3349 6.12169 16.7676 6.03868 17.2558L3.22618 33.4375C3.12852 35.4101 3.88248 36.1597 4.25979 36.5259C4.9435 37.1895 6.27305 37.7539 7.65977 37.2656C13.0113 35.2051 18.0248 33.3944 23.358 31.0693Z" fill="url(#paint2_linear_3_2693)"/>
<path d="M23.358 31.0693C23.907 30.83 24.1354 30.4796 24.3004 30.2734C25.7821 28.4228 22.6207 22.9297 18.1074 19.7511C13.3238 15.5859 8.05694 14.1666 6.57529 16.0173C6.32098 16.3349 6.12169 16.7676 6.03868 17.2558L3.22618 33.4375C3.12852 35.4101 3.88248 36.1597 4.25979 36.5259C4.9435 37.1895 6.27305 37.7539 7.65977 37.2656C13.0113 35.2051 18.0248 33.3944 23.358 31.0693Z" fill="url(#paint3_linear_3_2693)"/>
<path d="M23.358 31.0693C23.907 30.83 24.1354 30.4796 24.3004 30.2734C25.7821 28.4228 22.6207 22.9297 18.1074 19.7511C13.3238 15.5859 8.05694 14.1666 6.57529 16.0173C6.32098 16.3349 6.12169 16.7676 6.03868 17.2558L3.22618 33.4375C3.12852 35.4101 3.88248 36.1597 4.25979 36.5259C4.9435 37.1895 6.27305 37.7539 7.65977 37.2656C13.0113 35.2051 18.0248 33.3944 23.358 31.0693Z" fill="url(#paint4_radial_3_2693)"/>
<ellipse cx="15.6933" cy="22.7336" rx="10.1628" ry="3.6442" transform="rotate(39.7456 15.6933 22.7336)" fill="url(#paint5_linear_3_2693)"/>
<ellipse cx="15.6933" cy="22.7336" rx="10.1628" ry="3.6442" transform="rotate(39.7456 15.6933 22.7336)" fill="url(#paint6_radial_3_2693)"/>
<ellipse cx="15.6933" cy="22.7336" rx="10.1628" ry="3.6442" transform="rotate(39.7456 15.6933 22.7336)" fill="url(#paint7_radial_3_2693)"/>
<circle cx="18.6951" cy="20" r="1.50391" fill="url(#paint8_radial_3_2693)"/>
<circle cx="18.6951" cy="20" r="1.50391" fill="url(#paint9_radial_3_2693)"/>
<circle cx="31.0388" cy="28.6328" r="1.50391" fill="url(#paint10_radial_3_2693)"/>
<circle cx="31.0388" cy="28.6328" r="1.50391" fill="url(#paint11_radial_3_2693)"/>
<circle cx="31.0388" cy="28.6328" r="1.50391" fill="url(#paint12_radial_3_2693)"/>
<circle cx="29.7791" cy="8.76953" r="1.50391" fill="url(#paint13_radial_3_2693)"/>
<circle cx="29.7791" cy="8.76953" r="1.50391" fill="url(#paint14_radial_3_2693)"/>
<circle cx="12.4885" cy="4.20898" r="1.50391" fill="url(#paint15_radial_3_2693)"/>
<circle cx="12.4885" cy="4.20898" r="1.50391" fill="url(#paint16_radial_3_2693)"/>
<circle cx="12.4885" cy="4.20898" r="1.50391" fill="url(#paint17_radial_3_2693)"/>
<circle cx="6.1604" cy="10.1367" r="1.50391" fill="url(#paint18_radial_3_2693)"/>
<circle cx="6.1604" cy="10.1367" r="1.50391" fill="url(#paint19_radial_3_2693)"/>
<path fill-rule="evenodd" clip-rule="evenodd" d="M23.88 2.60288C24.5352 2.63351 25.0414 3.18942 25.0108 3.84455C24.9686 4.74653 24.8044 6.24911 24.4126 7.85412C24.0851 9.19568 23.5809 10.6837 22.8045 11.9594C22.9922 12.9546 22.9972 14.129 22.7911 15.4644C22.6911 16.1125 22.0846 16.5569 21.4364 16.4568C20.7882 16.3568 20.3439 15.7503 20.4439 15.1021C20.49 14.8033 20.5227 14.5235 20.5438 14.2617C20.3133 14.3819 20.0772 14.4761 19.8362 14.5434C18.8948 14.8064 17.9919 14.6241 17.2857 14.1537C15.9439 13.2598 15.3252 11.3039 16.3638 9.70477C17.3518 8.18356 19.411 7.76997 20.9768 8.85227C21.1574 8.97706 21.3269 9.11767 21.4849 9.2737C21.7347 8.64192 21.9401 7.96779 22.1054 7.29087C22.4568 5.85114 22.6025 4.50156 22.6384 3.73363C22.669 3.0785 23.2249 2.57225 23.88 2.60288ZM20.1961 11.5285C20.0158 11.1531 19.8017 10.9272 19.6264 10.806C19.1365 10.4674 18.5981 10.6251 18.3556 10.9984C18.0956 11.3987 18.2331 11.9311 18.6024 12.1771C18.7517 12.2765 18.9431 12.327 19.1971 12.256C19.427 12.1918 19.7788 12.0053 20.1961 11.5285Z" fill="url(#paint20_linear_3_2693)"/>
<path fill-rule="evenodd" clip-rule="evenodd" d="M23.88 2.60288C24.5352 2.63351 25.0414 3.18942 25.0108 3.84455C24.9686 4.74653 24.8044 6.24911 24.4126 7.85412C24.0851 9.19568 23.5809 10.6837 22.8045 11.9594C22.9922 12.9546 22.9972 14.129 22.7911 15.4644C22.6911 16.1125 22.0846 16.5569 21.4364 16.4568C20.7882 16.3568 20.3439 15.7503 20.4439 15.1021C20.49 14.8033 20.5227 14.5235 20.5438 14.2617C20.3133 14.3819 20.0772 14.4761 19.8362 14.5434C18.8948 14.8064 17.9919 14.6241 17.2857 14.1537C15.9439 13.2598 15.3252 11.3039 16.3638 9.70477C17.3518 8.18356 19.411 7.76997 20.9768 8.85227C21.1574 8.97706 21.3269 9.11767 21.4849 9.2737C21.7347 8.64192 21.9401 7.96779 22.1054 7.29087C22.4568 5.85114 22.6025 4.50156 22.6384 3.73363C22.669 3.0785 23.2249 2.57225 23.88 2.60288ZM20.1961 11.5285C20.0158 11.1531 19.8017 10.9272 19.6264 10.806C19.1365 10.4674 18.5981 10.6251 18.3556 10.9984C18.0956 11.3987 18.2331 11.9311 18.6024 12.1771C18.7517 12.2765 18.9431 12.327 19.1971 12.256C19.427 12.1918 19.7788 12.0053 20.1961 11.5285Z" fill="url(#paint21_radial_3_2693)"/>
<path fill-rule="evenodd" clip-rule="evenodd" d="M23.88 2.60288C24.5352 2.63351 25.0414 3.18942 25.0108 3.84455C24.9686 4.74653 24.8044 6.24911 24.4126 7.85412C24.0851 9.19568 23.5809 10.6837 22.8045 11.9594C22.9922 12.9546 22.9972 14.129 22.7911 15.4644C22.6911 16.1125 22.0846 16.5569 21.4364 16.4568C20.7882 16.3568 20.3439 15.7503 20.4439 15.1021C20.49 14.8033 20.5227 14.5235 20.5438 14.2617C20.3133 14.3819 20.0772 14.4761 19.8362 14.5434C18.8948 14.8064 17.9919 14.6241 17.2857 14.1537C15.9439 13.2598 15.3252 11.3039 16.3638 9.70477C17.3518 8.18356 19.411 7.76997 20.9768 8.85227C21.1574 8.97706 21.3269 9.11767 21.4849 9.2737C21.7347 8.64192 21.9401 7.96779 22.1054 7.29087C22.4568 5.85114 22.6025 4.50156 22.6384 3.73363C22.669 3.0785 23.2249 2.57225 23.88 2.60288ZM20.1961 11.5285C20.0158 11.1531 19.8017 10.9272 19.6264 10.806C19.1365 10.4674 18.5981 10.6251 18.3556 10.9984C18.0956 11.3987 18.2331 11.9311 18.6024 12.1771C18.7517 12.2765 18.9431 12.327 19.1971 12.256C19.427 12.1918 19.7788 12.0053 20.1961 11.5285Z" fill="url(#paint22_radial_3_2693)"/>
<path fill-rule="evenodd" clip-rule="evenodd" d="M23.88 2.60288C24.5352 2.63351 25.0414 3.18942 25.0108 3.84455C24.9686 4.74653 24.8044 6.24911 24.4126 7.85412C24.0851 9.19568 23.5809 10.6837 22.8045 11.9594C22.9922 12.9546 22.9972 14.129 22.7911 15.4644C22.6911 16.1125 22.0846 16.5569 21.4364 16.4568C20.7882 16.3568 20.3439 15.7503 20.4439 15.1021C20.49 14.8033 20.5227 14.5235 20.5438 14.2617C20.3133 14.3819 20.0772 14.4761 19.8362 14.5434C18.8948 14.8064 17.9919 14.6241 17.2857 14.1537C15.9439 13.2598 15.3252 11.3039 16.3638 9.70477C17.3518 8.18356 19.411 7.76997 20.9768 8.85227C21.1574 8.97706 21.3269 9.11767 21.4849 9.2737C21.7347 8.64192 21.9401 7.96779 22.1054 7.29087C22.4568 5.85114 22.6025 4.50156 22.6384 3.73363C22.669 3.0785 23.2249 2.57225 23.88 2.60288ZM20.1961 11.5285C20.0158 11.1531 19.8017 10.9272 19.6264 10.806C19.1365 10.4674 18.5981 10.6251 18.3556 10.9984C18.0956 11.3987 18.2331 11.9311 18.6024 12.1771C18.7517 12.2765 18.9431 12.327 19.1971 12.256C19.427 12.1918 19.7788 12.0053 20.1961 11.5285Z" fill="url(#paint23_radial_3_2693)"/>
<path d="M19.9406 32.5115C16.6832 32.2851 14.3984 31.3102 10.6969 28.2519C7.51258 25.6211 5.93168 23.2871 5.40403 20.9071L4.79272 24.4242C5.04256 25.8008 6.11678 27.7246 8.24568 29.6484C11.0301 32.1646 13.8023 33.9453 16.5439 33.8672C17.6722 33.4266 18.8022 32.9774 19.9406 32.5115Z" fill="url(#paint24_radial_3_2693)"/>
<path d="M13.0711 35.2037C11.5055 35.2909 9.38826 34.0137 7.191 32.1875C5.316 30.5664 4.39112 28.8052 4.19647 27.8549L3.57568 31.4265C3.72923 32.0303 4.19688 32.851 5.55037 34.2383C7.06386 35.7896 8.58586 36.3933 9.4897 36.565C10.131 36.3206 10.7685 36.0785 11.4033 35.8375C11.961 35.6258 12.5167 35.4148 13.0711 35.2037Z" fill="url(#paint25_radial_3_2693)"/>
<path fill-rule="evenodd" clip-rule="evenodd" d="M34.879 16.3858C30.3817 15.5073 27.7242 17.5676 26.8818 18.4917C26.3935 19.0273 25.5634 19.0657 25.0277 18.5774C24.492 18.0891 24.4536 17.2589 24.9419 16.7232C26.248 15.2905 29.7819 12.7155 35.3823 13.8095C36.0937 13.9485 36.5578 14.6379 36.4188 15.3493C36.2798 16.0608 35.5904 16.5248 34.879 16.3858Z" fill="url(#paint26_radial_3_2693)"/>
<path fill-rule="evenodd" clip-rule="evenodd" d="M34.879 16.3858C30.3817 15.5073 27.7242 17.5676 26.8818 18.4917C26.3935 19.0273 25.5634 19.0657 25.0277 18.5774C24.492 18.0891 24.4536 17.2589 24.9419 16.7232C26.248 15.2905 29.7819 12.7155 35.3823 13.8095C36.0937 13.9485 36.5578 14.6379 36.4188 15.3493C36.2798 16.0608 35.5904 16.5248 34.879 16.3858Z" fill="url(#paint27_radial_3_2693)"/>
<path d="M16.0688 10.2644C16.1456 10.0746 16.2426 9.88738 16.3612 9.70479C17.3492 8.18358 19.4084 7.76999 20.9742 8.85229C21.1547 8.97708 21.3243 9.11769 21.4823 9.27371C21.5333 9.14463 21.5825 9.01377 21.6299 8.88149C21.6322 8.88949 21.6345 8.89745 21.6368 8.90536C21.3151 9.91854 20.5934 11.0031 20.1924 11.5264C20.0124 11.1523 19.7987 10.9269 19.6238 10.806C19.1339 10.4674 18.5954 10.6251 18.353 10.9984C18.3435 11.0129 18.3346 11.0276 18.3262 11.0425L16.0688 10.2644Z" fill="url(#paint28_radial_3_2693)"/>
<path d="M16.0688 10.2644C16.1456 10.0746 16.2426 9.88738 16.3612 9.70479C17.3492 8.18358 19.4084 7.76999 20.9742 8.85229C21.1547 8.97708 21.3243 9.11769 21.4823 9.27371C21.5333 9.14463 21.5825 9.01377 21.6299 8.88149C21.6322 8.88949 21.6345 8.89745 21.6368 8.90536C21.3151 9.91854 20.5934 11.0031 20.1924 11.5264C20.0124 11.1523 19.7987 10.9269 19.6238 10.806C19.1339 10.4674 18.5954 10.6251 18.353 10.9984C18.3435 11.0129 18.3346 11.0276 18.3262 11.0425L16.0688 10.2644Z" fill="url(#paint29_radial_3_2693)"/>
<path fill-rule="evenodd" clip-rule="evenodd" d="M17.3019 28.2577C16.4466 27.7848 15.5551 27.2121 14.6584 26.5509C16.0164 24.8677 18.4421 22.66 21.6049 21.0658C26.8017 18.4462 32.5317 19.868 34.8665 20.7936C35.6687 21.1116 36.0612 22.0197 35.7432 22.8219C35.4251 23.6242 34.517 24.0167 33.7148 23.6986C31.7137 22.9053 27.0341 21.8286 23.0115 23.8563C20.3584 25.1937 18.3857 26.9917 17.3019 28.2577Z" fill="url(#paint30_linear_3_2693)"/>
<path fill-rule="evenodd" clip-rule="evenodd" d="M17.3019 28.2577C16.4466 27.7848 15.5551 27.2121 14.6584 26.5509C16.0164 24.8677 18.4421 22.66 21.6049 21.0658C26.8017 18.4462 32.5317 19.868 34.8665 20.7936C35.6687 21.1116 36.0612 22.0197 35.7432 22.8219C35.4251 23.6242 34.517 24.0167 33.7148 23.6986C31.7137 22.9053 27.0341 21.8286 23.0115 23.8563C20.3584 25.1937 18.3857 26.9917 17.3019 28.2577Z" fill="url(#paint31_radial_3_2693)"/>
<path fill-rule="evenodd" clip-rule="evenodd" d="M17.3019 28.2577C16.4466 27.7848 15.5551 27.2121 14.6584 26.5509C16.0164 24.8677 18.4421 22.66 21.6049 21.0658C26.8017 18.4462 32.5317 19.868 34.8665 20.7936C35.6687 21.1116 36.0612 22.0197 35.7432 22.8219C35.4251 23.6242 34.517 24.0167 33.7148 23.6986C31.7137 22.9053 27.0341 21.8286 23.0115 23.8563C20.3584 25.1937 18.3857 26.9917 17.3019 28.2577Z" fill="url(#paint32_radial_3_2693)"/>
<path fill-rule="evenodd" clip-rule="evenodd" d="M17.3019 28.2577C16.4466 27.7848 15.5551 27.2121 14.6584 26.5509C16.0164 24.8677 18.4421 22.66 21.6049 21.0658C26.8017 18.4462 32.5317 19.868 34.8665 20.7936C35.6687 21.1116 36.0612 22.0197 35.7432 22.8219C35.4251 23.6242 34.517 24.0167 33.7148 23.6986C31.7137 22.9053 27.0341 21.8286 23.0115 23.8563C20.3584 25.1937 18.3857 26.9917 17.3019 28.2577Z" fill="url(#paint33_radial_3_2693)"/>
<path fill-rule="evenodd" clip-rule="evenodd" d="M12.7398 8.3167C12.3202 7.56264 11.3687 7.29151 10.6147 7.7111C9.86062 8.1307 9.58948 9.08214 10.0091 9.83621C10.6427 10.9749 11.4229 12.5824 11.5227 14.6522C11.6098 16.4561 11.185 18.7439 9.45801 21.4882C10.0555 22.2791 10.7771 23.0986 11.6025 23.9125C14.0374 20.3707 14.7742 17.1983 14.6441 14.5017C14.5096 11.7131 13.4538 9.59989 12.7398 8.3167Z" fill="url(#paint34_radial_3_2693)"/>
<path fill-rule="evenodd" clip-rule="evenodd" d="M12.7398 8.3167C12.3202 7.56264 11.3687 7.29151 10.6147 7.7111C9.86062 8.1307 9.58948 9.08214 10.0091 9.83621C10.6427 10.9749 11.4229 12.5824 11.5227 14.6522C11.6098 16.4561 11.185 18.7439 9.45801 21.4882C10.0555 22.2791 10.7771 23.0986 11.6025 23.9125C14.0374 20.3707 14.7742 17.1983 14.6441 14.5017C14.5096 11.7131 13.4538 9.59989 12.7398 8.3167Z" fill="url(#paint35_radial_3_2693)"/>
<path d="M22.802 11.9604C22.9896 12.9555 22.9945 14.1295 22.7885 15.4643C22.6885 16.1125 22.0819 16.5568 21.4338 16.4568C20.7856 16.3568 20.3413 15.7502 20.4413 15.1021C20.4873 14.8038 20.52 14.5245 20.541 14.2631C21.7685 13.4925 22.5788 12.4671 22.802 11.9604Z" fill="url(#paint36_radial_3_2693)"/>
<defs>
<linearGradient id="paint0_linear_3_2693" x1="5.27696" y1="24.9804" x2="15.3551" y2="33.7304" gradientUnits="userSpaceOnUse">
<stop stop-color="#B3843C"/>
<stop offset="1" stop-color="#F17A61"/>
</linearGradient>
<linearGradient id="paint1_linear_3_2693" x1="4.16332" y1="26.3346" x2="7.1129" y2="26.9336" gradientUnits="userSpaceOnUse">
<stop stop-color="#B1853B"/>
<stop offset="1" stop-color="#B1853B" stop-opacity="0"/>
</linearGradient>
<linearGradient id="paint2_linear_3_2693" x1="24.6697" y1="29.7851" x2="19.691" y2="30.6055" gradientUnits="userSpaceOnUse">
<stop stop-color="#F9C26C"/>
<stop offset="1" stop-color="#F9C26C" stop-opacity="0"/>
</linearGradient>
<linearGradient id="paint3_linear_3_2693" x1="13.9436" y1="15.4883" x2="10.7457" y2="20.9179" gradientUnits="userSpaceOnUse">
<stop stop-color="#E6BF69"/>
<stop offset="1" stop-color="#E6BF69" stop-opacity="0"/>
</linearGradient>
<radialGradient id="paint4_radial_3_2693" cx="0" cy="0" r="1" gradientUnits="userSpaceOnUse" gradientTransform="translate(15.7538 22.3827) rotate(-49.3383) scale(5.44165 12.7525)">
<stop stop-color="#F5BD55" stop-opacity="0"/>
<stop offset="0.836376" stop-color="#FCCB57"/>
<stop offset="1" stop-color="#FCCB57" stop-opacity="0"/>
</radialGradient>
<linearGradient id="paint5_linear_3_2693" x1="6.43439" y1="22.3308" x2="27.0343" y2="23.3376" gradientUnits="userSpaceOnUse">
<stop stop-color="#F3AB2C"/>
<stop offset="1" stop-color="#B57F1E"/>
</linearGradient>
<radialGradient id="paint6_radial_3_2693" cx="0" cy="0" r="1" gradientUnits="userSpaceOnUse" gradientTransform="translate(10.5671 25.6511) rotate(-109.125) scale(8.09687 2.26784)">
<stop offset="0.423414" stop-color="#CA851E"/>
<stop offset="1" stop-color="#CA851E" stop-opacity="0"/>
</radialGradient>
<radialGradient id="paint7_radial_3_2693" cx="0" cy="0" r="1" gradientUnits="userSpaceOnUse" gradientTransform="translate(19.0444 25.765) rotate(-73.0972) scale(8.13692 4.76506)">
<stop stop-color="#BC7F28"/>
<stop offset="1" stop-color="#BC7F28" stop-opacity="0"/>
</radialGradient>
<radialGradient id="paint8_radial_3_2693" cx="0" cy="0" r="1" gradientUnits="userSpaceOnUse" gradientTransform="translate(19.3591 19.5898) rotate(138.668) scale(2.15889)">
<stop stop-color="#5AC0FF"/>
<stop offset="1" stop-color="#3279B6"/>
</radialGradient>
<radialGradient id="paint9_radial_3_2693" cx="0" cy="0" r="1" gradientUnits="userSpaceOnUse" gradientTransform="translate(18.9909 19.7928) rotate(160.051) scale(2.16798 2.37638)">
<stop offset="0.534713" stop-color="#3A619E" stop-opacity="0"/>
<stop offset="1" stop-color="#3A619E"/>
</radialGradient>
<radialGradient id="paint10_radial_3_2693" cx="0" cy="0" r="1" gradientUnits="userSpaceOnUse" gradientTransform="translate(31.9102 27.9973) rotate(134.569) scale(2.47191)">
<stop stop-color="#FDD46C"/>
<stop offset="1" stop-color="#F09C53"/>
</radialGradient>
<radialGradient id="paint11_radial_3_2693" cx="0" cy="0" r="1" gradientUnits="userSpaceOnUse" gradientTransform="translate(31.3189 27.8659) rotate(100.827) scale(2.44853)">
<stop offset="0.792052" stop-color="#E76260" stop-opacity="0"/>
<stop offset="0.964251" stop-color="#E76260"/>
</radialGradient>
<radialGradient id="paint12_radial_3_2693" cx="0" cy="0" r="1" gradientUnits="userSpaceOnUse" gradientTransform="translate(31.7563 28.881) rotate(-147.558) scale(2.47964 2.92012)">
<stop offset="0.482355" stop-color="#AA885A" stop-opacity="0"/>
<stop offset="0.90682" stop-color="#AA885A"/>
</radialGradient>
<radialGradient id="paint13_radial_3_2693" cx="0" cy="0" r="1" gradientUnits="userSpaceOnUse" gradientTransform="translate(30.856 8.18433) rotate(132.387) scale(2.57515)">
<stop stop-color="#FF46AA"/>
<stop offset="1" stop-color="#E3189D"/>
</radialGradient>
<radialGradient id="paint14_radial_3_2693" cx="0" cy="0" r="1" gradientUnits="userSpaceOnUse" gradientTransform="translate(30.4138 9.04297) rotate(-173.29) scale(2.34025 3.13198)">
<stop offset="0.522105" stop-color="#B63173" stop-opacity="0"/>
<stop offset="1" stop-color="#B63173"/>
</radialGradient>
<radialGradient id="paint15_radial_3_2693" cx="0" cy="0" r="1" gradientUnits="userSpaceOnUse" gradientTransform="translate(13.4739 3.60699) rotate(139.574) scale(2.30148)">
<stop stop-color="#FFF46F"/>
<stop offset="1" stop-color="#EFB93C"/>
</radialGradient>
<radialGradient id="paint16_radial_3_2693" cx="0" cy="0" r="1" gradientUnits="userSpaceOnUse" gradientTransform="translate(13.1448 3.96545) rotate(-178.519) scale(2.39329 2.27872)">
<stop offset="0.558644" stop-color="#AA904B" stop-opacity="0"/>
<stop offset="0.943632" stop-color="#AA904B"/>
</radialGradient>
<radialGradient id="paint17_radial_3_2693" cx="0" cy="0" r="1" gradientUnits="userSpaceOnUse" gradientTransform="translate(12.8746 3.35938) rotate(102.339) scale(2.55912)">
<stop offset="0.771901" stop-color="#C47072" stop-opacity="0"/>
<stop offset="1" stop-color="#C47072"/>
</radialGradient>
<radialGradient id="paint18_radial_3_2693" cx="0" cy="0" r="1" gradientUnits="userSpaceOnUse" gradientTransform="translate(7.23737 9.55152) rotate(132.387) scale(2.57515)">
<stop stop-color="#FF46AA"/>
<stop offset="1" stop-color="#E3189D"/>
</radialGradient>
<radialGradient id="paint19_radial_3_2693" cx="0" cy="0" r="1" gradientUnits="userSpaceOnUse" gradientTransform="translate(6.79517 10.4102) rotate(-173.29) scale(2.34025 3.13198)">
<stop offset="0.522105" stop-color="#B63173" stop-opacity="0"/>
<stop offset="1" stop-color="#B63173"/>
</radialGradient>
<linearGradient id="paint20_linear_3_2693" x1="23.8278" y1="2.60156" x2="18.2255" y2="16.0286" gradientUnits="userSpaceOnUse">
<stop stop-color="#20B2EE"/>
<stop offset="1" stop-color="#2689DA"/>
</linearGradient>
<radialGradient id="paint21_radial_3_2693" cx="0" cy="0" r="1" gradientUnits="userSpaceOnUse" gradientTransform="translate(22.5982 6.96332) rotate(128.217) scale(9.7008 5.93375)">
<stop offset="0.80204" stop-color="#4274D2" stop-opacity="0"/>
<stop offset="0.950917" stop-color="#4274D2"/>
</radialGradient>
<radialGradient id="paint22_radial_3_2693" cx="0" cy="0" r="1" gradientUnits="userSpaceOnUse" gradientTransform="translate(22.1129 5.83986) rotate(12.0948) scale(1.39822 4.69394)">
<stop stop-color="#4D8EC0"/>
<stop offset="1" stop-color="#4D8EC0" stop-opacity="0"/>
</radialGradient>
<radialGradient id="paint23_radial_3_2693" cx="0" cy="0" r="1" gradientUnits="userSpaceOnUse" gradientTransform="translate(24.8864 2.81252) rotate(141.953) scale(1.7113 1.53857)">
<stop stop-color="#5ADEFF"/>
<stop offset="1" stop-color="#5ADEFF" stop-opacity="0"/>
</radialGradient>
<radialGradient id="paint24_radial_3_2693" cx="0" cy="0" r="1" gradientUnits="userSpaceOnUse" gradientTransform="translate(14.0269 31.3476) rotate(133.21) scale(5.30589 11.6169)">
<stop stop-color="#3365FF"/>
<stop offset="1" stop-color="#356DB9"/>
</radialGradient>
<radialGradient id="paint25_radial_3_2693" cx="0" cy="0" r="1" gradientUnits="userSpaceOnUse" gradientTransform="translate(9.26131 35.0195) rotate(131.598) scale(3.27521 8.28492)">
<stop stop-color="#3365FF"/>
<stop offset="1" stop-color="#356DB9"/>
</radialGradient>
<radialGradient id="paint26_radial_3_2693" cx="0" cy="0" r="1" gradientUnits="userSpaceOnUse" gradientTransform="translate(34.4177 14.8633) rotate(168.283) scale(5.38567 2.00927)">
<stop stop-color="#FF3BA9"/>
<stop offset="1" stop-color="#F422A7"/>
</radialGradient>
<radialGradient id="paint27_radial_3_2693" cx="0" cy="0" r="1" gradientUnits="userSpaceOnUse" gradientTransform="translate(30.5214 19.1602) rotate(-127.355) scale(5.55301 9.89659)">
<stop offset="0.752144" stop-color="#B8306F" stop-opacity="0"/>
<stop offset="1" stop-color="#B8306F"/>
</radialGradient>
<radialGradient id="paint28_radial_3_2693" cx="0" cy="0" r="1" gradientUnits="userSpaceOnUse" gradientTransform="translate(21.2834 11.6767) rotate(-131.325) scale(3.68091 2.75152)">
<stop stop-color="#336BAF"/>
<stop offset="1" stop-color="#336BAF" stop-opacity="0"/>
</radialGradient>
<radialGradient id="paint29_radial_3_2693" cx="0" cy="0" r="1" gradientUnits="userSpaceOnUse" gradientTransform="translate(21.6368 9.31631) rotate(-127.657) scale(2.31889 0.93951)">
<stop stop-color="#49A4D4"/>
<stop offset="1" stop-color="#49A4D4" stop-opacity="0"/>
</radialGradient>
<linearGradient id="paint30_linear_3_2693" x1="18.0629" y1="27.1187" x2="34.8243" y2="22.726" gradientUnits="userSpaceOnUse">
<stop stop-color="#3797E2"/>
<stop offset="1" stop-color="#37AEFF"/>
</linearGradient>
<radialGradient id="paint31_radial_3_2693" cx="0" cy="0" r="1" gradientUnits="userSpaceOnUse" gradientTransform="translate(24.2628 29.8594) rotate(-129.838) scale(9.97502 25.0045)">
<stop offset="0.622552" stop-color="#526579" stop-opacity="0"/>
<stop offset="0.962126" stop-color="#526579"/>
</radialGradient>
<radialGradient id="paint32_radial_3_2693" cx="0" cy="0" r="1" gradientUnits="userSpaceOnUse" gradientTransform="translate(29.8652 24.4759) rotate(94.3987) scale(3.42401 6.88399)">
<stop offset="0.396078" stop-color="#6972FF"/>
<stop offset="1" stop-color="#6972FF" stop-opacity="0"/>
</radialGradient>
<radialGradient id="paint33_radial_3_2693" cx="0" cy="0" r="1" gradientUnits="userSpaceOnUse" gradientTransform="translate(34.9423 21.5981) rotate(-68.8187) scale(0.938788 0.740343)">
<stop stop-color="#55BFFF"/>
<stop offset="1" stop-color="#55BFFF" stop-opacity="0"/>
</radialGradient>
<radialGradient id="paint34_radial_3_2693" cx="0" cy="0" r="1" gradientUnits="userSpaceOnUse" gradientTransform="translate(13.5546 8.04533) rotate(99.4229) scale(9.1398 3.42413)">
<stop stop-color="#FF3AAA"/>
<stop offset="1" stop-color="#FD2F89"/>
</radialGradient>
<radialGradient id="paint35_radial_3_2693" cx="0" cy="0" r="1" gradientUnits="userSpaceOnUse" gradientTransform="translate(8.78264 17.4701) rotate(31.1757) scale(6.01057 18.8629)">
<stop offset="0.803698" stop-color="#DB2C6E" stop-opacity="0"/>
<stop offset="1" stop-color="#DB2C6E"/>
</radialGradient>
<radialGradient id="paint36_radial_3_2693" cx="0" cy="0" r="1" gradientUnits="userSpaceOnUse" gradientTransform="translate(22.3047 14.2157) rotate(98.0559) scale(4.42172 2.46089)">
<stop stop-color="#4AB5F8"/>
<stop offset="1" stop-color="#4AB5F8" stop-opacity="0"/>
</radialGradient>
</defs>
</svg>
