<svg width="40" height="41" viewBox="0 0 40 41" fill="none" xmlns="http://www.w3.org/2000/svg">
<g id="Emoji/Droplet">
<g id="Vector">
<path d="M22.8091 4.71332C21.571 2.40082 18.2319 2.40082 17.0063 4.71332L9.16504 19.4633C4.36272 27.6883 10.3531 37.9758 19.9327 37.9758H20.1954C29.6374 37.9758 35.5278 27.8508 30.813 19.7508L22.8091 4.71332Z" fill="url(#paint0_radial_8_3276)"/>
<path d="M22.8091 4.71332C21.571 2.40082 18.2319 2.40082 17.0063 4.71332L9.16504 19.4633C4.36272 27.6883 10.3531 37.9758 19.9327 37.9758H20.1954C29.6374 37.9758 35.5278 27.8508 30.813 19.7508L22.8091 4.71332Z" fill="url(#paint1_linear_8_3276)"/>
<path d="M22.8091 4.71332C21.571 2.40082 18.2319 2.40082 17.0063 4.71332L9.16504 19.4633C4.36272 27.6883 10.3531 37.9758 19.9327 37.9758H20.1954C29.6374 37.9758 35.5278 27.8508 30.813 19.7508L22.8091 4.71332Z" fill="url(#paint2_radial_8_3276)"/>
<path d="M22.8091 4.71332C21.571 2.40082 18.2319 2.40082 17.0063 4.71332L9.16504 19.4633C4.36272 27.6883 10.3531 37.9758 19.9327 37.9758H20.1954C29.6374 37.9758 35.5278 27.8508 30.813 19.7508L22.8091 4.71332Z" fill="url(#paint3_radial_8_3276)"/>
</g>
<g id="Vector_2">
<path d="M22.8091 4.71332C21.571 2.40082 18.2319 2.40082 17.0063 4.71332L9.16504 19.4633C4.36272 27.6883 10.3531 37.9758 19.9327 37.9758H20.1954C29.6374 37.9758 35.5278 27.8508 30.813 19.7508L22.8091 4.71332Z" fill="url(#paint4_radial_8_3276)"/>
<path d="M22.8091 4.71332C21.571 2.40082 18.2319 2.40082 17.0063 4.71332L9.16504 19.4633C4.36272 27.6883 10.3531 37.9758 19.9327 37.9758H20.1954C29.6374 37.9758 35.5278 27.8508 30.813 19.7508L22.8091 4.71332Z" fill="url(#paint5_radial_8_3276)"/>
<path d="M22.8091 4.71332C21.571 2.40082 18.2319 2.40082 17.0063 4.71332L9.16504 19.4633C4.36272 27.6883 10.3531 37.9758 19.9327 37.9758H20.1954C29.6374 37.9758 35.5278 27.8508 30.813 19.7508L22.8091 4.71332Z" fill="url(#paint6_radial_8_3276)" fill-opacity="0.74"/>
<path d="M22.8091 4.71332C21.571 2.40082 18.2319 2.40082 17.0063 4.71332L9.16504 19.4633C4.36272 27.6883 10.3531 37.9758 19.9327 37.9758H20.1954C29.6374 37.9758 35.5278 27.8508 30.813 19.7508L22.8091 4.71332Z" fill="url(#paint7_radial_8_3276)" fill-opacity="0.56"/>
<path d="M22.8091 4.71332C21.571 2.40082 18.2319 2.40082 17.0063 4.71332L9.16504 19.4633C4.36272 27.6883 10.3531 37.9758 19.9327 37.9758H20.1954C29.6374 37.9758 35.5278 27.8508 30.813 19.7508L22.8091 4.71332Z" fill="url(#paint8_radial_8_3276)" fill-opacity="0.56"/>
<path d="M22.8091 4.71332C21.571 2.40082 18.2319 2.40082 17.0063 4.71332L9.16504 19.4633C4.36272 27.6883 10.3531 37.9758 19.9327 37.9758H20.1954C29.6374 37.9758 35.5278 27.8508 30.813 19.7508L22.8091 4.71332Z" fill="url(#paint9_linear_8_3276)" fill-opacity="0.3"/>
<path d="M22.8091 4.71332C21.571 2.40082 18.2319 2.40082 17.0063 4.71332L9.16504 19.4633C4.36272 27.6883 10.3531 37.9758 19.9327 37.9758H20.1954C29.6374 37.9758 35.5278 27.8508 30.813 19.7508L22.8091 4.71332Z" fill="url(#paint10_radial_8_3276)" fill-opacity="0.64"/>
</g>
</g>
<defs>
<radialGradient id="paint0_radial_8_3276" cx="0" cy="0" r="1" gradientUnits="userSpaceOnUse" gradientTransform="translate(27.3892 7.59466) rotate(112.428) scale(36.0273 22.603)">
<stop stop-color="#7ADEFF"/>
<stop offset="0.478924" stop-color="#6CCEFF"/>
<stop offset="1" stop-color="#6E99FF"/>
</radialGradient>
<linearGradient id="paint1_linear_8_3276" x1="-0.374201" y1="8.76652" x2="15.7654" y2="17.2536" gradientUnits="userSpaceOnUse">
<stop offset="0.726" stop-color="#6C92BA"/>
<stop offset="0.893148" stop-color="#71BFE8" stop-opacity="0.38"/>
<stop offset="0.975738" stop-color="#71BFE8" stop-opacity="0"/>
</linearGradient>
<radialGradient id="paint2_radial_8_3276" cx="0" cy="0" r="1" gradientUnits="userSpaceOnUse" gradientTransform="translate(16.3451 3.50234) rotate(52.1999) scale(4.57016 16.8236)">
<stop offset="0.141915" stop-color="#6C92BA"/>
<stop offset="0.617745" stop-color="#71BFE8" stop-opacity="0"/>
<stop offset="0.994231" stop-color="#71BFE8" stop-opacity="0"/>
</radialGradient>
<radialGradient id="paint3_radial_8_3276" cx="0" cy="0" r="1" gradientUnits="userSpaceOnUse" gradientTransform="translate(18.6747 1.07595) rotate(85.5344) scale(6.05591 22.2929)">
<stop offset="0.217069" stop-color="#6C92BA"/>
<stop offset="0.664131" stop-color="#71BFE8" stop-opacity="0"/>
<stop offset="0.869792" stop-color="#71BFE8" stop-opacity="0"/>
<stop offset="1" stop-color="#71BFE8" stop-opacity="0"/>
</radialGradient>
<radialGradient id="paint4_radial_8_3276" cx="0" cy="0" r="1" gradientUnits="userSpaceOnUse" gradientTransform="translate(24.6596 11.0915) rotate(109.959) scale(29.857 22.7662)">
<stop offset="0.572331" stop-color="#7778FF" stop-opacity="0"/>
<stop offset="1" stop-color="#7778FF"/>
</radialGradient>
<radialGradient id="paint5_radial_8_3276" cx="0" cy="0" r="1" gradientUnits="userSpaceOnUse" gradientTransform="translate(29.6242 24.0222) rotate(137.203) scale(12.3363 14.8427)">
<stop stop-color="#84C8FF"/>
<stop offset="1" stop-color="#84C8FF" stop-opacity="0"/>
</radialGradient>
<radialGradient id="paint6_radial_8_3276" cx="0" cy="0" r="1" gradientUnits="userSpaceOnUse" gradientTransform="translate(25.1302 21.247) rotate(153.297) scale(13.0666 15.6194)">
<stop stop-color="#8BEFFF"/>
<stop offset="0.543155" stop-color="#8BEFFF" stop-opacity="0.13"/>
<stop offset="1" stop-color="#8BEFFF" stop-opacity="0"/>
</radialGradient>
<radialGradient id="paint7_radial_8_3276" cx="0" cy="0" r="1" gradientUnits="userSpaceOnUse" gradientTransform="translate(25.5677 20.3288) rotate(168.003) scale(12.5233 15.3639)">
<stop stop-color="#8BEFFF"/>
<stop offset="0.337108" stop-color="#8BEFFF" stop-opacity="0.28"/>
<stop offset="0.727397" stop-color="#70C8FF" stop-opacity="0"/>
<stop offset="1" stop-color="#70C8FF" stop-opacity="0"/>
</radialGradient>
<radialGradient id="paint8_radial_8_3276" cx="0" cy="0" r="1" gradientUnits="userSpaceOnUse" gradientTransform="translate(22.8194 12.0315) rotate(80.3112) scale(13.5041 8.04263)">
<stop offset="0.0218556" stop-color="#8BEFFF"/>
<stop offset="0.516071" stop-color="#8BEFFF" stop-opacity="0.28"/>
<stop offset="0.842965" stop-color="#70C8FF" stop-opacity="0"/>
<stop offset="1" stop-color="#70C8FF" stop-opacity="0"/>
</radialGradient>
<linearGradient id="paint9_linear_8_3276" x1="29.5572" y1="13.659" x2="22.2375" y2="17.9001" gradientUnits="userSpaceOnUse">
<stop offset="0.139913" stop-color="#7584F7"/>
<stop offset="0.298646" stop-color="#7584F7" stop-opacity="0.33"/>
<stop offset="0.472068" stop-color="#89EBFF" stop-opacity="0"/>
</linearGradient>
<radialGradient id="paint10_radial_8_3276" cx="0" cy="0" r="1" gradientUnits="userSpaceOnUse" gradientTransform="translate(30.4622 32.7274) rotate(-137.291) scale(6.60951 35.0382)">
<stop stop-color="#7584F7"/>
<stop offset="0.671712" stop-color="#7584F7" stop-opacity="0.17"/>
<stop offset="1" stop-color="#7584F7" stop-opacity="0"/>
</radialGradient>
</defs>
</svg>
