<svg width="40" height="40" viewBox="0 0 40 40" fill="none" xmlns="http://www.w3.org/2000/svg">
<g id="House">
<g id="Chimney">
<path d="M7.61499 5.44766C7.61499 5.25436 7.77169 5.09766 7.96499 5.09766H12.3259C12.5192 5.09766 12.6759 5.25436 12.6759 5.44766V18.4134H7.61499V5.44766Z" fill="url(#paint0_radial_7_2773)"/>
<path d="M7.61499 5.44766C7.61499 5.25436 7.77169 5.09766 7.96499 5.09766H12.3259C12.5192 5.09766 12.6759 5.25436 12.6759 5.44766V18.4134H7.61499V5.44766Z" fill="url(#paint1_linear_7_2773)"/>
<path d="M7.61499 5.44766C7.61499 5.25436 7.77169 5.09766 7.96499 5.09766H12.3259C12.5192 5.09766 12.6759 5.25436 12.6759 5.44766V18.4134H7.61499V5.44766Z" fill="url(#paint2_linear_7_2773)"/>
<path d="M7.61499 5.44766C7.61499 5.25436 7.77169 5.09766 7.96499 5.09766H12.3259C12.5192 5.09766 12.6759 5.25436 12.6759 5.44766V18.4134H7.61499V5.44766Z" fill="url(#paint3_linear_7_2773)"/>
<path d="M7.61499 5.44766C7.61499 5.25436 7.77169 5.09766 7.96499 5.09766H12.3259C12.5192 5.09766 12.6759 5.25436 12.6759 5.44766V18.4134H7.61499V5.44766Z" fill="url(#paint4_radial_7_2773)"/>
</g>
<g id="House_2">
<path d="M34.5704 36.4492H5.80078V19.6478L20.1856 6.20667L34.5704 19.6478V36.4492Z" fill="url(#paint5_linear_7_2773)"/>
<path d="M34.5704 36.4492H5.80078V19.6478L20.1856 6.20667L34.5704 19.6478V36.4492Z" fill="url(#paint6_linear_7_2773)"/>
<path d="M34.5704 36.4492H5.80078V19.6478L20.1856 6.20667L34.5704 19.6478V36.4492Z" fill="url(#paint7_radial_7_2773)"/>
<path d="M34.5704 36.4492H5.80078V19.6478L20.1856 6.20667L34.5704 19.6478V36.4492Z" fill="url(#paint8_linear_7_2773)"/>
<path d="M34.5704 36.4492H5.80078V19.6478L20.1856 6.20667L34.5704 19.6478V36.4492Z" fill="url(#paint9_radial_7_2773)"/>
<path d="M34.5704 36.4492H5.80078V19.6478L20.1856 6.20667L34.5704 19.6478V36.4492Z" fill="url(#paint10_linear_7_2773)"/>
<path d="M34.5704 36.4492H5.80078V19.6478L20.1856 6.20667L34.5704 19.6478V36.4492Z" fill="url(#paint11_linear_7_2773)"/>
<path d="M34.5704 36.4492H5.80078V19.6478L20.1856 6.20667L34.5704 19.6478V36.4492Z" fill="url(#paint12_radial_7_2773)"/>
<path d="M34.5704 36.4492H5.80078V19.6478L20.1856 6.20667L34.5704 19.6478V36.4492Z" fill="url(#paint13_radial_7_2773)"/>
<path d="M34.5704 36.4492H5.80078V19.6478L20.1856 6.20667L34.5704 19.6478V36.4492Z" fill="url(#paint14_linear_7_2773)"/>
<path d="M34.5704 36.4492H5.80078V19.6478L20.1856 6.20667L34.5704 19.6478V36.4492Z" fill="url(#paint15_radial_7_2773)"/>
</g>
<g id="Window">
<path d="M29.5615 27.3301H24.3261C23.7383 27.3301 23.2791 26.8524 23.2791 26.2829V21.0472C23.2791 20.4593 23.7567 20 24.3261 20H29.5615C30.1493 20 30.6086 20.4776 30.6086 21.0472V26.2829C30.6086 26.8708 30.1493 27.3301 29.5615 27.3301Z" fill="url(#paint16_linear_7_2773)"/>
<path d="M29.5615 27.3301H24.3261C23.7383 27.3301 23.2791 26.8524 23.2791 26.2829V21.0472C23.2791 20.4593 23.7567 20 24.3261 20H29.5615C30.1493 20 30.6086 20.4776 30.6086 21.0472V26.2829C30.6086 26.8708 30.1493 27.3301 29.5615 27.3301Z" fill="url(#paint17_linear_7_2773)"/>
<path d="M29.5615 27.3301H24.3261C23.7383 27.3301 23.2791 26.8524 23.2791 26.2829V21.0472C23.2791 20.4593 23.7567 20 24.3261 20H29.5615C30.1493 20 30.6086 20.4776 30.6086 21.0472V26.2829C30.6086 26.8708 30.1493 27.3301 29.5615 27.3301Z" fill="url(#paint18_linear_7_2773)"/>
<path d="M29.5615 27.3301H24.3261C23.7383 27.3301 23.2791 26.8524 23.2791 26.2829V21.0472C23.2791 20.4593 23.7567 20 24.3261 20H29.5615C30.1493 20 30.6086 20.4776 30.6086 21.0472V26.2829C30.6086 26.8708 30.1493 27.3301 29.5615 27.3301Z" fill="url(#paint19_linear_7_2773)"/>
<path d="M29.5615 27.3301H24.3261C23.7383 27.3301 23.2791 26.8524 23.2791 26.2829V21.0472C23.2791 20.4593 23.7567 20 24.3261 20H29.5615C30.1493 20 30.6086 20.4776 30.6086 21.0472V26.2829C30.6086 26.8708 30.1493 27.3301 29.5615 27.3301Z" fill="url(#paint20_linear_7_2773)"/>
<path d="M29.5615 27.3301H24.3261C23.7383 27.3301 23.2791 26.8524 23.2791 26.2829V21.0472C23.2791 20.4593 23.7567 20 24.3261 20H29.5615C30.1493 20 30.6086 20.4776 30.6086 21.0472V26.2829C30.6086 26.8708 30.1493 27.3301 29.5615 27.3301Z" fill="url(#paint21_linear_7_2773)"/>
<path d="M29.5615 27.3301H24.3261C23.7383 27.3301 23.2791 26.8524 23.2791 26.2829V21.0472C23.2791 20.4593 23.7567 20 24.3261 20H29.5615C30.1493 20 30.6086 20.4776 30.6086 21.0472V26.2829C30.6086 26.8708 30.1493 27.3301 29.5615 27.3301Z" fill="url(#paint22_linear_7_2773)"/>
<path d="M29.5615 27.3301H24.3261C23.7383 27.3301 23.2791 26.8524 23.2791 26.2829V21.0472C23.2791 20.4593 23.7567 20 24.3261 20H29.5615C30.1493 20 30.6086 20.4776 30.6086 21.0472V26.2829C30.6086 26.8708 30.1493 27.3301 29.5615 27.3301Z" fill="url(#paint23_linear_7_2773)"/>
</g>
<g id="Door">
<path d="M20.3212 34.8724H10.6421V21.8296C10.6421 20.8358 11.3842 20.0195 12.2875 20.0195H18.6757C19.5791 20.0195 20.3212 20.8358 20.3212 21.8296V34.8724V34.8724Z" fill="url(#paint24_linear_7_2773)"/>
<path d="M20.3212 34.8724H10.6421V21.8296C10.6421 20.8358 11.3842 20.0195 12.2875 20.0195H18.6757C19.5791 20.0195 20.3212 20.8358 20.3212 21.8296V34.8724V34.8724Z" fill="url(#paint25_linear_7_2773)"/>
<path d="M20.3212 34.8724H10.6421V21.8296C10.6421 20.8358 11.3842 20.0195 12.2875 20.0195H18.6757C19.5791 20.0195 20.3212 20.8358 20.3212 21.8296V34.8724V34.8724Z" fill="url(#paint26_linear_7_2773)"/>
<path d="M20.3212 34.8724H10.6421V21.8296C10.6421 20.8358 11.3842 20.0195 12.2875 20.0195H18.6757C19.5791 20.0195 20.3212 20.8358 20.3212 21.8296V34.8724V34.8724Z" fill="url(#paint27_radial_7_2773)"/>
<path d="M20.3212 34.8724H10.6421V21.8296C10.6421 20.8358 11.3842 20.0195 12.2875 20.0195H18.6757C19.5791 20.0195 20.3212 20.8358 20.3212 21.8296V34.8724V34.8724Z" fill="url(#paint28_linear_7_2773)"/>
</g>
<g id="Knob">
<path d="M18.0775 27.736C18.4663 27.736 18.7814 27.4209 18.7814 27.0321C18.7814 26.6433 18.4663 26.3281 18.0775 26.3281C17.6887 26.3281 17.3735 26.6433 17.3735 27.0321C17.3735 27.4209 17.6887 27.736 18.0775 27.736Z" fill="#895D56"/>
<path d="M18.0775 27.736C18.4663 27.736 18.7814 27.4209 18.7814 27.0321C18.7814 26.6433 18.4663 26.3281 18.0775 26.3281C17.6887 26.3281 17.3735 26.6433 17.3735 27.0321C17.3735 27.4209 17.6887 27.736 18.0775 27.736Z" fill="url(#paint29_radial_7_2773)"/>
<path d="M18.0775 27.736C18.4663 27.736 18.7814 27.4209 18.7814 27.0321C18.7814 26.6433 18.4663 26.3281 18.0775 26.3281C17.6887 26.3281 17.3735 26.6433 17.3735 27.0321C17.3735 27.4209 17.6887 27.736 18.0775 27.736Z" fill="url(#paint30_radial_7_2773)"/>
</g>
<g id="Roof">
<path d="M37.1726 19.8083L21.247 4.11884C20.6565 3.52838 19.6949 3.52838 19.1044 4.11884C19.1044 4.11884 19.0876 4.11884 19.0876 4.13571L3.12815 19.8421C2.53769 20.4325 2.53769 21.3773 3.12815 21.9509C3.71862 22.5245 4.68023 22.5413 5.27069 21.9509L19.9918 7.44648C20.0891 7.3506 20.2454 7.35059 20.3427 7.44648L35.0132 21.9003C35.6037 22.4907 36.5653 22.4907 37.1558 21.9003C37.7462 21.3098 37.7631 20.3819 37.1726 19.8083Z" fill="url(#paint31_linear_7_2773)"/>
<path d="M37.1726 19.8083L21.247 4.11884C20.6565 3.52838 19.6949 3.52838 19.1044 4.11884C19.1044 4.11884 19.0876 4.11884 19.0876 4.13571L3.12815 19.8421C2.53769 20.4325 2.53769 21.3773 3.12815 21.9509C3.71862 22.5245 4.68023 22.5413 5.27069 21.9509L19.9918 7.44648C20.0891 7.3506 20.2454 7.35059 20.3427 7.44648L35.0132 21.9003C35.6037 22.4907 36.5653 22.4907 37.1558 21.9003C37.7462 21.3098 37.7631 20.3819 37.1726 19.8083Z" fill="url(#paint32_linear_7_2773)"/>
<path d="M37.1726 19.8083L21.247 4.11884C20.6565 3.52838 19.6949 3.52838 19.1044 4.11884C19.1044 4.11884 19.0876 4.11884 19.0876 4.13571L3.12815 19.8421C2.53769 20.4325 2.53769 21.3773 3.12815 21.9509C3.71862 22.5245 4.68023 22.5413 5.27069 21.9509L19.9918 7.44648C20.0891 7.3506 20.2454 7.35059 20.3427 7.44648L35.0132 21.9003C35.6037 22.4907 36.5653 22.4907 37.1558 21.9003C37.7462 21.3098 37.7631 20.3819 37.1726 19.8083Z" fill="url(#paint33_linear_7_2773)"/>
<path d="M37.1726 19.8083L21.247 4.11884C20.6565 3.52838 19.6949 3.52838 19.1044 4.11884C19.1044 4.11884 19.0876 4.11884 19.0876 4.13571L3.12815 19.8421C2.53769 20.4325 2.53769 21.3773 3.12815 21.9509C3.71862 22.5245 4.68023 22.5413 5.27069 21.9509L19.9918 7.44648C20.0891 7.3506 20.2454 7.35059 20.3427 7.44648L35.0132 21.9003C35.6037 22.4907 36.5653 22.4907 37.1558 21.9003C37.7462 21.3098 37.7631 20.3819 37.1726 19.8083Z" fill="url(#paint34_radial_7_2773)"/>
<path d="M37.1726 19.8083L21.247 4.11884C20.6565 3.52838 19.6949 3.52838 19.1044 4.11884C19.1044 4.11884 19.0876 4.11884 19.0876 4.13571L3.12815 19.8421C2.53769 20.4325 2.53769 21.3773 3.12815 21.9509C3.71862 22.5245 4.68023 22.5413 5.27069 21.9509L19.9918 7.44648C20.0891 7.3506 20.2454 7.35059 20.3427 7.44648L35.0132 21.9003C35.6037 22.4907 36.5653 22.4907 37.1558 21.9003C37.7462 21.3098 37.7631 20.3819 37.1726 19.8083Z" fill="url(#paint35_radial_7_2773)"/>
</g>
<g id="Doorstep">
<path d="M9.45337 34.5345C9.45337 34.1203 9.78916 33.7845 10.2034 33.7845H20.5098C21.0621 33.7845 21.5098 34.2322 21.5098 34.7845V34.8871V35.267H9.45337V34.8871V34.5345Z" fill="url(#paint36_linear_7_2773)"/>
<path d="M9.45337 34.5345C9.45337 34.1203 9.78916 33.7845 10.2034 33.7845H20.5098C21.0621 33.7845 21.5098 34.2322 21.5098 34.7845V34.8871V35.267H9.45337V34.8871V34.5345Z" fill="url(#paint37_linear_7_2773)"/>
<path d="M9.45337 34.5345C9.45337 34.1203 9.78916 33.7845 10.2034 33.7845H20.5098C21.0621 33.7845 21.5098 34.2322 21.5098 34.7845V34.8871V35.267H9.45337V34.8871V34.5345Z" fill="url(#paint38_linear_7_2773)"/>
</g>
<g id="Lawn">
<path d="M2.6853 37.4146C2.6853 36.0186 3.81696 34.8869 5.21293 34.8869H35.0795C36.4755 34.8869 37.6071 36.0186 37.6071 37.4146V37.4146H2.6853V37.4146Z" fill="url(#paint39_linear_7_2773)"/>
<path d="M2.6853 37.4146C2.6853 36.0186 3.81696 34.8869 5.21293 34.8869H35.0795C36.4755 34.8869 37.6071 36.0186 37.6071 37.4146V37.4146H2.6853V37.4146Z" fill="url(#paint40_linear_7_2773)"/>
<path d="M2.6853 37.4146C2.6853 36.0186 3.81696 34.8869 5.21293 34.8869H35.0795C36.4755 34.8869 37.6071 36.0186 37.6071 37.4146V37.4146H2.6853V37.4146Z" fill="url(#paint41_radial_7_2773)"/>
<path d="M2.6853 37.4146C2.6853 36.0186 3.81696 34.8869 5.21293 34.8869H35.0795C36.4755 34.8869 37.6071 36.0186 37.6071 37.4146V37.4146H2.6853V37.4146Z" fill="url(#paint42_linear_7_2773)"/>
<path d="M2.6853 37.4146C2.6853 36.0186 3.81696 34.8869 5.21293 34.8869H35.0795C36.4755 34.8869 37.6071 36.0186 37.6071 37.4146V37.4146H2.6853V37.4146Z" fill="url(#paint43_linear_7_2773)"/>
<path d="M2.6853 37.4146C2.6853 36.0186 3.81696 34.8869 5.21293 34.8869H35.0795C36.4755 34.8869 37.6071 36.0186 37.6071 37.4146V37.4146H2.6853V37.4146Z" fill="url(#paint44_radial_7_2773)"/>
</g>
</g>
<defs>
<radialGradient id="paint0_radial_7_2773" cx="0" cy="0" r="1" gradientUnits="userSpaceOnUse" gradientTransform="translate(11.9914 5.84302) rotate(90) scale(5.91253 3.22725)">
<stop stop-color="#F1B379"/>
<stop offset="1" stop-color="#CD915F"/>
</radialGradient>
<linearGradient id="paint1_linear_7_2773" x1="7.26544" y1="10.2407" x2="9.38232" y2="10.2407" gradientUnits="userSpaceOnUse">
<stop stop-color="#8E694B"/>
<stop offset="1" stop-color="#8E694B" stop-opacity="0"/>
</linearGradient>
<linearGradient id="paint2_linear_7_2773" x1="12.0313" y1="13.2031" x2="10.4591" y2="9.85279" gradientUnits="userSpaceOnUse">
<stop stop-color="#9F6A42"/>
<stop offset="1" stop-color="#9F6A42" stop-opacity="0"/>
</linearGradient>
<linearGradient id="paint3_linear_7_2773" x1="10.1454" y1="5.02535" x2="10.1454" y2="5.24226" gradientUnits="userSpaceOnUse">
<stop stop-color="#D5AD80"/>
<stop offset="1" stop-color="#D5AD80" stop-opacity="0"/>
</linearGradient>
<radialGradient id="paint4_radial_7_2773" cx="0" cy="0" r="1" gradientUnits="userSpaceOnUse" gradientTransform="translate(13.2694 5.33632) rotate(-180) scale(3.50628 0.685543)">
<stop stop-color="#FFCB8C"/>
<stop offset="1" stop-color="#FFCB8C" stop-opacity="0"/>
</radialGradient>
<linearGradient id="paint5_linear_7_2773" x1="6.84706" y1="25.9714" x2="33.7766" y2="25.9714" gradientUnits="userSpaceOnUse">
<stop stop-color="#D7905F"/>
<stop offset="1" stop-color="#E8BC97"/>
</linearGradient>
<linearGradient id="paint6_linear_7_2773" x1="7.60414" y1="37.1519" x2="17.2384" y2="22.3193" gradientUnits="userSpaceOnUse">
<stop stop-color="#BA8951"/>
<stop offset="1" stop-color="#BA8951" stop-opacity="0"/>
</linearGradient>
<radialGradient id="paint7_radial_7_2773" cx="0" cy="0" r="1" gradientUnits="userSpaceOnUse" gradientTransform="translate(25.7045 35.4741) rotate(-118.804) scale(4.79744 6.02113)">
<stop stop-color="#BEAB75"/>
<stop offset="1" stop-color="#BEAB75" stop-opacity="0"/>
</radialGradient>
<linearGradient id="paint8_linear_7_2773" x1="34.5704" y1="30.0956" x2="33.646" y2="30.0956" gradientUnits="userSpaceOnUse">
<stop stop-color="#FFE6B1"/>
<stop offset="1" stop-color="#FFE6B1" stop-opacity="0"/>
</linearGradient>
<radialGradient id="paint9_radial_7_2773" cx="0" cy="0" r="1" gradientUnits="userSpaceOnUse" gradientTransform="translate(34.9103 18.645) rotate(90) scale(5.89637 1.33246)">
<stop offset="0.35" stop-color="#9E413E"/>
<stop offset="1" stop-color="#9E413E" stop-opacity="0"/>
</radialGradient>
<linearGradient id="paint10_linear_7_2773" x1="25.2823" y1="11.2568" x2="23.8468" y2="12.7246" gradientUnits="userSpaceOnUse">
<stop stop-color="#B55852"/>
<stop offset="1" stop-color="#B55852" stop-opacity="0"/>
</linearGradient>
<linearGradient id="paint11_linear_7_2773" x1="12.5425" y1="27.4578" x2="6.88743" y2="27.4578" gradientUnits="userSpaceOnUse">
<stop offset="0.0729167" stop-color="#DC9B6D" stop-opacity="0"/>
<stop offset="0.235923" stop-color="#311F14"/>
<stop offset="0.386008" stop-color="#7D5338"/>
<stop offset="0.579538" stop-color="#CF8F5D" stop-opacity="0"/>
</linearGradient>
<radialGradient id="paint12_radial_7_2773" cx="0" cy="0" r="1" gradientUnits="userSpaceOnUse" gradientTransform="translate(10.2649 18.7243) rotate(-30.6273) scale(10.4778 4.82441)">
<stop offset="0.407438" stop-color="#D0905F"/>
<stop offset="0.484683" stop-color="#D19160" stop-opacity="0.76"/>
<stop offset="0.965476" stop-color="#D0915F" stop-opacity="0"/>
</radialGradient>
<radialGradient id="paint13_radial_7_2773" cx="0" cy="0" r="1" gradientUnits="userSpaceOnUse" gradientTransform="translate(13.9821 16.6771) rotate(-1.22925) scale(7.42335 7.55509)">
<stop offset="0.400269" stop-color="#DC9E71"/>
<stop offset="0.603895" stop-color="#DD9F72" stop-opacity="0.53"/>
<stop offset="1" stop-color="#DEA174" stop-opacity="0"/>
</radialGradient>
<linearGradient id="paint14_linear_7_2773" x1="5.62331" y1="32.9812" x2="6.60565" y2="32.9812" gradientUnits="userSpaceOnUse">
<stop stop-color="#845F3D"/>
<stop offset="1" stop-color="#845F3D" stop-opacity="0"/>
</linearGradient>
<radialGradient id="paint15_radial_7_2773" cx="0" cy="0" r="1" gradientUnits="userSpaceOnUse" gradientTransform="translate(9.93782 34.886) rotate(-129.256) scale(1.5326 1.32019)">
<stop offset="0.371976" stop-color="#462D1E" stop-opacity="0.53"/>
<stop offset="0.991094" stop-color="#C18D56" stop-opacity="0"/>
</radialGradient>
<linearGradient id="paint16_linear_7_2773" x1="23.2791" y1="27.8847" x2="31.1884" y2="20" gradientUnits="userSpaceOnUse">
<stop stop-color="#4CCCFF"/>
<stop offset="1" stop-color="#3A9EE6"/>
</linearGradient>
<linearGradient id="paint17_linear_7_2773" x1="26.9438" y1="27.79" x2="26.9438" y2="26.3482" gradientUnits="userSpaceOnUse">
<stop stop-color="#1E9FE4"/>
<stop offset="1" stop-color="#1E9FE4" stop-opacity="0"/>
</linearGradient>
<linearGradient id="paint18_linear_7_2773" x1="23.2791" y1="25.4672" x2="24.7511" y2="25.4672" gradientUnits="userSpaceOnUse">
<stop stop-color="#48E0FF"/>
<stop offset="1" stop-color="#48E0FF" stop-opacity="0"/>
</linearGradient>
<linearGradient id="paint19_linear_7_2773" x1="24.3877" y1="18.7173" x2="25.3742" y2="21.6769" gradientUnits="userSpaceOnUse">
<stop stop-color="#43B3F2"/>
<stop offset="1" stop-color="#43B3F2" stop-opacity="0"/>
</linearGradient>
<linearGradient id="paint20_linear_7_2773" x1="23.2791" y1="25.4672" x2="24.7511" y2="25.4672" gradientUnits="userSpaceOnUse">
<stop stop-color="#48E0FF"/>
<stop offset="1" stop-color="#48E0FF" stop-opacity="0"/>
</linearGradient>
<linearGradient id="paint21_linear_7_2773" x1="24.3877" y1="18.7173" x2="25.3742" y2="21.6769" gradientUnits="userSpaceOnUse">
<stop stop-color="#43B3F2"/>
<stop offset="1" stop-color="#43B3F2" stop-opacity="0"/>
</linearGradient>
<linearGradient id="paint22_linear_7_2773" x1="32.7927" y1="22.4603" x2="27.7877" y2="22.4603" gradientUnits="userSpaceOnUse">
<stop offset="0.439216" stop-color="#1E8DDC"/>
<stop offset="0.697279" stop-color="#2EB4FF"/>
<stop offset="0.901014" stop-color="#41B8FB" stop-opacity="0"/>
</linearGradient>
<linearGradient id="paint23_linear_7_2773" x1="26.9438" y1="17.7554" x2="26.9438" y2="22.7758" gradientUnits="userSpaceOnUse">
<stop offset="0.43236" stop-color="#127FCE"/>
<stop offset="0.605044" stop-color="#209EE4" stop-opacity="0.7"/>
<stop offset="0.746516" stop-color="#36AEF1" stop-opacity="0.15"/>
<stop offset="1" stop-color="#36AEF1" stop-opacity="0"/>
</linearGradient>
<linearGradient id="paint24_linear_7_2773" x1="10.6421" y1="29.3348" x2="20.3209" y2="29.279" gradientUnits="userSpaceOnUse">
<stop stop-color="#70504D"/>
<stop offset="1" stop-color="#9B665E"/>
</linearGradient>
<linearGradient id="paint25_linear_7_2773" x1="9.42017" y1="27.446" x2="13.4862" y2="27.4459" gradientUnits="userSpaceOnUse">
<stop offset="0.345029" stop-color="#4B372D"/>
<stop offset="0.646146" stop-color="#75534F" stop-opacity="0"/>
</linearGradient>
<linearGradient id="paint26_linear_7_2773" x1="13.4862" y1="17.838" x2="13.4862" y2="22.3769" gradientUnits="userSpaceOnUse">
<stop offset="0.0356747"/>
<stop offset="0.36822" stop-opacity="0.3"/>
<stop offset="0.654511" stop-opacity="0"/>
</linearGradient>
<radialGradient id="paint27_radial_7_2773" cx="0" cy="0" r="1" gradientUnits="userSpaceOnUse" gradientTransform="translate(17.8826 27.1575) rotate(172.444) scale(1.105 0.969771)">
<stop offset="0.43146" stop-color="#633A3E"/>
<stop offset="0.622429" stop-color="#62393D" stop-opacity="0.66"/>
<stop offset="0.808461" stop-color="#906059" stop-opacity="0.2"/>
</radialGradient>
<linearGradient id="paint28_linear_7_2773" x1="17.8168" y1="25.3794" x2="21.351" y2="25.3794" gradientUnits="userSpaceOnUse">
<stop offset="0.03125" stop-color="#A97164" stop-opacity="0"/>
<stop offset="0.556701" stop-color="#503933" stop-opacity="0.15"/>
<stop offset="0.739583" stop-color="#A97164" stop-opacity="0"/>
</linearGradient>
<radialGradient id="paint29_radial_7_2773" cx="0" cy="0" r="1" gradientUnits="userSpaceOnUse" gradientTransform="translate(18.3041 27.0321) rotate(-180) scale(0.930568 0.863911)">
<stop offset="0.265625" stop-color="#895D56" stop-opacity="0"/>
<stop offset="0.700753" stop-color="#895D56" stop-opacity="0.5"/>
<stop offset="1" stop-color="#47312E"/>
</radialGradient>
<radialGradient id="paint30_radial_7_2773" cx="0" cy="0" r="1" gradientUnits="userSpaceOnUse" gradientTransform="translate(18.1355 27.0321) rotate(61.3358) scale(0.705003)">
<stop offset="0.342612" stop-opacity="0.07"/>
<stop offset="0.842223" stop-opacity="0"/>
</radialGradient>
<linearGradient id="paint31_linear_7_2773" x1="20.1462" y1="3.67599" x2="20.1462" y2="22.3874" gradientUnits="userSpaceOnUse">
<stop stop-color="#EA6D2E"/>
<stop offset="1" stop-color="#CA222B"/>
</linearGradient>
<linearGradient id="paint32_linear_7_2773" x1="32.052" y1="14.3525" x2="29.2767" y2="17.2411" gradientUnits="userSpaceOnUse">
<stop stop-color="#D8402F" stop-opacity="0"/>
<stop offset="0.351072" stop-color="#EC5241"/>
<stop offset="0.921916" stop-color="#D9412F" stop-opacity="0"/>
</linearGradient>
<linearGradient id="paint33_linear_7_2773" x1="6.17452" y1="16.311" x2="9.28796" y2="19.4363" gradientUnits="userSpaceOnUse">
<stop stop-color="#D8402F" stop-opacity="0"/>
<stop offset="0.450418" stop-color="#EC5241"/>
<stop offset="1" stop-color="#D9412F" stop-opacity="0"/>
</linearGradient>
<radialGradient id="paint34_radial_7_2773" cx="0" cy="0" r="1" gradientUnits="userSpaceOnUse" gradientTransform="translate(21.3989 -0.828457) rotate(97.485) scale(17.353 32.3865)">
<stop offset="0.285749" stop-color="#FF853F"/>
<stop offset="0.772341" stop-color="#FF853F" stop-opacity="0"/>
</radialGradient>
<radialGradient id="paint35_radial_7_2773" cx="0" cy="0" r="1" gradientUnits="userSpaceOnUse" gradientTransform="translate(3.67731 21.4244) rotate(-26.3497) scale(2.76809 2.06799)">
<stop stop-color="#CC262C"/>
<stop offset="1" stop-color="#CC272C" stop-opacity="0"/>
</radialGradient>
<linearGradient id="paint36_linear_7_2773" x1="9.77864" y1="34.8871" x2="21.0701" y2="34.8871" gradientUnits="userSpaceOnUse">
<stop stop-color="#9FA1A3"/>
<stop offset="1" stop-color="#C4C1C7"/>
</linearGradient>
<linearGradient id="paint37_linear_7_2773" x1="9.25142" y1="34.8871" x2="10.6894" y2="34.8871" gradientUnits="userSpaceOnUse">
<stop stop-color="#59675C"/>
<stop offset="1" stop-color="#59675C" stop-opacity="0"/>
</linearGradient>
<linearGradient id="paint38_linear_7_2773" x1="21.5098" y1="34.3358" x2="19.6203" y2="35.5114" gradientUnits="userSpaceOnUse">
<stop stop-color="#E3DADD"/>
<stop offset="1" stop-color="#E3DADD" stop-opacity="0"/>
</linearGradient>
<linearGradient id="paint39_linear_7_2773" x1="36.6406" y1="37.4146" x2="1.7968" y2="37.4146" gradientUnits="userSpaceOnUse">
<stop stop-color="#3FD47B"/>
<stop offset="1" stop-color="#40DC7F"/>
</linearGradient>
<linearGradient id="paint40_linear_7_2773" x1="20.1462" y1="38.0853" x2="20.1462" y2="36.1507" gradientUnits="userSpaceOnUse">
<stop offset="0.107097" stop-color="#3FD17B"/>
<stop offset="1" stop-color="#3FD17B" stop-opacity="0"/>
</linearGradient>
<radialGradient id="paint41_radial_7_2773" cx="0" cy="0" r="1" gradientUnits="userSpaceOnUse" gradientTransform="translate(37.6071 34.5233) rotate(147.147) scale(4.18973 6.87012)">
<stop stop-color="#5CEE92"/>
<stop offset="1" stop-color="#5CEE92" stop-opacity="0"/>
</radialGradient>
<linearGradient id="paint42_linear_7_2773" x1="20.1462" y1="38.7395" x2="20.1462" y2="36.1507" gradientUnits="userSpaceOnUse">
<stop offset="0.0931714" stop-color="#23884A"/>
<stop offset="0.503126" stop-color="#38BB6D"/>
<stop offset="0.875812" stop-color="#45D880" stop-opacity="0"/>
</linearGradient>
<linearGradient id="paint43_linear_7_2773" x1="20.1462" y1="32.5166" x2="20.1462" y2="37.8712" gradientUnits="userSpaceOnUse">
<stop offset="0.315315" stop-color="#117337"/>
<stop offset="0.612613" stop-color="#45D880" stop-opacity="0.6"/>
<stop offset="0.90991" stop-color="#45D880" stop-opacity="0"/>
</linearGradient>
<radialGradient id="paint44_radial_7_2773" cx="0" cy="0" r="1" gradientUnits="userSpaceOnUse" gradientTransform="translate(2.6853 33.9192) rotate(34.4951) scale(4.67042 8.38944)">
<stop offset="0.301982" stop-color="#40A064"/>
<stop offset="0.635417" stop-color="#41CC78"/>
<stop offset="0.963542" stop-color="#41CC78" stop-opacity="0"/>
</radialGradient>
</defs>
</svg>
