<svg width="32" height="33" viewBox="0 0 32 33" fill="none" xmlns="http://www.w3.org/2000/svg">
<g id="Magnifying glass tilted right">
<g id="Rectangle 932">
<rect width="7.51302" height="12.2086" rx="3.75651" transform="matrix(-0.707107 -0.707107 -0.707107 0.707107 14.5859 23.3672)" fill="url(#paint0_linear_3_2562)"/>
<rect width="7.51302" height="12.2086" rx="3.75651" transform="matrix(-0.707107 -0.707107 -0.707107 0.707107 14.5859 23.3672)" fill="url(#paint1_linear_3_2562)"/>
<rect width="7.51302" height="12.2086" rx="3.75651" transform="matrix(-0.707107 -0.707107 -0.707107 0.707107 14.5859 23.3672)" fill="url(#paint2_linear_3_2562)"/>
<rect width="7.51302" height="12.2086" rx="3.75651" transform="matrix(-0.707107 -0.707107 -0.707107 0.707107 14.5859 23.3672)" fill="url(#paint3_radial_3_2562)"/>
</g>
<path id="Subtract" fill-rule="evenodd" clip-rule="evenodd" d="M19.0938 24.2969C13.1222 24.2969 8.28125 19.456 8.28125 13.4844C8.28125 7.51279 13.1222 2.67188 19.0938 2.67188C25.0653 2.67188 29.9062 7.51279 29.9062 13.4844C29.9062 19.456 25.0653 24.2969 19.0938 24.2969ZM19.0938 22.5469C14.0887 22.5469 10.0312 18.4894 10.0312 13.4844C10.0312 8.47931 14.0887 4.42188 19.0938 4.42188C24.0988 4.42188 28.1562 8.47931 28.1562 13.4844C28.1562 18.4894 24.0988 22.5469 19.0938 22.5469Z" fill="url(#paint4_linear_3_2562)"/>
<g id="Subtract_2">
<path fill-rule="evenodd" clip-rule="evenodd" d="M19.0936 24.0523C13.2571 24.0523 8.52566 19.3209 8.52566 13.4844C8.52566 7.64782 13.2571 2.91638 19.0936 2.91638C24.9302 2.91638 29.6616 7.64782 29.6616 13.4844C29.6616 19.3209 24.9302 24.0523 19.0936 24.0523ZM19.0936 22.3419C14.2018 22.3419 10.2361 18.3762 10.2361 13.4844C10.2361 8.59248 14.2018 4.62681 19.0936 4.62681C23.9855 4.62681 27.9512 8.59248 27.9512 13.4844C27.9512 18.3762 23.9855 22.3419 19.0936 22.3419Z" fill="url(#paint5_linear_3_2562)"/>
<path fill-rule="evenodd" clip-rule="evenodd" d="M19.0936 24.0523C13.2571 24.0523 8.52566 19.3209 8.52566 13.4844C8.52566 7.64782 13.2571 2.91638 19.0936 2.91638C24.9302 2.91638 29.6616 7.64782 29.6616 13.4844C29.6616 19.3209 24.9302 24.0523 19.0936 24.0523ZM19.0936 22.3419C14.2018 22.3419 10.2361 18.3762 10.2361 13.4844C10.2361 8.59248 14.2018 4.62681 19.0936 4.62681C23.9855 4.62681 27.9512 8.59248 27.9512 13.4844C27.9512 18.3762 23.9855 22.3419 19.0936 22.3419Z" fill="url(#paint6_radial_3_2562)"/>
</g>
<circle id="Ellipse 237" cx="9.29505" cy="9.29505" r="9.29505" transform="matrix(-1 0 0 1 28.3887 4.18933)" fill="url(#paint7_linear_3_2562)"/>
<g id="Ellipse 235">
<circle cx="9.0625" cy="9.0625" r="9.0625" transform="matrix(-1 0 0 1 28.1562 4.42188)" fill="#64D0EA"/>
<circle cx="9.0625" cy="9.0625" r="9.0625" transform="matrix(-1 0 0 1 28.1562 4.42188)" fill="url(#paint8_radial_3_2562)"/>
</g>
<ellipse id="Ellipse 236" cx="23.3229" cy="9.63001" rx="1.65124" ry="2.03343" transform="rotate(-38.8957 23.3229 9.63001)" fill="url(#paint9_linear_3_2562)"/>
</g>
<defs>
<linearGradient id="paint0_linear_3_2562" x1="0.629767" y1="10.3635" x2="4.9608" y2="1.83406" gradientUnits="userSpaceOnUse">
<stop stop-color="#A0659C"/>
<stop offset="1" stop-color="#895792"/>
</linearGradient>
<linearGradient id="paint1_linear_3_2562" x1="3.74546" y1="0.53033" x2="3.75651" y2="4.81716" gradientUnits="userSpaceOnUse">
<stop stop-color="#6C3B74"/>
<stop offset="1" stop-color="#845590" stop-opacity="0"/>
</linearGradient>
<linearGradient id="paint2_linear_3_2562" x1="7.61245" y1="8.3306" x2="2.46382" y2="8.17592" gradientUnits="userSpaceOnUse">
<stop offset="0.115168" stop-color="#703D7A"/>
<stop offset="1" stop-color="#703D7A" stop-opacity="0"/>
</linearGradient>
<radialGradient id="paint3_radial_3_2562" cx="0" cy="0" r="1" gradientUnits="userSpaceOnUse" gradientTransform="translate(3.8007 -0.187825) rotate(92.4424) scale(2.33336 5.42286)">
<stop stop-color="#2F1A3D"/>
<stop offset="1" stop-color="#532D64" stop-opacity="0"/>
</radialGradient>
<linearGradient id="paint4_linear_3_2562" x1="19.0938" y1="2.67187" x2="19.0938" y2="24.2969" gradientUnits="userSpaceOnUse">
<stop offset="0.378529" stop-color="#344A7D"/>
<stop offset="0.633316" stop-color="#785790"/>
<stop offset="0.837142" stop-color="#785790"/>
<stop offset="1" stop-color="#9872A2"/>
</linearGradient>
<linearGradient id="paint5_linear_3_2562" x1="19.0936" y1="2.91638" x2="19.0936" y2="24.0523" gradientUnits="userSpaceOnUse">
<stop stop-color="#475890"/>
<stop offset="1" stop-color="#7A4D87"/>
</linearGradient>
<radialGradient id="paint6_radial_3_2562" cx="0" cy="0" r="1" gradientUnits="userSpaceOnUse" gradientTransform="translate(19.0936 7.90622) rotate(-89.9999) scale(5.125 9.53123)">
<stop offset="0.704268" stop-color="#566298"/>
<stop offset="0.786585" stop-color="#566298" stop-opacity="0"/>
</radialGradient>
<linearGradient id="paint7_linear_3_2562" x1="9.29505" y1="0" x2="9.29505" y2="18.5901" gradientUnits="userSpaceOnUse">
<stop stop-color="#204083"/>
<stop offset="1" stop-color="#523573"/>
</linearGradient>
<radialGradient id="paint8_radial_3_2562" cx="0" cy="0" r="1" gradientUnits="userSpaceOnUse" gradientTransform="translate(9.0625 9.57813) rotate(90) scale(11)">
<stop offset="0.651103" stop-color="#33A2F3" stop-opacity="0"/>
<stop offset="1" stop-color="#33A2F3"/>
</radialGradient>
<linearGradient id="paint9_linear_3_2562" x1="23.3229" y1="7.59658" x2="23.3229" y2="11.6634" gradientUnits="userSpaceOnUse">
<stop stop-color="#DCDBF2"/>
<stop offset="0.209118" stop-color="#DCDBF2" stop-opacity="0.84797"/>
<stop offset="1" stop-color="#DCDBF2" stop-opacity="0"/>
</linearGradient>
</defs>
</svg>
