<svg width="32" height="32" viewBox="0 0 32 32" fill="none" xmlns="http://www.w3.org/2000/svg">
<g id="Owl">
<g id="Foot">
<path d="M22.1408 29.258C22.1916 29.6691 21.851 30.0066 21.4367 30.0066H10.9067C10.4925 30.0066 10.1518 29.6691 10.2028 29.2581C10.5711 26.2901 13.1009 23.9866 16.1767 23.9866C19.2525 23.9866 21.7738 26.2901 22.1408 29.258Z" fill="#FF6729"/>
<path d="M22.1408 29.258C22.1916 29.6691 21.851 30.0066 21.4367 30.0066H10.9067C10.4925 30.0066 10.1518 29.6691 10.2028 29.2581C10.5711 26.2901 13.1009 23.9866 16.1767 23.9866C19.2525 23.9866 21.7738 26.2901 22.1408 29.258Z" fill="url(#paint0_radial_21_3799)"/>
<path d="M22.1408 29.258C22.1916 29.6691 21.851 30.0066 21.4367 30.0066H10.9067C10.4925 30.0066 10.1518 29.6691 10.2028 29.2581C10.5711 26.2901 13.1009 23.9866 16.1767 23.9866C19.2525 23.9866 21.7738 26.2901 22.1408 29.258Z" fill="url(#paint1_radial_21_3799)"/>
<path d="M22.1408 29.258C22.1916 29.6691 21.851 30.0066 21.4367 30.0066H10.9067C10.4925 30.0066 10.1518 29.6691 10.2028 29.2581C10.5711 26.2901 13.1009 23.9866 16.1767 23.9866C19.2525 23.9866 21.7738 26.2901 22.1408 29.258Z" fill="url(#paint2_radial_21_3799)"/>
<path d="M22.1408 29.258C22.1916 29.6691 21.851 30.0066 21.4367 30.0066H10.9067C10.4925 30.0066 10.1518 29.6691 10.2028 29.2581C10.5711 26.2901 13.1009 23.9866 16.1767 23.9866C19.2525 23.9866 21.7738 26.2901 22.1408 29.258Z" fill="url(#paint3_linear_21_3799)"/>
</g>
<g id="Body">
<path d="M16.0968 28.0666C22.2272 28.0666 27.1968 23.0969 27.1968 16.9666C27.1968 10.8362 22.2272 5.86658 16.0968 5.86658C9.96647 5.86658 4.99683 10.8362 4.99683 16.9666C4.99683 23.0969 9.96647 28.0666 16.0968 28.0666Z" fill="url(#paint4_linear_21_3799)"/>
<path d="M16.0968 28.0666C22.2272 28.0666 27.1968 23.0969 27.1968 16.9666C27.1968 10.8362 22.2272 5.86658 16.0968 5.86658C9.96647 5.86658 4.99683 10.8362 4.99683 16.9666C4.99683 23.0969 9.96647 28.0666 16.0968 28.0666Z" fill="url(#paint5_radial_21_3799)"/>
<path d="M16.0968 28.0666C22.2272 28.0666 27.1968 23.0969 27.1968 16.9666C27.1968 10.8362 22.2272 5.86658 16.0968 5.86658C9.96647 5.86658 4.99683 10.8362 4.99683 16.9666C4.99683 23.0969 9.96647 28.0666 16.0968 28.0666Z" fill="url(#paint6_linear_21_3799)"/>
</g>
<g id="Belly">
<path d="M24.7168 17.4032C24.7168 22.1117 20.8568 28.0666 16.0868 28.0666C11.3168 28.0666 7.45679 22.1117 7.45679 17.4032C7.45679 12.6947 11.3168 8.86658 16.0868 8.86658C20.8568 8.86658 24.7168 12.6848 24.7168 17.4032Z" fill="#FFBEA6"/>
<path d="M24.7168 17.4032C24.7168 22.1117 20.8568 28.0666 16.0868 28.0666C11.3168 28.0666 7.45679 22.1117 7.45679 17.4032C7.45679 12.6947 11.3168 8.86658 16.0868 8.86658C20.8568 8.86658 24.7168 12.6848 24.7168 17.4032Z" fill="url(#paint7_linear_21_3799)"/>
<path d="M24.7168 17.4032C24.7168 22.1117 20.8568 28.0666 16.0868 28.0666C11.3168 28.0666 7.45679 22.1117 7.45679 17.4032C7.45679 12.6947 11.3168 8.86658 16.0868 8.86658C20.8568 8.86658 24.7168 12.6848 24.7168 17.4032Z" fill="url(#paint8_radial_21_3799)"/>
<path d="M24.7168 17.4032C24.7168 22.1117 20.8568 28.0666 16.0868 28.0666C11.3168 28.0666 7.45679 22.1117 7.45679 17.4032C7.45679 12.6947 11.3168 8.86658 16.0868 8.86658C20.8568 8.86658 24.7168 12.6848 24.7168 17.4032Z" fill="url(#paint9_radial_21_3799)" fill-opacity="0.5"/>
<path d="M24.7168 17.4032C24.7168 22.1117 20.8568 28.0666 16.0868 28.0666C11.3168 28.0666 7.45679 22.1117 7.45679 17.4032C7.45679 12.6947 11.3168 8.86658 16.0868 8.86658C20.8568 8.86658 24.7168 12.6848 24.7168 17.4032Z" fill="url(#paint10_radial_21_3799)"/>
<path d="M24.7168 17.4032C24.7168 22.1117 20.8568 28.0666 16.0868 28.0666C11.3168 28.0666 7.45679 22.1117 7.45679 17.4032C7.45679 12.6947 11.3168 8.86658 16.0868 8.86658C20.8568 8.86658 24.7168 12.6848 24.7168 17.4032Z" fill="url(#paint11_radial_21_3799)"/>
</g>
<g id="Head">
<path d="M25.8169 5.06659C26.4338 4.364 26.8452 3.48522 26.9503 2.50572C26.9798 2.23116 26.753 2.00659 26.4769 2.00659H21.3269C20.2369 2.00659 19.2369 2.38659 18.4469 3.01659H13.8869C13.0969 2.38659 12.0969 2.00659 11.0069 2.00659H5.8669C5.59076 2.00659 5.36405 2.23116 5.39383 2.50569C5.49952 3.47976 5.91065 4.36475 6.5269 5.06659C5.6269 6.10659 5.0769 7.45659 5.0769 8.92659C5.0769 14.8266 9.8969 15.7266 15.7969 15.7266H16.5469C22.4469 15.7266 27.2669 14.8266 27.2669 8.92659C27.2669 7.45659 26.7169 6.10659 25.8169 5.06659Z" fill="#845A40"/>
<path d="M25.8169 5.06659C26.4338 4.364 26.8452 3.48522 26.9503 2.50572C26.9798 2.23116 26.753 2.00659 26.4769 2.00659H21.3269C20.2369 2.00659 19.2369 2.38659 18.4469 3.01659H13.8869C13.0969 2.38659 12.0969 2.00659 11.0069 2.00659H5.8669C5.59076 2.00659 5.36405 2.23116 5.39383 2.50569C5.49952 3.47976 5.91065 4.36475 6.5269 5.06659C5.6269 6.10659 5.0769 7.45659 5.0769 8.92659C5.0769 14.8266 9.8969 15.7266 15.7969 15.7266H16.5469C22.4469 15.7266 27.2669 14.8266 27.2669 8.92659C27.2669 7.45659 26.7169 6.10659 25.8169 5.06659Z" fill="url(#paint12_linear_21_3799)"/>
<path d="M25.8169 5.06659C26.4338 4.364 26.8452 3.48522 26.9503 2.50572C26.9798 2.23116 26.753 2.00659 26.4769 2.00659H21.3269C20.2369 2.00659 19.2369 2.38659 18.4469 3.01659H13.8869C13.0969 2.38659 12.0969 2.00659 11.0069 2.00659H5.8669C5.59076 2.00659 5.36405 2.23116 5.39383 2.50569C5.49952 3.47976 5.91065 4.36475 6.5269 5.06659C5.6269 6.10659 5.0769 7.45659 5.0769 8.92659C5.0769 14.8266 9.8969 15.7266 15.7969 15.7266H16.5469C22.4469 15.7266 27.2669 14.8266 27.2669 8.92659C27.2669 7.45659 26.7169 6.10659 25.8169 5.06659Z" fill="url(#paint13_radial_21_3799)"/>
<path d="M25.8169 5.06659C26.4338 4.364 26.8452 3.48522 26.9503 2.50572C26.9798 2.23116 26.753 2.00659 26.4769 2.00659H21.3269C20.2369 2.00659 19.2369 2.38659 18.4469 3.01659H13.8869C13.0969 2.38659 12.0969 2.00659 11.0069 2.00659H5.8669C5.59076 2.00659 5.36405 2.23116 5.39383 2.50569C5.49952 3.47976 5.91065 4.36475 6.5269 5.06659C5.6269 6.10659 5.0769 7.45659 5.0769 8.92659C5.0769 14.8266 9.8969 15.7266 15.7969 15.7266H16.5469C22.4469 15.7266 27.2669 14.8266 27.2669 8.92659C27.2669 7.45659 26.7169 6.10659 25.8169 5.06659Z" fill="url(#paint14_radial_21_3799)"/>
<path d="M25.8169 5.06659C26.4338 4.364 26.8452 3.48522 26.9503 2.50572C26.9798 2.23116 26.753 2.00659 26.4769 2.00659H21.3269C20.2369 2.00659 19.2369 2.38659 18.4469 3.01659H13.8869C13.0969 2.38659 12.0969 2.00659 11.0069 2.00659H5.8669C5.59076 2.00659 5.36405 2.23116 5.39383 2.50569C5.49952 3.47976 5.91065 4.36475 6.5269 5.06659C5.6269 6.10659 5.0769 7.45659 5.0769 8.92659C5.0769 14.8266 9.8969 15.7266 15.7969 15.7266H16.5469C22.4469 15.7266 27.2669 14.8266 27.2669 8.92659C27.2669 7.45659 26.7169 6.10659 25.8169 5.06659Z" fill="url(#paint15_radial_21_3799)"/>
<path d="M25.8169 5.06659C26.4338 4.364 26.8452 3.48522 26.9503 2.50572C26.9798 2.23116 26.753 2.00659 26.4769 2.00659H21.3269C20.2369 2.00659 19.2369 2.38659 18.4469 3.01659H13.8869C13.0969 2.38659 12.0969 2.00659 11.0069 2.00659H5.8669C5.59076 2.00659 5.36405 2.23116 5.39383 2.50569C5.49952 3.47976 5.91065 4.36475 6.5269 5.06659C5.6269 6.10659 5.0769 7.45659 5.0769 8.92659C5.0769 14.8266 9.8969 15.7266 15.7969 15.7266H16.5469C22.4469 15.7266 27.2669 14.8266 27.2669 8.92659C27.2669 7.45659 26.7169 6.10659 25.8169 5.06659Z" fill="url(#paint16_radial_21_3799)"/>
<path d="M25.8169 5.06659C26.4338 4.364 26.8452 3.48522 26.9503 2.50572C26.9798 2.23116 26.753 2.00659 26.4769 2.00659H21.3269C20.2369 2.00659 19.2369 2.38659 18.4469 3.01659H13.8869C13.0969 2.38659 12.0969 2.00659 11.0069 2.00659H5.8669C5.59076 2.00659 5.36405 2.23116 5.39383 2.50569C5.49952 3.47976 5.91065 4.36475 6.5269 5.06659C5.6269 6.10659 5.0769 7.45659 5.0769 8.92659C5.0769 14.8266 9.8969 15.7266 15.7969 15.7266H16.5469C22.4469 15.7266 27.2669 14.8266 27.2669 8.92659C27.2669 7.45659 26.7169 6.10659 25.8169 5.06659Z" fill="url(#paint17_radial_21_3799)"/>
<path d="M25.8169 5.06659C26.4338 4.364 26.8452 3.48522 26.9503 2.50572C26.9798 2.23116 26.753 2.00659 26.4769 2.00659H21.3269C20.2369 2.00659 19.2369 2.38659 18.4469 3.01659H13.8869C13.0969 2.38659 12.0969 2.00659 11.0069 2.00659H5.8669C5.59076 2.00659 5.36405 2.23116 5.39383 2.50569C5.49952 3.47976 5.91065 4.36475 6.5269 5.06659C5.6269 6.10659 5.0769 7.45659 5.0769 8.92659C5.0769 14.8266 9.8969 15.7266 15.7969 15.7266H16.5469C22.4469 15.7266 27.2669 14.8266 27.2669 8.92659C27.2669 7.45659 26.7169 6.10659 25.8169 5.06659Z" fill="url(#paint18_radial_21_3799)"/>
<path d="M25.8169 5.06659C26.4338 4.364 26.8452 3.48522 26.9503 2.50572C26.9798 2.23116 26.753 2.00659 26.4769 2.00659H21.3269C20.2369 2.00659 19.2369 2.38659 18.4469 3.01659H13.8869C13.0969 2.38659 12.0969 2.00659 11.0069 2.00659H5.8669C5.59076 2.00659 5.36405 2.23116 5.39383 2.50569C5.49952 3.47976 5.91065 4.36475 6.5269 5.06659C5.6269 6.10659 5.0769 7.45659 5.0769 8.92659C5.0769 14.8266 9.8969 15.7266 15.7969 15.7266H16.5469C22.4469 15.7266 27.2669 14.8266 27.2669 8.92659C27.2669 7.45659 26.7169 6.10659 25.8169 5.06659Z" fill="url(#paint19_radial_21_3799)"/>
<path d="M25.8169 5.06659C26.4338 4.364 26.8452 3.48522 26.9503 2.50572C26.9798 2.23116 26.753 2.00659 26.4769 2.00659H21.3269C20.2369 2.00659 19.2369 2.38659 18.4469 3.01659H13.8869C13.0969 2.38659 12.0969 2.00659 11.0069 2.00659H5.8669C5.59076 2.00659 5.36405 2.23116 5.39383 2.50569C5.49952 3.47976 5.91065 4.36475 6.5269 5.06659C5.6269 6.10659 5.0769 7.45659 5.0769 8.92659C5.0769 14.8266 9.8969 15.7266 15.7969 15.7266H16.5469C22.4469 15.7266 27.2669 14.8266 27.2669 8.92659C27.2669 7.45659 26.7169 6.10659 25.8169 5.06659Z" fill="url(#paint20_radial_21_3799)"/>
<path d="M25.8169 5.06659C26.4338 4.364 26.8452 3.48522 26.9503 2.50572C26.9798 2.23116 26.753 2.00659 26.4769 2.00659H21.3269C20.2369 2.00659 19.2369 2.38659 18.4469 3.01659H13.8869C13.0969 2.38659 12.0969 2.00659 11.0069 2.00659H5.8669C5.59076 2.00659 5.36405 2.23116 5.39383 2.50569C5.49952 3.47976 5.91065 4.36475 6.5269 5.06659C5.6269 6.10659 5.0769 7.45659 5.0769 8.92659C5.0769 14.8266 9.8969 15.7266 15.7969 15.7266H16.5469C22.4469 15.7266 27.2669 14.8266 27.2669 8.92659C27.2669 7.45659 26.7169 6.10659 25.8169 5.06659Z" fill="url(#paint21_radial_21_3799)"/>
</g>
<g id="Beak">
<path d="M18.1158 13.0222H14.0576C14.0576 11.9 14.971 10.9866 16.0932 10.9866C17.2154 10.9996 18.1158 11.9 18.1158 13.0222Z" fill="#FF7838"/>
<path d="M18.1158 13.0222H14.0576C14.0576 11.9 14.971 10.9866 16.0932 10.9866C17.2154 10.9996 18.1158 11.9 18.1158 13.0222Z" fill="url(#paint22_radial_21_3799)"/>
<path d="M18.1158 13.0222H14.0576C14.0576 11.9 14.971 10.9866 16.0932 10.9866C17.2154 10.9996 18.1158 11.9 18.1158 13.0222Z" fill="url(#paint23_radial_21_3799)"/>
<path d="M18.1158 13.0222H14.0576C14.0576 11.9 14.971 10.9866 16.0932 10.9866C17.2154 10.9996 18.1158 11.9 18.1158 13.0222Z" fill="url(#paint24_linear_21_3799)"/>
</g>
<path id="R-Eye socket" d="M10.4969 13.1566C12.6894 13.1566 14.4669 11.3791 14.4669 9.18655C14.4669 6.99398 12.6894 5.21655 10.4969 5.21655C8.30429 5.21655 6.52686 6.99398 6.52686 9.18655C6.52686 11.3791 8.30429 13.1566 10.4969 13.1566Z" fill="#2E2A31"/>
<path id="R-Yellow" d="M10.9367 12.9765C12.7482 12.9765 14.2167 11.508 14.2167 9.6965C14.2167 7.88501 12.7482 6.4165 10.9367 6.4165C9.12524 6.4165 7.65674 7.88501 7.65674 9.6965C7.65674 11.508 9.12524 12.9765 10.9367 12.9765Z" fill="#F8D41E"/>
<g id="R-Eye">
<path d="M10.937 11.7165C12.0526 11.7165 12.957 10.8121 12.957 9.69651C12.957 8.5809 12.0526 7.67651 10.937 7.67651C9.82138 7.67651 8.91699 8.5809 8.91699 9.69651C8.91699 10.8121 9.82138 11.7165 10.937 11.7165Z" fill="url(#paint25_radial_21_3799)"/>
<path d="M10.937 11.7165C12.0526 11.7165 12.957 10.8121 12.957 9.69651C12.957 8.5809 12.0526 7.67651 10.937 7.67651C9.82138 7.67651 8.91699 8.5809 8.91699 9.69651C8.91699 10.8121 9.82138 11.7165 10.937 11.7165Z" fill="url(#paint26_radial_21_3799)"/>
</g>
<path id="L-Eye socket" d="M22.0169 13.1566C24.2094 13.1566 25.9869 11.3791 25.9869 9.18655C25.9869 6.99398 24.2094 5.21655 22.0169 5.21655C19.8243 5.21655 18.0469 6.99398 18.0469 9.18655C18.0469 11.3791 19.8243 13.1566 22.0169 13.1566Z" fill="#2E2A31"/>
<path id="L-Yellow" d="M21.5569 12.9765C23.3683 12.9765 24.8369 11.508 24.8369 9.6965C24.8369 7.88501 23.3683 6.4165 21.5569 6.4165C19.7454 6.4165 18.2769 7.88501 18.2769 9.6965C18.2769 11.508 19.7454 12.9765 21.5569 12.9765Z" fill="#F8D41E"/>
<g id="L-Eye">
<path d="M21.5569 11.7165C22.6725 11.7165 23.5769 10.8121 23.5769 9.69651C23.5769 8.5809 22.6725 7.67651 21.5569 7.67651C20.4412 7.67651 19.5369 8.5809 19.5369 9.69651C19.5369 10.8121 20.4412 11.7165 21.5569 11.7165Z" fill="url(#paint27_radial_21_3799)"/>
<path d="M21.5569 11.7165C22.6725 11.7165 23.5769 10.8121 23.5769 9.69651C23.5769 8.5809 22.6725 7.67651 21.5569 7.67651C20.4412 7.67651 19.5369 8.5809 19.5369 9.69651C19.5369 10.8121 20.4412 11.7165 21.5569 11.7165Z" fill="url(#paint28_radial_21_3799)"/>
</g>
</g>
<defs>
<radialGradient id="paint0_radial_21_3799" cx="0" cy="0" r="1" gradientUnits="userSpaceOnUse" gradientTransform="translate(20.2155 28.8503) rotate(74.6499) scale(4.95813 5.50621)">
<stop stop-color="#FFAC76"/>
<stop offset="0.962091" stop-color="#FFAC76" stop-opacity="0"/>
</radialGradient>
<radialGradient id="paint1_radial_21_3799" cx="0" cy="0" r="1" gradientUnits="userSpaceOnUse" gradientTransform="translate(12.528 27.5378) rotate(110.468) scale(4.73651 2.77297)">
<stop stop-color="#FF8654"/>
<stop offset="1" stop-color="#FF8654" stop-opacity="0"/>
</radialGradient>
<radialGradient id="paint2_radial_21_3799" cx="0" cy="0" r="1" gradientUnits="userSpaceOnUse" gradientTransform="translate(16.1717 27.5378) rotate(90) scale(1.625 3.3625)">
<stop stop-color="#FF6729"/>
<stop offset="1" stop-color="#FF6729" stop-opacity="0"/>
</radialGradient>
<linearGradient id="paint3_linear_21_3799" x1="16.1717" y1="30.0066" x2="16.1717" y2="29.3503" gradientUnits="userSpaceOnUse">
<stop offset="0.0294116" stop-color="#FD5A4B"/>
<stop offset="1" stop-color="#FD5A4B" stop-opacity="0"/>
</linearGradient>
<linearGradient id="paint4_linear_21_3799" x1="10.1218" y1="25.5073" x2="22.5593" y2="25.5073" gradientUnits="userSpaceOnUse">
<stop stop-color="#5E392F"/>
<stop offset="1" stop-color="#845249"/>
</linearGradient>
<radialGradient id="paint5_radial_21_3799" cx="0" cy="0" r="1" gradientUnits="userSpaceOnUse" gradientTransform="translate(26.3093 15.0066) rotate(144.713) scale(4.9769 8.47205)">
<stop stop-color="#A28171"/>
<stop offset="1" stop-color="#A28171" stop-opacity="0"/>
</radialGradient>
<linearGradient id="paint6_linear_21_3799" x1="16.0968" y1="23.5691" x2="16.0968" y2="27.4441" gradientUnits="userSpaceOnUse">
<stop stop-color="#733B50" stop-opacity="0"/>
<stop offset="1" stop-color="#733B50"/>
</linearGradient>
<linearGradient id="paint7_linear_21_3799" x1="9.4968" y1="21.1225" x2="19.9968" y2="21.1225" gradientUnits="userSpaceOnUse">
<stop stop-color="#FFB298"/>
<stop offset="1" stop-color="#FFB298" stop-opacity="0"/>
</linearGradient>
<radialGradient id="paint8_radial_21_3799" cx="0" cy="0" r="1" gradientUnits="userSpaceOnUse" gradientTransform="translate(25.4968 15.7439) rotate(168.517) scale(7.14296 13.454)">
<stop stop-color="#FFF6C0"/>
<stop offset="1" stop-color="#FFF6C0" stop-opacity="0"/>
</radialGradient>
<radialGradient id="paint9_radial_21_3799" cx="0" cy="0" r="1" gradientUnits="userSpaceOnUse" gradientTransform="translate(28.1218 21.1225) rotate(-165.741) scale(23.3441 20.09)">
<stop offset="0.800341" stop-color="#FFEC79" stop-opacity="0"/>
<stop offset="1" stop-color="#FFEC79"/>
</radialGradient>
<radialGradient id="paint10_radial_21_3799" cx="0" cy="0" r="1" gradientUnits="userSpaceOnUse" gradientTransform="translate(16.0868 14.8783) rotate(89.9999) scale(2.41113 7.77269)">
<stop stop-color="#F19989"/>
<stop offset="1" stop-color="#F19989" stop-opacity="0"/>
</radialGradient>
<radialGradient id="paint11_radial_21_3799" cx="0" cy="0" r="1" gradientUnits="userSpaceOnUse" gradientTransform="translate(16.9968 16.6712) rotate(105.335) scale(11.8161 13.4584)">
<stop offset="0.753138" stop-color="#F58285" stop-opacity="0"/>
<stop offset="1" stop-color="#F58285"/>
</radialGradient>
<linearGradient id="paint12_linear_21_3799" x1="16.9969" y1="14.6316" x2="16.9969" y2="6.56909" gradientUnits="userSpaceOnUse">
<stop stop-color="#713754"/>
<stop offset="1" stop-color="#713754" stop-opacity="0"/>
</linearGradient>
<radialGradient id="paint13_radial_21_3799" cx="0" cy="0" r="1" gradientUnits="userSpaceOnUse" gradientTransform="translate(16.1719 7.69409) rotate(90) scale(9.3125 19.1955)">
<stop offset="0.751678" stop-color="#8D584B" stop-opacity="0"/>
<stop offset="1" stop-color="#8D584B"/>
</radialGradient>
<radialGradient id="paint14_radial_21_3799" cx="0" cy="0" r="1" gradientUnits="userSpaceOnUse" gradientTransform="translate(5.46567 4.66284) rotate(-6.41878) scale(2.51577 2.43254)">
<stop stop-color="#634941"/>
<stop offset="1" stop-color="#634941" stop-opacity="0"/>
</radialGradient>
<radialGradient id="paint15_radial_21_3799" cx="0" cy="0" r="1" gradientUnits="userSpaceOnUse" gradientTransform="translate(24.9969 7.60034) rotate(145.597) scale(3.48448 3.68395)">
<stop stop-color="#A58371"/>
<stop offset="1" stop-color="#A58371" stop-opacity="0"/>
</radialGradient>
<radialGradient id="paint16_radial_21_3799" cx="0" cy="0" r="1" gradientUnits="userSpaceOnUse" gradientTransform="translate(15.3859 11.9548) rotate(59.2159) scale(1.29321 1.92356)">
<stop offset="0.529936" stop-color="#662F33"/>
<stop offset="1" stop-color="#662F33" stop-opacity="0"/>
</radialGradient>
<radialGradient id="paint17_radial_21_3799" cx="0" cy="0" r="1" gradientUnits="userSpaceOnUse" gradientTransform="translate(22.201 2.40362) rotate(-3.97533) scale(5.72695 3.09072)">
<stop offset="0.47752" stop-color="#D3B8A8" stop-opacity="0.8"/>
<stop offset="0.703735" stop-color="#D3B8A8" stop-opacity="0"/>
</radialGradient>
<radialGradient id="paint18_radial_21_3799" cx="0" cy="0" r="1" gradientUnits="userSpaceOnUse" gradientTransform="translate(21.9045 6.01125) rotate(-9.71325) scale(7.32019 6.17165)">
<stop offset="0.420625" stop-color="#D3B8A8"/>
<stop offset="0.542267" stop-color="#D3B8A8" stop-opacity="0"/>
</radialGradient>
<radialGradient id="paint19_radial_21_3799" cx="0" cy="0" r="1" gradientUnits="userSpaceOnUse" gradientTransform="translate(22.847 8.18882) rotate(116.808) scale(6.84602 9.02599)">
<stop offset="0.577682" stop-color="#845A40"/>
<stop offset="0.71876" stop-color="#845A40" stop-opacity="0"/>
</radialGradient>
<radialGradient id="paint20_radial_21_3799" cx="0" cy="0" r="1" gradientUnits="userSpaceOnUse" gradientTransform="translate(23.562 -0.586478) rotate(168.27) scale(10.5517 5.38741)">
<stop offset="0.63905" stop-color="#845A40"/>
<stop offset="0.771396" stop-color="#845A40" stop-opacity="0"/>
</radialGradient>
<radialGradient id="paint21_radial_21_3799" cx="0" cy="0" r="1" gradientUnits="userSpaceOnUse" gradientTransform="translate(17.5818 2.59863) rotate(143.791) scale(6.76718 4.92291)">
<stop offset="0.484375" stop-color="#845A40"/>
<stop offset="0.791471" stop-color="#845A40" stop-opacity="0"/>
</radialGradient>
<radialGradient id="paint22_radial_21_3799" cx="0" cy="0" r="1" gradientUnits="userSpaceOnUse" gradientTransform="translate(16.0867 13.0222) rotate(-90) scale(2.3125 2.61314)">
<stop offset="0.668919" stop-color="#EA5D1A" stop-opacity="0"/>
<stop offset="1" stop-color="#EA5D1A"/>
</radialGradient>
<radialGradient id="paint23_radial_21_3799" cx="0" cy="0" r="1" gradientUnits="userSpaceOnUse" gradientTransform="translate(16.8717 13.0222) rotate(-90) scale(1.42187 1.47028)">
<stop stop-color="#FFA174"/>
<stop offset="1" stop-color="#FFA174" stop-opacity="0"/>
</radialGradient>
<linearGradient id="paint24_linear_21_3799" x1="16.0867" y1="13.0613" x2="16.0867" y2="12.7488" gradientUnits="userSpaceOnUse">
<stop stop-color="#EA5D1A"/>
<stop offset="1" stop-color="#EA5D1A" stop-opacity="0"/>
</linearGradient>
<radialGradient id="paint25_radial_21_3799" cx="0" cy="0" r="1" gradientUnits="userSpaceOnUse" gradientTransform="translate(12.377 8.44401) rotate(131.005) scale(2.19471 2.10749)">
<stop stop-color="#796B6C"/>
<stop offset="0.833899" stop-color="#4F4142"/>
</radialGradient>
<radialGradient id="paint26_radial_21_3799" cx="0" cy="0" r="1" gradientUnits="userSpaceOnUse" gradientTransform="translate(10.627 11.9753) rotate(-90) scale(2.5625 3.64879)">
<stop stop-color="#4F2C51"/>
<stop offset="1" stop-color="#4F2C51" stop-opacity="0"/>
</radialGradient>
<radialGradient id="paint27_radial_21_3799" cx="0" cy="0" r="1" gradientUnits="userSpaceOnUse" gradientTransform="translate(22.9969 8.44401) rotate(131.005) scale(2.19471 2.10749)">
<stop stop-color="#796B6C"/>
<stop offset="0.833899" stop-color="#4F4142"/>
</radialGradient>
<radialGradient id="paint28_radial_21_3799" cx="0" cy="0" r="1" gradientUnits="userSpaceOnUse" gradientTransform="translate(21.2469 11.9753) rotate(-90) scale(2.5625 3.64879)">
<stop stop-color="#4F2C51"/>
<stop offset="1" stop-color="#4F2C51" stop-opacity="0"/>
</radialGradient>
</defs>
</svg>
