<svg width="32" height="32" viewBox="0 0 32 32" fill="none" xmlns="http://www.w3.org/2000/svg">
<path d="M14.81 28.5H13.89L15 24.25H13.5L12.39 28.5H11.19C10.53 28.5 10 29.03 10 29.69C10 29.86 10.14 30 10.31 30H12H13.5H15.69C15.86 30 16 29.86 16 29.69C16 29.03 15.46 28.5 14.81 28.5Z" fill="url(#paint0_linear_21_3753)"/>
<path d="M14.81 28.5H13.89L15 24.25H13.5L12.39 28.5H11.19C10.53 28.5 10 29.03 10 29.69C10 29.86 10.14 30 10.31 30H12H13.5H15.69C15.86 30 16 29.86 16 29.69C16 29.03 15.46 28.5 14.81 28.5Z" fill="url(#paint1_linear_21_3753)"/>
<path d="M14.81 28.5H13.89L15 24.25H13.5L12.39 28.5H11.19C10.53 28.5 10 29.03 10 29.69C10 29.86 10.14 30 10.31 30H12H13.5H15.69C15.86 30 16 29.86 16 29.69C16 29.03 15.46 28.5 14.81 28.5Z" fill="url(#paint2_radial_21_3753)"/>
<path d="M14.81 28.5H13.89L15 24.25H13.5L12.39 28.5H11.19C10.53 28.5 10 29.03 10 29.69C10 29.86 10.14 30 10.31 30H12H13.5H15.69C15.86 30 16 29.86 16 29.69C16 29.03 15.46 28.5 14.81 28.5Z" fill="url(#paint3_radial_21_3753)"/>
<path d="M14.81 28.5H13.89L15 24.25H13.5L12.39 28.5H11.19C10.53 28.5 10 29.03 10 29.69C10 29.86 10.14 30 10.31 30H12H13.5H15.69C15.86 30 16 29.86 16 29.69C16 29.03 15.46 28.5 14.81 28.5Z" fill="url(#paint4_linear_21_3753)"/>
<path d="M18.853 28.5H17.933L19.043 24.25H17.543L16.433 28.5H15.233C14.573 28.5 14.043 29.03 14.043 29.69C14.043 29.86 14.183 30 14.353 30H16.043H17.543H19.733C19.903 30 20.043 29.86 20.043 29.69C20.043 29.03 19.503 28.5 18.853 28.5Z" fill="url(#paint5_linear_21_3753)"/>
<path d="M18.853 28.5H17.933L19.043 24.25H17.543L16.433 28.5H15.233C14.573 28.5 14.043 29.03 14.043 29.69C14.043 29.86 14.183 30 14.353 30H16.043H17.543H19.733C19.903 30 20.043 29.86 20.043 29.69C20.043 29.03 19.503 28.5 18.853 28.5Z" fill="url(#paint6_linear_21_3753)"/>
<path d="M18.853 28.5H17.933L19.043 24.25H17.543L16.433 28.5H15.233C14.573 28.5 14.043 29.03 14.043 29.69C14.043 29.86 14.183 30 14.353 30H16.043H17.543H19.733C19.903 30 20.043 29.86 20.043 29.69C20.043 29.03 19.503 28.5 18.853 28.5Z" fill="url(#paint7_radial_21_3753)"/>
<path d="M18.853 28.5H17.933L19.043 24.25H17.543L16.433 28.5H15.233C14.573 28.5 14.043 29.03 14.043 29.69C14.043 29.86 14.183 30 14.353 30H16.043H17.543H19.733C19.903 30 20.043 29.86 20.043 29.69C20.043 29.03 19.503 28.5 18.853 28.5Z" fill="url(#paint8_linear_21_3753)"/>
<path d="M18.853 28.5H17.933L19.043 24.25H17.543L16.433 28.5H15.233C14.573 28.5 14.043 29.03 14.043 29.69C14.043 29.86 14.183 30 14.353 30H16.043H17.543H19.733C19.903 30 20.043 29.86 20.043 29.69C20.043 29.03 19.503 28.5 18.853 28.5Z" fill="url(#paint9_radial_21_3753)"/>
<path d="M18.853 28.5H17.933L19.043 24.25H17.543L16.433 28.5H15.233C14.573 28.5 14.043 29.03 14.043 29.69C14.043 29.86 14.183 30 14.353 30H16.043H17.543H19.733C19.903 30 20.043 29.86 20.043 29.69C20.043 29.03 19.503 28.5 18.853 28.5Z" fill="url(#paint10_radial_21_3753)"/>
<path d="M18.853 28.5H17.933L19.043 24.25H17.543L16.433 28.5H15.233C14.573 28.5 14.043 29.03 14.043 29.69C14.043 29.86 14.183 30 14.353 30H16.043H17.543H19.733C19.903 30 20.043 29.86 20.043 29.69C20.043 29.03 19.503 28.5 18.853 28.5Z" fill="url(#paint11_linear_21_3753)"/>
<path d="M13.073 4.01C12.583 3.52 11.893 3.34 11.253 3.47C11.103 3.5 10.963 3.42 10.903 3.27C10.613 2.53 9.88297 2 9.04297 2C8.34297 2 7.73297 2.36 7.37297 2.9C7.28297 3.04 7.11297 3.1 6.95297 3.06C6.80297 3.02 6.65297 3 6.50297 3C5.68297 3.02 5.04297 3.72 5.04297 4.54V7H7.04297V7.8H8.66297L10.393 9.53L13.083 6.84C13.863 6.06 13.863 4.8 13.073 4.01Z" fill="url(#paint12_linear_21_3753)"/>
<path d="M13.073 4.01C12.583 3.52 11.893 3.34 11.253 3.47C11.103 3.5 10.963 3.42 10.903 3.27C10.613 2.53 9.88297 2 9.04297 2C8.34297 2 7.73297 2.36 7.37297 2.9C7.28297 3.04 7.11297 3.1 6.95297 3.06C6.80297 3.02 6.65297 3 6.50297 3C5.68297 3.02 5.04297 3.72 5.04297 4.54V7H7.04297V7.8H8.66297L10.393 9.53L13.083 6.84C13.863 6.06 13.863 4.8 13.073 4.01Z" fill="url(#paint13_radial_21_3753)"/>
<path d="M13.073 4.01C12.583 3.52 11.893 3.34 11.253 3.47C11.103 3.5 10.963 3.42 10.903 3.27C10.613 2.53 9.88297 2 9.04297 2C8.34297 2 7.73297 2.36 7.37297 2.9C7.28297 3.04 7.11297 3.1 6.95297 3.06C6.80297 3.02 6.65297 3 6.50297 3C5.68297 3.02 5.04297 3.72 5.04297 4.54V7H7.04297V7.8H8.66297L10.393 9.53L13.083 6.84C13.863 6.06 13.863 4.8 13.073 4.01Z" fill="url(#paint14_radial_21_3753)"/>
<path d="M13.073 4.01C12.583 3.52 11.893 3.34 11.253 3.47C11.103 3.5 10.963 3.42 10.903 3.27C10.613 2.53 9.88297 2 9.04297 2C8.34297 2 7.73297 2.36 7.37297 2.9C7.28297 3.04 7.11297 3.1 6.95297 3.06C6.80297 3.02 6.65297 3 6.50297 3C5.68297 3.02 5.04297 3.72 5.04297 4.54V7H7.04297V7.8H8.66297L10.393 9.53L13.083 6.84C13.863 6.06 13.863 4.8 13.073 4.01Z" fill="url(#paint15_radial_21_3753)"/>
<path d="M13.073 4.01C12.583 3.52 11.893 3.34 11.253 3.47C11.103 3.5 10.963 3.42 10.903 3.27C10.613 2.53 9.88297 2 9.04297 2C8.34297 2 7.73297 2.36 7.37297 2.9C7.28297 3.04 7.11297 3.1 6.95297 3.06C6.80297 3.02 6.65297 3 6.50297 3C5.68297 3.02 5.04297 3.72 5.04297 4.54V7H7.04297V7.8H8.66297L10.393 9.53L13.083 6.84C13.863 6.06 13.863 4.8 13.073 4.01Z" fill="url(#paint16_radial_21_3753)"/>
<path d="M13.073 4.01C12.583 3.52 11.893 3.34 11.253 3.47C11.103 3.5 10.963 3.42 10.903 3.27C10.613 2.53 9.88297 2 9.04297 2C8.34297 2 7.73297 2.36 7.37297 2.9C7.28297 3.04 7.11297 3.1 6.95297 3.06C6.80297 3.02 6.65297 3 6.50297 3C5.68297 3.02 5.04297 3.72 5.04297 4.54V7H7.04297V7.8H8.66297L10.393 9.53L13.083 6.84C13.863 6.06 13.863 4.8 13.073 4.01Z" fill="url(#paint17_radial_21_3753)"/>
<path fill-rule="evenodd" clip-rule="evenodd" d="M5.04297 11V15C5.04297 21.08 9.96297 26 16.043 26C21.213 26 25.553 22.43 26.723 17.62C26.813 17.26 27.133 17 27.503 17H27.75L21.5 14.5L18.043 12.5246V12.9C18.043 13.51 17.553 14 16.943 14C15.773 14 14.703 13.35 14.163 12.31L13.4854 11H13L12.5 11.5H6L5.5 11H5.04297ZM29.713 14.01L29.6753 13.9883L29.4308 15.2597C29.7235 15.2559 29.9703 15.0581 30.033 14.71C30.083 14.43 29.953 14.15 29.713 14.01Z" fill="#8A5652"/>
<path fill-rule="evenodd" clip-rule="evenodd" d="M5.04297 11V15C5.04297 21.08 9.96297 26 16.043 26C21.213 26 25.553 22.43 26.723 17.62C26.813 17.26 27.133 17 27.503 17H27.75L21.5 14.5L18.043 12.5246V12.9C18.043 13.51 17.553 14 16.943 14C15.773 14 14.703 13.35 14.163 12.31L13.4854 11H13L12.5 11.5H6L5.5 11H5.04297ZM29.713 14.01L29.6753 13.9883L29.4308 15.2597C29.7235 15.2559 29.9703 15.0581 30.033 14.71C30.083 14.43 29.953 14.15 29.713 14.01Z" fill="url(#paint18_radial_21_3753)"/>
<path fill-rule="evenodd" clip-rule="evenodd" d="M5.04297 11V15C5.04297 21.08 9.96297 26 16.043 26C21.213 26 25.553 22.43 26.723 17.62C26.813 17.26 27.133 17 27.503 17H27.75L21.5 14.5L18.043 12.5246V12.9C18.043 13.51 17.553 14 16.943 14C15.773 14 14.703 13.35 14.163 12.31L13.4854 11H13L12.5 11.5H6L5.5 11H5.04297ZM29.713 14.01L29.6753 13.9883L29.4308 15.2597C29.7235 15.2559 29.9703 15.0581 30.033 14.71C30.083 14.43 29.953 14.15 29.713 14.01Z" fill="url(#paint19_linear_21_3753)"/>
<path fill-rule="evenodd" clip-rule="evenodd" d="M5.04297 11V15C5.04297 21.08 9.96297 26 16.043 26C21.213 26 25.553 22.43 26.723 17.62C26.813 17.26 27.133 17 27.503 17H27.75L21.5 14.5L18.043 12.5246V12.9C18.043 13.51 17.553 14 16.943 14C15.773 14 14.703 13.35 14.163 12.31L13.4854 11H13L12.5 11.5H6L5.5 11H5.04297ZM29.713 14.01L29.6753 13.9883L29.4308 15.2597C29.7235 15.2559 29.9703 15.0581 30.033 14.71C30.083 14.43 29.953 14.15 29.713 14.01Z" fill="url(#paint20_radial_21_3753)"/>
<path fill-rule="evenodd" clip-rule="evenodd" d="M5.04297 11V15C5.04297 21.08 9.96297 26 16.043 26C21.213 26 25.553 22.43 26.723 17.62C26.813 17.26 27.133 17 27.503 17H27.75L21.5 14.5L18.043 12.5246V12.9C18.043 13.51 17.553 14 16.943 14C15.773 14 14.703 13.35 14.163 12.31L13.4854 11H13L12.5 11.5H6L5.5 11H5.04297ZM29.713 14.01L29.6753 13.9883L29.4308 15.2597C29.7235 15.2559 29.9703 15.0581 30.033 14.71C30.083 14.43 29.953 14.15 29.713 14.01Z" fill="url(#paint21_radial_21_3753)"/>
<path d="M14.003 12L10.703 5.62C10.203 4.66 9.20297 4 8.04297 4C6.38297 4 5.04297 5.34 5.04297 7V12H14.003Z" fill="url(#paint22_linear_21_3753)"/>
<path d="M14.003 12L10.703 5.62C10.203 4.66 9.20297 4 8.04297 4C6.38297 4 5.04297 5.34 5.04297 7V12H14.003Z" fill="url(#paint23_radial_21_3753)"/>
<path d="M14.003 12L10.703 5.62C10.203 4.66 9.20297 4 8.04297 4C6.38297 4 5.04297 5.34 5.04297 7V12H14.003Z" fill="url(#paint24_radial_21_3753)"/>
<path d="M3.22293 9.47988L5.03293 10.2499L5.49293 9.47988V6.87988L3.13293 8.85988C2.92293 9.03988 2.97293 9.36988 3.22293 9.47988Z" fill="url(#paint25_linear_21_3753)"/>
<path d="M3.22293 9.47988L5.03293 10.2499L5.49293 9.47988V6.87988L3.13293 8.85988C2.92293 9.03988 2.97293 9.36988 3.22293 9.47988Z" fill="url(#paint26_radial_21_3753)"/>
<path fill-rule="evenodd" clip-rule="evenodd" d="M9.53296 8C9.53296 9.24264 8.5256 10.25 7.28296 10.25C7.27629 10.25 7.26963 10.25 7.26297 10.2499V10.25H5.95297C5.45297 10.25 5.04297 10.66 5.04297 11.16V13C5.04297 13.57 4.56297 14.03 3.99297 14C3.45297 13.97 3.04297 13.51 3.04297 12.97V12.04C3.04297 11.4 3.40297 10.82 3.97297 10.53L4.38297 10.33C4.78297 10.13 5.04297 9.71003 5.04297 9.26003V8.21363C5.03635 8.14331 5.03296 8.07205 5.03296 8C5.03296 6.75736 6.04032 5.75 7.28296 5.75C8.5256 5.75 9.53296 6.75736 9.53296 8Z" fill="url(#paint27_linear_21_3753)"/>
<path fill-rule="evenodd" clip-rule="evenodd" d="M9.53296 8C9.53296 9.24264 8.5256 10.25 7.28296 10.25C7.27629 10.25 7.26963 10.25 7.26297 10.2499V10.25H5.95297C5.45297 10.25 5.04297 10.66 5.04297 11.16V13C5.04297 13.57 4.56297 14.03 3.99297 14C3.45297 13.97 3.04297 13.51 3.04297 12.97V12.04C3.04297 11.4 3.40297 10.82 3.97297 10.53L4.38297 10.33C4.78297 10.13 5.04297 9.71003 5.04297 9.26003V8.21363C5.03635 8.14331 5.03296 8.07205 5.03296 8C5.03296 6.75736 6.04032 5.75 7.28296 5.75C8.5256 5.75 9.53296 6.75736 9.53296 8Z" fill="url(#paint28_radial_21_3753)"/>
<path fill-rule="evenodd" clip-rule="evenodd" d="M9.53296 8C9.53296 9.24264 8.5256 10.25 7.28296 10.25C7.27629 10.25 7.26963 10.25 7.26297 10.2499V10.25H5.95297C5.45297 10.25 5.04297 10.66 5.04297 11.16V13C5.04297 13.57 4.56297 14.03 3.99297 14C3.45297 13.97 3.04297 13.51 3.04297 12.97V12.04C3.04297 11.4 3.40297 10.82 3.97297 10.53L4.38297 10.33C4.78297 10.13 5.04297 9.71003 5.04297 9.26003V8.21363C5.03635 8.14331 5.03296 8.07205 5.03296 8C5.03296 6.75736 6.04032 5.75 7.28296 5.75C8.5256 5.75 9.53296 6.75736 9.53296 8Z" fill="url(#paint29_radial_21_3753)"/>
<path fill-rule="evenodd" clip-rule="evenodd" d="M9.53296 8C9.53296 9.24264 8.5256 10.25 7.28296 10.25C7.27629 10.25 7.26963 10.25 7.26297 10.2499V10.25H5.95297C5.45297 10.25 5.04297 10.66 5.04297 11.16V13C5.04297 13.57 4.56297 14.03 3.99297 14C3.45297 13.97 3.04297 13.51 3.04297 12.97V12.04C3.04297 11.4 3.40297 10.82 3.97297 10.53L4.38297 10.33C4.78297 10.13 5.04297 9.71003 5.04297 9.26003V8.21363C5.03635 8.14331 5.03296 8.07205 5.03296 8C5.03296 6.75736 6.04032 5.75 7.28296 5.75C8.5256 5.75 9.53296 6.75736 9.53296 8Z" fill="url(#paint30_radial_21_3753)"/>
<path fill-rule="evenodd" clip-rule="evenodd" d="M9.53296 8C9.53296 9.24264 8.5256 10.25 7.28296 10.25C7.27629 10.25 7.26963 10.25 7.26297 10.2499V10.25H5.95297C5.45297 10.25 5.04297 10.66 5.04297 11.16V13C5.04297 13.57 4.56297 14.03 3.99297 14C3.45297 13.97 3.04297 13.51 3.04297 12.97V12.04C3.04297 11.4 3.40297 10.82 3.97297 10.53L4.38297 10.33C4.78297 10.13 5.04297 9.71003 5.04297 9.26003V8.21363C5.03635 8.14331 5.03296 8.07205 5.03296 8C5.03296 6.75736 6.04032 5.75 7.28296 5.75C8.5256 5.75 9.53296 6.75736 9.53296 8Z" fill="url(#paint31_linear_21_3753)"/>
<path fill-rule="evenodd" clip-rule="evenodd" d="M9.53296 8C9.53296 9.24264 8.5256 10.25 7.28296 10.25C7.27629 10.25 7.26963 10.25 7.26297 10.2499V10.25H5.95297C5.45297 10.25 5.04297 10.66 5.04297 11.16V13C5.04297 13.57 4.56297 14.03 3.99297 14C3.45297 13.97 3.04297 13.51 3.04297 12.97V12.04C3.04297 11.4 3.40297 10.82 3.97297 10.53L4.38297 10.33C4.78297 10.13 5.04297 9.71003 5.04297 9.26003V8.21363C5.03635 8.14331 5.03296 8.07205 5.03296 8C5.03296 6.75736 6.04032 5.75 7.28296 5.75C8.5256 5.75 9.53296 6.75736 9.53296 8Z" fill="url(#paint32_radial_21_3753)"/>
<path fill-rule="evenodd" clip-rule="evenodd" d="M9.53296 8C9.53296 9.24264 8.5256 10.25 7.28296 10.25C7.27629 10.25 7.26963 10.25 7.26297 10.2499V10.25H5.95297C5.45297 10.25 5.04297 10.66 5.04297 11.16V13C5.04297 13.57 4.56297 14.03 3.99297 14C3.45297 13.97 3.04297 13.51 3.04297 12.97V12.04C3.04297 11.4 3.40297 10.82 3.97297 10.53L4.38297 10.33C4.78297 10.13 5.04297 9.71003 5.04297 9.26003V8.21363C5.03635 8.14331 5.03296 8.07205 5.03296 8C5.03296 6.75736 6.04032 5.75 7.28296 5.75C8.5256 5.75 9.53296 6.75736 9.53296 8Z" fill="url(#paint33_radial_21_3753)"/>
<path fill-rule="evenodd" clip-rule="evenodd" d="M9.53296 8C9.53296 9.24264 8.5256 10.25 7.28296 10.25C7.27629 10.25 7.26963 10.25 7.26297 10.2499V10.25H5.95297C5.45297 10.25 5.04297 10.66 5.04297 11.16V13C5.04297 13.57 4.56297 14.03 3.99297 14C3.45297 13.97 3.04297 13.51 3.04297 12.97V12.04C3.04297 11.4 3.40297 10.82 3.97297 10.53L4.38297 10.33C4.78297 10.13 5.04297 9.71003 5.04297 9.26003V8.21363C5.03635 8.14331 5.03296 8.07205 5.03296 8C5.03296 6.75736 6.04032 5.75 7.28296 5.75C8.5256 5.75 9.53296 6.75736 9.53296 8Z" fill="url(#paint34_radial_21_3753)"/>
<path d="M6.54297 8.02563C6.81911 8.02563 7.04297 7.80178 7.04297 7.52563C7.04297 7.24949 6.81911 7.02563 6.54297 7.02563C6.26683 7.02563 6.04297 7.24949 6.04297 7.52563C6.04297 7.80178 6.26683 8.02563 6.54297 8.02563Z" fill="url(#paint35_radial_21_3753)"/>
<path d="M6.54297 8.02563C6.81911 8.02563 7.04297 7.80178 7.04297 7.52563C7.04297 7.24949 6.81911 7.02563 6.54297 7.02563C6.26683 7.02563 6.04297 7.24949 6.04297 7.52563C6.04297 7.80178 6.26683 8.02563 6.54297 8.02563Z" fill="url(#paint36_radial_21_3753)"/>
<path d="M6.54297 8.02563C6.81911 8.02563 7.04297 7.80178 7.04297 7.52563C7.04297 7.24949 6.81911 7.02563 6.54297 7.02563C6.26683 7.02563 6.04297 7.24949 6.04297 7.52563C6.04297 7.80178 6.26683 8.02563 6.54297 8.02563Z" fill="url(#paint37_linear_21_3753)"/>
<path d="M29.713 14.01L26.993 12.44C26.763 12.31 26.663 12.02 26.783 11.78C26.913 11.52 27.233 11.42 27.483 11.57L29.043 12.47C29.483 12.72 29.953 12.53 30.043 12.03C30.093 11.75 29.963 11.47 29.723 11.33L27.003 9.76C26.773 9.63 26.673 9.34 26.793 9.1C26.923 8.84 27.243 8.74 27.493 8.89L29.343 9.96C29.623 10.12 29.963 9.87 29.883 9.55C29.213 6.93 26.853 5 24.043 5C20.733 5 18.043 7.69 18.043 11V12.9C18.043 14.14 18.593 15.25 19.473 16H22.463H23.973C24.503 16 24.8607 16.5117 24.7807 17.0217L28.6046 16.9983C28.833 16.9983 28.993 16.83 29.033 16.67C29.083 16.47 28.993 16.28 28.833 16.18L26.993 15.12C26.763 14.99 26.663 14.7 26.783 14.46C26.913 14.2 27.233 14.1 27.483 14.25L29.043 15.15C29.483 15.4 29.953 15.21 30.043 14.71C30.083 14.43 29.953 14.15 29.713 14.01Z" fill="url(#paint38_linear_21_3753)"/>
<path d="M29.713 14.01L26.993 12.44C26.763 12.31 26.663 12.02 26.783 11.78C26.913 11.52 27.233 11.42 27.483 11.57L29.043 12.47C29.483 12.72 29.953 12.53 30.043 12.03C30.093 11.75 29.963 11.47 29.723 11.33L27.003 9.76C26.773 9.63 26.673 9.34 26.793 9.1C26.923 8.84 27.243 8.74 27.493 8.89L29.343 9.96C29.623 10.12 29.963 9.87 29.883 9.55C29.213 6.93 26.853 5 24.043 5C20.733 5 18.043 7.69 18.043 11V12.9C18.043 14.14 18.593 15.25 19.473 16H22.463H23.973C24.503 16 24.8607 16.5117 24.7807 17.0217L28.6046 16.9983C28.833 16.9983 28.993 16.83 29.033 16.67C29.083 16.47 28.993 16.28 28.833 16.18L26.993 15.12C26.763 14.99 26.663 14.7 26.783 14.46C26.913 14.2 27.233 14.1 27.483 14.25L29.043 15.15C29.483 15.4 29.953 15.21 30.043 14.71C30.083 14.43 29.953 14.15 29.713 14.01Z" fill="url(#paint39_radial_21_3753)"/>
<path d="M29.713 14.01L26.993 12.44C26.763 12.31 26.663 12.02 26.783 11.78C26.913 11.52 27.233 11.42 27.483 11.57L29.043 12.47C29.483 12.72 29.953 12.53 30.043 12.03C30.093 11.75 29.963 11.47 29.723 11.33L27.003 9.76C26.773 9.63 26.673 9.34 26.793 9.1C26.923 8.84 27.243 8.74 27.493 8.89L29.343 9.96C29.623 10.12 29.963 9.87 29.883 9.55C29.213 6.93 26.853 5 24.043 5C20.733 5 18.043 7.69 18.043 11V12.9C18.043 14.14 18.593 15.25 19.473 16H22.463H23.973C24.503 16 24.8607 16.5117 24.7807 17.0217L28.6046 16.9983C28.833 16.9983 28.993 16.83 29.033 16.67C29.083 16.47 28.993 16.28 28.833 16.18L26.993 15.12C26.763 14.99 26.663 14.7 26.783 14.46C26.913 14.2 27.233 14.1 27.483 14.25L29.043 15.15C29.483 15.4 29.953 15.21 30.043 14.71C30.083 14.43 29.953 14.15 29.713 14.01Z" fill="url(#paint40_radial_21_3753)"/>
<path d="M29.713 14.01L26.993 12.44C26.763 12.31 26.663 12.02 26.783 11.78C26.913 11.52 27.233 11.42 27.483 11.57L29.043 12.47C29.483 12.72 29.953 12.53 30.043 12.03C30.093 11.75 29.963 11.47 29.723 11.33L27.003 9.76C26.773 9.63 26.673 9.34 26.793 9.1C26.923 8.84 27.243 8.74 27.493 8.89L29.343 9.96C29.623 10.12 29.963 9.87 29.883 9.55C29.213 6.93 26.853 5 24.043 5C20.733 5 18.043 7.69 18.043 11V12.9C18.043 14.14 18.593 15.25 19.473 16H22.463H23.973C24.503 16 24.8607 16.5117 24.7807 17.0217L28.6046 16.9983C28.833 16.9983 28.993 16.83 29.033 16.67C29.083 16.47 28.993 16.28 28.833 16.18L26.993 15.12C26.763 14.99 26.663 14.7 26.783 14.46C26.913 14.2 27.233 14.1 27.483 14.25L29.043 15.15C29.483 15.4 29.953 15.21 30.043 14.71C30.083 14.43 29.953 14.15 29.713 14.01Z" fill="url(#paint41_radial_21_3753)"/>
<path d="M29.713 14.01L26.993 12.44C26.763 12.31 26.663 12.02 26.783 11.78C26.913 11.52 27.233 11.42 27.483 11.57L29.043 12.47C29.483 12.72 29.953 12.53 30.043 12.03C30.093 11.75 29.963 11.47 29.723 11.33L27.003 9.76C26.773 9.63 26.673 9.34 26.793 9.1C26.923 8.84 27.243 8.74 27.493 8.89L29.343 9.96C29.623 10.12 29.963 9.87 29.883 9.55C29.213 6.93 26.853 5 24.043 5C20.733 5 18.043 7.69 18.043 11V12.9C18.043 14.14 18.593 15.25 19.473 16H22.463H23.973C24.503 16 24.8607 16.5117 24.7807 17.0217L28.6046 16.9983C28.833 16.9983 28.993 16.83 29.033 16.67C29.083 16.47 28.993 16.28 28.833 16.18L26.993 15.12C26.763 14.99 26.663 14.7 26.783 14.46C26.913 14.2 27.233 14.1 27.483 14.25L29.043 15.15C29.483 15.4 29.953 15.21 30.043 14.71C30.083 14.43 29.953 14.15 29.713 14.01Z" fill="url(#paint42_linear_21_3753)"/>
<path d="M29.713 14.01L26.993 12.44C26.763 12.31 26.663 12.02 26.783 11.78C26.913 11.52 27.233 11.42 27.483 11.57L29.043 12.47C29.483 12.72 29.953 12.53 30.043 12.03C30.093 11.75 29.963 11.47 29.723 11.33L27.003 9.76C26.773 9.63 26.673 9.34 26.793 9.1C26.923 8.84 27.243 8.74 27.493 8.89L29.343 9.96C29.623 10.12 29.963 9.87 29.883 9.55C29.213 6.93 26.853 5 24.043 5C20.733 5 18.043 7.69 18.043 11V12.9C18.043 14.14 18.593 15.25 19.473 16H22.463H23.973C24.503 16 24.8607 16.5117 24.7807 17.0217L28.6046 16.9983C28.833 16.9983 28.993 16.83 29.033 16.67C29.083 16.47 28.993 16.28 28.833 16.18L26.993 15.12C26.763 14.99 26.663 14.7 26.783 14.46C26.913 14.2 27.233 14.1 27.483 14.25L29.043 15.15C29.483 15.4 29.953 15.21 30.043 14.71C30.083 14.43 29.953 14.15 29.713 14.01Z" fill="url(#paint43_radial_21_3753)"/>
<path d="M29.713 14.01L26.993 12.44C26.763 12.31 26.663 12.02 26.783 11.78C26.913 11.52 27.233 11.42 27.483 11.57L29.043 12.47C29.483 12.72 29.953 12.53 30.043 12.03C30.093 11.75 29.963 11.47 29.723 11.33L27.003 9.76C26.773 9.63 26.673 9.34 26.793 9.1C26.923 8.84 27.243 8.74 27.493 8.89L29.343 9.96C29.623 10.12 29.963 9.87 29.883 9.55C29.213 6.93 26.853 5 24.043 5C20.733 5 18.043 7.69 18.043 11V12.9C18.043 14.14 18.593 15.25 19.473 16H22.463H23.973C24.503 16 24.8607 16.5117 24.7807 17.0217L28.6046 16.9983C28.833 16.9983 28.993 16.83 29.033 16.67C29.083 16.47 28.993 16.28 28.833 16.18L26.993 15.12C26.763 14.99 26.663 14.7 26.783 14.46C26.913 14.2 27.233 14.1 27.483 14.25L29.043 15.15C29.483 15.4 29.953 15.21 30.043 14.71C30.083 14.43 29.953 14.15 29.713 14.01Z" fill="url(#paint44_radial_21_3753)"/>
<path d="M29.713 14.01L26.993 12.44C26.763 12.31 26.663 12.02 26.783 11.78C26.913 11.52 27.233 11.42 27.483 11.57L29.043 12.47C29.483 12.72 29.953 12.53 30.043 12.03C30.093 11.75 29.963 11.47 29.723 11.33L27.003 9.76C26.773 9.63 26.673 9.34 26.793 9.1C26.923 8.84 27.243 8.74 27.493 8.89L29.343 9.96C29.623 10.12 29.963 9.87 29.883 9.55C29.213 6.93 26.853 5 24.043 5C20.733 5 18.043 7.69 18.043 11V12.9C18.043 14.14 18.593 15.25 19.473 16H22.463H23.973C24.503 16 24.8607 16.5117 24.7807 17.0217L28.6046 16.9983C28.833 16.9983 28.993 16.83 29.033 16.67C29.083 16.47 28.993 16.28 28.833 16.18L26.993 15.12C26.763 14.99 26.663 14.7 26.783 14.46C26.913 14.2 27.233 14.1 27.483 14.25L29.043 15.15C29.483 15.4 29.953 15.21 30.043 14.71C30.083 14.43 29.953 14.15 29.713 14.01Z" fill="url(#paint45_radial_21_3753)"/>
<path d="M29.713 14.01L26.993 12.44C26.763 12.31 26.663 12.02 26.783 11.78C26.913 11.52 27.233 11.42 27.483 11.57L29.043 12.47C29.483 12.72 29.953 12.53 30.043 12.03C30.093 11.75 29.963 11.47 29.723 11.33L27.003 9.76C26.773 9.63 26.673 9.34 26.793 9.1C26.923 8.84 27.243 8.74 27.493 8.89L29.343 9.96C29.623 10.12 29.963 9.87 29.883 9.55C29.213 6.93 26.853 5 24.043 5C20.733 5 18.043 7.69 18.043 11V12.9C18.043 14.14 18.593 15.25 19.473 16H22.463H23.973C24.503 16 24.8607 16.5117 24.7807 17.0217L28.6046 16.9983C28.833 16.9983 28.993 16.83 29.033 16.67C29.083 16.47 28.993 16.28 28.833 16.18L26.993 15.12C26.763 14.99 26.663 14.7 26.783 14.46C26.913 14.2 27.233 14.1 27.483 14.25L29.043 15.15C29.483 15.4 29.953 15.21 30.043 14.71C30.083 14.43 29.953 14.15 29.713 14.01Z" fill="url(#paint46_radial_21_3753)"/>
<path d="M29.713 14.01L26.993 12.44C26.763 12.31 26.663 12.02 26.783 11.78C26.913 11.52 27.233 11.42 27.483 11.57L29.043 12.47C29.483 12.72 29.953 12.53 30.043 12.03C30.093 11.75 29.963 11.47 29.723 11.33L27.003 9.76C26.773 9.63 26.673 9.34 26.793 9.1C26.923 8.84 27.243 8.74 27.493 8.89L29.343 9.96C29.623 10.12 29.963 9.87 29.883 9.55C29.213 6.93 26.853 5 24.043 5C20.733 5 18.043 7.69 18.043 11V12.9C18.043 14.14 18.593 15.25 19.473 16H22.463H23.973C24.503 16 24.8607 16.5117 24.7807 17.0217L28.6046 16.9983C28.833 16.9983 28.993 16.83 29.033 16.67C29.083 16.47 28.993 16.28 28.833 16.18L26.993 15.12C26.763 14.99 26.663 14.7 26.783 14.46C26.913 14.2 27.233 14.1 27.483 14.25L29.043 15.15C29.483 15.4 29.953 15.21 30.043 14.71C30.083 14.43 29.953 14.15 29.713 14.01Z" fill="url(#paint47_radial_21_3753)"/>
<path d="M29.713 14.01L26.993 12.44C26.763 12.31 26.663 12.02 26.783 11.78C26.913 11.52 27.233 11.42 27.483 11.57L29.043 12.47C29.483 12.72 29.953 12.53 30.043 12.03C30.093 11.75 29.963 11.47 29.723 11.33L27.003 9.76C26.773 9.63 26.673 9.34 26.793 9.1C26.923 8.84 27.243 8.74 27.493 8.89L29.343 9.96C29.623 10.12 29.963 9.87 29.883 9.55C29.213 6.93 26.853 5 24.043 5C20.733 5 18.043 7.69 18.043 11V12.9C18.043 14.14 18.593 15.25 19.473 16H22.463H23.973C24.503 16 24.8607 16.5117 24.7807 17.0217L28.6046 16.9983C28.833 16.9983 28.993 16.83 29.033 16.67C29.083 16.47 28.993 16.28 28.833 16.18L26.993 15.12C26.763 14.99 26.663 14.7 26.783 14.46C26.913 14.2 27.233 14.1 27.483 14.25L29.043 15.15C29.483 15.4 29.953 15.21 30.043 14.71C30.083 14.43 29.953 14.15 29.713 14.01Z" fill="url(#paint48_radial_21_3753)"/>
<path d="M29.713 14.01L26.993 12.44C26.763 12.31 26.663 12.02 26.783 11.78C26.913 11.52 27.233 11.42 27.483 11.57L29.043 12.47C29.483 12.72 29.953 12.53 30.043 12.03C30.093 11.75 29.963 11.47 29.723 11.33L27.003 9.76C26.773 9.63 26.673 9.34 26.793 9.1C26.923 8.84 27.243 8.74 27.493 8.89L29.343 9.96C29.623 10.12 29.963 9.87 29.883 9.55C29.213 6.93 26.853 5 24.043 5C20.733 5 18.043 7.69 18.043 11V12.9C18.043 14.14 18.593 15.25 19.473 16H22.463H23.973C24.503 16 24.8607 16.5117 24.7807 17.0217L28.6046 16.9983C28.833 16.9983 28.993 16.83 29.033 16.67C29.083 16.47 28.993 16.28 28.833 16.18L26.993 15.12C26.763 14.99 26.663 14.7 26.783 14.46C26.913 14.2 27.233 14.1 27.483 14.25L29.043 15.15C29.483 15.4 29.953 15.21 30.043 14.71C30.083 14.43 29.953 14.15 29.713 14.01Z" fill="url(#paint49_radial_21_3753)"/>
<path d="M29.713 14.01L26.993 12.44C26.763 12.31 26.663 12.02 26.783 11.78C26.913 11.52 27.233 11.42 27.483 11.57L29.043 12.47C29.483 12.72 29.953 12.53 30.043 12.03C30.093 11.75 29.963 11.47 29.723 11.33L27.003 9.76C26.773 9.63 26.673 9.34 26.793 9.1C26.923 8.84 27.243 8.74 27.493 8.89L29.343 9.96C29.623 10.12 29.963 9.87 29.883 9.55C29.213 6.93 26.853 5 24.043 5C20.733 5 18.043 7.69 18.043 11V12.9C18.043 14.14 18.593 15.25 19.473 16H22.463H23.973C24.503 16 24.8607 16.5117 24.7807 17.0217L28.6046 16.9983C28.833 16.9983 28.993 16.83 29.033 16.67C29.083 16.47 28.993 16.28 28.833 16.18L26.993 15.12C26.763 14.99 26.663 14.7 26.783 14.46C26.913 14.2 27.233 14.1 27.483 14.25L29.043 15.15C29.483 15.4 29.953 15.21 30.043 14.71C30.083 14.43 29.953 14.15 29.713 14.01Z" fill="url(#paint50_radial_21_3753)"/>
<path d="M29.713 14.01L26.993 12.44C26.763 12.31 26.663 12.02 26.783 11.78C26.913 11.52 27.233 11.42 27.483 11.57L29.043 12.47C29.483 12.72 29.953 12.53 30.043 12.03C30.093 11.75 29.963 11.47 29.723 11.33L27.003 9.76C26.773 9.63 26.673 9.34 26.793 9.1C26.923 8.84 27.243 8.74 27.493 8.89L29.343 9.96C29.623 10.12 29.963 9.87 29.883 9.55C29.213 6.93 26.853 5 24.043 5C20.733 5 18.043 7.69 18.043 11V12.9C18.043 14.14 18.593 15.25 19.473 16H22.463H23.973C24.503 16 24.8607 16.5117 24.7807 17.0217L28.6046 16.9983C28.833 16.9983 28.993 16.83 29.033 16.67C29.083 16.47 28.993 16.28 28.833 16.18L26.993 15.12C26.763 14.99 26.663 14.7 26.783 14.46C26.913 14.2 27.233 14.1 27.483 14.25L29.043 15.15C29.483 15.4 29.953 15.21 30.043 14.71C30.083 14.43 29.953 14.15 29.713 14.01Z" fill="url(#paint51_radial_21_3753)"/>
<path d="M29.713 14.01L26.993 12.44C26.763 12.31 26.663 12.02 26.783 11.78C26.913 11.52 27.233 11.42 27.483 11.57L29.043 12.47C29.483 12.72 29.953 12.53 30.043 12.03C30.093 11.75 29.963 11.47 29.723 11.33L27.003 9.76C26.773 9.63 26.673 9.34 26.793 9.1C26.923 8.84 27.243 8.74 27.493 8.89L29.343 9.96C29.623 10.12 29.963 9.87 29.883 9.55C29.213 6.93 26.853 5 24.043 5C20.733 5 18.043 7.69 18.043 11V12.9C18.043 14.14 18.593 15.25 19.473 16H22.463H23.973C24.503 16 24.8607 16.5117 24.7807 17.0217L28.6046 16.9983C28.833 16.9983 28.993 16.83 29.033 16.67C29.083 16.47 28.993 16.28 28.833 16.18L26.993 15.12C26.763 14.99 26.663 14.7 26.783 14.46C26.913 14.2 27.233 14.1 27.483 14.25L29.043 15.15C29.483 15.4 29.953 15.21 30.043 14.71C30.083 14.43 29.953 14.15 29.713 14.01Z" fill="url(#paint52_radial_21_3753)"/>
<path d="M29.713 14.01L26.993 12.44C26.763 12.31 26.663 12.02 26.783 11.78C26.913 11.52 27.233 11.42 27.483 11.57L29.043 12.47C29.483 12.72 29.953 12.53 30.043 12.03C30.093 11.75 29.963 11.47 29.723 11.33L27.003 9.76C26.773 9.63 26.673 9.34 26.793 9.1C26.923 8.84 27.243 8.74 27.493 8.89L29.343 9.96C29.623 10.12 29.963 9.87 29.883 9.55C29.213 6.93 26.853 5 24.043 5C20.733 5 18.043 7.69 18.043 11V12.9C18.043 14.14 18.593 15.25 19.473 16H22.463H23.973C24.503 16 24.8607 16.5117 24.7807 17.0217L28.6046 16.9983C28.833 16.9983 28.993 16.83 29.033 16.67C29.083 16.47 28.993 16.28 28.833 16.18L26.993 15.12C26.763 14.99 26.663 14.7 26.783 14.46C26.913 14.2 27.233 14.1 27.483 14.25L29.043 15.15C29.483 15.4 29.953 15.21 30.043 14.71C30.083 14.43 29.953 14.15 29.713 14.01Z" fill="url(#paint53_radial_21_3753)"/>
<path d="M22.4737 16H17.0846H9.75527C8.30626 16 7.96132 17.2031 8.19208 18.2131C9.10168 22.1931 12.0378 24 16.2043 24C20.3709 24 23.8625 21.03 24.7721 17.05C24.8993 16.51 24.4885 16 23.9505 16H22.4737Z" fill="url(#paint54_linear_21_3753)"/>
<path d="M22.4737 16H17.0846H9.75527C8.30626 16 7.96132 17.2031 8.19208 18.2131C9.10168 22.1931 12.0378 24 16.2043 24C20.3709 24 23.8625 21.03 24.7721 17.05C24.8993 16.51 24.4885 16 23.9505 16H22.4737Z" fill="url(#paint55_radial_21_3753)"/>
<path d="M22.4737 16H17.0846H9.75527C8.30626 16 7.96132 17.2031 8.19208 18.2131C9.10168 22.1931 12.0378 24 16.2043 24C20.3709 24 23.8625 21.03 24.7721 17.05C24.8993 16.51 24.4885 16 23.9505 16H22.4737Z" fill="url(#paint56_radial_21_3753)"/>
<path d="M22.4737 16H17.0846H9.75527C8.30626 16 7.96132 17.2031 8.19208 18.2131C9.10168 22.1931 12.0378 24 16.2043 24C20.3709 24 23.8625 21.03 24.7721 17.05C24.8993 16.51 24.4885 16 23.9505 16H22.4737Z" fill="url(#paint57_linear_21_3753)"/>
<path d="M22.4737 16H17.0846H9.75527C8.30626 16 7.96132 17.2031 8.19208 18.2131C9.10168 22.1931 12.0378 24 16.2043 24C20.3709 24 23.8625 21.03 24.7721 17.05C24.8993 16.51 24.4885 16 23.9505 16H22.4737Z" fill="url(#paint58_radial_21_3753)"/>
<path d="M22.4737 16H17.0846H9.75527C8.30626 16 7.96132 17.2031 8.19208 18.2131C9.10168 22.1931 12.0378 24 16.2043 24C20.3709 24 23.8625 21.03 24.7721 17.05C24.8993 16.51 24.4885 16 23.9505 16H22.4737Z" fill="url(#paint59_radial_21_3753)"/>
<defs>
<linearGradient id="paint0_linear_21_3753" x1="12.4525" y1="30" x2="13.8041" y2="24.4901" gradientUnits="userSpaceOnUse">
<stop stop-color="#E46D33"/>
<stop offset="0.317186" stop-color="#E46832"/>
<stop offset="0.611757" stop-color="#E46832"/>
<stop offset="0.772404" stop-color="#DB592A"/>
</linearGradient>
<linearGradient id="paint1_linear_21_3753" x1="13" y1="30.3728" x2="13" y2="29.3765" gradientUnits="userSpaceOnUse">
<stop stop-color="#F15CC7"/>
<stop offset="0.828473" stop-color="#F15CC7" stop-opacity="0"/>
</linearGradient>
<radialGradient id="paint2_radial_21_3753" cx="0" cy="0" r="1" gradientUnits="userSpaceOnUse" gradientTransform="translate(14.5405 29.412) rotate(-180) scale(1.7262 1.80125)">
<stop stop-color="#D6551C"/>
<stop offset="1" stop-color="#D6551C" stop-opacity="0"/>
</radialGradient>
<radialGradient id="paint3_radial_21_3753" cx="0" cy="0" r="1" gradientUnits="userSpaceOnUse" gradientTransform="translate(11.3788 28.2534) rotate(48.3726) scale(1.48338 1.671)">
<stop stop-color="#F67F41"/>
<stop offset="1" stop-color="#F67F41" stop-opacity="0"/>
</radialGradient>
<linearGradient id="paint4_linear_21_3753" x1="13.5393" y1="25.2188" x2="13.2463" y2="30" gradientUnits="userSpaceOnUse">
<stop stop-color="#A84438"/>
<stop offset="0.227465" stop-color="#A84438" stop-opacity="0"/>
</linearGradient>
<linearGradient id="paint5_linear_21_3753" x1="16.502" y1="29.4573" x2="17.8471" y2="24.4901" gradientUnits="userSpaceOnUse">
<stop stop-color="#E46D33"/>
<stop offset="1" stop-color="#DB592A"/>
</linearGradient>
<linearGradient id="paint6_linear_21_3753" x1="19.8158" y1="29.3622" x2="12.6363" y2="29.3622" gradientUnits="userSpaceOnUse">
<stop stop-color="#F67F41"/>
<stop offset="1" stop-color="#F67F41" stop-opacity="0"/>
</linearGradient>
<radialGradient id="paint7_radial_21_3753" cx="0" cy="0" r="1" gradientUnits="userSpaceOnUse" gradientTransform="translate(19.6487 30.2565) rotate(-138.641) scale(1.62106 1.30939)">
<stop stop-color="#FFA56B"/>
<stop offset="1" stop-color="#FFA56B" stop-opacity="0"/>
</radialGradient>
<linearGradient id="paint8_linear_21_3753" x1="17.043" y1="30.3728" x2="17.043" y2="29.3765" gradientUnits="userSpaceOnUse">
<stop stop-color="#F15CC7"/>
<stop offset="0.828473" stop-color="#F15CC7" stop-opacity="0"/>
</linearGradient>
<radialGradient id="paint9_radial_21_3753" cx="0" cy="0" r="1" gradientUnits="userSpaceOnUse" gradientTransform="translate(17.8331 26.6783) rotate(105.808) scale(3.45231 0.735196)">
<stop stop-color="#FC9D66"/>
<stop offset="1" stop-color="#FF8D4C" stop-opacity="0"/>
</radialGradient>
<radialGradient id="paint10_radial_21_3753" cx="0" cy="0" r="1" gradientUnits="userSpaceOnUse" gradientTransform="translate(19.5869 29.3979) rotate(112.479) scale(1.59543 1.18882)">
<stop stop-color="#FFA76E"/>
<stop offset="1" stop-color="#FF8D4C" stop-opacity="0"/>
</radialGradient>
<linearGradient id="paint11_linear_21_3753" x1="17.4456" y1="25.5" x2="17.2893" y2="30" gradientUnits="userSpaceOnUse">
<stop stop-color="#A84438"/>
<stop offset="0.227465" stop-color="#A84438" stop-opacity="0"/>
</linearGradient>
<linearGradient id="paint12_linear_21_3753" x1="5.03957" y1="5.7665" x2="13.6637" y2="5.7665" gradientUnits="userSpaceOnUse">
<stop stop-color="#ED1C26"/>
<stop offset="0.456" stop-color="#ED1452"/>
<stop offset="1" stop-color="#EC098C"/>
</linearGradient>
<radialGradient id="paint13_radial_21_3753" cx="0" cy="0" r="1" gradientUnits="userSpaceOnUse" gradientTransform="translate(13.0293 4.69222) rotate(109.938) scale(2.75787 3.15846)">
<stop stop-color="#FF6FAF"/>
<stop offset="1" stop-color="#FF6FAF" stop-opacity="0"/>
</radialGradient>
<radialGradient id="paint14_radial_21_3753" cx="0" cy="0" r="1" gradientUnits="userSpaceOnUse" gradientTransform="translate(10.2588 2.48091) rotate(109.29) scale(2.15434 2.46726)">
<stop stop-color="#FF6FAF"/>
<stop offset="1" stop-color="#FF6FAF" stop-opacity="0"/>
</radialGradient>
<radialGradient id="paint15_radial_21_3753" cx="0" cy="0" r="1" gradientUnits="userSpaceOnUse" gradientTransform="translate(6.36991 2.81133) rotate(76.8908) scale(1.90512 2.18184)">
<stop stop-color="#FF6FAF"/>
<stop offset="1" stop-color="#FF6FAF" stop-opacity="0"/>
</radialGradient>
<radialGradient id="paint16_radial_21_3753" cx="0" cy="0" r="1" gradientUnits="userSpaceOnUse" gradientTransform="translate(11.1357 3.6501) rotate(127.349) scale(2.66041 0.873586)">
<stop stop-color="#ED1937"/>
<stop offset="1" stop-color="#FF3E88" stop-opacity="0"/>
</radialGradient>
<radialGradient id="paint17_radial_21_3753" cx="0" cy="0" r="1" gradientUnits="userSpaceOnUse" gradientTransform="translate(7.43744 2.95113) rotate(61.9038) scale(1.808 0.858206)">
<stop stop-color="#ED1937"/>
<stop offset="1" stop-color="#FF3E88" stop-opacity="0"/>
</radialGradient>
<radialGradient id="paint18_radial_21_3753" cx="0" cy="0" r="1" gradientUnits="userSpaceOnUse" gradientTransform="translate(16.4101 26.4033) rotate(-90) scale(6.38822 49.9474)">
<stop stop-color="#8B386A"/>
<stop offset="1" stop-color="#8B386A" stop-opacity="0"/>
</radialGradient>
<linearGradient id="paint19_linear_21_3753" x1="0.337439" y1="19.3281" x2="9.53809" y2="19.3281" gradientUnits="userSpaceOnUse">
<stop stop-color="#7E292A"/>
<stop offset="1" stop-color="#7E292A" stop-opacity="0"/>
</linearGradient>
<radialGradient id="paint20_radial_21_3753" cx="0" cy="0" r="1" gradientUnits="userSpaceOnUse" gradientTransform="translate(4.54527 16.1495) rotate(90) scale(2.89148 2.01536)">
<stop stop-color="#7E292A"/>
<stop offset="1" stop-color="#7E292A" stop-opacity="0"/>
</radialGradient>
<radialGradient id="paint21_radial_21_3753" cx="0" cy="0" r="1" gradientUnits="userSpaceOnUse" gradientTransform="translate(12.3081 15.8366) rotate(58.8149) scale(7.99474 3.24676)">
<stop stop-color="#B18075"/>
<stop offset="1" stop-color="#905A54" stop-opacity="0"/>
</radialGradient>
<linearGradient id="paint22_linear_21_3753" x1="7.26956" y1="10.1858" x2="14.003" y2="8" gradientUnits="userSpaceOnUse">
<stop stop-color="#F97A37"/>
<stop offset="1" stop-color="#FFA661"/>
</linearGradient>
<radialGradient id="paint23_radial_21_3753" cx="0" cy="0" r="1" gradientUnits="userSpaceOnUse" gradientTransform="translate(10.0793 6.62394) rotate(97.0502) scale(4.53315 4.16797)">
<stop stop-color="#FFB468"/>
<stop offset="1" stop-color="#FFB468" stop-opacity="0"/>
</radialGradient>
<radialGradient id="paint24_radial_21_3753" cx="0" cy="0" r="1" gradientUnits="userSpaceOnUse" gradientTransform="translate(10.8419 8) rotate(64.68) scale(7.3913 1.6814)">
<stop stop-color="#FFB468"/>
<stop offset="1" stop-color="#FFB468" stop-opacity="0"/>
</radialGradient>
<linearGradient id="paint25_linear_21_3753" x1="3.70108" y1="7.97106" x2="4.51444" y2="10.2499" gradientUnits="userSpaceOnUse">
<stop stop-color="#F29E58"/>
<stop offset="0.348958" stop-color="#FFA65B"/>
<stop offset="1" stop-color="#E16953"/>
</linearGradient>
<radialGradient id="paint26_radial_21_3753" cx="0" cy="0" r="1" gradientUnits="userSpaceOnUse" gradientTransform="translate(5.07362 8.56488) rotate(-15.6446) scale(1.63651 1.20988)">
<stop stop-color="#FFB466"/>
<stop offset="1" stop-color="#FFB466" stop-opacity="0"/>
</radialGradient>
<linearGradient id="paint27_linear_21_3753" x1="9.21515" y1="6.5731" x2="3.85209" y2="14.1983" gradientUnits="userSpaceOnUse">
<stop stop-color="#FF3E77"/>
<stop offset="0.427083" stop-color="#F23C70"/>
<stop offset="1" stop-color="#D72278"/>
</linearGradient>
<radialGradient id="paint28_radial_21_3753" cx="0" cy="0" r="1" gradientUnits="userSpaceOnUse" gradientTransform="translate(7.25802 7.86939) rotate(98.9894) scale(6.20828 5.98955)">
<stop offset="0.233369" stop-color="#FF6CA5" stop-opacity="0"/>
<stop offset="0.33513" stop-color="#FF6CA5"/>
<stop offset="0.350014" stop-color="#FF6CA5"/>
<stop offset="0.418053" stop-color="#FF6CA5" stop-opacity="0"/>
</radialGradient>
<radialGradient id="paint29_radial_21_3753" cx="0" cy="0" r="1" gradientUnits="userSpaceOnUse" gradientTransform="translate(6.1875 9.8757) rotate(63.3056) scale(6.33026 6.09753)">
<stop offset="0.116707" stop-color="#E7406E"/>
<stop offset="0.692895" stop-color="#E7406E" stop-opacity="0"/>
</radialGradient>
<radialGradient id="paint30_radial_21_3753" cx="0" cy="0" r="1" gradientUnits="userSpaceOnUse" gradientTransform="translate(4.38585 12.4699) rotate(90) scale(2.10964 0.813356)">
<stop stop-color="#F76494"/>
<stop offset="1" stop-color="#E34D7E" stop-opacity="0"/>
</radialGradient>
<linearGradient id="paint31_linear_21_3753" x1="3.04297" y1="12.7495" x2="3.80125" y2="12.7495" gradientUnits="userSpaceOnUse">
<stop stop-color="#D54E67"/>
<stop offset="1" stop-color="#D54E67" stop-opacity="0"/>
</linearGradient>
<radialGradient id="paint32_radial_21_3753" cx="0" cy="0" r="1" gradientUnits="userSpaceOnUse" gradientTransform="translate(5.02129 11.4151) rotate(89.6506) scale(2.08426 0.785519)">
<stop stop-color="#C9155B"/>
<stop offset="1" stop-color="#E7316D" stop-opacity="0"/>
</radialGradient>
<radialGradient id="paint33_radial_21_3753" cx="0" cy="0" r="1" gradientUnits="userSpaceOnUse" gradientTransform="translate(7.17969 10.2422) rotate(178.733) scale(1.76606 0.665593)">
<stop stop-color="#C9155B"/>
<stop offset="1" stop-color="#E7316D" stop-opacity="0"/>
</radialGradient>
<radialGradient id="paint34_radial_21_3753" cx="0" cy="0" r="1" gradientUnits="userSpaceOnUse" gradientTransform="translate(5.68214 10.5573) rotate(69.2539) scale(0.896931 1.28199)">
<stop offset="0.351475" stop-color="#DC1B52"/>
<stop offset="0.605246" stop-color="#DC1B52" stop-opacity="0"/>
</radialGradient>
<radialGradient id="paint35_radial_21_3753" cx="0" cy="0" r="1" gradientUnits="userSpaceOnUse" gradientTransform="translate(6.69141 7.36475) rotate(125.838) scale(0.693863 0.618606)">
<stop offset="0.00558659" stop-color="#433437"/>
<stop offset="1" stop-color="#3B2838"/>
</radialGradient>
<radialGradient id="paint36_radial_21_3753" cx="0" cy="0" r="1" gradientUnits="userSpaceOnUse" gradientTransform="translate(6.72983 7.40063) rotate(137.643) scale(0.35946 0.316238)">
<stop stop-color="#5C5051"/>
<stop offset="1" stop-color="#5C5051" stop-opacity="0"/>
</radialGradient>
<linearGradient id="paint37_linear_21_3753" x1="6.44467" y1="7.13291" x2="6.10092" y2="6.91416" gradientUnits="userSpaceOnUse">
<stop stop-color="#5C5051" stop-opacity="0"/>
<stop offset="1" stop-color="#5C5051"/>
</linearGradient>
<linearGradient id="paint38_linear_21_3753" x1="30.5937" y1="15.5937" x2="19.5625" y2="6.75" gradientUnits="userSpaceOnUse">
<stop stop-color="#008461"/>
<stop offset="1" stop-color="#58705E"/>
</linearGradient>
<radialGradient id="paint39_radial_21_3753" cx="0" cy="0" r="1" gradientUnits="userSpaceOnUse" gradientTransform="translate(24.0483 11.0108) rotate(90) scale(6.01085 6.00531)">
<stop stop-color="#73A08C"/>
<stop offset="1" stop-color="#73A08C" stop-opacity="0"/>
</radialGradient>
<radialGradient id="paint40_radial_21_3753" cx="0" cy="0" r="1" gradientUnits="userSpaceOnUse" gradientTransform="translate(22.8438 15.5937) rotate(107.819) scale(6.43363 7.38481)">
<stop stop-color="#759787"/>
<stop offset="1" stop-color="#3B7861" stop-opacity="0"/>
</radialGradient>
<radialGradient id="paint41_radial_21_3753" cx="0" cy="0" r="1" gradientUnits="userSpaceOnUse" gradientTransform="translate(24.625 10.75) rotate(108.875) scale(11.5921 12.2434)">
<stop stop-color="#759787" stop-opacity="0.6"/>
<stop offset="0.477446" stop-color="#799687" stop-opacity="0"/>
</radialGradient>
<linearGradient id="paint42_linear_21_3753" x1="24.0483" y1="17.5728" x2="25.7507" y2="10.9905" gradientUnits="userSpaceOnUse">
<stop stop-color="#6C8578"/>
<stop offset="0.900873" stop-color="#6C8578" stop-opacity="0"/>
</linearGradient>
<radialGradient id="paint43_radial_21_3753" cx="0" cy="0" r="1" gradientUnits="userSpaceOnUse" gradientTransform="translate(17.7614 12.6193) scale(6.05112 19.3285)">
<stop offset="0.0935856" stop-color="#665A42"/>
<stop offset="1" stop-color="#5D7162" stop-opacity="0"/>
</radialGradient>
<radialGradient id="paint44_radial_21_3753" cx="0" cy="0" r="1" gradientUnits="userSpaceOnUse" gradientTransform="translate(27.5781 15.7187) rotate(30.8668) scale(1.58368 0.522448)">
<stop stop-color="#7B968A"/>
<stop offset="1" stop-color="#658979" stop-opacity="0"/>
</radialGradient>
<radialGradient id="paint45_radial_21_3753" cx="0" cy="0" r="1" gradientUnits="userSpaceOnUse" gradientTransform="translate(28.6406 13.6563) rotate(30.4655) scale(4.31442 0.72195)">
<stop stop-color="#7B968A"/>
<stop offset="1" stop-color="#658979" stop-opacity="0"/>
</radialGradient>
<radialGradient id="paint46_radial_21_3753" cx="0" cy="0" r="1" gradientUnits="userSpaceOnUse" gradientTransform="translate(28.3906 10.9219) rotate(27.6238) scale(3.4036 0.569538)">
<stop stop-color="#7B968A"/>
<stop offset="1" stop-color="#658979" stop-opacity="0"/>
</radialGradient>
<radialGradient id="paint47_radial_21_3753" cx="0" cy="0" r="1" gradientUnits="userSpaceOnUse" gradientTransform="translate(28.4687 8.90625) rotate(39.0563) scale(3.34019 1.77281)">
<stop stop-color="#7B968A"/>
<stop offset="1" stop-color="#658979" stop-opacity="0"/>
</radialGradient>
<radialGradient id="paint48_radial_21_3753" cx="0" cy="0" r="1" gradientUnits="userSpaceOnUse" gradientTransform="translate(28.4219 9.46094) rotate(29.6129) scale(2.10278 0.468265)">
<stop stop-color="#256950"/>
<stop offset="1" stop-color="#256950" stop-opacity="0"/>
</radialGradient>
<radialGradient id="paint49_radial_21_3753" cx="0" cy="0" r="1" gradientUnits="userSpaceOnUse" gradientTransform="translate(27.1953 9.16406) rotate(31.5043) scale(0.852172 0.74815)">
<stop stop-color="#256950"/>
<stop offset="1" stop-color="#256950" stop-opacity="0"/>
</radialGradient>
<radialGradient id="paint50_radial_21_3753" cx="0" cy="0" r="1" gradientUnits="userSpaceOnUse" gradientTransform="translate(28.3594 12.0781) rotate(30.2939) scale(1.71912 0.382828)">
<stop stop-color="#256950"/>
<stop offset="1" stop-color="#256950" stop-opacity="0"/>
</radialGradient>
<radialGradient id="paint51_radial_21_3753" cx="0" cy="0" r="1" gradientUnits="userSpaceOnUse" gradientTransform="translate(27.0156 11.7891) rotate(28.6105) scale(0.587341 0.575856)">
<stop stop-color="#256950"/>
<stop offset="1" stop-color="#256950" stop-opacity="0"/>
</radialGradient>
<radialGradient id="paint52_radial_21_3753" cx="0" cy="0" r="1" gradientUnits="userSpaceOnUse" gradientTransform="translate(28.1953 14.7188) rotate(27.6811) scale(1.61447 0.359523)">
<stop stop-color="#256950"/>
<stop offset="1" stop-color="#256950" stop-opacity="0"/>
</radialGradient>
<radialGradient id="paint53_radial_21_3753" cx="0" cy="0" r="1" gradientUnits="userSpaceOnUse" gradientTransform="translate(27.0703 14.4844) rotate(14.2159) scale(0.604447 0.592627)">
<stop stop-color="#256950"/>
<stop offset="1" stop-color="#256950" stop-opacity="0"/>
</radialGradient>
<linearGradient id="paint54_linear_21_3753" x1="20.8351" y1="27.7319" x2="7.42664" y2="25.8449" gradientUnits="userSpaceOnUse">
<stop stop-color="#EC7D4D"/>
<stop offset="1" stop-color="#885751"/>
</linearGradient>
<radialGradient id="paint55_radial_21_3753" cx="0" cy="0" r="1" gradientUnits="userSpaceOnUse" gradientTransform="translate(16.1744 17.8776) rotate(87.5005) scale(6.56912 9.77527)">
<stop offset="0.711639" stop-color="#BE635D" stop-opacity="0"/>
<stop offset="1" stop-color="#B43A83"/>
</radialGradient>
<radialGradient id="paint56_radial_21_3753" cx="0" cy="0" r="1" gradientUnits="userSpaceOnUse" gradientTransform="translate(20.3518 16.5625) scale(8.125 1.6875)">
<stop stop-color="#E09064"/>
<stop offset="1" stop-color="#C1715A" stop-opacity="0"/>
</radialGradient>
<linearGradient id="paint57_linear_21_3753" x1="19.4597" y1="15.7435" x2="19.3049" y2="16.7964" gradientUnits="userSpaceOnUse">
<stop stop-color="#DD813E"/>
<stop offset="1" stop-color="#DD813E" stop-opacity="0"/>
</linearGradient>
<radialGradient id="paint58_radial_21_3753" cx="0" cy="0" r="1" gradientUnits="userSpaceOnUse" gradientTransform="translate(25.523 16.1498) rotate(159.253) scale(4.29772 1.20949)">
<stop stop-color="#F1A06D"/>
<stop offset="1" stop-color="#F1A06D" stop-opacity="0"/>
</radialGradient>
<radialGradient id="paint59_radial_21_3753" cx="0" cy="0" r="1" gradientUnits="userSpaceOnUse" gradientTransform="translate(19.1018 18.9375) rotate(109.103) scale(8.06937 12.0077)">
<stop offset="0.85971" stop-color="#915C52" stop-opacity="0"/>
<stop offset="0.956836" stop-color="#9D7371"/>
</radialGradient>
</defs>
</svg>
