<svg width="40" height="41" viewBox="0 0 40 41" fill="none" xmlns="http://www.w3.org/2000/svg">
<g id="Emoji/Thermometer">
<g id="Vector">
<path d="M27.2155 21.2656L11.078 5.12809C9.12803 3.17809 5.96553 3.17809 4.00303 5.12809C2.05303 7.07809 2.05303 10.2406 4.00303 12.2031L20.1405 28.3406C19.653 31.0656 20.4655 33.9656 22.5655 36.0656C25.978 39.4781 31.528 39.4781 34.9405 36.0656C38.353 32.6531 38.353 27.1031 34.9405 23.6906C32.8405 21.5906 29.9405 20.7906 27.2155 21.2656Z" fill="url(#paint0_linear_8_3264)"/>
<path d="M27.2155 21.2656L11.078 5.12809C9.12803 3.17809 5.96553 3.17809 4.00303 5.12809C2.05303 7.07809 2.05303 10.2406 4.00303 12.2031L20.1405 28.3406C19.653 31.0656 20.4655 33.9656 22.5655 36.0656C25.978 39.4781 31.528 39.4781 34.9405 36.0656C38.353 32.6531 38.353 27.1031 34.9405 23.6906C32.8405 21.5906 29.9405 20.7906 27.2155 21.2656Z" fill="url(#paint1_linear_8_3264)"/>
<path d="M27.2155 21.2656L11.078 5.12809C9.12803 3.17809 5.96553 3.17809 4.00303 5.12809C2.05303 7.07809 2.05303 10.2406 4.00303 12.2031L20.1405 28.3406C19.653 31.0656 20.4655 33.9656 22.5655 36.0656C25.978 39.4781 31.528 39.4781 34.9405 36.0656C38.353 32.6531 38.353 27.1031 34.9405 23.6906C32.8405 21.5906 29.9405 20.7906 27.2155 21.2656Z" fill="url(#paint2_radial_8_3264)"/>
</g>
<g id="Vector_2">
<path d="M28.7852 36.1078C32.2369 36.1078 35.0352 33.3095 35.0352 29.8578C35.0352 26.406 32.2369 23.6078 28.7852 23.6078C25.3334 23.6078 22.5352 26.406 22.5352 29.8578C22.5352 33.3095 25.3334 36.1078 28.7852 36.1078Z" fill="url(#paint3_radial_8_3264)"/>
<path d="M28.7852 36.1078C32.2369 36.1078 35.0352 33.3095 35.0352 29.8578C35.0352 26.406 32.2369 23.6078 28.7852 23.6078C25.3334 23.6078 22.5352 26.406 22.5352 29.8578C22.5352 33.3095 25.3334 36.1078 28.7852 36.1078Z" fill="url(#paint4_radial_8_3264)"/>
</g>
<g id="Vector_3">
<path d="M9.375 10.7125C8.4 11.6875 8.4 13.275 9.375 14.25L23.0049 27.5494L26.5424 24.0119L12.9125 10.7125C11.925 9.73747 10.35 9.73747 9.375 10.7125Z" fill="url(#paint5_linear_8_3264)"/>
<path d="M9.375 10.7125C8.4 11.6875 8.4 13.275 9.375 14.25L23.0049 27.5494L26.5424 24.0119L12.9125 10.7125C11.925 9.73747 10.35 9.73747 9.375 10.7125Z" fill="url(#paint6_radial_8_3264)"/>
</g>
<path id="Vector_4" d="M30.7685 32.3714C32.452 32.3714 33.8168 31.0067 33.8168 29.3231C33.8168 27.6396 32.452 26.2748 30.7685 26.2748C29.085 26.2748 27.7202 27.6396 27.7202 29.3231C27.7202 31.0067 29.085 32.3714 30.7685 32.3714Z" fill="url(#paint7_linear_8_3264)"/>
<g id="Vector 90">
<path d="M7.61133 5.0515C8.04753 4.91478 9.22852 4.94993 10.4629 6.18431C11.6973 7.41868 21.7064 17.5059 26.5566 22.3953" stroke="url(#paint8_linear_8_3264)" stroke-linecap="round"/>
<path d="M7.61133 5.0515C8.04753 4.91478 9.22852 4.94993 10.4629 6.18431C11.6973 7.41868 21.7064 17.5059 26.5566 22.3953" stroke="url(#paint9_radial_8_3264)" stroke-linecap="round"/>
<path d="M7.61133 5.0515C8.04753 4.91478 9.22852 4.94993 10.4629 6.18431C11.6973 7.41868 21.7064 17.5059 26.5566 22.3953" stroke="url(#paint10_radial_8_3264)" stroke-linecap="round"/>
</g>
<path id="Vector_5" d="M20.8102 20.1578L23.4602 17.5078L25.2227 19.2703L22.5727 21.9203C22.0852 22.4078 21.2977 22.4078 20.8102 21.9203C20.3227 21.4328 20.3227 20.6453 20.8102 20.1578Z" fill="#3D2A5B"/>
<path id="Vector_6" d="M15.5102 14.8578L18.1602 12.2078L19.9227 13.9703L17.2727 16.6203C16.7852 17.1078 15.9977 17.1078 15.5102 16.6203C15.0227 16.1328 15.0227 15.3453 15.5102 14.8578Z" fill="#3D2A5B"/>
<path id="Vector_7" d="M10.2104 9.54526L12.8604 6.89526L14.6229 8.65777L11.9729 11.3078C11.4854 11.7953 10.6979 11.7953 10.2104 11.3078C9.72285 10.8328 9.72285 10.0328 10.2104 9.54526Z" fill="#3D2A5B"/>
<g id="Ellipse 81">
<path d="M28.7852 37.1657C32.8213 37.1657 36.0932 33.8938 36.0932 29.8577C36.0932 25.8216 32.8213 22.5497 28.7852 22.5497" stroke="url(#paint11_radial_8_3264)" stroke-width="0.75" stroke-linecap="round"/>
<path d="M28.7852 37.1657C32.8213 37.1657 36.0932 33.8938 36.0932 29.8577C36.0932 25.8216 32.8213 22.5497 28.7852 22.5497" stroke="url(#paint12_radial_8_3264)" stroke-width="0.75" stroke-linecap="round"/>
<path d="M28.7852 37.1657C32.8213 37.1657 36.0932 33.8938 36.0932 29.8577C36.0932 25.8216 32.8213 22.5497 28.7852 22.5497" stroke="url(#paint13_radial_8_3264)" stroke-width="0.75" stroke-linecap="round"/>
</g>
</g>
<defs>
<linearGradient id="paint0_linear_8_3264" x1="20.8415" y1="28.787" x2="28.3106" y2="20.8071" gradientUnits="userSpaceOnUse">
<stop offset="0.0208333" stop-color="#A8D2FF"/>
<stop offset="1" stop-color="#B1DFFF"/>
</linearGradient>
<linearGradient id="paint1_linear_8_3264" x1="19.9999" y1="29.875" x2="28.1249" y2="21.125" gradientUnits="userSpaceOnUse">
<stop offset="0.130893" stop-color="#ACCCF6"/>
<stop offset="0.130993" stop-color="#ACCCF6" stop-opacity="0"/>
<stop offset="0.953125" stop-color="#ACCCF6" stop-opacity="0"/>
<stop offset="1" stop-color="#ACCCF6"/>
</linearGradient>
<radialGradient id="paint2_radial_8_3264" cx="0" cy="0" r="1" gradientUnits="userSpaceOnUse" gradientTransform="translate(28.7499 29.875) rotate(-45) scale(8.83884)">
<stop offset="0.791667" stop-color="#B0DEFF"/>
<stop offset="0.921875" stop-color="#B0DEFF"/>
<stop offset="1" stop-color="#B0DEFF" stop-opacity="0"/>
</radialGradient>
<radialGradient id="paint3_radial_8_3264" cx="0" cy="0" r="1" gradientUnits="userSpaceOnUse" gradientTransform="translate(31.79 27.6814) rotate(157.855) scale(9.99193 9.99193)">
<stop offset="0.55222" stop-color="#FF285E"/>
<stop offset="1" stop-color="#BC2238"/>
</radialGradient>
<radialGradient id="paint4_radial_8_3264" cx="0" cy="0" r="1" gradientUnits="userSpaceOnUse" gradientTransform="translate(24.6401 25.3194) rotate(45.616) scale(2.09916 3.56348)">
<stop offset="0.40578" stop-color="#F12D4A"/>
<stop offset="1" stop-color="#F12D4A" stop-opacity="0"/>
</radialGradient>
<linearGradient id="paint5_linear_8_3264" x1="13.7615" y1="18.3657" x2="17.297" y2="14.8302" gradientUnits="userSpaceOnUse">
<stop stop-color="#C81871"/>
<stop offset="1" stop-color="#FF389D"/>
</linearGradient>
<radialGradient id="paint6_radial_8_3264" cx="0" cy="0" r="1" gradientUnits="userSpaceOnUse" gradientTransform="translate(25.9169 26.4684) rotate(-175.285) scale(6.21336 11.7942)">
<stop stop-color="#FF3262"/>
<stop offset="1" stop-color="#FF3262" stop-opacity="0"/>
</radialGradient>
<linearGradient id="paint7_linear_8_3264" x1="29.6833" y1="26.2748" x2="29.6833" y2="32.3714" gradientUnits="userSpaceOnUse">
<stop stop-color="white"/>
<stop offset="0.733331" stop-color="white" stop-opacity="0.1"/>
</linearGradient>
<linearGradient id="paint8_linear_8_3264" x1="18.1249" y1="16.75" x2="19.9999" y2="14.875" gradientUnits="userSpaceOnUse">
<stop offset="0.515625" stop-color="#C8F6FF" stop-opacity="0"/>
<stop offset="0.830729" stop-color="#C8F6FF" stop-opacity="0.8"/>
<stop offset="0.919271" stop-color="#C8F6FF" stop-opacity="0.5"/>
<stop offset="1" stop-color="#C8F6FF" stop-opacity="0"/>
</linearGradient>
<radialGradient id="paint9_radial_8_3264" cx="0" cy="0" r="1" gradientUnits="userSpaceOnUse" gradientTransform="translate(27.4999 23.625) rotate(45) scale(1.76777)">
<stop offset="0.578125" stop-color="#B0DDFF"/>
<stop offset="1" stop-color="#B0DDFF" stop-opacity="0"/>
</radialGradient>
<radialGradient id="paint10_radial_8_3264" cx="0" cy="0" r="1" gradientUnits="userSpaceOnUse" gradientTransform="translate(8.12494 4.24996) rotate(-90) scale(1.25 8.94531)">
<stop offset="0.0144228" stop-color="#B0DDFF"/>
<stop offset="1" stop-color="#B0DDFF" stop-opacity="0"/>
</radialGradient>
<radialGradient id="paint11_radial_8_3264" cx="0" cy="0" r="1" gradientUnits="userSpaceOnUse" gradientTransform="translate(28.7501 29.875) rotate(8.74616) scale(8.22059)">
<stop offset="0.811055" stop-color="#B2DFFF"/>
<stop offset="0.837112" stop-color="#B2DFFF" stop-opacity="0"/>
<stop offset="0.866194" stop-color="#C1EEFF" stop-opacity="0.5"/>
<stop offset="0.893064" stop-color="#C1EEFF"/>
<stop offset="0.925217" stop-color="#C1EEFF" stop-opacity="0.5"/>
<stop offset="0.960531" stop-color="#B0DDFF" stop-opacity="0"/>
<stop offset="1" stop-color="#B0DDFF"/>
</radialGradient>
<radialGradient id="paint12_radial_8_3264" cx="0" cy="0" r="1" gradientUnits="userSpaceOnUse" gradientTransform="translate(28.1251 22.375) rotate(-90) scale(1.25)">
<stop offset="0.0144228" stop-color="#B0DDFF"/>
<stop offset="1" stop-color="#B0DDFF" stop-opacity="0"/>
</radialGradient>
<radialGradient id="paint13_radial_8_3264" cx="0" cy="0" r="1" gradientUnits="userSpaceOnUse" gradientTransform="translate(28.1251 37.375) rotate(-153.435) scale(1.39754)">
<stop offset="0.2625" stop-color="#A8D2FF"/>
<stop offset="1" stop-color="#A8D2FF" stop-opacity="0"/>
</radialGradient>
</defs>
</svg>
