<svg width="40" height="41" viewBox="0 0 40 41" fill="none" xmlns="http://www.w3.org/2000/svg">
<g id="Emoji/Wind">
<g id="Vector">
<path d="M25.5644 10.0208C25.447 10.0208 25.0654 10.0502 24.9479 10.0502C23.6269 7.37878 20.8968 5.5 17.697 5.5C13.2055 5.5 9.53603 9.14015 9.53603 13.661C9.53603 15.4535 10.1289 17.1014 11.1218 18.4423C11.8399 19.412 12.0979 20.7524 11.3344 21.6868C9.42659 24.0214 6.72608 26.1922 3.019 26.9005C2.43188 27.018 2.31446 27.7812 2.81351 28.1041C4.86843 29.3958 9.03698 31.5388 14.3504 31.9791C14.4972 34.2102 16.3173 35.9715 18.5777 35.9715C20.7781 35.9715 22.592 34.2963 22.8119 32.1534C22.8349 31.9292 23.043 31.7616 23.2643 31.8039C23.9224 31.9295 24.5966 32.0085 25.2709 32.0085C31.3475 32.0085 36.25 27.0767 36.25 21.0293C36.25 14.982 31.6411 10.0208 25.5644 10.0208Z" fill="#38B6E3"/>
<path d="M25.5644 10.0208C25.447 10.0208 25.0654 10.0502 24.9479 10.0502C23.6269 7.37878 20.8968 5.5 17.697 5.5C13.2055 5.5 9.53603 9.14015 9.53603 13.661C9.53603 15.4535 10.1289 17.1014 11.1218 18.4423C11.8399 19.412 12.0979 20.7524 11.3344 21.6868C9.42659 24.0214 6.72608 26.1922 3.019 26.9005C2.43188 27.018 2.31446 27.7812 2.81351 28.1041C4.86843 29.3958 9.03698 31.5388 14.3504 31.9791C14.4972 34.2102 16.3173 35.9715 18.5777 35.9715C20.7781 35.9715 22.592 34.2963 22.8119 32.1534C22.8349 31.9292 23.043 31.7616 23.2643 31.8039C23.9224 31.9295 24.5966 32.0085 25.2709 32.0085C31.3475 32.0085 36.25 27.0767 36.25 21.0293C36.25 14.982 31.6411 10.0208 25.5644 10.0208Z" fill="url(#paint0_radial_8_3296)"/>
<path d="M25.5644 10.0208C25.447 10.0208 25.0654 10.0502 24.9479 10.0502C23.6269 7.37878 20.8968 5.5 17.697 5.5C13.2055 5.5 9.53603 9.14015 9.53603 13.661C9.53603 15.4535 10.1289 17.1014 11.1218 18.4423C11.8399 19.412 12.0979 20.7524 11.3344 21.6868C9.42659 24.0214 6.72608 26.1922 3.019 26.9005C2.43188 27.018 2.31446 27.7812 2.81351 28.1041C4.86843 29.3958 9.03698 31.5388 14.3504 31.9791C14.4972 34.2102 16.3173 35.9715 18.5777 35.9715C20.7781 35.9715 22.592 34.2963 22.8119 32.1534C22.8349 31.9292 23.043 31.7616 23.2643 31.8039C23.9224 31.9295 24.5966 32.0085 25.2709 32.0085C31.3475 32.0085 36.25 27.0767 36.25 21.0293C36.25 14.982 31.6411 10.0208 25.5644 10.0208Z" fill="url(#paint1_radial_8_3296)"/>
<path d="M25.5644 10.0208C25.447 10.0208 25.0654 10.0502 24.9479 10.0502C23.6269 7.37878 20.8968 5.5 17.697 5.5C13.2055 5.5 9.53603 9.14015 9.53603 13.661C9.53603 15.4535 10.1289 17.1014 11.1218 18.4423C11.8399 19.412 12.0979 20.7524 11.3344 21.6868C9.42659 24.0214 6.72608 26.1922 3.019 26.9005C2.43188 27.018 2.31446 27.7812 2.81351 28.1041C4.86843 29.3958 9.03698 31.5388 14.3504 31.9791C14.4972 34.2102 16.3173 35.9715 18.5777 35.9715C20.7781 35.9715 22.592 34.2963 22.8119 32.1534C22.8349 31.9292 23.043 31.7616 23.2643 31.8039C23.9224 31.9295 24.5966 32.0085 25.2709 32.0085C31.3475 32.0085 36.25 27.0767 36.25 21.0293C36.25 14.982 31.6411 10.0208 25.5644 10.0208Z" fill="url(#paint2_radial_8_3296)"/>
<path d="M25.5644 10.0208C25.447 10.0208 25.0654 10.0502 24.9479 10.0502C23.6269 7.37878 20.8968 5.5 17.697 5.5C13.2055 5.5 9.53603 9.14015 9.53603 13.661C9.53603 15.4535 10.1289 17.1014 11.1218 18.4423C11.8399 19.412 12.0979 20.7524 11.3344 21.6868C9.42659 24.0214 6.72608 26.1922 3.019 26.9005C2.43188 27.018 2.31446 27.7812 2.81351 28.1041C4.86843 29.3958 9.03698 31.5388 14.3504 31.9791C14.4972 34.2102 16.3173 35.9715 18.5777 35.9715C20.7781 35.9715 22.592 34.2963 22.8119 32.1534C22.8349 31.9292 23.043 31.7616 23.2643 31.8039C23.9224 31.9295 24.5966 32.0085 25.2709 32.0085C31.3475 32.0085 36.25 27.0767 36.25 21.0293C36.25 14.982 31.6411 10.0208 25.5644 10.0208Z" fill="url(#paint3_radial_8_3296)"/>
<path d="M25.5644 10.0208C25.447 10.0208 25.0654 10.0502 24.9479 10.0502C23.6269 7.37878 20.8968 5.5 17.697 5.5C13.2055 5.5 9.53603 9.14015 9.53603 13.661C9.53603 15.4535 10.1289 17.1014 11.1218 18.4423C11.8399 19.412 12.0979 20.7524 11.3344 21.6868C9.42659 24.0214 6.72608 26.1922 3.019 26.9005C2.43188 27.018 2.31446 27.7812 2.81351 28.1041C4.86843 29.3958 9.03698 31.5388 14.3504 31.9791C14.4972 34.2102 16.3173 35.9715 18.5777 35.9715C20.7781 35.9715 22.592 34.2963 22.8119 32.1534C22.8349 31.9292 23.043 31.7616 23.2643 31.8039C23.9224 31.9295 24.5966 32.0085 25.2709 32.0085C31.3475 32.0085 36.25 27.0767 36.25 21.0293C36.25 14.982 31.6411 10.0208 25.5644 10.0208Z" fill="url(#paint4_radial_8_3296)"/>
<path d="M25.5644 10.0208C25.447 10.0208 25.0654 10.0502 24.9479 10.0502C23.6269 7.37878 20.8968 5.5 17.697 5.5C13.2055 5.5 9.53603 9.14015 9.53603 13.661C9.53603 15.4535 10.1289 17.1014 11.1218 18.4423C11.8399 19.412 12.0979 20.7524 11.3344 21.6868C9.42659 24.0214 6.72608 26.1922 3.019 26.9005C2.43188 27.018 2.31446 27.7812 2.81351 28.1041C4.86843 29.3958 9.03698 31.5388 14.3504 31.9791C14.4972 34.2102 16.3173 35.9715 18.5777 35.9715C20.7781 35.9715 22.592 34.2963 22.8119 32.1534C22.8349 31.9292 23.043 31.7616 23.2643 31.8039C23.9224 31.9295 24.5966 32.0085 25.2709 32.0085C31.3475 32.0085 36.25 27.0767 36.25 21.0293C36.25 14.982 31.6411 10.0208 25.5644 10.0208Z" fill="url(#paint5_radial_8_3296)"/>
<path d="M25.5644 10.0208C25.447 10.0208 25.0654 10.0502 24.9479 10.0502C23.6269 7.37878 20.8968 5.5 17.697 5.5C13.2055 5.5 9.53603 9.14015 9.53603 13.661C9.53603 15.4535 10.1289 17.1014 11.1218 18.4423C11.8399 19.412 12.0979 20.7524 11.3344 21.6868C9.42659 24.0214 6.72608 26.1922 3.019 26.9005C2.43188 27.018 2.31446 27.7812 2.81351 28.1041C4.86843 29.3958 9.03698 31.5388 14.3504 31.9791C14.4972 34.2102 16.3173 35.9715 18.5777 35.9715C20.7781 35.9715 22.592 34.2963 22.8119 32.1534C22.8349 31.9292 23.043 31.7616 23.2643 31.8039C23.9224 31.9295 24.5966 32.0085 25.2709 32.0085C31.3475 32.0085 36.25 27.0767 36.25 21.0293C36.25 14.982 31.6411 10.0208 25.5644 10.0208Z" fill="url(#paint6_radial_8_3296)"/>
<path d="M25.5644 10.0208C25.447 10.0208 25.0654 10.0502 24.9479 10.0502C23.6269 7.37878 20.8968 5.5 17.697 5.5C13.2055 5.5 9.53603 9.14015 9.53603 13.661C9.53603 15.4535 10.1289 17.1014 11.1218 18.4423C11.8399 19.412 12.0979 20.7524 11.3344 21.6868C9.42659 24.0214 6.72608 26.1922 3.019 26.9005C2.43188 27.018 2.31446 27.7812 2.81351 28.1041C4.86843 29.3958 9.03698 31.5388 14.3504 31.9791C14.4972 34.2102 16.3173 35.9715 18.5777 35.9715C20.7781 35.9715 22.592 34.2963 22.8119 32.1534C22.8349 31.9292 23.043 31.7616 23.2643 31.8039C23.9224 31.9295 24.5966 32.0085 25.2709 32.0085C31.3475 32.0085 36.25 27.0767 36.25 21.0293C36.25 14.982 31.6411 10.0208 25.5644 10.0208Z" fill="url(#paint7_radial_8_3296)"/>
<path d="M25.5644 10.0208C25.447 10.0208 25.0654 10.0502 24.9479 10.0502C23.6269 7.37878 20.8968 5.5 17.697 5.5C13.2055 5.5 9.53603 9.14015 9.53603 13.661C9.53603 15.4535 10.1289 17.1014 11.1218 18.4423C11.8399 19.412 12.0979 20.7524 11.3344 21.6868C9.42659 24.0214 6.72608 26.1922 3.019 26.9005C2.43188 27.018 2.31446 27.7812 2.81351 28.1041C4.86843 29.3958 9.03698 31.5388 14.3504 31.9791C14.4972 34.2102 16.3173 35.9715 18.5777 35.9715C20.7781 35.9715 22.592 34.2963 22.8119 32.1534C22.8349 31.9292 23.043 31.7616 23.2643 31.8039C23.9224 31.9295 24.5966 32.0085 25.2709 32.0085C31.3475 32.0085 36.25 27.0767 36.25 21.0293C36.25 14.982 31.6411 10.0208 25.5644 10.0208Z" fill="url(#paint8_radial_8_3296)"/>
<path d="M25.5644 10.0208C25.447 10.0208 25.0654 10.0502 24.9479 10.0502C23.6269 7.37878 20.8968 5.5 17.697 5.5C13.2055 5.5 9.53603 9.14015 9.53603 13.661C9.53603 15.4535 10.1289 17.1014 11.1218 18.4423C11.8399 19.412 12.0979 20.7524 11.3344 21.6868C9.42659 24.0214 6.72608 26.1922 3.019 26.9005C2.43188 27.018 2.31446 27.7812 2.81351 28.1041C4.86843 29.3958 9.03698 31.5388 14.3504 31.9791C14.4972 34.2102 16.3173 35.9715 18.5777 35.9715C20.7781 35.9715 22.592 34.2963 22.8119 32.1534C22.8349 31.9292 23.043 31.7616 23.2643 31.8039C23.9224 31.9295 24.5966 32.0085 25.2709 32.0085C31.3475 32.0085 36.25 27.0767 36.25 21.0293C36.25 14.982 31.6411 10.0208 25.5644 10.0208Z" fill="url(#paint9_radial_8_3296)"/>
<path d="M25.5644 10.0208C25.447 10.0208 25.0654 10.0502 24.9479 10.0502C23.6269 7.37878 20.8968 5.5 17.697 5.5C13.2055 5.5 9.53603 9.14015 9.53603 13.661C9.53603 15.4535 10.1289 17.1014 11.1218 18.4423C11.8399 19.412 12.0979 20.7524 11.3344 21.6868C9.42659 24.0214 6.72608 26.1922 3.019 26.9005C2.43188 27.018 2.31446 27.7812 2.81351 28.1041C4.86843 29.3958 9.03698 31.5388 14.3504 31.9791C14.4972 34.2102 16.3173 35.9715 18.5777 35.9715C20.7781 35.9715 22.592 34.2963 22.8119 32.1534C22.8349 31.9292 23.043 31.7616 23.2643 31.8039C23.9224 31.9295 24.5966 32.0085 25.2709 32.0085C31.3475 32.0085 36.25 27.0767 36.25 21.0293C36.25 14.982 31.6411 10.0208 25.5644 10.0208Z" fill="url(#paint10_radial_8_3296)"/>
<path d="M25.5644 10.0208C25.447 10.0208 25.0654 10.0502 24.9479 10.0502C23.6269 7.37878 20.8968 5.5 17.697 5.5C13.2055 5.5 9.53603 9.14015 9.53603 13.661C9.53603 15.4535 10.1289 17.1014 11.1218 18.4423C11.8399 19.412 12.0979 20.7524 11.3344 21.6868C9.42659 24.0214 6.72608 26.1922 3.019 26.9005C2.43188 27.018 2.31446 27.7812 2.81351 28.1041C4.86843 29.3958 9.03698 31.5388 14.3504 31.9791C14.4972 34.2102 16.3173 35.9715 18.5777 35.9715C20.7781 35.9715 22.592 34.2963 22.8119 32.1534C22.8349 31.9292 23.043 31.7616 23.2643 31.8039C23.9224 31.9295 24.5966 32.0085 25.2709 32.0085C31.3475 32.0085 36.25 27.0767 36.25 21.0293C36.25 14.982 31.6411 10.0208 25.5644 10.0208Z" fill="url(#paint11_radial_8_3296)"/>
<path d="M25.5644 10.0208C25.447 10.0208 25.0654 10.0502 24.9479 10.0502C23.6269 7.37878 20.8968 5.5 17.697 5.5C13.2055 5.5 9.53603 9.14015 9.53603 13.661C9.53603 15.4535 10.1289 17.1014 11.1218 18.4423C11.8399 19.412 12.0979 20.7524 11.3344 21.6868C9.42659 24.0214 6.72608 26.1922 3.019 26.9005C2.43188 27.018 2.31446 27.7812 2.81351 28.1041C4.86843 29.3958 9.03698 31.5388 14.3504 31.9791C14.4972 34.2102 16.3173 35.9715 18.5777 35.9715C20.7781 35.9715 22.592 34.2963 22.8119 32.1534C22.8349 31.9292 23.043 31.7616 23.2643 31.8039C23.9224 31.9295 24.5966 32.0085 25.2709 32.0085C31.3475 32.0085 36.25 27.0767 36.25 21.0293C36.25 14.982 31.6411 10.0208 25.5644 10.0208Z" fill="url(#paint12_radial_8_3296)"/>
<path d="M25.5644 10.0208C25.447 10.0208 25.0654 10.0502 24.9479 10.0502C23.6269 7.37878 20.8968 5.5 17.697 5.5C13.2055 5.5 9.53603 9.14015 9.53603 13.661C9.53603 15.4535 10.1289 17.1014 11.1218 18.4423C11.8399 19.412 12.0979 20.7524 11.3344 21.6868C9.42659 24.0214 6.72608 26.1922 3.019 26.9005C2.43188 27.018 2.31446 27.7812 2.81351 28.1041C4.86843 29.3958 9.03698 31.5388 14.3504 31.9791C14.4972 34.2102 16.3173 35.9715 18.5777 35.9715C20.7781 35.9715 22.592 34.2963 22.8119 32.1534C22.8349 31.9292 23.043 31.7616 23.2643 31.8039C23.9224 31.9295 24.5966 32.0085 25.2709 32.0085C31.3475 32.0085 36.25 27.0767 36.25 21.0293C36.25 14.982 31.6411 10.0208 25.5644 10.0208Z" fill="url(#paint13_radial_8_3296)"/>
<path d="M25.5644 10.0208C25.447 10.0208 25.0654 10.0502 24.9479 10.0502C23.6269 7.37878 20.8968 5.5 17.697 5.5C13.2055 5.5 9.53603 9.14015 9.53603 13.661C9.53603 15.4535 10.1289 17.1014 11.1218 18.4423C11.8399 19.412 12.0979 20.7524 11.3344 21.6868C9.42659 24.0214 6.72608 26.1922 3.019 26.9005C2.43188 27.018 2.31446 27.7812 2.81351 28.1041C4.86843 29.3958 9.03698 31.5388 14.3504 31.9791C14.4972 34.2102 16.3173 35.9715 18.5777 35.9715C20.7781 35.9715 22.592 34.2963 22.8119 32.1534C22.8349 31.9292 23.043 31.7616 23.2643 31.8039C23.9224 31.9295 24.5966 32.0085 25.2709 32.0085C31.3475 32.0085 36.25 27.0767 36.25 21.0293C36.25 14.982 31.6411 10.0208 25.5644 10.0208Z" fill="url(#paint14_radial_8_3296)"/>
<path d="M25.5644 10.0208C25.447 10.0208 25.0654 10.0502 24.9479 10.0502C23.6269 7.37878 20.8968 5.5 17.697 5.5C13.2055 5.5 9.53603 9.14015 9.53603 13.661C9.53603 15.4535 10.1289 17.1014 11.1218 18.4423C11.8399 19.412 12.0979 20.7524 11.3344 21.6868C9.42659 24.0214 6.72608 26.1922 3.019 26.9005C2.43188 27.018 2.31446 27.7812 2.81351 28.1041C4.86843 29.3958 9.03698 31.5388 14.3504 31.9791C14.4972 34.2102 16.3173 35.9715 18.5777 35.9715C20.7781 35.9715 22.592 34.2963 22.8119 32.1534C22.8349 31.9292 23.043 31.7616 23.2643 31.8039C23.9224 31.9295 24.5966 32.0085 25.2709 32.0085C31.3475 32.0085 36.25 27.0767 36.25 21.0293C36.25 14.982 31.6411 10.0208 25.5644 10.0208Z" fill="url(#paint15_radial_8_3296)"/>
<path d="M25.5644 10.0208C25.447 10.0208 25.0654 10.0502 24.9479 10.0502C23.6269 7.37878 20.8968 5.5 17.697 5.5C13.2055 5.5 9.53603 9.14015 9.53603 13.661C9.53603 15.4535 10.1289 17.1014 11.1218 18.4423C11.8399 19.412 12.0979 20.7524 11.3344 21.6868C9.42659 24.0214 6.72608 26.1922 3.019 26.9005C2.43188 27.018 2.31446 27.7812 2.81351 28.1041C4.86843 29.3958 9.03698 31.5388 14.3504 31.9791C14.4972 34.2102 16.3173 35.9715 18.5777 35.9715C20.7781 35.9715 22.592 34.2963 22.8119 32.1534C22.8349 31.9292 23.043 31.7616 23.2643 31.8039C23.9224 31.9295 24.5966 32.0085 25.2709 32.0085C31.3475 32.0085 36.25 27.0767 36.25 21.0293C36.25 14.982 31.6411 10.0208 25.5644 10.0208Z" fill="url(#paint16_radial_8_3296)" fill-opacity="0.9"/>
<path d="M25.5644 10.0208C25.447 10.0208 25.0654 10.0502 24.9479 10.0502C23.6269 7.37878 20.8968 5.5 17.697 5.5C13.2055 5.5 9.53603 9.14015 9.53603 13.661C9.53603 15.4535 10.1289 17.1014 11.1218 18.4423C11.8399 19.412 12.0979 20.7524 11.3344 21.6868C9.42659 24.0214 6.72608 26.1922 3.019 26.9005C2.43188 27.018 2.31446 27.7812 2.81351 28.1041C4.86843 29.3958 9.03698 31.5388 14.3504 31.9791C14.4972 34.2102 16.3173 35.9715 18.5777 35.9715C20.7781 35.9715 22.592 34.2963 22.8119 32.1534C22.8349 31.9292 23.043 31.7616 23.2643 31.8039C23.9224 31.9295 24.5966 32.0085 25.2709 32.0085C31.3475 32.0085 36.25 27.0767 36.25 21.0293C36.25 14.982 31.6411 10.0208 25.5644 10.0208Z" fill="url(#paint17_radial_8_3296)" fill-opacity="0.8"/>
<path d="M25.5644 10.0208C25.447 10.0208 25.0654 10.0502 24.9479 10.0502C23.6269 7.37878 20.8968 5.5 17.697 5.5C13.2055 5.5 9.53603 9.14015 9.53603 13.661C9.53603 15.4535 10.1289 17.1014 11.1218 18.4423C11.8399 19.412 12.0979 20.7524 11.3344 21.6868C9.42659 24.0214 6.72608 26.1922 3.019 26.9005C2.43188 27.018 2.31446 27.7812 2.81351 28.1041C4.86843 29.3958 9.03698 31.5388 14.3504 31.9791C14.4972 34.2102 16.3173 35.9715 18.5777 35.9715C20.7781 35.9715 22.592 34.2963 22.8119 32.1534C22.8349 31.9292 23.043 31.7616 23.2643 31.8039C23.9224 31.9295 24.5966 32.0085 25.2709 32.0085C31.3475 32.0085 36.25 27.0767 36.25 21.0293C36.25 14.982 31.6411 10.0208 25.5644 10.0208Z" fill="url(#paint18_radial_8_3296)"/>
<path d="M25.5644 10.0208C25.447 10.0208 25.0654 10.0502 24.9479 10.0502C23.6269 7.37878 20.8968 5.5 17.697 5.5C13.2055 5.5 9.53603 9.14015 9.53603 13.661C9.53603 15.4535 10.1289 17.1014 11.1218 18.4423C11.8399 19.412 12.0979 20.7524 11.3344 21.6868C9.42659 24.0214 6.72608 26.1922 3.019 26.9005C2.43188 27.018 2.31446 27.7812 2.81351 28.1041C4.86843 29.3958 9.03698 31.5388 14.3504 31.9791C14.4972 34.2102 16.3173 35.9715 18.5777 35.9715C20.7781 35.9715 22.592 34.2963 22.8119 32.1534C22.8349 31.9292 23.043 31.7616 23.2643 31.8039C23.9224 31.9295 24.5966 32.0085 25.2709 32.0085C31.3475 32.0085 36.25 27.0767 36.25 21.0293C36.25 14.982 31.6411 10.0208 25.5644 10.0208Z" fill="url(#paint19_radial_8_3296)" fill-opacity="0.8"/>
<path d="M25.5644 10.0208C25.447 10.0208 25.0654 10.0502 24.9479 10.0502C23.6269 7.37878 20.8968 5.5 17.697 5.5C13.2055 5.5 9.53603 9.14015 9.53603 13.661C9.53603 15.4535 10.1289 17.1014 11.1218 18.4423C11.8399 19.412 12.0979 20.7524 11.3344 21.6868C9.42659 24.0214 6.72608 26.1922 3.019 26.9005C2.43188 27.018 2.31446 27.7812 2.81351 28.1041C4.86843 29.3958 9.03698 31.5388 14.3504 31.9791C14.4972 34.2102 16.3173 35.9715 18.5777 35.9715C20.7781 35.9715 22.592 34.2963 22.8119 32.1534C22.8349 31.9292 23.043 31.7616 23.2643 31.8039C23.9224 31.9295 24.5966 32.0085 25.2709 32.0085C31.3475 32.0085 36.25 27.0767 36.25 21.0293C36.25 14.982 31.6411 10.0208 25.5644 10.0208Z" fill="url(#paint20_radial_8_3296)"/>
<path d="M25.5644 10.0208C25.447 10.0208 25.0654 10.0502 24.9479 10.0502C23.6269 7.37878 20.8968 5.5 17.697 5.5C13.2055 5.5 9.53603 9.14015 9.53603 13.661C9.53603 15.4535 10.1289 17.1014 11.1218 18.4423C11.8399 19.412 12.0979 20.7524 11.3344 21.6868C9.42659 24.0214 6.72608 26.1922 3.019 26.9005C2.43188 27.018 2.31446 27.7812 2.81351 28.1041C4.86843 29.3958 9.03698 31.5388 14.3504 31.9791C14.4972 34.2102 16.3173 35.9715 18.5777 35.9715C20.7781 35.9715 22.592 34.2963 22.8119 32.1534C22.8349 31.9292 23.043 31.7616 23.2643 31.8039C23.9224 31.9295 24.5966 32.0085 25.2709 32.0085C31.3475 32.0085 36.25 27.0767 36.25 21.0293C36.25 14.982 31.6411 10.0208 25.5644 10.0208Z" fill="url(#paint21_radial_8_3296)"/>
<path d="M25.5644 10.0208C25.447 10.0208 25.0654 10.0502 24.9479 10.0502C23.6269 7.37878 20.8968 5.5 17.697 5.5C13.2055 5.5 9.53603 9.14015 9.53603 13.661C9.53603 15.4535 10.1289 17.1014 11.1218 18.4423C11.8399 19.412 12.0979 20.7524 11.3344 21.6868C9.42659 24.0214 6.72608 26.1922 3.019 26.9005C2.43188 27.018 2.31446 27.7812 2.81351 28.1041C4.86843 29.3958 9.03698 31.5388 14.3504 31.9791C14.4972 34.2102 16.3173 35.9715 18.5777 35.9715C20.7781 35.9715 22.592 34.2963 22.8119 32.1534C22.8349 31.9292 23.043 31.7616 23.2643 31.8039C23.9224 31.9295 24.5966 32.0085 25.2709 32.0085C31.3475 32.0085 36.25 27.0767 36.25 21.0293C36.25 14.982 31.6411 10.0208 25.5644 10.0208Z" fill="url(#paint22_radial_8_3296)"/>
<path d="M25.5644 10.0208C25.447 10.0208 25.0654 10.0502 24.9479 10.0502C23.6269 7.37878 20.8968 5.5 17.697 5.5C13.2055 5.5 9.53603 9.14015 9.53603 13.661C9.53603 15.4535 10.1289 17.1014 11.1218 18.4423C11.8399 19.412 12.0979 20.7524 11.3344 21.6868C9.42659 24.0214 6.72608 26.1922 3.019 26.9005C2.43188 27.018 2.31446 27.7812 2.81351 28.1041C4.86843 29.3958 9.03698 31.5388 14.3504 31.9791C14.4972 34.2102 16.3173 35.9715 18.5777 35.9715C20.7781 35.9715 22.592 34.2963 22.8119 32.1534C22.8349 31.9292 23.043 31.7616 23.2643 31.8039C23.9224 31.9295 24.5966 32.0085 25.2709 32.0085C31.3475 32.0085 36.25 27.0767 36.25 21.0293C36.25 14.982 31.6411 10.0208 25.5644 10.0208Z" fill="url(#paint23_radial_8_3296)"/>
<path d="M25.5644 10.0208C25.447 10.0208 25.0654 10.0502 24.9479 10.0502C23.6269 7.37878 20.8968 5.5 17.697 5.5C13.2055 5.5 9.53603 9.14015 9.53603 13.661C9.53603 15.4535 10.1289 17.1014 11.1218 18.4423C11.8399 19.412 12.0979 20.7524 11.3344 21.6868C9.42659 24.0214 6.72608 26.1922 3.019 26.9005C2.43188 27.018 2.31446 27.7812 2.81351 28.1041C4.86843 29.3958 9.03698 31.5388 14.3504 31.9791C14.4972 34.2102 16.3173 35.9715 18.5777 35.9715C20.7781 35.9715 22.592 34.2963 22.8119 32.1534C22.8349 31.9292 23.043 31.7616 23.2643 31.8039C23.9224 31.9295 24.5966 32.0085 25.2709 32.0085C31.3475 32.0085 36.25 27.0767 36.25 21.0293C36.25 14.982 31.6411 10.0208 25.5644 10.0208Z" fill="url(#paint24_radial_8_3296)"/>
<path d="M25.5644 10.0208C25.447 10.0208 25.0654 10.0502 24.9479 10.0502C23.6269 7.37878 20.8968 5.5 17.697 5.5C13.2055 5.5 9.53603 9.14015 9.53603 13.661C9.53603 15.4535 10.1289 17.1014 11.1218 18.4423C11.8399 19.412 12.0979 20.7524 11.3344 21.6868C9.42659 24.0214 6.72608 26.1922 3.019 26.9005C2.43188 27.018 2.31446 27.7812 2.81351 28.1041C4.86843 29.3958 9.03698 31.5388 14.3504 31.9791C14.4972 34.2102 16.3173 35.9715 18.5777 35.9715C20.7781 35.9715 22.592 34.2963 22.8119 32.1534C22.8349 31.9292 23.043 31.7616 23.2643 31.8039C23.9224 31.9295 24.5966 32.0085 25.2709 32.0085C31.3475 32.0085 36.25 27.0767 36.25 21.0293C36.25 14.982 31.6411 10.0208 25.5644 10.0208Z" fill="url(#paint25_radial_8_3296)"/>
<path d="M25.5644 10.0208C25.447 10.0208 25.0654 10.0502 24.9479 10.0502C23.6269 7.37878 20.8968 5.5 17.697 5.5C13.2055 5.5 9.53603 9.14015 9.53603 13.661C9.53603 15.4535 10.1289 17.1014 11.1218 18.4423C11.8399 19.412 12.0979 20.7524 11.3344 21.6868C9.42659 24.0214 6.72608 26.1922 3.019 26.9005C2.43188 27.018 2.31446 27.7812 2.81351 28.1041C4.86843 29.3958 9.03698 31.5388 14.3504 31.9791C14.4972 34.2102 16.3173 35.9715 18.5777 35.9715C20.7781 35.9715 22.592 34.2963 22.8119 32.1534C22.8349 31.9292 23.043 31.7616 23.2643 31.8039C23.9224 31.9295 24.5966 32.0085 25.2709 32.0085C31.3475 32.0085 36.25 27.0767 36.25 21.0293C36.25 14.982 31.6411 10.0208 25.5644 10.0208Z" fill="url(#paint26_radial_8_3296)"/>
<path d="M25.5644 10.0208C25.447 10.0208 25.0654 10.0502 24.9479 10.0502C23.6269 7.37878 20.8968 5.5 17.697 5.5C13.2055 5.5 9.53603 9.14015 9.53603 13.661C9.53603 15.4535 10.1289 17.1014 11.1218 18.4423C11.8399 19.412 12.0979 20.7524 11.3344 21.6868C9.42659 24.0214 6.72608 26.1922 3.019 26.9005C2.43188 27.018 2.31446 27.7812 2.81351 28.1041C4.86843 29.3958 9.03698 31.5388 14.3504 31.9791C14.4972 34.2102 16.3173 35.9715 18.5777 35.9715C20.7781 35.9715 22.592 34.2963 22.8119 32.1534C22.8349 31.9292 23.043 31.7616 23.2643 31.8039C23.9224 31.9295 24.5966 32.0085 25.2709 32.0085C31.3475 32.0085 36.25 27.0767 36.25 21.0293C36.25 14.982 31.6411 10.0208 25.5644 10.0208Z" fill="url(#paint27_radial_8_3296)" fill-opacity="0.9"/>
</g>
</g>
<defs>
<radialGradient id="paint0_radial_8_3296" cx="0" cy="0" r="1" gradientUnits="userSpaceOnUse" gradientTransform="translate(15.5657 24.8824) rotate(52.125) scale(10.4597 20.9355)">
<stop stop-color="#34A2C9"/>
<stop offset="1" stop-color="#34A2C9" stop-opacity="0"/>
</radialGradient>
<radialGradient id="paint1_radial_8_3296" cx="0" cy="0" r="1" gradientUnits="userSpaceOnUse" gradientTransform="translate(36.9405 20.7358) rotate(169.355) scale(15.4951 26.5664)">
<stop stop-color="#5DE8FF"/>
<stop offset="1" stop-color="#5DE8FF" stop-opacity="0"/>
</radialGradient>
<radialGradient id="paint2_radial_8_3296" cx="0" cy="0" r="1" gradientUnits="userSpaceOnUse" gradientTransform="translate(28.1337 32.2214) rotate(-92.1017) scale(10.0061 9.99343)">
<stop stop-color="#2E80BF"/>
<stop offset="1" stop-color="#2E80BF" stop-opacity="0"/>
</radialGradient>
<radialGradient id="paint3_radial_8_3296" cx="0" cy="0" r="1" gradientUnits="userSpaceOnUse" gradientTransform="translate(19.375 36.6707) rotate(-84.8746) scale(8.704 9.64047)">
<stop stop-color="#3678B3"/>
<stop offset="1" stop-color="#3678B3" stop-opacity="0"/>
</radialGradient>
<radialGradient id="paint4_radial_8_3296" cx="0" cy="0" r="1" gradientUnits="userSpaceOnUse" gradientTransform="translate(6.20847 28.2767) rotate(-10.8987) scale(15.041 7.25195)">
<stop stop-color="#4ACFEC"/>
<stop offset="1" stop-color="#4ACFEC" stop-opacity="0"/>
</radialGradient>
<radialGradient id="paint5_radial_8_3296" cx="0" cy="0" r="1" gradientUnits="userSpaceOnUse" gradientTransform="translate(14.0941 33.6394) rotate(-40.1937) scale(6.91339 4.55885)">
<stop offset="0.28722" stop-color="#3777AF"/>
<stop offset="1" stop-color="#3777AF" stop-opacity="0"/>
</radialGradient>
<radialGradient id="paint6_radial_8_3296" cx="0" cy="0" r="1" gradientUnits="userSpaceOnUse" gradientTransform="translate(22.7212 10.2044) rotate(149.808) scale(11.6748 14.3823)">
<stop stop-color="#5FF5FF"/>
<stop offset="1" stop-color="#5FF5FF" stop-opacity="0"/>
</radialGradient>
<radialGradient id="paint7_radial_8_3296" cx="0" cy="0" r="1" gradientUnits="userSpaceOnUse" gradientTransform="translate(28.7759 6.9936) rotate(114.608) scale(13.2182 13.8233)">
<stop stop-color="#66F0FF"/>
<stop offset="1" stop-color="#66F0FF" stop-opacity="0"/>
</radialGradient>
<radialGradient id="paint8_radial_8_3296" cx="0" cy="0" r="1" gradientUnits="userSpaceOnUse" gradientTransform="translate(36.25 13.9657) rotate(158.756) scale(13.9246 14.5621)">
<stop stop-color="#66F0FF"/>
<stop offset="1" stop-color="#66F0FF" stop-opacity="0"/>
</radialGradient>
<radialGradient id="paint9_radial_8_3296" cx="0" cy="0" r="1" gradientUnits="userSpaceOnUse" gradientTransform="translate(18.6634 31.4302) rotate(96.0804) scale(4.56665 4.77571)">
<stop stop-color="#56E4FE"/>
<stop offset="1" stop-color="#66F0FF" stop-opacity="0"/>
</radialGradient>
<radialGradient id="paint10_radial_8_3296" cx="0" cy="0" r="1" gradientUnits="userSpaceOnUse" gradientTransform="translate(17.4775 13.1626) rotate(-25.4633) scale(10.9728 10.7785)">
<stop stop-color="#2E80BF" stop-opacity="0"/>
<stop offset="0.644374" stop-color="#3D98C8" stop-opacity="0.77"/>
<stop offset="0.820554" stop-color="#3D98C8" stop-opacity="0"/>
</radialGradient>
<radialGradient id="paint11_radial_8_3296" cx="0" cy="0" r="1" gradientUnits="userSpaceOnUse" gradientTransform="translate(5.39807 21.7482) rotate(60.1541) scale(6.30936 11.528)">
<stop stop-color="#2E80BF" stop-opacity="0"/>
<stop offset="0.575414" stop-color="#3D98C8" stop-opacity="0.77"/>
<stop offset="0.785281" stop-color="#3D98C8" stop-opacity="0"/>
</radialGradient>
<radialGradient id="paint12_radial_8_3296" cx="0" cy="0" r="1" gradientUnits="userSpaceOnUse" gradientTransform="translate(5.29548 32.8746) rotate(124.974) scale(4.87698 40.1497)">
<stop stop-color="#2E80BF" stop-opacity="0"/>
<stop offset="0.575414" stop-color="#3D98C8" stop-opacity="0.77"/>
<stop offset="0.785281" stop-color="#3D98C8" stop-opacity="0"/>
</radialGradient>
<radialGradient id="paint13_radial_8_3296" cx="0" cy="0" r="1" gradientUnits="userSpaceOnUse" gradientTransform="translate(11.3262 33.2379) rotate(132.108) scale(3.6843 4.44411)">
<stop stop-color="#2E80BF" stop-opacity="0"/>
<stop offset="0.575414" stop-color="#3D98C8" stop-opacity="0.77"/>
<stop offset="0.785281" stop-color="#3D98C8" stop-opacity="0"/>
</radialGradient>
<radialGradient id="paint14_radial_8_3296" cx="0" cy="0" r="1" gradientUnits="userSpaceOnUse" gradientTransform="translate(7.69325 32.0753) rotate(105.629) scale(4.04546 8.86365)">
<stop offset="0.37157" stop-color="#2E80BF" stop-opacity="0.61"/>
<stop offset="0.734801" stop-color="#3D98C8" stop-opacity="0"/>
</radialGradient>
<radialGradient id="paint15_radial_8_3296" cx="0" cy="0" r="1" gradientUnits="userSpaceOnUse" gradientTransform="translate(19.375 9.48289) rotate(-20.1746) scale(11.5485 9.52816)">
<stop stop-color="#49D1EE"/>
<stop offset="0.820554" stop-color="#49D1EE" stop-opacity="0"/>
</radialGradient>
<radialGradient id="paint16_radial_8_3296" cx="0" cy="0" r="1" gradientUnits="userSpaceOnUse" gradientTransform="translate(21.7233 8.72808) rotate(106.505) scale(8.26613 12.1427)">
<stop stop-color="#5CE7FF"/>
<stop offset="0.769018" stop-color="#5CE7FF" stop-opacity="0"/>
</radialGradient>
<radialGradient id="paint17_radial_8_3296" cx="0" cy="0" r="1" gradientUnits="userSpaceOnUse" gradientTransform="translate(17.7536 13.8062) rotate(-29.1035) scale(11.0224 11.2967)">
<stop offset="0.698349" stop-color="#4BC0E2" stop-opacity="0"/>
<stop offset="0.737164" stop-color="#4BC0E2" stop-opacity="0.71"/>
<stop offset="0.755374" stop-color="#4BC0E2" stop-opacity="0"/>
</radialGradient>
<radialGradient id="paint18_radial_8_3296" cx="0" cy="0" r="1" gradientUnits="userSpaceOnUse" gradientTransform="translate(14.278 22.2702) rotate(127.875) scale(3.10495 6.804)">
<stop offset="0.478433" stop-color="#3FB9DC"/>
<stop offset="1" stop-color="#3FB9DC" stop-opacity="0"/>
</radialGradient>
<radialGradient id="paint19_radial_8_3296" cx="0" cy="0" r="1" gradientUnits="userSpaceOnUse" gradientTransform="translate(9.50266 20.7356) rotate(119.971) scale(4.50463 3.70278)">
<stop stop-color="#2E80BF" stop-opacity="0"/>
<stop offset="0.575414" stop-color="#3D98C8" stop-opacity="0.77"/>
<stop offset="0.785281" stop-color="#3D98C8" stop-opacity="0"/>
</radialGradient>
<radialGradient id="paint20_radial_8_3296" cx="0" cy="0" r="1" gradientUnits="userSpaceOnUse" gradientTransform="translate(25.9611 10.4903) rotate(99.5857) scale(2.76613 8.16688)">
<stop offset="0.332835" stop-color="#58DCF7"/>
<stop offset="1" stop-color="#5CE7FF" stop-opacity="0"/>
</radialGradient>
<radialGradient id="paint21_radial_8_3296" cx="0" cy="0" r="1" gradientUnits="userSpaceOnUse" gradientTransform="translate(14.3822 19.3953) rotate(130.465) scale(1.76163 4.59919)">
<stop stop-color="#3092CB"/>
<stop offset="1" stop-color="#3092CB" stop-opacity="0"/>
</radialGradient>
<radialGradient id="paint22_radial_8_3296" cx="0" cy="0" r="1" gradientUnits="userSpaceOnUse" gradientTransform="translate(26.4912 20.7356) rotate(-9.12747) scale(15.6594 14.3725)">
<stop offset="0.623807" stop-color="#2E96D5" stop-opacity="0.92"/>
<stop offset="0.763083" stop-color="#2E96D4" stop-opacity="0"/>
</radialGradient>
<radialGradient id="paint23_radial_8_3296" cx="0" cy="0" r="1" gradientUnits="userSpaceOnUse" gradientTransform="translate(29.5099 20.0015) rotate(-77.7242) scale(22.805 21.0826)">
<stop stop-color="#4CCDEF" stop-opacity="0.86"/>
<stop offset="0.501715" stop-color="#5CE7FF" stop-opacity="0"/>
</radialGradient>
<radialGradient id="paint24_radial_8_3296" cx="0" cy="0" r="1" gradientUnits="userSpaceOnUse" gradientTransform="translate(19.0325 31.1191) rotate(128.853) scale(3.14719 3.72191)">
<stop stop-color="#56E4FE" stop-opacity="0.67"/>
<stop offset="1" stop-color="#66F0FF" stop-opacity="0"/>
</radialGradient>
<radialGradient id="paint25_radial_8_3296" cx="0" cy="0" r="1" gradientUnits="userSpaceOnUse" gradientTransform="translate(18.7137 30.7785) rotate(117.051) scale(3.61082 4.04512)">
<stop stop-color="#57E7FF" stop-opacity="0.76"/>
<stop offset="1" stop-color="#46ADD7" stop-opacity="0"/>
</radialGradient>
<radialGradient id="paint26_radial_8_3296" cx="0" cy="0" r="1" gradientUnits="userSpaceOnUse" gradientTransform="translate(19.5563 29.8055) rotate(124.461) scale(1.87433 3.16697)">
<stop stop-color="#57E7FF"/>
<stop offset="1" stop-color="#57E7FF" stop-opacity="0"/>
</radialGradient>
<radialGradient id="paint27_radial_8_3296" cx="0" cy="0" r="1" gradientUnits="userSpaceOnUse" gradientTransform="translate(35.3207 14.6868) rotate(145.634) scale(15.416 13.8527)">
<stop offset="0.304801" stop-color="#5CE7FF"/>
<stop offset="1" stop-color="#5CE7FF" stop-opacity="0"/>
</radialGradient>
</defs>
</svg>
